<?xml version="1.0" encoding="UTF-8"?>
<svg width="190px" height="255px" viewBox="0 0 190 255" version="1.1" xmlns="http://www.w3.org/2000/svg" xmlns:xlink="http://www.w3.org/1999/xlink">
    <!-- Generator: Sketch 47.1 (45422) - http://www.bohemiancoding.com/sketch -->
    <!-- <title>About</title> -->
    <desc>Created with Sketch.</desc>
    <defs></defs>
    <g id="Page-7" stroke="none" stroke-width="1" fill="none" fill-rule="evenodd">
        <g id="ABOUT_w" transform="translate(5.000000, 5.000000)">
            <g id="About-White">
                <circle id="Oval-6" stroke="#FFFFFF" stroke-width="10" cx="90" cy="90" r="90"></circle>
                <path d="M52,64.635742 C52,59.842424 53.538884,54.9861086 56.616699,50.0666504 C59.694514,45.1471922 64.185029,41.0729328 70.088379,37.84375 C75.991729,34.6145672 82.878867,33 90.75,33 C98.066117,33 104.524386,34.3496773 110.125,37.0490723 C115.725614,39.7484673 120.052149,43.4190849 123.104736,48.0610352 C126.157323,52.7029854 127.683594,57.7485079 127.683594,63.197754 C127.683594,67.486512 126.813241,71.245427 125.07251,74.474609 C123.331778,77.703792 121.263114,80.491443 118.866455,82.837646 C116.469796,85.18385 112.168488,89.131971 105.962402,94.682129 C104.246899,96.246264 102.871994,97.621169 101.837646,98.806885 C100.803299,99.9926 100.033857,101.077388 99.529297,102.061279 C99.024737,103.045171 98.633709,104.029048 98.356201,105.012939 C98.078693,105.996831 97.662438,107.724923 97.107422,110.197266 C96.148758,115.444688 93.146672,118.068359 88.101074,118.068359 C85.477363,118.068359 83.269947,117.210621 81.47876,115.495117 C79.687572,113.779614 78.791992,111.231625 78.791992,107.851074 C78.791992,103.612772 79.44791,99.942154 80.759766,96.839111 C82.071621,93.736068 83.812326,91.011486 85.981934,88.665283 C88.151541,86.31908 91.077944,83.531429 94.76123,80.302246 C97.990413,77.476711 100.323967,75.344978 101.761963,73.906982 C103.199958,72.468987 104.410884,70.867034 105.394775,69.101074 C106.378667,67.335115 106.870605,65.417816 106.870605,63.349121 C106.870605,59.312643 105.369563,55.9069149 102.367432,53.1318359 C99.365301,50.356757 95.492862,48.9692383 90.75,48.9692383 C85.199842,48.9692383 81.112969,50.3693708 78.489258,53.1696777 C75.865547,55.9699847 73.645517,60.094699 71.829102,65.543945 C70.113598,71.245471 66.859236,74.096191 62.065918,74.096191 C59.240383,74.096191 56.856374,73.099701 54.913818,71.106689 C52.971263,69.113678 52,66.956717 52,64.635742 L52,64.635742 Z M88.933594,147.584961 C85.855779,147.584961 83.169038,146.58847 80.873291,144.595459 C78.577544,142.602448 77.429688,139.814797 77.429688,136.232422 C77.429688,133.053695 78.539702,130.379568 80.759766,128.209961 C82.979829,126.040354 85.704411,124.955566 88.933594,124.955566 C92.112321,124.955566 94.786447,126.040354 96.956055,128.209961 C99.125662,130.379568 100.210449,133.053695 100.210449,136.232422 C100.210449,139.764341 99.075207,142.539378 96.804688,144.557617 C94.534168,146.575856 91.910497,147.584961 88.933594,147.584961 L88.933594,147.584961 Z" id="?" fill="#FFFFFF" fill-rule="nonzero"></path>
            </g>
            <g id="ABOUT" transform="translate(30.000000, 216.000000)" fill="#FFFFFF">
                <path d="M16.734375,27.7265625 L7.48828125,27.7265625 L5.73046875,33 L0.123046875,33 L9.65039062,7.40625 L14.5371094,7.40625 L24.1171875,33 L18.5097656,33 L16.734375,27.7265625 Z M8.91210938,23.4550781 L15.3105469,23.4550781 L12.09375,13.875 L8.91210938,23.4550781 Z M27.2078125,33 L27.2078125,7.40625 L36.1726562,7.40625 C39.2781405,7.40625 41.6335857,8.00097062 43.2390625,9.19042969 C44.8445393,10.3798888 45.6472656,12.1230354 45.6472656,14.4199219 C45.6472656,15.6738344 45.3250032,16.7783155 44.6804687,17.7333984 C44.0359343,18.6884813 43.1394589,19.3886696 41.9910156,19.8339844 C43.3035222,20.162111 44.3376915,20.8242138 45.0935547,21.8203125 C45.8494178,22.8164112 46.2273437,24.035149 46.2273437,25.4765625 C46.2273437,27.9375123 45.4421953,29.8007749 43.871875,31.0664063 C42.3015546,32.3320376 40.0632958,32.9765624 37.1570312,33 L27.2078125,33 Z M32.48125,21.8554688 L32.48125,28.7636719 L36.9988281,28.7636719 C38.2410218,28.7636719 39.2107387,28.4677764 39.9080078,27.8759766 C40.6052769,27.2841767 40.9539062,26.4668021 40.9539062,25.4238281 C40.9539062,23.0800664 39.7410277,21.8906252 37.3152344,21.8554688 L32.48125,21.8554688 Z M32.48125,18.1289062 L36.3835937,18.1289062 C39.0437633,18.082031 40.3738281,17.0214947 40.3738281,14.9472656 C40.3738281,13.7871036 40.0369174,12.952151 39.3630859,12.4423828 C38.6892544,11.9326146 37.6257885,11.6777344 36.1726562,11.6777344 L32.48125,11.6777344 L32.48125,18.1289062 Z M71.9058594,20.7832031 C71.9058594,23.302747 71.4605513,25.5117093 70.5699219,27.4101562 C69.6792924,29.3086032 68.4048911,30.7734323 66.7466797,31.8046875 C65.0884682,32.8359427 63.1871201,33.3515625 61.0425781,33.3515625 C58.9214737,33.3515625 57.0289145,32.841802 55.3648437,31.8222656 C53.7007729,30.8027293 52.4117233,29.3466892 51.4976562,27.4541016 C50.5835892,25.561514 50.1207032,23.3847779 50.1089844,20.9238281 L50.1089844,19.6582031 C50.1089844,17.1386593 50.5630814,14.920908 51.471289,13.0048828 C52.3794967,11.0888576 53.662687,9.61816919 55.3208984,8.59277344 C56.9791098,7.56737769 58.8745987,7.0546875 61.0074219,7.0546875 C63.140245,7.0546875 65.0357339,7.56737769 66.6939453,8.59277344 C68.3521567,9.61816919 69.635347,11.0888576 70.5435547,13.0048828 C71.4517623,14.920908 71.9058594,17.1328 71.9058594,19.640625 L71.9058594,20.7832031 Z M66.5621094,19.6230469 C66.5621094,16.9394397 66.0816454,14.9003976 65.1207031,13.5058594 C64.1597608,12.1113212 62.7886808,11.4140625 61.0074219,11.4140625 C59.2378818,11.4140625 57.872661,12.1025322 56.9117187,13.4794922 C55.9507764,14.8564522 55.4644532,16.8749867 55.4527344,19.5351562 L55.4527344,20.7832031 C55.4527344,23.3964974 55.9331983,25.4238209 56.8941406,26.8652344 C57.8550829,28.3066478 59.2378816,29.0273438 61.0425781,29.0273438 C62.8121182,29.0273438 64.1714796,28.3330148 65.1207031,26.9443359 C66.0699266,25.5556571 66.5503905,23.5312633 66.5621094,20.8710938 L66.5621094,19.6230469 Z M95.8089843,7.40625 L95.8089843,24.2636719 C95.8089843,27.0644671 94.9330165,29.2792887 93.1810547,30.9082031 C91.4290928,32.5371175 89.035562,33.3515625 86.0003906,33.3515625 C83.0120944,33.3515625 80.6390713,32.5605548 78.88125,30.9785156 C77.1234287,29.3964765 76.2269533,27.2226701 76.1917968,24.4570312 L76.1917968,7.40625 L81.4652343,7.40625 L81.4652343,24.2988281 C81.4652343,25.9746178 81.8665975,27.1962852 82.6693359,27.9638672 C83.4720743,28.7314492 84.5824147,29.1152344 86.0003906,29.1152344 C88.9652492,29.1152344 90.4710935,27.5566562 90.5179687,24.4394531 L90.5179687,7.40625 L95.8089843,7.40625 Z M120.098828,11.6777344 L112.258984,11.6777344 L112.258984,33 L106.985547,33 L106.985547,11.6777344 L99.2511718,11.6777344 L99.2511718,7.40625 L120.098828,7.40625 L120.098828,11.6777344 Z"></path>
            </g>
        </g>
    </g>
</svg>