<?xml version="1.0" encoding="UTF-8"?>
<svg width="190px" height="255px" viewBox="0 0 190 255" version="1.1" xmlns="http://www.w3.org/2000/svg" xmlns:xlink="http://www.w3.org/1999/xlink">
    <!-- Generator: Sketch 47.1 (45422) - http://www.bohemiancoding.com/sketch -->
    <!-- <title>About</title> -->
    <desc>Created with Sketch.</desc>
    <defs></defs>
    <g id="Page-5" stroke="none" stroke-width="1" fill="none" fill-rule="evenodd">
        <g id="ABOUT_g" transform="translate(5.000000, 5.000000)">
            <g id="About-grey" fill-rule="nonzero">
                <circle id="Oval-4" stroke="#444444" stroke-width="10" fill="#D8D8D8" cx="90" cy="90" r="90"></circle>
                <path d="M56,65.635742 C56,60.842424 57.538884,55.9861086 60.616699,51.0666504 C63.694514,46.1471922 68.185029,42.0729328 74.088379,38.84375 C79.991729,35.6145672 86.878867,34 94.75,34 C102.066117,34 108.524386,35.3496773 114.125,38.0490723 C119.725614,40.7484673 124.052149,44.4190849 127.104736,49.0610352 C130.157323,53.7029854 131.683594,58.7485079 131.683594,64.1977539 C131.683594,68.486512 130.813241,72.245427 129.07251,75.474609 C127.331778,78.703792 125.263114,81.491443 122.866455,83.837646 C120.469796,86.18385 116.168488,90.131971 109.962402,95.682129 C108.246899,97.246264 106.871994,98.621169 105.837646,99.806885 C104.803299,100.9926 104.033857,102.077388 103.529297,103.061279 C103.024737,104.045171 102.633709,105.029048 102.356201,106.012939 C102.078693,106.996831 101.662438,108.724923 101.107422,111.197266 C100.148758,116.444688 97.146672,119.068359 92.101074,119.068359 C89.477363,119.068359 87.269947,118.210621 85.47876,116.495117 C83.687572,114.779614 82.791992,112.231625 82.791992,108.851074 C82.791992,104.612772 83.44791,100.942154 84.759766,97.839111 C86.071621,94.736068 87.812326,92.011486 89.981934,89.665283 C92.151541,87.31908 95.077944,84.531429 98.76123,81.302246 C101.990413,78.476711 104.323967,76.344978 105.761963,74.906982 C107.199958,73.468987 108.410884,71.867034 109.394775,70.101074 C110.378667,68.335115 110.870605,66.417816 110.870605,64.3491211 C110.870605,60.3126426 109.369563,56.9069149 106.367432,54.1318359 C103.365301,51.356757 99.492862,49.9692383 94.75,49.9692383 C89.199842,49.9692383 85.112969,51.3693708 82.489258,54.1696777 C79.865547,56.9699847 77.645517,61.0946993 75.829102,66.543945 C74.113598,72.245471 70.859236,75.096191 66.065918,75.096191 C63.240383,75.096191 60.856374,74.099701 58.913818,72.106689 C56.971263,70.113678 56,67.956717 56,65.635742 L56,65.635742 Z M92.933594,148.584961 C89.855779,148.584961 87.169038,147.58847 84.873291,145.595459 C82.577544,143.602448 81.429688,140.814797 81.429688,137.232422 C81.429688,134.053695 82.539702,131.379568 84.759766,129.209961 C86.979829,127.040354 89.704411,125.955566 92.933594,125.955566 C96.112321,125.955566 98.786447,127.040354 100.956055,129.209961 C103.125662,131.379568 104.210449,134.053695 104.210449,137.232422 C104.210449,140.764341 103.075207,143.539378 100.804688,145.557617 C98.534168,147.575856 95.910497,148.584961 92.933594,148.584961 L92.933594,148.584961 Z" id="?" fill="#444444"></path>
            </g>
            <g id="ABOUT" transform="translate(30.000000, 223.000000)" fill="#444444">
                <path d="M16.734375,20.7265625 L7.48828125,20.7265625 L5.73046875,26 L0.123046875,26 L9.65039062,0.40625 L14.5371094,0.40625 L24.1171875,26 L18.5097656,26 L16.734375,20.7265625 Z M8.91210938,16.4550781 L15.3105469,16.4550781 L12.09375,6.875 L8.91210938,16.4550781 Z M27.2078125,26 L27.2078125,0.40625 L36.1726562,0.40625 C39.2781405,0.40625 41.6335857,1.00097062 43.2390625,2.19042969 C44.8445393,3.37988876 45.6472656,5.12303539 45.6472656,7.41992188 C45.6472656,8.67383439 45.3250032,9.77831554 44.6804687,10.7333984 C44.0359343,11.6884813 43.1394589,12.3886696 41.9910156,12.8339844 C43.3035222,13.162111 44.3376915,13.8242138 45.0935547,14.8203125 C45.8494178,15.8164112 46.2273437,17.035149 46.2273437,18.4765625 C46.2273437,20.9375123 45.4421953,22.8007749 43.871875,24.0664063 C42.3015546,25.3320376 40.0632958,25.9765624 37.1570312,26 L27.2078125,26 Z M32.48125,14.8554688 L32.48125,21.7636719 L36.9988281,21.7636719 C38.2410218,21.7636719 39.2107387,21.4677764 39.9080078,20.8759766 C40.6052769,20.2841767 40.9539062,19.4668021 40.9539062,18.4238281 C40.9539062,16.0800664 39.7410277,14.8906252 37.3152344,14.8554688 L32.48125,14.8554688 Z M32.48125,11.1289062 L36.3835937,11.1289062 C39.0437633,11.082031 40.3738281,10.0214947 40.3738281,7.94726562 C40.3738281,6.78710357 40.0369174,5.95215099 39.3630859,5.44238281 C38.6892544,4.93261464 37.6257885,4.67773438 36.1726562,4.67773438 L32.48125,4.67773438 L32.48125,11.1289062 Z M71.9058594,13.7832031 C71.9058594,16.302747 71.4605513,18.5117093 70.5699219,20.4101562 C69.6792924,22.3086032 68.4048911,23.7734323 66.7466797,24.8046875 C65.0884682,25.8359427 63.1871201,26.3515625 61.0425781,26.3515625 C58.9214737,26.3515625 57.0289145,25.841802 55.3648437,24.8222656 C53.7007729,23.8027293 52.4117233,22.3466892 51.4976562,20.4541016 C50.5835892,18.561514 50.1207032,16.3847779 50.1089844,13.9238281 L50.1089844,12.6582031 C50.1089844,10.1386593 50.5630814,7.92090802 51.471289,6.00488281 C52.3794967,4.08885761 53.662687,2.61816919 55.3208984,1.59277344 C56.9791098,0.567377686 58.8745987,0.0546875 61.0074219,0.0546875 C63.140245,0.0546875 65.0357339,0.567377686 66.6939453,1.59277344 C68.3521567,2.61816919 69.635347,4.08885761 70.5435547,6.00488281 C71.4517623,7.92090802 71.9058594,10.1328 71.9058594,12.640625 L71.9058594,13.7832031 Z M66.5621094,12.6230469 C66.5621094,9.93943971 66.0816454,7.9003976 65.1207031,6.50585938 C64.1597608,5.11132115 62.7886808,4.4140625 61.0074219,4.4140625 C59.2378818,4.4140625 57.872661,5.10253218 56.9117187,6.47949219 C55.9507764,7.8564522 55.4644532,9.8749867 55.4527344,12.5351562 L55.4527344,13.7832031 C55.4527344,16.3964974 55.9331983,18.4238209 56.8941406,19.8652344 C57.8550829,21.3066478 59.2378816,22.0273438 61.0425781,22.0273438 C62.8121182,22.0273438 64.1714796,21.3330148 65.1207031,19.9443359 C66.0699266,18.5556571 66.5503905,16.5312633 66.5621094,13.8710938 L66.5621094,12.6230469 Z M95.8089843,0.40625 L95.8089843,17.2636719 C95.8089843,20.0644671 94.9330165,22.2792887 93.1810547,23.9082031 C91.4290928,25.5371175 89.035562,26.3515625 86.0003906,26.3515625 C83.0120944,26.3515625 80.6390713,25.5605548 78.88125,23.9785156 C77.1234287,22.3964765 76.2269533,20.2226701 76.1917968,17.4570312 L76.1917968,0.40625 L81.4652343,0.40625 L81.4652343,17.2988281 C81.4652343,18.9746178 81.8665975,20.1962852 82.6693359,20.9638672 C83.4720743,21.7314492 84.5824147,22.1152344 86.0003906,22.1152344 C88.9652492,22.1152344 90.4710935,20.5566562 90.5179687,17.4394531 L90.5179687,0.40625 L95.8089843,0.40625 Z M120.098828,4.67773438 L112.258984,4.67773438 L112.258984,26 L106.985547,26 L106.985547,4.67773438 L99.2511718,4.67773438 L99.2511718,0.40625 L120.098828,0.40625 L120.098828,4.67773438 Z"></path>
            </g>
        </g>
    </g>
</svg>