<?xml version="1.0" encoding="UTF-8"?>
<svg width="190px" height="248px" viewBox="0 0 190 248" version="1.1" xmlns="http://www.w3.org/2000/svg" xmlns:xlink="http://www.w3.org/1999/xlink">
    <!-- Generator: Sketch 47.1 (45422) - http://www.bohemiancoding.com/sketch -->
    <!-- <title>About</title> -->
    <desc>Created with Sketch.</desc>
    <defs></defs>
    <g id="Page-1ABOUT_sel" stroke="none" stroke-width="1" fill="none" fill-rule="evenodd">
        <g id="ABOUT_sel" transform="translate(5.000000, 5.000000)">
            <path d="M46.734375,236.726562 L37.4882812,236.726562 L35.7304688,242 L30.1230469,242 L39.6503906,216.40625 L44.5371094,216.40625 L54.1171875,242 L48.5097656,242 L46.734375,236.726562 Z M38.9121094,232.455078 L45.3105469,232.455078 L42.09375,222.875 L38.9121094,232.455078 Z M57.2078125,242 L57.2078125,216.40625 L66.1726562,216.40625 C69.2781405,216.40625 71.6335857,217.000971 73.2390625,218.19043 C74.8445393,219.379889 75.6472656,221.123035 75.6472656,223.419922 C75.6472656,224.673834 75.3250032,225.778316 74.6804687,226.733398 C74.0359343,227.688481 73.1394589,228.38867 71.9910156,228.833984 C73.3035222,229.162111 74.3376915,229.824214 75.0935547,230.820312 C75.8494178,231.816411 76.2273437,233.035149 76.2273437,234.476562 C76.2273437,236.937512 75.4421953,238.800775 73.871875,240.066406 C72.3015546,241.332038 70.0632958,241.976562 67.1570312,242 L57.2078125,242 Z M62.48125,230.855469 L62.48125,237.763672 L66.9988281,237.763672 C68.2410218,237.763672 69.2107387,237.467776 69.9080078,236.875977 C70.6052769,236.284177 70.9539062,235.466802 70.9539062,234.423828 C70.9539062,232.080066 69.7410277,230.890625 67.3152344,230.855469 L62.48125,230.855469 Z M62.48125,227.128906 L66.3835937,227.128906 C69.0437633,227.082031 70.3738281,226.021495 70.3738281,223.947266 C70.3738281,222.787104 70.0369174,221.952151 69.3630859,221.442383 C68.6892544,220.932615 67.6257885,220.677734 66.1726562,220.677734 L62.48125,220.677734 L62.48125,227.128906 Z M101.905859,229.783203 C101.905859,232.302747 101.460551,234.511709 100.569922,236.410156 C99.6792924,238.308603 98.4048911,239.773432 96.7466797,240.804688 C95.0884682,241.835943 93.1871201,242.351562 91.0425781,242.351562 C88.9214737,242.351562 87.0289145,241.841802 85.3648437,240.822266 C83.7007729,239.802729 82.4117233,238.346689 81.4976562,236.454102 C80.5835892,234.561514 80.1207032,232.384778 80.1089844,229.923828 L80.1089844,228.658203 C80.1089844,226.138659 80.5630814,223.920908 81.471289,222.004883 C82.3794967,220.088858 83.662687,218.618169 85.3208984,217.592773 C86.9791098,216.567378 88.8745987,216.054688 91.0074219,216.054688 C93.140245,216.054688 95.0357339,216.567378 96.6939453,217.592773 C98.3521567,218.618169 99.635347,220.088858 100.543555,222.004883 C101.451762,223.920908 101.905859,226.1328 101.905859,228.640625 L101.905859,229.783203 Z M96.5621094,228.623047 C96.5621094,225.93944 96.0816454,223.900398 95.1207031,222.505859 C94.1597608,221.111321 92.7886808,220.414062 91.0074219,220.414062 C89.2378818,220.414062 87.872661,221.102532 86.9117187,222.479492 C85.9507764,223.856452 85.4644532,225.874987 85.4527344,228.535156 L85.4527344,229.783203 C85.4527344,232.396497 85.9331983,234.423821 86.8941406,235.865234 C87.8550829,237.306648 89.2378816,238.027344 91.0425781,238.027344 C92.8121182,238.027344 94.1714796,237.333015 95.1207031,235.944336 C96.0699266,234.555657 96.5503905,232.531263 96.5621094,229.871094 L96.5621094,228.623047 Z M125.808984,216.40625 L125.808984,233.263672 C125.808984,236.064467 124.933017,238.279289 123.181055,239.908203 C121.429093,241.537118 119.035562,242.351562 116.000391,242.351562 C113.012094,242.351562 110.639071,241.560555 108.88125,239.978516 C107.123429,238.396476 106.226953,236.22267 106.191797,233.457031 L106.191797,216.40625 L111.465234,216.40625 L111.465234,233.298828 C111.465234,234.974618 111.866598,236.196285 112.669336,236.963867 C113.472074,237.731449 114.582415,238.115234 116.000391,238.115234 C118.965249,238.115234 120.471093,236.556656 120.517969,233.439453 L120.517969,216.40625 L125.808984,216.40625 Z M150.098828,220.677734 L142.258984,220.677734 L142.258984,242 L136.985547,242 L136.985547,220.677734 L129.251172,220.677734 L129.251172,216.40625 L150.098828,216.40625 L150.098828,220.677734 Z" id="ABOUT" fill="#326496"></path>
            <g id="about-image-blue">
                <circle id="Oval-5" stroke="#9B9AAF" stroke-width="10" fill="#2A5681" fill-rule="nonzero" cx="90" cy="90" r="90"></circle>
                <path d="M52,64.635742 C52,59.842424 53.538884,54.9861086 56.616699,50.0666504 C59.694514,45.1471922 64.185029,41.0729328 70.088379,37.84375 C75.991729,34.6145672 82.878867,33 90.75,33 C98.066117,33 104.524386,34.3496773 110.125,37.0490723 C115.725614,39.7484673 120.052149,43.4190849 123.104736,48.0610352 C126.157323,52.7029854 127.683594,57.7485079 127.683594,63.197754 C127.683594,67.486512 126.813241,71.245427 125.07251,74.474609 C123.331778,77.703792 121.263114,80.491443 118.866455,82.837646 C116.469796,85.18385 112.168488,89.131971 105.962402,94.682129 C104.246899,96.246264 102.871994,97.621169 101.837646,98.806885 C100.803299,99.9926 100.033857,101.077388 99.529297,102.061279 C99.024737,103.045171 98.633709,104.029048 98.356201,105.012939 C98.078693,105.996831 97.662438,107.724923 97.107422,110.197266 C96.148758,115.444688 93.146672,118.068359 88.101074,118.068359 C85.477363,118.068359 83.269947,117.210621 81.47876,115.495117 C79.687572,113.779614 78.791992,111.231625 78.791992,107.851074 C78.791992,103.612772 79.44791,99.942154 80.759766,96.839111 C82.071621,93.736068 83.812326,91.011486 85.981934,88.665283 C88.151541,86.31908 91.077944,83.531429 94.76123,80.302246 C97.990413,77.476711 100.323967,75.344978 101.761963,73.906982 C103.199958,72.468987 104.410884,70.867034 105.394775,69.101074 C106.378667,67.335115 106.870605,65.417816 106.870605,63.349121 C106.870605,59.312643 105.369563,55.9069149 102.367432,53.1318359 C99.365301,50.356757 95.492862,48.9692383 90.75,48.9692383 C85.199842,48.9692383 81.112969,50.3693708 78.489258,53.1696777 C75.865547,55.9699847 73.645517,60.094699 71.829102,65.543945 C70.113598,71.245471 66.859236,74.096191 62.065918,74.096191 C59.240383,74.096191 56.856374,73.099701 54.913818,71.106689 C52.971263,69.113678 52,66.956717 52,64.635742 L52,64.635742 Z M88.933594,147.584961 C85.855779,147.584961 83.169038,146.58847 80.873291,144.595459 C78.577544,142.602448 77.429688,139.814797 77.429688,136.232422 C77.429688,133.053695 78.539702,130.379568 80.759766,128.209961 C82.979829,126.040354 85.704411,124.955566 88.933594,124.955566 C92.112321,124.955566 94.786447,126.040354 96.956055,128.209961 C99.125662,130.379568 100.210449,133.053695 100.210449,136.232422 C100.210449,139.764341 99.075207,142.539378 96.804688,144.557617 C94.534168,146.575856 91.910497,147.584961 88.933594,147.584961 L88.933594,147.584961 Z" id="?" fill="#FFFFFF" fill-rule="nonzero"></path>
                <circle id="Oval-20" stroke="#FFFDFD" stroke-width="3" cx="89.5" cy="89.5" r="84.5"></circle>
            </g>
        </g>
    </g>
</svg>