<?xml version="1.0" encoding="UTF-8"?>
<svg width="221px" height="255px" viewBox="0 0 221 255" version="1.1" xmlns="http://www.w3.org/2000/svg" xmlns:xlink="http://www.w3.org/1999/xlink">
    <!-- Generator: Sketch 47.1 (45422) - http://www.bohemiancoding.com/sketch -->
    <title>DISCLAIMER_w</title>
    <desc>Created with Sketch.</desc>
    <defs></defs>
    <g id="Page-11" stroke="none" stroke-width="1" fill="none" fill-rule="evenodd">
        <g id="DISCLAIMER_w" transform="translate(-1.000000, 5.000000)">
            <g id="CONTACT-US5" transform="translate(0.000000, 216.000000)" fill="#FFFFFF">
                <path d="M22.3769531,24.4746094 C22.1777334,27.2285294 21.161142,29.3964765 19.3271484,30.9785156 C17.4931549,32.5605548 15.0761869,33.3515625 12.0761719,33.3515625 C8.79490547,33.3515625 6.21387659,32.2470814 4.33300781,30.0380859 C2.45213903,27.8290905 1.51171875,24.7968943 1.51171875,20.9414062 L1.51171875,19.3769531 C1.51171875,16.9160033 1.94530816,14.7480562 2.8125,12.8730469 C3.67969184,10.9980375 4.91893726,9.55957532 6.53027344,8.55761719 C8.14160962,7.55565905 10.0136612,7.0546875 12.1464844,7.0546875 C15.0996241,7.0546875 17.4785066,7.84569521 19.2832031,9.42773438 C21.0878996,11.0097735 22.130858,13.2304545 22.4121094,16.0898438 L17.1386719,16.0898438 C17.009765,14.4374917 16.5498086,13.2392615 15.7587891,12.4951172 C14.9677695,11.7509728 13.76368,11.3789062 12.1464844,11.3789062 C10.3886631,11.3789062 9.07324655,12.0087828 8.20019531,13.2685547 C7.32714407,14.5283266 6.87890637,16.4824086 6.85546875,19.1308594 L6.85546875,21.0644531 C6.85546875,23.830092 7.27440987,25.8515561 8.11230469,27.1289062 C8.9501995,28.4062564 10.2714754,29.0449219 12.0761719,29.0449219 C13.7050863,29.0449219 14.9208944,28.6728553 15.7236328,27.9287109 C16.5263712,27.1845666 16.9863275,26.0332109 17.1035156,24.4746094 L22.3769531,24.4746094 Z M47.5632812,20.7832031 C47.5632812,23.302747 47.1179732,25.5117093 46.2273437,27.4101562 C45.3367143,29.3086032 44.062313,30.7734323 42.4041016,31.8046875 C40.7458901,32.8359427 38.844542,33.3515625 36.7,33.3515625 C34.5788956,33.3515625 32.6863364,32.841802 31.0222656,31.8222656 C29.3581948,30.8027293 28.0691452,29.3466892 27.1550781,27.4541016 C26.241011,25.561514 25.778125,23.3847779 25.7664062,20.9238281 L25.7664062,19.6582031 C25.7664062,17.1386593 26.2205033,14.920908 27.1287109,13.0048828 C28.0369186,11.0888576 29.3201089,9.61816919 30.9783203,8.59277344 C32.6365317,7.56737769 34.5320206,7.0546875 36.6648437,7.0546875 C38.7976669,7.0546875 40.6931558,7.56737769 42.3513672,8.59277344 C44.0095786,9.61816919 45.2927689,11.0888576 46.2009766,13.0048828 C47.1091842,14.920908 47.5632812,17.1328 47.5632812,19.640625 L47.5632812,20.7832031 Z M42.2195312,19.6230469 C42.2195312,16.9394397 41.7390673,14.9003976 40.778125,13.5058594 C39.8171827,12.1113212 38.4461026,11.4140625 36.6648437,11.4140625 C34.8953036,11.4140625 33.5300829,12.1025322 32.5691406,13.4794922 C31.6081983,14.8564522 31.121875,16.8749867 31.1101562,19.5351562 L31.1101562,20.7832031 C31.1101562,23.3964974 31.5906202,25.4238209 32.5515625,26.8652344 C33.5125048,28.3066478 34.8953035,29.0273438 36.7,29.0273438 C38.4695401,29.0273438 39.8289015,28.3330148 40.778125,26.9443359 C41.7273485,25.5556571 42.2078124,23.5312633 42.2195312,20.8710938 L42.2195312,19.6230469 Z M72.9078125,33 L67.634375,33 L57.36875,16.1601562 L57.36875,33 L52.0953125,33 L52.0953125,7.40625 L57.36875,7.40625 L67.6519531,24.28125 L67.6519531,7.40625 L72.9078125,7.40625 L72.9078125,33 Z M96.9691406,11.6777344 L89.1292968,11.6777344 L89.1292968,33 L83.8558593,33 L83.8558593,11.6777344 L76.1214843,11.6777344 L76.1214843,7.40625 L96.9691406,7.40625 L96.9691406,11.6777344 Z M113.014844,27.7265625 L103.76875,27.7265625 L102.010937,33 L96.4035156,33 L105.930859,7.40625 L110.817578,7.40625 L120.397656,33 L114.790234,33 L113.014844,27.7265625 Z M105.192578,23.4550781 L111.591016,23.4550781 L108.374219,13.875 L105.192578,23.4550781 Z M143.210937,24.4746094 C143.011718,27.2285294 141.995126,29.3964765 140.161133,30.9785156 C138.327139,32.5605548 135.910171,33.3515625 132.910156,33.3515625 C129.62889,33.3515625 127.047861,32.2470814 125.166992,30.0380859 C123.286123,27.8290905 122.345703,24.7968943 122.345703,20.9414062 L122.345703,19.3769531 C122.345703,16.9160033 122.779292,14.7480562 123.646484,12.8730469 C124.513676,10.9980375 125.752922,9.55957532 127.364258,8.55761719 C128.975594,7.55565905 130.847646,7.0546875 132.980469,7.0546875 C135.933608,7.0546875 138.312491,7.84569521 140.117187,9.42773438 C141.921884,11.0097735 142.964842,13.2304545 143.246094,16.0898438 L137.972656,16.0898438 C137.843749,14.4374917 137.383793,13.2392615 136.592773,12.4951172 C135.801754,11.7509728 134.597664,11.3789062 132.980469,11.3789062 C131.222647,11.3789062 129.907231,12.0087828 129.03418,13.2685547 C128.161128,14.5283266 127.712891,16.4824086 127.689453,19.1308594 L127.689453,21.0644531 C127.689453,23.830092 128.108394,25.8515561 128.946289,27.1289062 C129.784184,28.4062564 131.10546,29.0449219 132.910156,29.0449219 C134.539071,29.0449219 135.754879,28.6728553 136.557617,27.9287109 C137.360356,27.1845666 137.820312,26.0332109 137.9375,24.4746094 L143.210937,24.4746094 Z M166.129687,11.6777344 L158.289844,11.6777344 L158.289844,33 L153.016406,33 L153.016406,11.6777344 L145.282031,11.6777344 L145.282031,7.40625 L166.129687,7.40625 L166.129687,11.6777344 Z M197.816797,7.40625 L197.816797,24.2636719 C197.816797,27.0644671 196.940829,29.2792887 195.188867,30.9082031 C193.436905,32.5371175 191.043374,33.3515625 188.008203,33.3515625 C185.019907,33.3515625 182.646884,32.5605548 180.889062,30.9785156 C179.131241,29.3964765 178.234766,27.2226701 178.199609,24.4570312 L178.199609,7.40625 L183.473047,7.40625 L183.473047,24.2988281 C183.473047,25.9746178 183.87441,27.1962852 184.677148,27.9638672 C185.479887,28.7314492 186.590227,29.1152344 188.008203,29.1152344 C190.973062,29.1152344 192.478906,27.5566562 192.525781,24.4394531 L192.525781,7.40625 L197.816797,7.40625 Z M216.1125,26.2851562 C216.1125,25.2890575 215.760941,24.5244167 215.057812,23.9912109 C214.354684,23.4580051 213.089072,22.8955108 211.260937,22.3037109 C209.432803,21.7119111 207.985552,21.1289091 206.919141,20.5546875 C204.012876,18.9843671 202.559766,16.8691539 202.559766,14.2089844 C202.559766,12.826165 202.94941,11.5927789 203.728711,10.5087891 C204.508012,9.42479927 205.627141,8.57812805 207.086133,7.96875 C208.545124,7.35937195 210.182803,7.0546875 211.999219,7.0546875 C213.827353,7.0546875 215.456243,7.38573888 216.885937,8.04785156 C218.315632,8.70996425 219.425973,9.64452521 220.216992,10.8515625 C221.008012,12.0585998 221.403516,13.4296798 221.403516,14.9648438 L216.130078,14.9648438 C216.130078,13.7929629 215.760941,12.8818392 215.022656,12.2314453 C214.284371,11.5810514 213.247272,11.2558594 211.911328,11.2558594 C210.622259,11.2558594 209.620316,11.5283176 208.905469,12.0732422 C208.190621,12.6181668 207.833203,13.335933 207.833203,14.2265625 C207.833203,15.0585979 208.252144,15.7558566 209.090039,16.3183594 C209.927934,16.8808622 211.16132,17.4082007 212.790234,17.9003906 C215.790249,18.8027389 217.975774,19.9218683 219.346875,21.2578125 C220.717975,22.5937567 221.403516,24.2578025 221.403516,26.25 C221.403516,28.4648548 220.565633,30.2021421 218.889844,31.4619141 C217.214054,32.721686 214.958217,33.3515625 212.122266,33.3515625 C210.153506,33.3515625 208.360555,32.9912145 206.743359,32.2705078 C205.126164,31.5498011 203.892778,30.5625063 203.043164,29.3085938 C202.19355,28.0546812 201.76875,26.6015708 201.76875,24.9492188 L207.059766,24.9492188 C207.059766,27.7734516 208.747249,29.1855469 212.122266,29.1855469 C213.376178,29.1855469 214.354684,28.9306666 215.057812,28.4208984 C215.760941,27.9111303 216.1125,27.1992233 216.1125,26.2851562 Z"></path>
            </g>
            <g id="noun_708615_cc5" transform="translate(22.000000, 0.000000)">
                <path d="M40.2985075,116.134562 L40.2985075,63.802472 C40.3754599,63.5975497 40.439714,63.3880811 40.4909049,63.1752565 C41.5067631,57.3802472 46.5514226,53.045534 52.4426306,53.0397621 C77.1823694,53.0179571 101.921467,53.0179571 126.659923,53.0397621 C132.268307,53.0397621 137.126341,56.9800606 138.446187,62.4306786 C138.557778,62.8905084 138.692456,63.3464902 138.80597,63.804396 L138.80597,116.134562 C138.736159,116.273041 138.680096,116.418033 138.638584,116.567456 C137.724697,121.67753 134.171117,125.610133 129.124534,126.556728 C126.761894,127.00309 124.279967,126.8915 121.853836,126.893424 C98.8148904,126.915229 75.7746618,126.915229 52.7331507,126.893424 C47.0689715,126.893424 42.3109841,123.310984 40.771805,117.964261 C40.5967234,117.371677 40.4562733,116.752157 40.2985075,116.134562 Z M73.8160564,89.070021 C72.2768773,90.5899604 70.8223531,92.0252449 69.3909165,93.4778451 L53.7143773,109.110133 C52.7677822,110.050956 52.3310401,111.116838 52.7293027,112.411672 C53.441173,114.762768 56.1924557,115.328417 58.0413946,113.494869 C64.5546875,107.005947 71.0602845,100.50035 77.5581856,93.9780784 C77.798073,93.6953329 78.0155023,93.3942769 78.2084888,93.0776586 C78.7472015,93.5701959 79.1031367,93.8780317 79.4552239,94.1954874 L87.2896455,101.314191 C88.7788013,102.660972 90.3333722,102.645581 91.8302239,101.294951 C94.5404618,98.8425257 97.249417,96.3862523 99.9570896,93.9261311 C100.203358,93.6952542 100.476563,93.4682253 100.782474,93.1873251 C103.231693,95.6423158 105.627041,98.0492071 108.022388,100.450326 L121.074627,113.502565 C121.959655,114.389517 122.973589,114.80702 124.20878,114.476096 C126.60028,113.827717 127.287139,111.043727 125.474755,109.217875 C121.113748,104.826084 116.739272,100.449044 112.351329,96.0867537 C110.019473,93.7568214 107.672225,91.4326609 105.299965,89.0584771 C105.609725,88.7660331 105.861765,88.5236124 106.119578,88.2888876 L115.650944,79.6310051 L125.401644,70.7653335 C126.340543,69.9130131 126.713794,68.8644473 126.404035,67.6446479 C126.161915,66.5444775 125.308279,65.6818563 124.210704,65.4282299 C122.979361,65.1011544 121.982743,65.5513643 121.063083,66.3902169 C110.830107,75.711229 100.583022,85.0258279 90.3218284,94.3340135 C90.0755597,94.5629664 89.8100513,94.7822994 89.536847,95.0208722 L74.8723181,81.6954291 C69.2286614,76.5802239 63.581798,71.4573228 57.9317281,66.3267257 C57.0409282,65.5148088 56.0462337,65.1242421 54.8533699,65.4590135 C53.7644237,65.7212229 52.9204457,66.5816323 52.6792794,67.6754314 C52.3829874,68.9067747 52.7754781,69.9418727 53.7143773,70.7903451 C57.7521572,74.4510261 61.7860891,78.1161964 65.816173,81.7858559 L73.8160564,89.070021 Z" id="Shape5" fill="#FFFFFF" fill-rule="nonzero"></path>
                <circle id="Oval-57" stroke="#FFFFFF" stroke-width="10" cx="90" cy="90" r="90"></circle>
            </g>
        </g>
    </g>
</svg>