<?xml version="1.0" encoding="UTF-8"?>
<svg width="215px" height="256px" viewBox="0 0 215 256" version="1.1" xmlns="http://www.w3.org/2000/svg" xmlns:xlink="http://www.w3.org/1999/xlink">
    <!-- Generator: Sketch 47.1 (45422) - http://www.bohemiancoding.com/sketch -->
    <title>DISCLAIMER_sel</title>
    <desc>Created with Sketch.</desc>
    <defs></defs>
    <g id="Page-10" stroke="none" stroke-width="1" fill="none" fill-rule="evenodd">
        <g id="DISCLAIMER_sel" transform="translate(-1.000000, 5.000000)">
            <g id="CONTACT-US4" transform="translate(0.000000, 217.000000)" fill="#326496">
                <path d="M22.3769531,24.4746094 C22.1777334,27.2285294 21.161142,29.3964765 19.3271484,30.9785156 C17.4931549,32.5605548 15.0761869,33.3515625 12.0761719,33.3515625 C8.79490547,33.3515625 6.21387659,32.2470814 4.33300781,30.0380859 C2.45213903,27.8290905 1.51171875,24.7968943 1.51171875,20.9414062 L1.51171875,19.3769531 C1.51171875,16.9160033 1.94530816,14.7480562 2.8125,12.8730469 C3.67969184,10.9980375 4.91893726,9.55957532 6.53027344,8.55761719 C8.14160962,7.55565905 10.0136612,7.0546875 12.1464844,7.0546875 C15.0996241,7.0546875 17.4785066,7.84569521 19.2832031,9.42773438 C21.0878996,11.0097735 22.130858,13.2304545 22.4121094,16.0898438 L17.1386719,16.0898438 C17.009765,14.4374917 16.5498086,13.2392615 15.7587891,12.4951172 C14.9677695,11.7509728 13.76368,11.3789062 12.1464844,11.3789062 C10.3886631,11.3789062 9.07324655,12.0087828 8.20019531,13.2685547 C7.32714407,14.5283266 6.87890637,16.4824086 6.85546875,19.1308594 L6.85546875,21.0644531 C6.85546875,23.830092 7.27440987,25.8515561 8.11230469,27.1289062 C8.9501995,28.4062564 10.2714754,29.0449219 12.0761719,29.0449219 C13.7050863,29.0449219 14.9208944,28.6728553 15.7236328,27.9287109 C16.5263712,27.1845666 16.9863275,26.0332109 17.1035156,24.4746094 L22.3769531,24.4746094 Z M46.8632812,20.7832031 C46.8632812,23.302747 46.4179732,25.5117093 45.5273438,27.4101562 C44.6367143,29.3086032 43.362313,30.7734323 41.7041016,31.8046875 C40.0458901,32.8359427 38.144542,33.3515625 36,33.3515625 C33.8788956,33.3515625 31.9863364,32.841802 30.3222656,31.8222656 C28.6581948,30.8027293 27.3691452,29.3466892 26.4550781,27.4541016 C25.5410111,25.561514 25.0781251,23.3847779 25.0664062,20.9238281 L25.0664062,19.6582031 C25.0664062,17.1386593 25.5205033,14.920908 26.4287109,13.0048828 C27.3369186,11.0888576 28.6201089,9.61816919 30.2783203,8.59277344 C31.9365317,7.56737769 33.8320206,7.0546875 35.9648438,7.0546875 C38.0976669,7.0546875 39.9931558,7.56737769 41.6513672,8.59277344 C43.3095786,9.61816919 44.5927689,11.0888576 45.5009766,13.0048828 C46.4091842,14.920908 46.8632812,17.1328 46.8632812,19.640625 L46.8632812,20.7832031 Z M41.5195312,19.6230469 C41.5195312,16.9394397 41.0390673,14.9003976 40.078125,13.5058594 C39.1171827,12.1113212 37.7461027,11.4140625 35.9648438,11.4140625 C34.1953037,11.4140625 32.8300829,12.1025322 31.8691406,13.4794922 C30.9081983,14.8564522 30.4218751,16.8749867 30.4101562,19.5351562 L30.4101562,20.7832031 C30.4101562,23.3964974 30.8906202,25.4238209 31.8515625,26.8652344 C32.8125048,28.3066478 34.1953035,29.0273438 36,29.0273438 C37.7695401,29.0273438 39.1289015,28.3330148 40.078125,26.9443359 C41.0273485,25.5556571 41.5078124,23.5312633 41.5195312,20.8710938 L41.5195312,19.6230469 Z M71.5078125,33 L66.234375,33 L55.96875,16.1601562 L55.96875,33 L50.6953125,33 L50.6953125,7.40625 L55.96875,7.40625 L66.2519531,24.28125 L66.2519531,7.40625 L71.5078125,7.40625 L71.5078125,33 Z M94.8691406,11.6777344 L87.0292969,11.6777344 L87.0292969,33 L81.7558594,33 L81.7558594,11.6777344 L74.0214844,11.6777344 L74.0214844,7.40625 L94.8691406,7.40625 L94.8691406,11.6777344 Z M110.214844,27.7265625 L100.96875,27.7265625 L99.2109375,33 L93.6035156,33 L103.130859,7.40625 L108.017578,7.40625 L117.597656,33 L111.990234,33 L110.214844,27.7265625 Z M102.392578,23.4550781 L108.791016,23.4550781 L105.574219,13.875 L102.392578,23.4550781 Z M139.710938,24.4746094 C139.511718,27.2285294 138.495126,29.3964765 136.661133,30.9785156 C134.827139,32.5605548 132.410171,33.3515625 129.410156,33.3515625 C126.12889,33.3515625 123.547861,32.2470814 121.666992,30.0380859 C119.786123,27.8290905 118.845703,24.7968943 118.845703,20.9414062 L118.845703,19.3769531 C118.845703,16.9160033 119.279293,14.7480562 120.146484,12.8730469 C121.013676,10.9980375 122.252922,9.55957532 123.864258,8.55761719 C125.475594,7.55565905 127.347646,7.0546875 129.480469,7.0546875 C132.433609,7.0546875 134.812491,7.84569521 136.617188,9.42773438 C138.421884,11.0097735 139.464842,13.2304545 139.746094,16.0898438 L134.472656,16.0898438 C134.343749,14.4374917 133.883793,13.2392615 133.092773,12.4951172 C132.301754,11.7509728 131.097664,11.3789062 129.480469,11.3789062 C127.722647,11.3789062 126.407231,12.0087828 125.53418,13.2685547 C124.661128,14.5283266 124.212891,16.4824086 124.189453,19.1308594 L124.189453,21.0644531 C124.189453,23.830092 124.608394,25.8515561 125.446289,27.1289062 C126.284184,28.4062564 127.60546,29.0449219 129.410156,29.0449219 C131.039071,29.0449219 132.254879,28.6728553 133.057617,27.9287109 C133.860356,27.1845666 134.320312,26.0332109 134.4375,24.4746094 L139.710938,24.4746094 Z M161.929688,11.6777344 L154.089844,11.6777344 L154.089844,33 L148.816406,33 L148.816406,11.6777344 L141.082031,11.6777344 L141.082031,7.40625 L161.929688,7.40625 L161.929688,11.6777344 Z M192.216797,7.40625 L192.216797,24.2636719 C192.216797,27.0644671 191.340829,29.2792887 189.588867,30.9082031 C187.836905,32.5371175 185.443375,33.3515625 182.408203,33.3515625 C179.419907,33.3515625 177.046884,32.5605548 175.289062,30.9785156 C173.531241,29.3964765 172.634766,27.2226701 172.599609,24.4570312 L172.599609,7.40625 L177.873047,7.40625 L177.873047,24.2988281 C177.873047,25.9746178 178.27441,27.1962852 179.077148,27.9638672 C179.879887,28.7314492 180.990227,29.1152344 182.408203,29.1152344 C185.373062,29.1152344 186.878906,27.5566562 186.925781,24.4394531 L186.925781,7.40625 L192.216797,7.40625 Z M209.8125,26.2851562 C209.8125,25.2890575 209.460941,24.5244167 208.757812,23.9912109 C208.054684,23.4580051 206.789072,22.8955108 204.960938,22.3037109 C203.132803,21.7119111 201.685552,21.1289091 200.619141,20.5546875 C197.712876,18.9843671 196.259766,16.8691539 196.259766,14.2089844 C196.259766,12.826165 196.64941,11.5927789 197.428711,10.5087891 C198.208012,9.42479927 199.327141,8.57812805 200.786133,7.96875 C202.245124,7.35937195 203.882803,7.0546875 205.699219,7.0546875 C207.527353,7.0546875 209.156243,7.38573888 210.585938,8.04785156 C212.015632,8.70996425 213.125973,9.64452521 213.916992,10.8515625 C214.708012,12.0585998 215.103516,13.4296798 215.103516,14.9648438 L209.830078,14.9648438 C209.830078,13.7929629 209.460941,12.8818392 208.722656,12.2314453 C207.984371,11.5810514 206.947272,11.2558594 205.611328,11.2558594 C204.322259,11.2558594 203.320316,11.5283176 202.605469,12.0732422 C201.890621,12.6181668 201.533203,13.335933 201.533203,14.2265625 C201.533203,15.0585979 201.952144,15.7558566 202.790039,16.3183594 C203.627934,16.8808622 204.86132,17.4082007 206.490234,17.9003906 C209.490249,18.8027389 211.675774,19.9218683 213.046875,21.2578125 C214.417976,22.5937567 215.103516,24.2578025 215.103516,26.25 C215.103516,28.4648548 214.265633,30.2021421 212.589844,31.4619141 C210.914054,32.721686 208.658217,33.3515625 205.822266,33.3515625 C203.853506,33.3515625 202.060555,32.9912145 200.443359,32.2705078 C198.826164,31.5498011 197.592778,30.5625063 196.743164,29.3085938 C195.89355,28.0546812 195.46875,26.6015708 195.46875,24.9492188 L200.759766,24.9492188 C200.759766,27.7734516 202.447249,29.1855469 205.822266,29.1855469 C207.076178,29.1855469 208.054684,28.9306666 208.757812,28.4208984 C209.460941,27.9111303 209.8125,27.1992233 209.8125,26.2851562 Z"></path>
            </g>
            <g id="noun_708615_cc4" transform="translate(19.000000, 0.000000)">
                <circle id="Oval-11" stroke="#9B9AAF" stroke-width="10" fill="#2A5681" fill-rule="nonzero" cx="90" cy="90" r="90"></circle>
                <path d="M41.1940299,117.925606 L41.1940299,65.5935168 C41.2709823,65.3885945 41.3352364,65.1791259 41.3864272,64.9663013 C42.4022854,59.171292 47.446945,54.8365788 53.338153,54.8308069 C78.0778918,54.8090019 102.816989,54.8090019 127.555445,54.8308069 C133.163829,54.8308069 138.021863,58.7711054 139.341709,64.2217234 C139.4533,64.6815532 139.587978,65.137535 139.701493,65.5954408 L139.701493,117.925606 C139.631682,118.064086 139.575618,118.209078 139.534107,118.3585 C138.620219,123.468575 135.066639,127.401178 130.020056,128.347773 C127.657416,128.794135 125.17549,128.682544 122.749359,128.684468 C99.7104128,128.706273 76.6701842,128.706273 53.628673,128.684468 C47.9644939,128.684468 43.2065065,125.102029 41.6673274,119.755306 C41.4922458,119.162722 41.3517957,118.543202 41.1940299,117.925606 Z M74.7115788,90.8610658 C73.1723997,92.3810051 71.7178755,93.8162896 70.2864389,95.2688899 L54.6098997,110.901178 C53.6633046,111.842001 53.2265625,112.907882 53.6248251,114.202717 C54.3366954,116.553813 57.0879781,117.119461 58.936917,115.285914 C65.4502099,108.796992 71.9558069,102.291395 78.453708,95.7691231 C78.6935954,95.4863777 78.9110247,95.1853217 79.1040112,94.8687034 C79.6427239,95.3612407 79.998659,95.6690765 80.3507463,95.9865322 L88.1851679,103.105236 C89.6743237,104.452017 91.2288946,104.436625 92.7257463,103.085996 C95.4359841,100.63357 98.1449394,98.1772971 100.852612,95.7171758 C101.098881,95.486299 101.372085,95.2592701 101.677997,94.9783699 C104.127215,97.4333605 106.522563,99.8402519 108.91791,102.241371 L121.970149,115.29361 C122.855177,116.180562 123.869111,116.598064 125.104303,116.267141 C127.495802,115.618762 128.182661,112.834771 126.370278,111.00892 C122.00927,106.617129 117.634795,102.240089 113.246852,97.8777985 C110.914995,95.5478661 108.567747,93.2237057 106.195487,90.8495219 C106.505247,90.5570779 106.757288,90.3146572 107.0151,90.0799324 L116.546467,81.4220499 L126.297167,72.5563783 C127.236066,71.7040578 127.609317,70.6554921 127.299557,69.4356926 C127.057437,68.3355222 126.203802,67.4729011 125.106227,67.2192747 C123.874883,66.8921992 122.878265,67.342409 121.958605,68.1812617 C111.72563,77.5022738 101.478545,86.8168727 91.2173507,96.1250583 C90.9710821,96.3540112 90.7055737,96.5733442 90.4323694,96.811917 L75.7678405,83.4864739 C70.1241838,78.3712687 64.4773204,73.2483675 58.8272505,68.1177705 C57.9364506,67.3058535 56.9417561,66.9152868 55.7488923,67.2500583 C54.659946,67.5122677 53.8159681,68.3726771 53.5748018,69.4664762 C53.2785098,70.6978195 53.6710005,71.7329174 54.6098997,72.5813899 C58.6476796,76.2420709 62.6816115,79.9072411 66.7116954,83.5769007 L74.7115788,90.8610658 Z" id="Shape4" fill="#FFFFFF" fill-rule="nonzero"></path>
                <circle id="Oval-12" stroke="#FFFDFD" stroke-width="3" cx="90" cy="90" r="85.5223881"></circle>
            </g>
        </g>
    </g>
</svg>