<?xml version="1.0" encoding="UTF-8"?>
<svg width="281px" height="280px" viewBox="0 0 281 280" version="1.1" xmlns="http://www.w3.org/2000/svg" xmlns:xlink="http://www.w3.org/1999/xlink">
    <!-- Generator: Sketch 47.1 (45422) - http://www.bohemiancoding.com/sketch -->
    <title>DISCLAIMER_g</title>
    <desc>Created with Sketch.</desc>
    <defs></defs>
    <g id="Page-9" stroke="none" stroke-width="1" fill="none" fill-rule="evenodd">
        <g id="DISCLAIMER_g" transform="translate(-1.000000, 7.000000)">
            <circle id="Oval-9" stroke="#B5B5B5" stroke-width="13" fill="#1B3E67" fill-rule="nonzero" cx="143.5" cy="91.5" r="91.5"></circle>
            <text id="CONTACT-3" fill="#1B3E67" font-family="Roboto-Black, Roboto" font-size="48" font-weight="700">
                <tspan x="0" y="272">CONTACT US</tspan>
            </text>
            <g id="noun_708615_cc3" transform="translate(89.000000, 52.000000)" fill-rule="nonzero" fill="#FFFFFF">
                <path d="M0,70.6835937 L0,12.2460937 C0.085930182,12.0172639 0.15768068,11.7833573 0.21484375,11.5457031 C1.34921875,5.07460937 6.98242188,0.234179687 13.5609375,0.227734375 C41.1869792,0.203385417 68.8123047,0.203385417 96.4369141,0.227734375 C102.699609,0.227734375 108.124414,4.62773437 109.598242,10.7142578 C109.722852,11.2277344 109.873242,11.7369141 110,12.2482422 L110,70.6835937 C109.922045,70.8382297 109.85944,71.0001372 109.813086,71.1669922 C108.792578,76.8732422 104.824414,81.2646484 99.1890625,82.3216797 C96.5507812,82.8201172 93.7792969,82.6955078 91.0701172,82.6976562 C65.3432943,82.7220052 39.6150391,82.7220052 13.8853516,82.6976562 C7.56035156,82.6976562 2.24726562,78.6972656 0.528515625,72.7267578 C0.333007812,72.0650391 0.176171875,71.3732422 0,70.6835937 Z M37.4279297,40.4615234 C35.7091797,42.1587891 34.0849609,43.7615234 32.4865234,45.3835937 L14.9810547,62.8396484 C13.9240234,63.8902344 13.4363281,65.0804687 13.8810547,66.5263672 C14.6759766,69.1517578 17.7482422,69.7833984 19.8128906,67.7359375 C27.0860677,60.489974 34.350651,53.2253906 41.6066406,45.9421875 C41.8745148,45.6264551 42.117311,45.2902759 42.3328125,44.9367187 C42.934375,45.4867187 43.3318359,45.8304687 43.725,46.1849609 L52.4734375,54.1341797 C54.1363281,55.6380859 55.8722656,55.6208984 57.54375,54.1126953 C60.5701823,51.3741536 63.5951823,48.6313151 66.61875,45.8841797 C66.89375,45.6263672 67.1988281,45.3728516 67.5404297,45.0591797 C70.2753906,47.8005859 72.9501953,50.4882812 75.625,53.1695312 L90.2,67.7445312 C91.1882813,68.7349609 92.3205078,69.2011719 93.6998047,68.8316406 C96.3703125,68.1076172 97.1373047,64.9988281 95.1134766,62.9599609 C90.2436849,58.0557943 85.3588542,53.168099 80.4589844,48.296875 C77.8550781,45.6951172 75.2339844,43.0998047 72.5849609,40.4486328 C72.9308594,40.1220703 73.2123047,39.8513672 73.5001953,39.5892578 L84.1435547,29.9212891 L95.0318359,20.0212891 C96.0802734,19.0695312 96.4970703,17.8986328 96.1511719,16.5365234 C95.8808047,15.3079998 94.9275784,14.3447395 93.7019531,14.0615234 C92.3269531,13.6962891 91.2140625,14.1990234 90.1871094,15.1357422 C78.7602865,25.5442057 67.3177083,35.9455078 55.859375,46.3396484 C55.584375,46.5953125 55.2878906,46.8402344 54.9828125,47.1066406 L38.6074219,32.2265625 C32.3053385,26.5145833 25.9996745,20.7940104 19.6904297,15.0648437 C18.6957031,14.1582031 17.5849609,13.7220703 16.2529297,14.0958984 C15.0369397,14.3886989 14.0944977,15.3494894 13.8251953,16.5708984 C13.4943359,17.9458984 13.9326172,19.1017578 14.9810547,20.0492187 C19.4899089,24.1369792 23.9944661,28.2297526 28.4947266,32.3275391 L37.4279297,40.4615234 Z" id="Shape3"></path>
            </g>
        </g>
    </g>
</svg>