<?xml version="1.0" encoding="UTF-8"?>
<svg width="221px" height="266px" viewBox="0 0 221 266" version="1.1" xmlns="http://www.w3.org/2000/svg" xmlns:xlink="http://www.w3.org/1999/xlink">
    <!-- Generator: Sketch 47.1 (45422) - http://www.bohemiancoding.com/sketch -->
    <title>DISCLAIMER_b</title>
    <desc>Created with Sketch.</desc>
    <defs></defs>
    <g id="Page-8" stroke="none" stroke-width="1" fill="none" fill-rule="evenodd">
        <g id="DISCLAIMER_b" transform="translate(-1.000000, 5.000000)">
            <g id="CONTACT-US2" transform="translate(0.000000, 227.000000)" fill="#326496">
                <path d="M22.3769531,24.4746094 C22.1777334,27.2285294 21.161142,29.3964765 19.3271484,30.9785156 C17.4931549,32.5605548 15.0761869,33.3515625 12.0761719,33.3515625 C8.79490547,33.3515625 6.21387659,32.2470814 4.33300781,30.0380859 C2.45213903,27.8290905 1.51171875,24.7968943 1.51171875,20.9414062 L1.51171875,19.3769531 C1.51171875,16.9160033 1.94530816,14.7480562 2.8125,12.8730469 C3.67969184,10.9980375 4.91893726,9.55957532 6.53027344,8.55761719 C8.14160962,7.55565905 10.0136612,7.0546875 12.1464844,7.0546875 C15.0996241,7.0546875 17.4785066,7.84569521 19.2832031,9.42773438 C21.0878996,11.0097735 22.130858,13.2304545 22.4121094,16.0898438 L17.1386719,16.0898438 C17.009765,14.4374917 16.5498086,13.2392615 15.7587891,12.4951172 C14.9677695,11.7509728 13.76368,11.3789062 12.1464844,11.3789062 C10.3886631,11.3789062 9.07324655,12.0087828 8.20019531,13.2685547 C7.32714407,14.5283266 6.87890637,16.4824086 6.85546875,19.1308594 L6.85546875,21.0644531 C6.85546875,23.830092 7.27440987,25.8515561 8.11230469,27.1289062 C8.9501995,28.4062564 10.2714754,29.0449219 12.0761719,29.0449219 C13.7050863,29.0449219 14.9208944,28.6728553 15.7236328,27.9287109 C16.5263712,27.1845666 16.9863275,26.0332109 17.1035156,24.4746094 L22.3769531,24.4746094 Z M47.5632812,20.7832031 C47.5632812,23.302747 47.1179732,25.5117093 46.2273437,27.4101562 C45.3367143,29.3086032 44.062313,30.7734323 42.4041016,31.8046875 C40.7458901,32.8359427 38.844542,33.3515625 36.7,33.3515625 C34.5788956,33.3515625 32.6863364,32.841802 31.0222656,31.8222656 C29.3581948,30.8027293 28.0691452,29.3466892 27.1550781,27.4541016 C26.241011,25.561514 25.778125,23.3847779 25.7664062,20.9238281 L25.7664062,19.6582031 C25.7664062,17.1386593 26.2205033,14.920908 27.1287109,13.0048828 C28.0369186,11.0888576 29.3201089,9.61816919 30.9783203,8.59277344 C32.6365317,7.56737769 34.5320206,7.0546875 36.6648437,7.0546875 C38.7976669,7.0546875 40.6931558,7.56737769 42.3513672,8.59277344 C44.0095786,9.61816919 45.2927689,11.0888576 46.2009766,13.0048828 C47.1091842,14.920908 47.5632812,17.1328 47.5632812,19.640625 L47.5632812,20.7832031 Z M42.2195312,19.6230469 C42.2195312,16.9394397 41.7390673,14.9003976 40.778125,13.5058594 C39.8171827,12.1113212 38.4461026,11.4140625 36.6648437,11.4140625 C34.8953036,11.4140625 33.5300829,12.1025322 32.5691406,13.4794922 C31.6081983,14.8564522 31.121875,16.8749867 31.1101562,19.5351562 L31.1101562,20.7832031 C31.1101562,23.3964974 31.5906202,25.4238209 32.5515625,26.8652344 C33.5125048,28.3066478 34.8953035,29.0273438 36.7,29.0273438 C38.4695401,29.0273438 39.8289015,28.3330148 40.778125,26.9443359 C41.7273485,25.5556571 42.2078124,23.5312633 42.2195312,20.8710938 L42.2195312,19.6230469 Z M72.9078125,33 L67.634375,33 L57.36875,16.1601562 L57.36875,33 L52.0953125,33 L52.0953125,7.40625 L57.36875,7.40625 L67.6519531,24.28125 L67.6519531,7.40625 L72.9078125,7.40625 L72.9078125,33 Z M96.9691406,11.6777344 L89.1292968,11.6777344 L89.1292968,33 L83.8558593,33 L83.8558593,11.6777344 L76.1214843,11.6777344 L76.1214843,7.40625 L96.9691406,7.40625 L96.9691406,11.6777344 Z M113.014844,27.7265625 L103.76875,27.7265625 L102.010937,33 L96.4035156,33 L105.930859,7.40625 L110.817578,7.40625 L120.397656,33 L114.790234,33 L113.014844,27.7265625 Z M105.192578,23.4550781 L111.591016,23.4550781 L108.374219,13.875 L105.192578,23.4550781 Z M143.210937,24.4746094 C143.011718,27.2285294 141.995126,29.3964765 140.161133,30.9785156 C138.327139,32.5605548 135.910171,33.3515625 132.910156,33.3515625 C129.62889,33.3515625 127.047861,32.2470814 125.166992,30.0380859 C123.286123,27.8290905 122.345703,24.7968943 122.345703,20.9414062 L122.345703,19.3769531 C122.345703,16.9160033 122.779292,14.7480562 123.646484,12.8730469 C124.513676,10.9980375 125.752922,9.55957532 127.364258,8.55761719 C128.975594,7.55565905 130.847646,7.0546875 132.980469,7.0546875 C135.933608,7.0546875 138.312491,7.84569521 140.117187,9.42773438 C141.921884,11.0097735 142.964842,13.2304545 143.246094,16.0898438 L137.972656,16.0898438 C137.843749,14.4374917 137.383793,13.2392615 136.592773,12.4951172 C135.801754,11.7509728 134.597664,11.3789062 132.980469,11.3789062 C131.222647,11.3789062 129.907231,12.0087828 129.03418,13.2685547 C128.161128,14.5283266 127.712891,16.4824086 127.689453,19.1308594 L127.689453,21.0644531 C127.689453,23.830092 128.108394,25.8515561 128.946289,27.1289062 C129.784184,28.4062564 131.10546,29.0449219 132.910156,29.0449219 C134.539071,29.0449219 135.754879,28.6728553 136.557617,27.9287109 C137.360356,27.1845666 137.820312,26.0332109 137.9375,24.4746094 L143.210937,24.4746094 Z M166.129687,11.6777344 L158.289844,11.6777344 L158.289844,33 L153.016406,33 L153.016406,11.6777344 L145.282031,11.6777344 L145.282031,7.40625 L166.129687,7.40625 L166.129687,11.6777344 Z M197.816797,7.40625 L197.816797,24.2636719 C197.816797,27.0644671 196.940829,29.2792887 195.188867,30.9082031 C193.436905,32.5371175 191.043374,33.3515625 188.008203,33.3515625 C185.019907,33.3515625 182.646884,32.5605548 180.889062,30.9785156 C179.131241,29.3964765 178.234766,27.2226701 178.199609,24.4570312 L178.199609,7.40625 L183.473047,7.40625 L183.473047,24.2988281 C183.473047,25.9746178 183.87441,27.1962852 184.677148,27.9638672 C185.479887,28.7314492 186.590227,29.1152344 188.008203,29.1152344 C190.973062,29.1152344 192.478906,27.5566562 192.525781,24.4394531 L192.525781,7.40625 L197.816797,7.40625 Z M216.1125,26.2851562 C216.1125,25.2890575 215.760941,24.5244167 215.057812,23.9912109 C214.354684,23.4580051 213.089072,22.8955108 211.260937,22.3037109 C209.432803,21.7119111 207.985552,21.1289091 206.919141,20.5546875 C204.012876,18.9843671 202.559766,16.8691539 202.559766,14.2089844 C202.559766,12.826165 202.94941,11.5927789 203.728711,10.5087891 C204.508012,9.42479927 205.627141,8.57812805 207.086133,7.96875 C208.545124,7.35937195 210.182803,7.0546875 211.999219,7.0546875 C213.827353,7.0546875 215.456243,7.38573888 216.885937,8.04785156 C218.315632,8.70996425 219.425973,9.64452521 220.216992,10.8515625 C221.008012,12.0585998 221.403516,13.4296798 221.403516,14.9648438 L216.130078,14.9648438 C216.130078,13.7929629 215.760941,12.8818392 215.022656,12.2314453 C214.284371,11.5810514 213.247272,11.2558594 211.911328,11.2558594 C210.622259,11.2558594 209.620316,11.5283176 208.905469,12.0732422 C208.190621,12.6181668 207.833203,13.335933 207.833203,14.2265625 C207.833203,15.0585979 208.252144,15.7558566 209.090039,16.3183594 C209.927934,16.8808622 211.16132,17.4082007 212.790234,17.9003906 C215.790249,18.8027389 217.975774,19.9218683 219.346875,21.2578125 C220.717975,22.5937567 221.403516,24.2578025 221.403516,26.25 C221.403516,28.4648548 220.565633,30.2021421 218.889844,31.4619141 C217.214054,32.721686 214.958217,33.3515625 212.122266,33.3515625 C210.153506,33.3515625 208.360555,32.9912145 206.743359,32.2705078 C205.126164,31.5498011 203.892778,30.5625063 203.043164,29.3085938 C202.19355,28.0546812 201.76875,26.6015708 201.76875,24.9492188 L207.059766,24.9492188 C207.059766,27.7734516 208.747249,29.1855469 212.122266,29.1855469 C213.376178,29.1855469 214.354684,28.9306666 215.057812,28.4208984 C215.760941,27.9111303 216.1125,27.1992233 216.1125,26.2851562 Z"></path>
            </g>
            <g id="noun_708615_cc2" transform="translate(22.000000, 0.000000)">
                <path d="M41.1940299,117.925606 L41.1940299,65.5935168 C41.2709823,65.3885945 41.3352364,65.1791259 41.3864272,64.9663013 C42.4022854,59.171292 47.446945,54.8365788 53.338153,54.8308069 C78.0778918,54.8090019 102.816989,54.8090019 127.555445,54.8308069 C133.163829,54.8308069 138.021863,58.7711054 139.341709,64.2217234 C139.4533,64.6815532 139.587978,65.137535 139.701493,65.5954408 L139.701493,117.925606 C139.631682,118.064086 139.575618,118.209078 139.534107,118.3585 C138.620219,123.468575 135.066639,127.401178 130.020056,128.347773 C127.657416,128.794135 125.17549,128.682544 122.749359,128.684468 C99.7104128,128.706273 76.6701842,128.706273 53.628673,128.684468 C47.9644939,128.684468 43.2065065,125.102029 41.6673274,119.755306 C41.4922458,119.162722 41.3517957,118.543202 41.1940299,117.925606 Z M74.7115788,90.8610658 C73.1723997,92.3810051 71.7178755,93.8162896 70.2864389,95.2688899 L54.6098997,110.901178 C53.6633046,111.842001 53.2265625,112.907882 53.6248251,114.202717 C54.3366954,116.553813 57.0879781,117.119461 58.936917,115.285914 C65.4502099,108.796992 71.9558069,102.291395 78.453708,95.7691231 C78.6935954,95.4863777 78.9110247,95.1853217 79.1040112,94.8687034 C79.6427239,95.3612407 79.998659,95.6690765 80.3507463,95.9865322 L88.1851679,103.105236 C89.6743237,104.452017 91.2288946,104.436625 92.7257463,103.085996 C95.4359841,100.63357 98.1449394,98.1772971 100.852612,95.7171758 C101.098881,95.486299 101.372085,95.2592701 101.677997,94.9783699 C104.127215,97.4333605 106.522563,99.8402519 108.91791,102.241371 L121.970149,115.29361 C122.855177,116.180562 123.869111,116.598064 125.104303,116.267141 C127.495802,115.618762 128.182661,112.834771 126.370278,111.00892 C122.00927,106.617129 117.634795,102.240089 113.246852,97.8777985 C110.914995,95.5478661 108.567747,93.2237057 106.195487,90.8495219 C106.505247,90.5570779 106.757288,90.3146572 107.0151,90.0799324 L116.546467,81.4220499 L126.297167,72.5563783 C127.236066,71.7040578 127.609317,70.6554921 127.299557,69.4356926 C127.057437,68.3355222 126.203802,67.4729011 125.106227,67.2192747 C123.874883,66.8921992 122.878265,67.342409 121.958605,68.1812617 C111.72563,77.5022738 101.478545,86.8168727 91.2173507,96.1250583 C90.9710821,96.3540112 90.7055737,96.5733442 90.4323694,96.811917 L75.7678405,83.4864739 C70.1241838,78.3712687 64.4773204,73.2483675 58.8272505,68.1177705 C57.9364506,67.3058535 56.9417561,66.9152868 55.7488923,67.2500583 C54.659946,67.5122677 53.8159681,68.3726771 53.5748018,69.4664762 C53.2785098,70.6978195 53.6710005,71.7329174 54.6098997,72.5813899 C58.6476796,76.2420709 62.6816115,79.9072411 66.7116954,83.5769007 L74.7115788,90.8610658 Z" id="Shape2" fill="#326496" fill-rule="nonzero"></path>
                <circle id="Oval-7" stroke="#326496" stroke-width="10" cx="90" cy="90" r="90"></circle>
            </g>
        </g>
    </g>
</svg>