<?xml version="1.0" encoding="UTF-8"?>
<svg width="190px" height="256px" viewBox="0 0 190 256" version="1.1" xmlns="http://www.w3.org/2000/svg" xmlns:xlink="http://www.w3.org/1999/xlink">
    <!-- Generator: Sketch 47.1 (45422) - http://www.bohemiancoding.com/sketch -->
    <!-- <title>Explore</title> -->
    <desc>Created with Sketch.</desc>
    <defs></defs>
    <g id="Page-21" stroke="none" stroke-width="1" fill="none" fill-rule="evenodd">
        <g id="EXPLORE_b" transform="translate(5.000000, 5.000000)">
            <g id="Oval-1-+-?-+-Rectangle-12-+-Rectangle-12-+-Triangle-1-+-Rectangle-13-+-EXPLORE-SITE">
                <g id="Oval-1-+-?-+-Rectangle-12-+-Rectangle-12-+-Triangle-1-+-Rectangle-13">
                    <g id="Oval-1-+-?" stroke-width="10" stroke="#326496">
                        <circle id="Oval-14" cx="90" cy="90" r="90"></circle>
                    </g>
                    <g id="Rectangle-13-+-Rectangle-13-+-Triangle-1-+-Rectangle-13" transform="translate(39.402985, 30.447761)">
                        <polyline id="Rectangle-12" stroke="#326496" stroke-width="2.205" points="50.4861407 103.164564 30.4211533 103.164564 30.4211533 11.8684897 50.4861407 11.8684897"></polyline>
                        <path d="M54.4991381,0 L99.64536,6.39072519 L99.64536,109.55529 L54.4991381,118.684897 L54.4991381,0 Z M63.5283825,63.9072519 C65.1906204,63.9072519 66.5381306,62.4766394 66.5381306,60.7118893 C66.5381306,58.9471393 65.1906204,57.5165267 63.5283825,57.5165267 C61.8661444,57.5165267 60.5186344,58.9471393 60.5186344,60.7118893 C60.5186344,62.4766394 61.8661444,63.9072519 63.5283825,63.9072519 Z" id="Rectangle-15" fill="#326496" fill-rule="nonzero"></path>
                        <g id="Triangle-1-+-Rectangle-13" transform="translate(0.323672, 41.996194)" fill-rule="nonzero" fill="#326496">
                            <polygon id="Triangle-1" stroke="#08374F" stroke-width="1.26" points="19.0617381 31.0406653 19.0617381 0 44.1429724 15.5203326"></polygon>
                            <rect id="Rectangle-31" x="0" y="12.7814504" width="25.0812343" height="5.47776446" rx="2.52"></rect>
                        </g>
                    </g>
                </g>
            </g>
            <g id="EXPLORE" transform="translate(11.000000, 217.000000)" fill="#326496">
                <path d="M17.6835938,21.9082031 L7.55859375,21.9082031 L7.55859375,28.7636719 L19.4414062,28.7636719 L19.4414062,33 L2.28515625,33 L2.28515625,7.40625 L19.40625,7.40625 L19.40625,11.6777344 L7.55859375,11.6777344 L7.55859375,17.7773438 L17.6835938,17.7773438 L17.6835938,21.9082031 Z M32.3933594,16.2304688 L37.1921875,7.40625 L43.2566406,7.40625 L35.8035156,20.0976562 L43.45,33 L37.3152344,33 L32.3933594,24.0351563 L27.4714844,33 L21.3367187,33 L28.9832031,20.0976562 L21.5300781,7.40625 L27.5945312,7.40625 L32.3933594,16.2304688 Z M52.0777344,23.9824219 L52.0777344,33 L46.8042969,33 L46.8042969,7.40625 L56.7886719,7.40625 C58.7105565,7.40625 60.4009692,7.75780898 61.8599609,8.4609375 C63.3189526,9.16406602 64.4410117,10.1630795 65.2261719,11.4580078 C66.011332,12.7529362 66.4039062,14.2265542 66.4039062,15.8789063 C66.4039062,18.3867313 65.5455164,20.3642506 63.8287109,21.8115234 C62.1119055,23.2587963 59.7359527,23.9824219 56.7007812,23.9824219 L52.0777344,23.9824219 Z M52.0777344,19.7109375 L56.7886719,19.7109375 C58.1832101,19.7109375 59.246676,19.3828158 59.9791015,18.7265625 C60.7115271,18.0703092 61.0777344,17.1328186 61.0777344,15.9140625 C61.0777344,14.66015 60.7085974,13.6464882 59.9703125,12.8730469 C59.2320275,12.0996055 58.2125065,11.701172 56.9117187,11.6777344 L52.0777344,11.6777344 L52.0777344,19.7109375 Z M75.9984375,28.7636719 L87.1957031,28.7636719 L87.1957031,33 L70.725,33 L70.725,7.40625 L75.9984375,7.40625 L75.9984375,28.7636719 Z M110.817578,20.7832031 C110.817578,23.302747 110.37227,25.5117093 109.481641,27.4101562 C108.591011,29.3086032 107.31661,30.7734323 105.658398,31.8046875 C104.000187,32.8359427 102.098839,33.3515625 99.9542968,33.3515625 C97.8331925,33.3515625 95.9406333,32.841802 94.2765625,31.8222656 C92.6124916,30.8027293 91.323442,29.3466892 90.409375,27.4541016 C89.4953079,25.561514 89.0324219,23.3847779 89.0207031,20.9238281 L89.0207031,19.6582031 C89.0207031,17.1386593 89.4748001,14.920908 90.3830078,13.0048828 C91.2912154,11.0888576 92.5744057,9.61816919 94.2326171,8.59277344 C95.8908286,7.56737769 97.7863174,7.0546875 99.9191406,7.0546875 C102.051964,7.0546875 103.947453,7.56737769 105.605664,8.59277344 C107.263875,9.61816919 108.547066,11.0888576 109.455273,13.0048828 C110.363481,14.920908 110.817578,17.1328 110.817578,19.640625 L110.817578,20.7832031 Z M105.473828,19.6230469 C105.473828,16.9394397 104.993364,14.9003976 104.032422,13.5058594 C103.07148,12.1113212 101.700399,11.4140625 99.9191406,11.4140625 C98.1496005,11.4140625 96.7843798,12.1025322 95.8234375,13.4794922 C94.8624951,14.8564522 94.3761719,16.8749867 94.3644531,19.5351562 L94.3644531,20.7832031 C94.3644531,23.3964974 94.844917,25.4238209 95.8058593,26.8652344 C96.7668016,28.3066478 98.1496003,29.0273438 99.9542968,29.0273438 C101.723837,29.0273438 103.083198,28.3330148 104.032422,26.9443359 C104.981645,25.5556571 105.462109,23.5312633 105.473828,20.8710938 L105.473828,19.6230469 Z M124.824219,23.6308594 L120.623047,23.6308594 L120.623047,33 L115.349609,33 L115.349609,7.40625 L124.859375,7.40625 C127.882828,7.40625 130.214835,8.08007139 131.855469,9.42773438 C133.496102,10.7753974 134.316406,12.6796752 134.316406,15.140625 C134.316406,16.8867275 133.93848,18.3427676 133.182617,19.5087891 C132.426754,20.6748105 131.281258,21.6035122 129.746094,22.2949219 L135.283203,32.7539062 L135.283203,33 L129.623047,33 L124.824219,23.6308594 Z M120.623047,19.359375 L124.876953,19.359375 C126.201178,19.359375 127.226559,19.0224643 127.953125,18.3486328 C128.679691,17.6748013 129.042969,16.7460997 129.042969,15.5625 C129.042969,14.3554627 128.700199,13.4062535 128.014648,12.7148438 C127.329098,12.023434 126.277351,11.6777344 124.859375,11.6777344 L120.623047,11.6777344 L120.623047,19.359375 Z M154.422656,21.9082031 L144.297656,21.9082031 L144.297656,28.7636719 L156.180469,28.7636719 L156.180469,33 L139.024219,33 L139.024219,7.40625 L156.145312,7.40625 L156.145312,11.6777344 L144.297656,11.6777344 L144.297656,17.7773438 L154.422656,17.7773438 L154.422656,21.9082031 Z"></path>
            </g>
        </g>
    </g>
</svg>