<?xml version="1.0" encoding="UTF-8"?>
<svg width="190px" height="256px" viewBox="0 0 190 256" version="1.1" xmlns="http://www.w3.org/2000/svg" xmlns:xlink="http://www.w3.org/1999/xlink">
    <!-- Generator: Sketch 47.1 (45422) - http://www.bohemiancoding.com/sketch -->
    <!-- <title>Explore</title> -->
    <desc>Created with Sketch.</desc>
    <defs></defs>
    <g id="Page-13" stroke="none" stroke-width="1" fill="none" fill-rule="evenodd">
        <g id="EXPLORE_w" transform="translate(5.000000, 5.000000)">
            <path d="M26.6835938,238.908203 L16.5585938,238.908203 L16.5585938,245.763672 L28.4414062,245.763672 L28.4414062,250 L11.2851562,250 L11.2851562,224.40625 L28.40625,224.40625 L28.40625,228.677734 L16.5585938,228.677734 L16.5585938,234.777344 L26.6835938,234.777344 L26.6835938,238.908203 Z M40.6933594,233.230469 L45.4921875,224.40625 L51.5566406,224.40625 L44.1035156,237.097656 L51.75,250 L45.6152344,250 L40.6933594,241.035156 L35.7714844,250 L29.6367188,250 L37.2832031,237.097656 L29.8300781,224.40625 L35.8945312,224.40625 L40.6933594,233.230469 Z M59.6777344,240.982422 L59.6777344,250 L54.4042969,250 L54.4042969,224.40625 L64.3886719,224.40625 C66.3105565,224.40625 68.0009693,224.757809 69.4599609,225.460937 C70.9189526,226.164066 72.0410117,227.163079 72.8261719,228.458008 C73.6113321,229.752936 74.0039062,231.226554 74.0039062,232.878906 C74.0039062,235.386731 73.1455164,237.364251 71.4287109,238.811523 C69.7119055,240.258796 67.3359527,240.982422 64.3007812,240.982422 L59.6777344,240.982422 Z M59.6777344,236.710937 L64.3886719,236.710937 C65.7832101,236.710937 66.846676,236.382816 67.5791016,235.726562 C68.3115271,235.070309 68.6777344,234.132819 68.6777344,232.914062 C68.6777344,231.66015 68.3085974,230.646488 67.5703125,229.873047 C66.8320276,229.099606 65.8125065,228.701172 64.5117188,228.677734 L59.6777344,228.677734 L59.6777344,236.710937 Z M82.8984375,245.763672 L94.0957031,245.763672 L94.0957031,250 L77.625,250 L77.625,224.40625 L82.8984375,224.40625 L82.8984375,245.763672 Z M117.017578,237.783203 C117.017578,240.302747 116.57227,242.511709 115.681641,244.410156 C114.791011,246.308603 113.51661,247.773432 111.858398,248.804687 C110.200187,249.835943 108.298839,250.351562 106.154297,250.351562 C104.033193,250.351562 102.140633,249.841802 100.476562,248.822266 C98.8124917,247.802729 97.5234421,246.346689 96.609375,244.454102 C95.6953079,242.561514 95.2324219,240.384778 95.2207031,237.923828 L95.2207031,236.658203 C95.2207031,234.138659 95.6748001,231.920908 96.5830078,230.004883 C97.4912155,228.088858 98.7744058,226.618169 100.432617,225.592773 C102.090829,224.567378 103.986317,224.054687 106.119141,224.054687 C108.251964,224.054687 110.147453,224.567378 111.805664,225.592773 C113.463875,226.618169 114.747066,228.088858 115.655273,230.004883 C116.563481,231.920908 117.017578,234.1328 117.017578,236.640625 L117.017578,237.783203 Z M111.673828,236.623047 C111.673828,233.93944 111.193364,231.900398 110.232422,230.505859 C109.27148,229.111321 107.9004,228.414062 106.119141,228.414062 C104.349601,228.414062 102.98438,229.102532 102.023438,230.479492 C101.062495,231.856452 100.576172,233.874987 100.564453,236.535156 L100.564453,237.783203 C100.564453,240.396497 101.044917,242.423821 102.005859,243.865234 C102.966802,245.306648 104.3496,246.027344 106.154297,246.027344 C107.923837,246.027344 109.283198,245.333015 110.232422,243.944336 C111.181645,242.555657 111.662109,240.531263 111.673828,237.871094 L111.673828,236.623047 Z M130.324219,240.630859 L126.123047,240.630859 L126.123047,250 L120.849609,250 L120.849609,224.40625 L130.359375,224.40625 C133.382828,224.40625 135.714836,225.080071 137.355469,226.427734 C138.996102,227.775397 139.816406,229.679675 139.816406,232.140625 C139.816406,233.886727 139.43848,235.342768 138.682617,236.508789 C137.926754,237.674811 136.781258,238.603512 135.246094,239.294922 L140.783203,249.753906 L140.783203,250 L135.123047,250 L130.324219,240.630859 Z M126.123047,236.359375 L130.376953,236.359375 C131.701178,236.359375 132.726559,236.022464 133.453125,235.348633 C134.179691,234.674801 134.542969,233.7461 134.542969,232.5625 C134.542969,231.355463 134.200199,230.406253 133.514648,229.714844 C132.829098,229.023434 131.777351,228.677734 130.359375,228.677734 L126.123047,228.677734 L126.123047,236.359375 Z M159.222656,238.908203 L149.097656,238.908203 L149.097656,245.763672 L160.980469,245.763672 L160.980469,250 L143.824219,250 L143.824219,224.40625 L160.945312,224.40625 L160.945312,228.677734 L149.097656,228.677734 L149.097656,234.777344 L159.222656,234.777344 L159.222656,238.908203 Z" id="EXPLORE" fill="#FFFFFF"></path>
            <g id="Oval-1-+-?-+-Rectangle-12-+-Rectangle-12-+-Triangle-1-+-Rectangle-13-+-EXPLORE-SITE">
                <g id="Oval-1-+-?-+-Rectangle-12-+-Rectangle-12-+-Triangle-1-+-Rectangle-13">
                    <g id="Oval-1-+-?" stroke-width="10" stroke="#FFFFFF">
                        <circle id="Oval-15" cx="90" cy="90" r="90"></circle>
                    </g>
                    <g id="Rectangle-12-+-Rectangle-12-+-Triangle-1-+-Rectangle-13" transform="translate(40.000000, 30.000000)">
                        <polyline id="Rectangle-16" stroke="#FFFFFF" stroke-width="2.205" points="50.4861407 103.164564 30.4211533 103.164564 30.4211533 11.8684897 50.4861407 11.8684897"></polyline>
                        <path d="M54.4991381,0 L99.64536,6.39072519 L99.64536,109.55529 L54.4991381,118.684897 L54.4991381,0 Z M63.5283825,63.9072519 C65.1906204,63.9072519 66.5381306,62.4766394 66.5381306,60.7118893 C66.5381306,58.9471393 65.1906204,57.5165267 63.5283825,57.5165267 C61.8661444,57.5165267 60.5186344,58.9471393 60.5186344,60.7118893 C60.5186344,62.4766394 61.8661444,63.9072519 63.5283825,63.9072519 Z" id="Rectangle-18" fill="#FFFFFF" fill-rule="nonzero"></path>
                        <g id="Triangle-1-+-Rectangle-13" transform="translate(0.323672, 41.996194)" fill-rule="nonzero" fill="#FFFFFF">
                            <polygon id="Triangle-2" stroke="#08374F" stroke-width="1.26" points="19.0617381 31.0406653 19.0617381 0 44.1429724 15.5203326"></polygon>
                            <rect id="Rectangle-13" x="0" y="12.7814504" width="25.0812343" height="5.47776446" rx="2.52"></rect>
                        </g>
                    </g>
                </g>
            </g>
        </g>
    </g>
</svg>