<?xml version="1.0" encoding="UTF-8"?>
<svg width="305px" height="367px" viewBox="0 0 305 367" version="1.1" xmlns="http://www.w3.org/2000/svg" xmlns:xlink="http://www.w3.org/1999/xlink">
    <!-- Generator: Sketch 47.1 (45422) - http://www.bohemiancoding.com/sketch -->
    <!-- <title>Glossary</title> -->
    <desc>Created with Sketch.</desc>
    <defs></defs>
    <g id="Page-16" stroke="none" stroke-width="1" fill="none" fill-rule="evenodd">
        <g id="GLOSSARY_sel" transform="translate(0.000000, 8.000000)">
            <g id="ACRONYMS-&amp;" transform="translate(0.000000, 266.000000)" fill-rule="nonzero" fill="#326496">
                <path d="M22.3125,27.96875 L9.984375,27.96875 L7.640625,35 L0.1640625,35 L12.8671875,0.875 L19.3828125,0.875 L32.15625,35 L24.6796875,35 L22.3125,27.96875 Z M11.8828125,22.2734375 L20.4140625,22.2734375 L16.125,9.5 L11.8828125,22.2734375 Z M61.640625,23.6328125 C61.3749987,27.3047059 60.0195435,30.195302 57.5742188,32.3046875 C55.128894,34.414073 51.90627,35.46875 47.90625,35.46875 C43.5312281,35.46875 40.0898563,33.9961085 37.5820312,31.0507812 C35.0742062,28.105454 33.8203125,24.0625257 33.8203125,18.921875 L33.8203125,16.8359375 C33.8203125,13.5546711 34.3984317,10.664075 35.5546875,8.1640625 C36.7109433,5.66405 38.3632705,3.7461004 40.5117188,2.4101562 C42.660167,1.0742121 45.1562358,0.40625 48,0.40625 C51.9375197,0.40625 55.109363,1.460927 57.515625,3.5703125 C59.921887,5.679698 61.3124981,8.6406059 61.6875,12.453125 L54.65625,12.453125 C54.4843741,10.249989 53.871099,8.6523487 52.8164062,7.6601562 C51.7617135,6.6679638 50.1562608,6.171875 48,6.171875 C45.6562383,6.171875 43.9023496,7.0117104 42.7382812,8.6914062 C41.5742129,10.3711021 40.9765627,12.9765448 40.9453125,16.5078125 L40.9453125,19.0859375 C40.9453125,22.7734559 41.5039007,25.4687415 42.6210938,27.171875 C43.7382868,28.8750085 45.499988,29.7265625 47.90625,29.7265625 C50.0781359,29.7265625 51.6992134,29.2304737 52.7695312,28.2382812 C53.8398491,27.2460888 54.4531242,25.7109479 54.609375,23.6328125 L61.640625,23.6328125 Z M78.890625,22.5078125 L73.2890625,22.5078125 L73.2890625,35 L66.2578125,35 L66.2578125,0.875 L78.9375,0.875 C82.9687702,0.875 86.0781141,1.7734285 88.265625,3.5703125 C90.4531359,5.3671965 91.546875,7.9062336 91.546875,11.1875 C91.546875,13.5156366 91.0429738,15.4570235 90.0351562,17.0117187 C89.0273387,18.566414 87.5000102,19.8046829 85.453125,20.7265625 L92.8359375,34.671875 L92.8359375,35 L85.2890625,35 L78.890625,22.5078125 Z M73.2890625,16.8125 L78.9609375,16.8125 C80.7265713,16.8125 82.0937452,16.3632857 83.0625,15.4648438 C84.0312548,14.5664018 84.515625,13.3281329 84.515625,11.75 C84.515625,10.140617 84.0585983,8.8750046 83.1445312,7.953125 C82.2304642,7.0312454 80.8281345,6.5703125 78.9375,6.5703125 L73.2890625,6.5703125 L73.2890625,16.8125 Z M124.921875,18.7109375 C124.921875,22.0703293 124.328131,25.0156123 123.140625,27.546875 C121.953119,30.0781377 120.253917,32.0312431 118.042969,33.40625 C115.83202,34.7812569 113.296889,35.46875 110.4375,35.46875 C107.609361,35.46875 105.085949,34.7890693 102.867188,33.4296875 C100.648426,32.0703057 98.9296936,30.1289189 97.7109375,27.6054688 C96.4921814,25.0820186 95.8750001,22.1797039 95.859375,18.8984375 L95.859375,17.2109375 C95.859375,13.8515457 96.4648377,10.894544 97.6757812,8.3398438 C98.8867248,5.7851435 100.597645,3.8242256 102.808594,2.4570312 C105.019542,1.0898369 107.546861,0.40625 110.390625,0.40625 C113.234389,0.40625 115.761708,1.0898369 117.972656,2.4570312 C120.183605,3.8242256 121.894525,5.7851435 123.105469,8.3398438 C124.316412,10.894544 124.921875,13.8437333 124.921875,17.1875 L124.921875,18.7109375 Z M117.796875,17.1640625 C117.796875,13.5859196 117.156256,10.8671968 115.875,9.0078125 C114.593744,7.1484282 112.765637,6.21875 110.390625,6.21875 C108.031238,6.21875 106.210944,7.1367096 104.929688,8.9726562 C103.648431,10.8086029 103,13.4999823 102.984375,17.046875 L102.984375,18.7109375 C102.984375,22.1953299 103.624994,24.8984279 104.90625,26.8203125 C106.187506,28.7421971 108.031238,29.703125 110.4375,29.703125 C112.796887,29.703125 114.609369,28.777353 115.875,26.9257812 C117.140631,25.0742095 117.78125,22.3750177 117.796875,18.828125 L117.796875,17.1640625 Z M157.78125,35 L150.75,35 L137.0625,12.546875 L137.0625,35 L130.03125,35 L130.03125,0.875 L137.0625,0.875 L150.773438,23.375 L150.773438,0.875 L157.78125,0.875 L157.78125,35 Z M175.03125,16.25 L182.132812,0.875 L189.820312,0.875 L178.617188,22.625 L178.617188,35 L171.46875,35 L171.46875,22.625 L160.265625,0.875 L167.976562,0.875 L175.03125,16.25 Z M202.125,0.875 L210.890625,25.625 L219.609375,0.875 L228.84375,0.875 L228.84375,35 L221.789062,35 L221.789062,25.671875 L222.492188,9.5703125 L213.28125,35 L208.453125,35 L199.265625,9.59375 L199.96875,25.671875 L199.96875,35 L192.9375,35 L192.9375,0.875 L202.125,0.875 Z M252.679688,26.046875 C252.679688,24.7187434 252.210942,23.6992223 251.273438,22.9882812 C250.335933,22.2773402 248.64845,21.5273477 246.210938,20.7382812 C243.773425,19.9492148 241.843757,19.1718788 240.421875,18.40625 C236.546856,16.3124895 234.609375,13.4922052 234.609375,9.9453125 C234.609375,8.1015533 235.128901,6.4570385 236.167969,5.0117188 C237.207036,3.566399 238.699209,2.4375041 240.644531,1.625 C242.589853,0.8124959 244.773425,0.40625 247.195312,0.40625 C249.632825,0.40625 251.804678,0.8476518 253.710938,1.7304688 C255.617197,2.6132857 257.097651,3.859367 258.152344,5.46875 C259.207037,7.078133 259.734375,8.9062398 259.734375,10.953125 L252.703125,10.953125 C252.703125,9.3906172 252.210942,8.1757856 251.226562,7.3085938 C250.242183,6.4414019 248.859384,6.0078125 247.078125,6.0078125 C245.359366,6.0078125 244.023442,6.3710901 243.070312,7.0976562 C242.117183,7.8242224 241.640625,8.7812441 241.640625,9.96875 C241.640625,11.0781305 242.199213,12.0078088 243.316406,12.7578125 C244.433599,13.5078162 246.078114,14.2109342 248.25,14.8671875 C252.25002,16.0703185 255.164053,17.5624911 256.992188,19.34375 C258.820322,21.1250089 259.734375,23.3437367 259.734375,26 C259.734375,28.9531398 258.617199,31.2695229 256.382812,32.9492187 C254.148426,34.6289146 251.140644,35.46875 247.359375,35.46875 C244.734362,35.46875 242.343761,34.9882861 240.1875,34.0273437 C238.031239,33.0664014 236.386724,31.7500084 235.253906,30.078125 C234.121088,28.4062416 233.554688,26.468761 233.554688,24.265625 L240.609375,24.265625 C240.609375,28.0312688 242.859352,29.9140625 247.359375,29.9140625 C249.031258,29.9140625 250.335933,29.5742221 251.273438,28.8945312 C252.210942,28.2148404 252.679688,27.2656311 252.679688,26.046875 Z M275.0625,25.8125 C275.0625,24.2343671 275.503902,22.7734442 276.386719,21.4296875 C277.269536,20.0859308 278.890613,18.5937582 281.25,16.953125 C280.23437,15.5937432 279.437503,14.3164122 278.859375,13.1210937 C278.281247,11.9257753 277.992188,10.679694 277.992188,9.3828125 C277.992188,6.7265492 278.832023,4.5664146 280.511719,2.9023438 C282.191415,1.2382729 284.453111,0.40625 287.296875,0.40625 C289.843763,0.40625 291.933586,1.1640549 293.566406,2.6796875 C295.199227,4.1953201 296.015625,6.0859262 296.015625,8.3515625 C296.015625,11.0703261 294.640639,13.4687396 291.890625,15.546875 L289.265625,17.4453125 L295.148438,24.2890625 C296.070317,22.4765534 296.53125,20.4765734 296.53125,18.2890625 L302.296875,18.2890625 C302.296875,22.7265847 301.273448,26.3202987 299.226562,29.0703125 L304.335938,35 L296.648438,35 L294.890625,32.984375 C292.374987,34.6406333 289.484391,35.46875 286.21875,35.46875 C282.843733,35.46875 280.140635,34.5820401 278.109375,32.8085937 C276.078115,31.0351474 275.0625,28.7031395 275.0625,25.8125 Z M286.546875,30.03125 C288.171883,30.03125 289.71093,29.5781295 291.164062,28.671875 L284.4375,20.890625 L283.945312,21.2421875 C282.554681,22.4296934 281.859375,23.828117 281.859375,25.4375 C281.859375,26.7968818 282.292964,27.9023395 283.160156,28.7539062 C284.027348,29.605473 285.156243,30.03125 286.546875,30.03125 Z M284.0625,9.2890625 C284.0625,10.4609434 284.749993,11.9374911 286.125,13.71875 L287.929688,12.5234375 C288.851567,11.9296845 289.488279,11.3515653 289.839844,10.7890625 C290.191408,10.2265597 290.367188,9.5546914 290.367188,8.7734375 C290.367188,7.9921836 290.078128,7.3125029 289.5,6.734375 C288.921872,6.1562471 288.179692,5.8671875 287.273438,5.8671875 C286.304683,5.8671875 285.527347,6.1796844 284.941406,6.8046875 C284.355466,7.4296906 284.0625,8.2578073 284.0625,9.2890625 Z" id="Shape7"></path>
            </g>
            <g id="GLOSSARY" transform="translate(28.000000, 323.000000)" fill-rule="nonzero" fill="#326496">
                <path d="M28.046875,30.6875 C26.7812437,32.2031326 24.9921991,33.3789021 22.6796875,34.2148437 C20.3671759,35.0507854 17.8047016,35.46875 14.9921875,35.46875 C12.0390477,35.46875 9.4492299,34.8242252 7.22265625,33.5351562 C4.99608262,32.2460873 3.2773498,30.3750123 2.06640625,27.921875 C0.8554627,25.4687377 0.23437516,22.5859541 0.203125,19.2734375 L0.203125,16.953125 C0.203125,13.546858 0.77733801,10.5976687 1.92578125,8.1054688 C3.07422449,5.6132688 4.73045793,3.7070379 6.89453125,2.3867188 C9.0586046,1.0663996 11.5937355,0.40625 14.5,0.40625 C18.5468952,0.40625 21.7109261,1.3710841 23.9921875,3.3007812 C26.2734489,5.2304784 27.6249979,8.0390441 28.046875,11.7265625 L21.203125,11.7265625 C20.8906234,9.7734277 20.1992241,8.3437545 19.1289062,7.4375 C18.0585884,6.5312455 16.5859469,6.078125 14.7109375,6.078125 C12.3203005,6.078125 10.5000063,6.9765535 9.25,8.7734375 C7.99999375,10.5703215 7.36718758,13.2421698 7.3515625,16.7890625 L7.3515625,18.96875 C7.3515625,22.5468929 8.0312432,25.2499909 9.390625,27.078125 C10.7500068,28.9062591 12.7421744,29.8203125 15.3671875,29.8203125 C18.0078257,29.8203125 19.8906194,29.2578181 21.015625,28.1328125 L21.015625,22.25 L14.6171875,22.25 L14.6171875,17.0703125 L28.046875,17.0703125 L28.046875,30.6875 Z M40.7734375,29.3515625 L55.703125,29.3515625 L55.703125,35 L33.7421875,35 L33.7421875,0.875 L40.7734375,0.875 L40.7734375,29.3515625 Z M86.265625,18.7109375 C86.265625,22.0703293 85.6718809,25.0156123 84.484375,27.546875 C83.2968691,30.0781377 81.5976673,32.0312431 79.3867187,33.40625 C77.1757702,34.7812569 74.6406393,35.46875 71.78125,35.46875 C68.9531109,35.46875 66.4296986,34.7890693 64.2109375,33.4296875 C61.9921764,32.0703057 60.2734436,30.1289189 59.0546875,27.6054688 C57.8359314,25.0820186 57.2187501,22.1797039 57.203125,18.8984375 L57.203125,17.2109375 C57.203125,13.8515457 57.8085877,10.894544 59.0195312,8.3398438 C60.2304748,5.7851435 61.9413952,3.8242256 64.1523437,2.4570312 C66.3632923,1.0898369 68.8906108,0.40625 71.734375,0.40625 C74.5781392,0.40625 77.1054577,1.0898369 79.3164062,2.4570312 C81.5273548,3.8242256 83.2382752,5.7851435 84.4492187,8.3398438 C85.6601623,10.894544 86.265625,13.8437333 86.265625,17.1875 L86.265625,18.7109375 Z M79.140625,17.1640625 C79.140625,13.5859196 78.5000064,10.8671968 77.21875,9.0078125 C75.9374936,7.1484282 74.1093869,6.21875 71.734375,6.21875 C69.3749882,6.21875 67.5546939,7.1367096 66.2734375,8.9726562 C64.9921811,10.8086029 64.3437501,13.4999823 64.328125,17.046875 L64.328125,18.7109375 C64.328125,22.1953299 64.9687436,24.8984279 66.25,26.8203125 C67.5312564,28.7421971 69.374988,29.703125 71.78125,29.703125 C74.1406368,29.703125 75.9531187,28.777353 77.21875,26.9257812 C78.4843813,25.0742095 79.1249999,22.3750177 79.140625,18.828125 L79.140625,17.1640625 Z M109.070312,26.046875 C109.070312,24.7187434 108.601567,23.6992223 107.664062,22.9882812 C106.726558,22.2773402 105.039075,21.5273477 102.601562,20.7382812 C100.16405,19.9492148 98.234382,19.1718788 96.8125,18.40625 C92.9374806,16.3124895 91,13.4922052 91,9.9453125 C91,8.1015533 91.5195261,6.4570385 92.5585937,5.0117188 C93.5976614,3.566399 95.089834,2.4375041 97.0351562,1.625 C98.980478,0.8124959 101.16405,0.40625 103.585937,0.40625 C106.02345,0.40625 108.195303,0.8476518 110.101562,1.7304688 C112.007822,2.6132857 113.488276,3.859367 114.542969,5.46875 C115.597662,7.078133 116.125,8.9062398 116.125,10.953125 L109.09375,10.953125 C109.09375,9.3906172 108.601567,8.1757856 107.617187,7.3085938 C106.632808,6.4414019 105.250009,6.0078125 103.46875,6.0078125 C101.749991,6.0078125 100.414067,6.3710901 99.460937,7.0976562 C98.507808,7.8242224 98.03125,8.7812441 98.03125,9.96875 C98.03125,11.0781305 98.589838,12.0078088 99.707031,12.7578125 C100.824224,13.5078162 102.468739,14.2109342 104.640625,14.8671875 C108.640645,16.0703185 111.554678,17.5624911 113.382812,19.34375 C115.210947,21.1250089 116.125,23.3437367 116.125,26 C116.125,28.9531398 115.007824,31.2695229 112.773437,32.9492187 C110.539051,34.6289146 107.531269,35.46875 103.75,35.46875 C101.124987,35.46875 98.734386,34.9882861 96.578125,34.0273437 C94.4218642,33.0664014 92.7773494,31.7500084 91.6445312,30.078125 C90.5117131,28.4062416 89.9453125,26.468761 89.9453125,24.265625 L97,24.265625 C97,28.0312688 99.249977,29.9140625 103.75,29.9140625 C105.421883,29.9140625 106.726558,29.5742221 107.664062,28.8945312 C108.601567,28.2148404 109.070312,27.2656311 109.070312,26.046875 Z M138.578125,26.046875 C138.578125,24.7187434 138.10938,23.6992223 137.171875,22.9882812 C136.23437,22.2773402 134.546887,21.5273477 132.109375,20.7382812 C129.671863,19.9492148 127.742195,19.1718788 126.320312,18.40625 C122.445293,16.3124895 120.507812,13.4922052 120.507812,9.9453125 C120.507812,8.1015533 121.027339,6.4570385 122.066406,5.0117188 C123.105474,3.566399 124.597647,2.4375041 126.542969,1.625 C128.488291,0.8124959 130.671863,0.40625 133.09375,0.40625 C135.531262,0.40625 137.703115,0.8476518 139.609375,1.7304688 C141.515635,2.6132857 142.996088,3.859367 144.050781,5.46875 C145.105474,7.078133 145.632812,8.9062398 145.632812,10.953125 L138.601562,10.953125 C138.601562,9.3906172 138.10938,8.1757856 137.125,7.3085938 C136.14062,6.4414019 134.757821,6.0078125 132.976562,6.0078125 C131.257804,6.0078125 129.92188,6.3710901 128.96875,7.0976562 C128.01562,7.8242224 127.539062,8.7812441 127.539062,9.96875 C127.539062,11.0781305 128.097651,12.0078088 129.214844,12.7578125 C130.332037,13.5078162 131.976552,14.2109342 134.148437,14.8671875 C138.148457,16.0703185 141.062491,17.5624911 142.890625,19.34375 C144.718759,21.1250089 145.632812,23.3437367 145.632812,26 C145.632812,28.9531398 144.515636,31.2695229 142.28125,32.9492187 C140.046864,34.6289146 137.039081,35.46875 133.257812,35.46875 C130.632799,35.46875 128.242198,34.9882861 126.085937,34.0273437 C123.929677,33.0664014 122.285162,31.7500084 121.152344,30.078125 C120.019526,28.4062416 119.453125,26.468761 119.453125,24.265625 L126.507812,24.265625 C126.507812,28.0312688 128.75779,29.9140625 133.257812,29.9140625 C134.929696,29.9140625 136.23437,29.5742221 137.171875,28.8945312 C138.10938,28.2148404 138.578125,27.2656311 138.578125,26.046875 Z M169.65625,27.96875 L157.328125,27.96875 L154.984375,35 L147.507812,35 L160.210938,0.875 L166.726562,0.875 L179.5,35 L172.023438,35 L169.65625,27.96875 Z M159.226562,22.2734375 L167.757812,22.2734375 L163.46875,9.5 L159.226562,22.2734375 Z M195.320312,22.5078125 L189.71875,22.5078125 L189.71875,35 L182.6875,35 L182.6875,0.875 L195.367187,0.875 C199.398458,0.875 202.507802,1.7734285 204.695312,3.5703125 C206.882823,5.3671965 207.976562,7.9062336 207.976562,11.1875 C207.976562,13.5156366 207.472661,15.4570235 206.464844,17.0117187 C205.457026,18.566414 203.929698,19.8046829 201.882812,20.7265625 L209.265625,34.671875 L209.265625,35 L201.71875,35 L195.320312,22.5078125 Z M189.71875,16.8125 L195.390625,16.8125 C197.156259,16.8125 198.523433,16.3632857 199.492187,15.4648438 C200.460942,14.5664018 200.945312,13.3281329 200.945312,11.75 C200.945312,10.140617 200.488286,8.8750046 199.574219,7.953125 C198.660152,7.0312454 197.257822,6.5703125 195.367187,6.5703125 L189.71875,6.5703125 L189.71875,16.8125 Z M223.960937,16.25 L231.0625,0.875 L238.75,0.875 L227.546875,22.625 L227.546875,35 L220.398437,35 L220.398437,22.625 L209.195312,0.875 L216.90625,0.875 L223.960937,16.25 Z" id="Shape8"></path>
            </g>
            <g id="Glossary-grey" transform="translate(20.000000, 0.000000)">
                <circle id="Oval-17" stroke="#9B9AAF" stroke-width="16" fill="#2A5581" fill-rule="nonzero" cx="115" cy="115" r="115"></circle>
                <circle id="Oval-20" stroke="#FFFDFD" stroke-width="3" cx="114.361111" cy="114.361111" r="107.972222"></circle>
                <g id="Oval-5-+-Rectangle-3" transform="translate(63.888889, 47.277778)" fill-rule="nonzero">
                    <ellipse id="Oval-55675768" stroke="#FFFFFF" stroke-width="12.1000004" fill-opacity="0" fill="#FFFFFF" cx="40.2002165" cy="40.0917431" rx="40.2002165" ry="40.0917431"></ellipse>
                    <circle id="Oval-5-Copy" fill-opacity="0" fill="#00334C" cx="38.9722222" cy="38.9722222" r="23.6388889"></circle>
                    <rect id="Rectangle-9" fill="#FFFFFF" transform="translate(76.056378, 110.123315) rotate(-30.000000) translate(-76.056378, -110.123315) " x="65.4773741" y="63.4878089" width="21.1580087" height="93.2710122" rx="8.2792208"></rect>
                </g>
            </g>
        </g>
    </g>
</svg>