<?xml version="1.0" encoding="UTF-8"?>
<svg width="311px" height="368px" viewBox="0 0 311 368" version="1.1" xmlns="http://www.w3.org/2000/svg" xmlns:xlink="http://www.w3.org/1999/xlink">
    <!-- Generator: Sketch 47.1 (45422) - http://www.bohemiancoding.com/sketch -->
    <!-- <title>Glossary</title> -->
    <desc>Created with Sketch.</desc>
    <defs></defs>
    <g id="Page-17" stroke="none" stroke-width="1" fill="none" fill-rule="evenodd">
        <g id="GLOSSARY_w" transform="translate(0.000000, 8.000000)">
            <g id="Glossary-White" transform="translate(35.000000, 0.000000)">
                <circle id="Oval-7" stroke="#FFFFFF" stroke-width="16" cx="114" cy="114" r="114"></circle>
                <g id="Oval-5-+-Rectangle-3" transform="translate(66.000000, 46.000000)" fill-rule="nonzero">
                    <ellipse id="Oval-575756" stroke="#FFFFFF" stroke-width="12.1000004" fill-opacity="0" fill="#FFFFFF" cx="39.8506494" cy="39.7431193" rx="39.8506494" ry="39.7431193"></ellipse>
                    <circle id="Oval-5-Copy34543" fill-opacity="0" fill="#00334C" cx="38.6333333" cy="38.6333333" r="23.4333333"></circle>
                    <rect id="Rectangle-10" fill="#FFFFFF" transform="translate(75.395019, 109.165721) rotate(-30.000000) translate(-75.395019, -109.165721) " x="64.9080055" y="62.9357412" width="20.974026" height="92.4599599" rx="8.2792208"></rect>
                </g>
            </g>
            <g id="ACRONYMS-&amp;" transform="translate(0.000000, 264.000000)" fill="#FFFFFF">
                <path d="M22.3125,29.96875 L9.984375,29.96875 L7.640625,37 L0.1640625,37 L12.8671875,2.875 L19.3828125,2.875 L32.15625,37 L24.6796875,37 L22.3125,29.96875 Z M11.8828125,24.2734375 L20.4140625,24.2734375 L16.125,11.5 L11.8828125,24.2734375 Z M62.340625,25.6328125 C62.0749987,29.3047059 60.7195435,32.195302 58.2742187,34.3046875 C55.828894,36.414073 52.60627,37.46875 48.60625,37.46875 C44.2312281,37.46875 40.7898563,35.9961085 38.2820312,33.0507812 C35.7742062,30.105454 34.5203125,26.0625257 34.5203125,20.921875 L34.5203125,18.8359375 C34.5203125,15.5546711 35.0984317,12.664075 36.2546875,10.1640625 C37.4109433,7.66405 39.0632705,5.74610043 41.2117187,4.41015625 C43.360167,3.07421207 45.8562358,2.40625 48.7,2.40625 C52.6375197,2.40625 55.809363,3.46092695 58.215625,5.5703125 C60.621887,7.67969805 62.0124981,10.6406059 62.3875,14.453125 L55.35625,14.453125 C55.1843741,12.249989 54.571099,10.6523487 53.5164062,9.66015625 C52.4617135,8.66796379 50.8562608,8.171875 48.7,8.171875 C46.3562383,8.171875 44.6023496,9.01171035 43.4382812,10.6914062 C42.2742129,12.3711021 41.6765626,14.9765448 41.6453125,18.5078125 L41.6453125,21.0859375 C41.6453125,24.7734559 42.2039007,27.4687415 43.3210937,29.171875 C44.4382868,30.8750085 46.199988,31.7265625 48.60625,31.7265625 C50.7781358,31.7265625 52.3992134,31.2304737 53.4695312,30.2382812 C54.5398491,29.2460888 55.1531242,27.7109479 55.309375,25.6328125 L62.340625,25.6328125 Z M80.290625,24.5078125 L74.6890625,24.5078125 L74.6890625,37 L67.6578125,37 L67.6578125,2.875 L80.3375,2.875 C84.3687701,2.875 87.478114,3.77342852 89.665625,5.5703125 C91.8531359,7.36719648 92.946875,9.90623359 92.946875,13.1875 C92.946875,15.5156366 92.4429738,17.4570235 91.4351562,19.0117187 C90.4273387,20.566414 88.9000102,21.8046829 86.853125,22.7265625 L94.2359375,36.671875 L94.2359375,37 L86.6890625,37 L80.290625,24.5078125 Z M74.6890625,18.8125 L80.3609375,18.8125 C82.1265713,18.8125 83.4937451,18.3632857 84.4625,17.4648438 C85.4312548,16.5664018 85.915625,15.3281329 85.915625,13.75 C85.915625,12.140617 85.4585983,10.8750046 84.5445312,9.953125 C83.6304642,9.03124539 82.2281344,8.5703125 80.3375,8.5703125 L74.6890625,8.5703125 L74.6890625,18.8125 Z M127.021875,20.7109375 C127.021875,24.0703293 126.428131,27.0156123 125.240625,29.546875 C124.053119,32.0781377 122.353917,34.0312431 120.142969,35.40625 C117.93202,36.7812569 115.396889,37.46875 112.5375,37.46875 C109.709361,37.46875 107.185949,36.7890693 104.967187,35.4296875 C102.748426,34.0703057 101.029694,32.1289189 99.8109375,29.6054687 C98.5921814,27.0820186 97.975,24.1797039 97.959375,20.8984375 L97.959375,19.2109375 C97.959375,15.8515457 98.5648377,12.894544 99.7757812,10.3398437 C100.986725,7.78514348 102.697645,5.82422559 104.908594,4.45703125 C107.119542,3.08983691 109.646861,2.40625 112.490625,2.40625 C115.334389,2.40625 117.861708,3.08983691 120.072656,4.45703125 C122.283605,5.82422559 123.994525,7.78514348 125.205469,10.3398437 C126.416412,12.894544 127.021875,15.8437333 127.021875,19.1875 L127.021875,20.7109375 Z M119.896875,19.1640625 C119.896875,15.5859196 119.256256,12.8671968 117.975,11.0078125 C116.693744,9.1484282 114.865637,8.21875 112.490625,8.21875 C110.131238,8.21875 108.310944,9.13670957 107.029687,10.9726562 C105.748431,12.8086029 105.1,15.4999823 105.084375,19.046875 L105.084375,20.7109375 C105.084375,24.1953299 105.724994,26.8984279 107.00625,28.8203125 C108.287506,30.7421971 110.131238,31.703125 112.5375,31.703125 C114.896887,31.703125 116.709369,30.777353 117.975,28.9257812 C119.240631,27.0742095 119.88125,24.3750177 119.896875,20.828125 L119.896875,19.1640625 Z M160.58125,37 L153.55,37 L139.8625,14.546875 L139.8625,37 L132.83125,37 L132.83125,2.875 L139.8625,2.875 L153.573437,25.375 L153.573437,2.875 L160.58125,2.875 L160.58125,37 Z M178.53125,18.25 L185.632812,2.875 L193.320312,2.875 L182.117187,24.625 L182.117187,37 L174.96875,37 L174.96875,24.625 L163.765625,2.875 L171.476562,2.875 L178.53125,18.25 Z M206.325,2.875 L215.090625,27.625 L223.809375,2.875 L233.04375,2.875 L233.04375,37 L225.989062,37 L225.989062,27.671875 L226.692187,11.5703125 L217.48125,37 L212.653125,37 L203.465625,11.59375 L204.16875,27.671875 L204.16875,37 L197.1375,37 L197.1375,2.875 L206.325,2.875 Z M257.579687,28.046875 C257.579687,26.7187434 257.110942,25.6992223 256.173437,24.9882812 C255.235933,24.2773402 253.54845,23.5273477 251.110937,22.7382812 C248.673425,21.9492148 246.743757,21.1718788 245.321875,20.40625 C241.446856,18.3124895 239.509375,15.4922052 239.509375,11.9453125 C239.509375,10.1015533 240.028901,8.45703848 241.067969,7.01171875 C242.107036,5.56639902 243.599209,4.43750406 245.544531,3.625 C247.489853,2.81249594 249.673425,2.40625 252.095312,2.40625 C254.532825,2.40625 256.704678,2.84765184 258.610937,3.73046875 C260.517197,4.61328566 261.997651,5.85936695 263.052344,7.46875 C264.107036,9.07813305 264.634375,10.9062398 264.634375,12.953125 L257.603125,12.953125 C257.603125,11.3906172 257.110942,10.1757856 256.126562,9.30859375 C255.142182,8.44140191 253.759384,8.0078125 251.978125,8.0078125 C250.259366,8.0078125 248.923442,8.37109012 247.970312,9.09765625 C247.017183,9.82422238 246.540625,10.7812441 246.540625,11.96875 C246.540625,13.0781305 247.099213,14.0078087 248.216406,14.7578125 C249.333599,15.5078162 250.978114,16.2109342 253.15,16.8671875 C257.15002,18.0703185 260.064053,19.5624911 261.892187,21.34375 C263.720322,23.1250089 264.634375,25.3437367 264.634375,28 C264.634375,30.9531398 263.517199,33.2695229 261.282812,34.9492187 C259.048426,36.6289146 256.040644,37.46875 252.259375,37.46875 C249.634362,37.46875 247.243761,36.9882861 245.0875,36.0273437 C242.931239,35.0664014 241.286724,33.7500084 240.153906,32.078125 C239.021088,30.4062416 238.454687,28.468761 238.454687,26.265625 L245.509375,26.265625 C245.509375,30.0312688 247.759352,31.9140625 252.259375,31.9140625 C253.931258,31.9140625 255.235933,31.5742221 256.173437,30.8945312 C257.110942,30.2148404 257.579687,29.2656311 257.579687,28.046875 Z M281.3625,27.8125 C281.3625,26.2343671 281.803902,24.7734442 282.686719,23.4296875 C283.569536,22.0859308 285.190613,20.5937582 287.55,18.953125 C286.53437,17.5937432 285.737503,16.3164122 285.159375,15.1210937 C284.581247,13.9257753 284.292187,12.679694 284.292187,11.3828125 C284.292187,8.72654922 285.132023,6.56641457 286.811719,4.90234375 C288.491415,3.23827293 290.753111,2.40625 293.596875,2.40625 C296.143763,2.40625 298.233585,3.16405492 299.866406,4.6796875 C301.499227,6.19532008 302.315625,8.08592617 302.315625,10.3515625 C302.315625,13.0703261 300.940639,15.4687396 298.190625,17.546875 L295.565625,19.4453125 L301.448437,26.2890625 C302.370317,24.4765534 302.83125,22.4765734 302.83125,20.2890625 L308.596875,20.2890625 C308.596875,24.7265847 307.573448,28.3202987 305.526562,31.0703125 L310.635937,37 L302.948437,37 L301.190625,34.984375 C298.674987,36.6406333 295.784391,37.46875 292.51875,37.46875 C289.143733,37.46875 286.440635,36.5820401 284.409375,34.8085937 C282.378115,33.0351474 281.3625,30.7031395 281.3625,27.8125 Z M292.846875,32.03125 C294.471883,32.03125 296.01093,31.5781295 297.464062,30.671875 L290.7375,22.890625 L290.245312,23.2421875 C288.85468,24.4296934 288.159375,25.828117 288.159375,27.4375 C288.159375,28.7968818 288.592964,29.9023395 289.460156,30.7539062 C290.327348,31.605473 291.456243,32.03125 292.846875,32.03125 Z M290.3625,11.2890625 C290.3625,12.4609434 291.049993,13.9374911 292.425,15.71875 L294.229687,14.5234375 C295.151567,13.9296845 295.788279,13.3515653 296.139844,12.7890625 C296.491408,12.2265597 296.667187,11.5546914 296.667187,10.7734375 C296.667187,9.99218359 296.378128,9.31250289 295.8,8.734375 C295.221872,8.15624711 294.479692,7.8671875 293.573437,7.8671875 C292.604683,7.8671875 291.827347,8.17968438 291.241406,8.8046875 C290.655466,9.42969062 290.3625,10.2578073 290.3625,11.2890625 Z"></path>
            </g>
            <g id="GLOSSARY" transform="translate(27.000000, 322.000000)" fill="#FFFFFF">
                <path d="M30.046875,32.6875 C28.7812437,34.2031326 26.9921991,35.3789021 24.6796875,36.2148437 C22.3671759,37.0507854 19.8047016,37.46875 16.9921875,37.46875 C14.0390477,37.46875 11.4492299,36.8242252 9.22265625,35.5351562 C6.99608262,34.2460873 5.2773498,32.3750123 4.06640625,29.921875 C2.8554627,27.4687377 2.23437516,24.5859541 2.203125,21.2734375 L2.203125,18.953125 C2.203125,15.546858 2.77733801,12.5976687 3.92578125,10.1054687 C5.07422449,7.61326879 6.73045793,5.70703785 8.89453125,4.38671875 C11.0586046,3.06639965 13.5937355,2.40625 16.5,2.40625 C20.5468952,2.40625 23.7109261,3.3710841 25.9921875,5.30078125 C28.2734489,7.2304784 29.6249979,10.0390441 30.046875,13.7265625 L23.203125,13.7265625 C22.8906234,11.7734277 22.1992241,10.3437545 21.1289063,9.4375 C20.0585884,8.53124547 18.5859469,8.078125 16.7109375,8.078125 C14.3203005,8.078125 12.5000063,8.97655352 11.25,10.7734375 C9.99999375,12.5703215 9.36718758,15.2421698 9.3515625,18.7890625 L9.3515625,20.96875 C9.3515625,24.5468929 10.0312432,27.2499909 11.390625,29.078125 C12.7500068,30.9062591 14.7421744,31.8203125 17.3671875,31.8203125 C20.0078257,31.8203125 21.8906194,31.2578181 23.015625,30.1328125 L23.015625,24.25 L16.6171875,24.25 L16.6171875,19.0703125 L30.046875,19.0703125 L30.046875,32.6875 Z M43.4734375,31.3515625 L58.403125,31.3515625 L58.403125,37 L36.4421875,37 L36.4421875,2.875 L43.4734375,2.875 L43.4734375,31.3515625 Z M89.665625,20.7109375 C89.665625,24.0703293 89.0718809,27.0156123 87.884375,29.546875 C86.696869,32.0781377 84.9976673,34.0312431 82.7867187,35.40625 C80.5757702,36.7812569 78.0406393,37.46875 75.18125,37.46875 C72.3531108,37.46875 69.8296986,36.7890693 67.6109375,35.4296875 C65.3921764,34.0703057 63.6734436,32.1289189 62.4546875,29.6054687 C61.2359314,27.0820186 60.6187501,24.1797039 60.603125,20.8984375 L60.603125,19.2109375 C60.603125,15.8515457 61.2085877,12.894544 62.4195312,10.3398437 C63.6304748,7.78514348 65.3413952,5.82422559 67.5523437,4.45703125 C69.7632923,3.08983691 72.2906108,2.40625 75.134375,2.40625 C77.9781392,2.40625 80.5054577,3.08983691 82.7164062,4.45703125 C84.9273548,5.82422559 86.6382752,7.78514348 87.8492187,10.3398437 C89.0601623,12.894544 89.665625,15.8437333 89.665625,19.1875 L89.665625,20.7109375 Z M82.540625,19.1640625 C82.540625,15.5859196 81.9000064,12.8671968 80.61875,11.0078125 C79.3374936,9.1484282 77.5093869,8.21875 75.134375,8.21875 C72.7749882,8.21875 70.9546939,9.13670957 69.6734375,10.9726562 C68.3921811,12.8086029 67.7437501,15.4999823 67.728125,19.046875 L67.728125,20.7109375 C67.728125,24.1953299 68.3687436,26.8984279 69.65,28.8203125 C70.9312564,30.7421971 72.7749879,31.703125 75.18125,31.703125 C77.5406368,31.703125 79.3531186,30.777353 80.61875,28.9257812 C81.8843813,27.0742095 82.5249999,24.3750177 82.540625,20.828125 L82.540625,19.1640625 Z M113.170312,28.046875 C113.170312,26.7187434 112.701567,25.6992223 111.764062,24.9882812 C110.826558,24.2773402 109.139075,23.5273477 106.701562,22.7382812 C104.26405,21.9492148 102.334382,21.1718788 100.9125,20.40625 C97.0374806,18.3124895 95.1,15.4922052 95.1,11.9453125 C95.1,10.1015533 95.619526,8.45703848 96.6585937,7.01171875 C97.6976614,5.56639902 99.189834,4.43750406 101.135156,3.625 C103.080478,2.81249594 105.26405,2.40625 107.685937,2.40625 C110.12345,2.40625 112.295303,2.84765184 114.201562,3.73046875 C116.107822,4.61328566 117.588276,5.85936695 118.642969,7.46875 C119.697661,9.07813305 120.225,10.9062398 120.225,12.953125 L113.19375,12.953125 C113.19375,11.3906172 112.701567,10.1757856 111.717187,9.30859375 C110.732808,8.44140191 109.350009,8.0078125 107.56875,8.0078125 C105.849991,8.0078125 104.514067,8.37109012 103.560937,9.09765625 C102.607808,9.82422238 102.13125,10.7812441 102.13125,11.96875 C102.13125,13.0781305 102.689838,14.0078087 103.807031,14.7578125 C104.924224,15.5078162 106.568739,16.2109342 108.740625,16.8671875 C112.740645,18.0703185 115.654678,19.5624911 117.482812,21.34375 C119.310947,23.1250089 120.225,25.3437367 120.225,28 C120.225,30.9531398 119.107824,33.2695229 116.873437,34.9492187 C114.639051,36.6289146 111.631269,37.46875 107.85,37.46875 C105.224987,37.46875 102.834386,36.9882861 100.678125,36.0273437 C98.5218642,35.0664014 96.8773494,33.7500084 95.7445312,32.078125 C94.6117131,30.4062416 94.0453125,28.468761 94.0453125,26.265625 L101.1,26.265625 C101.1,30.0312688 103.349977,31.9140625 107.85,31.9140625 C109.521883,31.9140625 110.826558,31.5742221 111.764062,30.8945312 C112.701567,30.2148404 113.170312,29.2656311 113.170312,28.046875 Z M143.378125,28.046875 C143.378125,26.7187434 142.90938,25.6992223 141.971875,24.9882812 C141.03437,24.2773402 139.346887,23.5273477 136.909375,22.7382812 C134.471863,21.9492148 132.542195,21.1718788 131.120312,20.40625 C127.245293,18.3124895 125.307812,15.4922052 125.307812,11.9453125 C125.307812,10.1015533 125.827339,8.45703848 126.866406,7.01171875 C127.905474,5.56639902 129.397646,4.43750406 131.342969,3.625 C133.288291,2.81249594 135.471863,2.40625 137.89375,2.40625 C140.331262,2.40625 142.503115,2.84765184 144.409375,3.73046875 C146.315634,4.61328566 147.796088,5.85936695 148.850781,7.46875 C149.905474,9.07813305 150.432812,10.9062398 150.432812,12.953125 L143.401562,12.953125 C143.401562,11.3906172 142.90938,10.1757856 141.925,9.30859375 C140.94062,8.44140191 139.557821,8.0078125 137.776562,8.0078125 C136.057804,8.0078125 134.72188,8.37109012 133.76875,9.09765625 C132.81562,9.82422238 132.339062,10.7812441 132.339062,11.96875 C132.339062,13.0781305 132.897651,14.0078087 134.014844,14.7578125 C135.132037,15.5078162 136.776552,16.2109342 138.948437,16.8671875 C142.948457,18.0703185 145.862491,19.5624911 147.690625,21.34375 C149.518759,23.1250089 150.432812,25.3437367 150.432812,28 C150.432812,30.9531398 149.315636,33.2695229 147.08125,34.9492187 C144.846864,36.6289146 141.839081,37.46875 138.057812,37.46875 C135.432799,37.46875 133.042198,36.9882861 130.885937,36.0273437 C128.729677,35.0664014 127.085162,33.7500084 125.952344,32.078125 C124.819526,30.4062416 124.253125,28.468761 124.253125,26.265625 L131.307812,26.265625 C131.307812,30.0312688 133.55779,31.9140625 138.057812,31.9140625 C139.729696,31.9140625 141.03437,31.5742221 141.971875,30.8945312 C142.90938,30.2148404 143.378125,29.2656311 143.378125,28.046875 Z M175.15625,29.96875 L162.828125,29.96875 L160.484375,37 L153.007812,37 L165.710937,2.875 L172.226562,2.875 L185,37 L177.523437,37 L175.15625,29.96875 Z M164.726562,24.2734375 L173.257812,24.2734375 L168.96875,11.5 L164.726562,24.2734375 Z M201.520312,24.5078125 L195.91875,24.5078125 L195.91875,37 L188.8875,37 L188.8875,2.875 L201.567187,2.875 C205.598458,2.875 208.707801,3.77342852 210.895312,5.5703125 C213.082823,7.36719648 214.176562,9.90623359 214.176562,13.1875 C214.176562,15.5156366 213.672661,17.4570235 212.664844,19.0117187 C211.657026,20.566414 210.129698,21.8046829 208.082812,22.7265625 L215.465625,36.671875 L215.465625,37 L207.91875,37 L201.520312,24.5078125 Z M195.91875,18.8125 L201.590625,18.8125 C203.356259,18.8125 204.723433,18.3632857 205.692187,17.4648438 C206.660942,16.5664018 207.145312,15.3281329 207.145312,13.75 C207.145312,12.140617 206.688286,10.8750046 205.774219,9.953125 C204.860152,9.03124539 203.457822,8.5703125 201.567187,8.5703125 L195.91875,8.5703125 L195.91875,18.8125 Z M231.985937,18.25 L239.0875,2.875 L246.775,2.875 L235.571875,24.625 L235.571875,37 L228.423437,37 L228.423437,24.625 L217.220312,2.875 L224.93125,2.875 L231.985937,18.25 Z"></path>
            </g>
        </g>
    </g>
</svg>