<?xml version="1.0" encoding="UTF-8"?>
<svg width="312px" height="365px" viewBox="0 0 312 365" version="1.1" xmlns="http://www.w3.org/2000/svg" xmlns:xlink="http://www.w3.org/1999/xlink">
    <!-- Generator: Sketch 47.1 (45422) - http://www.bohemiancoding.com/sketch -->
    <!-- <title>Glossary</title> -->
    <desc>Created with Sketch.</desc>
    <defs></defs>
    <g id="Page-14" stroke="none" stroke-width="1" fill="none" fill-rule="evenodd">
        <g id="GLOSSARY_b" transform="translate(0.000000, 8.000000)">
            <g id="ACRONYMS-&amp;" transform="translate(0.000000, 270.000000)" fill="#326496">
                <path d="M22.1484375,27.5625 L9.8203125,27.5625 L7.4765625,34.59375 L0,34.59375 L12.703125,0.46875 L19.21875,0.46875 L31.9921875,34.59375 L24.515625,34.59375 L22.1484375,27.5625 Z M11.71875,21.8671875 L20.25,21.8671875 L15.9609375,9.09375 L11.71875,21.8671875 Z M62.360773,23.2265625 C62.0951467,26.8984559 60.7396915,29.789052 58.2943668,31.8984375 C55.8490421,34.007823 52.626418,35.0625 48.626398,35.0625 C44.2513762,35.0625 40.8100043,33.5898585 38.3021793,30.6445312 C35.7943542,27.699204 34.5404605,23.6562757 34.5404605,18.515625 L34.5404605,16.4296875 C34.5404605,13.1484211 35.1185797,10.257825 36.2748355,7.7578125 C37.4310913,5.2578 39.0834185,3.33985043 41.2318668,2.00390625 C43.380315,0.66796207 45.8763838,0 48.720148,0 C52.6576677,0 55.829511,1.05467695 58.235773,3.1640625 C60.6420351,5.27344805 62.0326462,8.23435594 62.407648,12.046875 L55.376398,12.046875 C55.2045222,9.843739 54.5912471,8.24609871 53.5365543,7.25390625 C52.4818615,6.26171379 50.8764088,5.765625 48.720148,5.765625 C46.3763863,5.765625 44.6224976,6.60546035 43.4584293,8.28515625 C42.294361,9.9648521 41.6967107,12.5702948 41.6654605,16.1015625 L41.6654605,18.6796875 C41.6654605,22.3672059 42.2240487,25.0624915 43.3412418,26.765625 C44.4584349,28.4687585 46.220136,29.3203125 48.626398,29.3203125 C50.7982839,29.3203125 52.4193614,28.8242237 53.4896793,27.8320312 C54.5599971,26.8398388 55.1732722,25.3046979 55.329523,23.2265625 L62.360773,23.2265625 Z M80.4949836,22.1015625 L74.8934211,22.1015625 L74.8934211,34.59375 L67.8621711,34.59375 L67.8621711,0.46875 L80.5418586,0.46875 C84.5731287,0.46875 87.6824726,1.36717852 89.8699836,3.1640625 C92.0574945,4.96094648 93.1512336,7.49998359 93.1512336,10.78125 C93.1512336,13.1093866 92.6473323,15.0507735 91.6395148,16.6054687 C90.6316973,18.160164 89.1043688,19.3984329 87.0574836,20.3203125 L94.4402961,34.265625 L94.4402961,34.59375 L86.8934211,34.59375 L80.4949836,22.1015625 Z M74.8934211,16.40625 L80.5652961,16.40625 C82.3309299,16.40625 83.6981037,15.9570357 84.6668586,15.0585938 C85.6356134,14.1601518 86.1199836,12.9218829 86.1199836,11.34375 C86.1199836,9.734367 85.6629569,8.46875461 84.7488898,7.546875 C83.8348227,6.62499539 82.432493,6.1640625 80.5418586,6.1640625 L74.8934211,6.1640625 L74.8934211,16.40625 Z M127.410445,18.3046875 C127.410445,21.6640793 126.8167,24.6093623 125.629195,27.140625 C124.441688,29.6718877 122.742487,31.6249931 120.531538,33 C118.32059,34.3750069 115.785459,35.0625 112.926069,35.0625 C110.09793,35.0625 107.574517,34.3828193 105.355756,33.0234375 C103.136995,31.6640557 101.418262,29.7226689 100.199506,27.1992188 C98.9807505,24.6757686 98.3635692,21.7734539 98.3479441,18.4921875 L98.3479441,16.8046875 C98.3479441,13.4452957 98.9534068,10.488294 100.16435,7.93359375 C101.375293,5.37889348 103.086214,3.41797559 105.297162,2.05078125 C107.508111,0.68358691 110.03543,0 112.879194,0 C115.722959,0 118.250276,0.68358691 120.461226,2.05078125 C122.672173,3.41797559 124.383094,5.37889348 125.594038,7.93359375 C126.804981,10.488294 127.410445,13.4374833 127.410445,16.78125 L127.410445,18.3046875 Z M120.285445,16.7578125 C120.285445,13.1796696 119.644826,10.4609468 118.36357,8.6015625 C117.082313,6.7421782 115.254206,5.8125 112.879195,5.8125 C110.519808,5.8125 108.699513,6.73045957 107.418257,8.56640625 C106.137001,10.4023529 105.48857,13.0937323 105.472945,16.640625 L105.472945,18.3046875 C105.472945,21.7890799 106.113563,24.4921779 107.39482,26.4140625 C108.676076,28.3359471 110.519808,29.296875 112.92607,29.296875 C115.285456,29.296875 117.097938,28.371103 118.36357,26.5195312 C119.629201,24.6679595 120.26982,21.9687677 120.285445,18.421875 L120.285445,16.7578125 Z M161.15403,34.59375 L154.12278,34.59375 L140.43528,12.140625 L140.43528,34.59375 L133.40403,34.59375 L133.40403,0.46875 L140.43528,0.46875 L154.146218,22.96875 L154.146218,0.46875 L161.15403,0.46875 L161.15403,34.59375 Z M179.288241,15.84375 L186.389803,0.46875 L194.077303,0.46875 L182.874178,22.21875 L182.874178,34.59375 L175.725741,34.59375 L175.725741,22.21875 L164.522616,0.46875 L172.233553,0.46875 L179.288241,15.84375 Z M207.266201,0.46875 L216.031826,25.21875 L224.750576,0.46875 L233.984951,0.46875 L233.984951,34.59375 L226.930264,34.59375 L226.930264,25.265625 L227.633389,9.1640625 L218.422451,34.59375 L213.594326,34.59375 L204.406826,9.1875 L205.109951,25.265625 L205.109951,34.59375 L198.078701,34.59375 L198.078701,0.46875 L207.266201,0.46875 Z M258.705099,25.640625 C258.705099,24.3124934 258.236354,23.2929723 257.298849,22.5820312 C256.361345,21.8710902 254.673861,21.1210977 252.236349,20.3320312 C249.798837,19.5429648 247.869169,18.7656288 246.447287,18 C242.572267,15.9062395 240.634787,13.0859552 240.634787,9.5390625 C240.634787,7.69530328 241.154313,6.05078848 242.19338,4.60546875 C243.232448,3.16014902 244.724621,2.03125406 246.669943,1.21875 C248.615265,0.406245938 250.798837,0 253.220724,0 C255.658236,0 257.83009,0.441401836 259.736349,1.32421875 C261.642609,2.20703566 263.123063,3.45311695 264.177755,5.0625 C265.232448,6.67188305 265.759787,8.49998977 265.759787,10.546875 L258.728537,10.546875 C258.728537,8.98436719 258.236354,7.76953559 257.251974,6.90234375 C256.267594,6.03515191 254.884796,5.6015625 253.103537,5.6015625 C251.384778,5.6015625 250.048854,5.96484012 249.095724,6.69140625 C248.142594,7.41797238 247.666037,8.37499406 247.666037,9.5625 C247.666037,10.6718805 248.224625,11.6015588 249.341818,12.3515625 C250.459011,13.1015662 252.103526,13.8046842 254.275412,14.4609375 C258.275432,15.6640685 261.189465,17.1562411 263.017599,18.9375 C264.845733,20.7187589 265.759787,22.9374867 265.759787,25.59375 C265.759787,28.5468898 264.64261,30.8632729 262.408224,32.5429687 C260.173838,34.2226646 257.166056,35.0625 253.384787,35.0625 C250.759774,35.0625 248.369172,34.5820361 246.212912,33.6210937 C244.056651,32.6601514 242.412136,31.3437584 241.279318,29.671875 C240.1465,27.9999916 239.580099,26.062511 239.580099,23.859375 L246.634787,23.859375 C246.634787,27.6250188 248.884764,29.5078125 253.384787,29.5078125 C255.05667,29.5078125 256.361345,29.1679721 257.298849,28.4882812 C258.236354,27.8085904 258.705099,26.8593811 258.705099,25.640625 Z M282.785595,25.40625 C282.785595,23.8281171 283.226997,22.3671942 284.109815,21.0234375 C284.992632,19.6796808 286.613708,18.1875082 288.973095,16.546875 C287.957466,15.1874932 287.160598,13.9101622 286.58247,12.7148437 C286.004343,11.5195253 285.715283,10.273444 285.715283,8.9765625 C285.715283,6.32029922 286.555118,4.16016457 288.234815,2.49609375 C289.914511,0.83202293 292.176206,0 295.01997,0 C297.566859,0 299.65668,0.75780492 301.289501,2.2734375 C302.922323,3.78907008 303.73872,5.67967617 303.73872,7.9453125 C303.73872,10.6640761 302.363735,13.0624896 299.61372,15.140625 L296.98872,17.0390625 L302.871533,23.8828125 C303.793412,22.0703034 304.254345,20.0703234 304.254345,17.8828125 L310.01997,17.8828125 C310.01997,22.3203347 308.996543,25.9140487 306.949658,28.6640625 L312.059033,34.59375 L304.371533,34.59375 L302.61372,32.578125 C300.098082,34.2343833 297.207487,35.0625 293.941845,35.0625 C290.566828,35.0625 287.86373,34.1757901 285.83247,32.4023437 C283.801211,30.6288974 282.785595,28.2968895 282.785595,25.40625 Z M294.26997,29.625 C295.894978,29.625 297.434026,29.1718795 298.887158,28.265625 L292.160595,20.484375 L291.668408,20.8359375 C290.277776,22.0234434 289.58247,23.421867 289.58247,25.03125 C289.58247,26.3906318 290.016059,27.4960895 290.883251,28.3476562 C291.750444,29.199223 292.879339,29.625 294.26997,29.625 Z M291.785595,8.8828125 C291.785595,10.0546934 292.473089,11.5312411 293.848095,13.3125 L295.652783,12.1171875 C296.574662,11.5234345 297.211374,10.9453153 297.56294,10.3828125 C297.914504,9.8203097 298.090283,9.14844141 298.090283,8.3671875 C298.090283,7.58593359 297.801223,6.90625289 297.223095,6.328125 C296.644968,5.74999711 295.902787,5.4609375 294.996533,5.4609375 C294.027779,5.4609375 293.250443,5.77343438 292.664501,6.3984375 C292.078561,7.02344062 291.785595,7.85155734 291.785595,8.8828125 Z" id="Shape6" fill-rule="nonzero"></path>
                <g id="Group" transform="translate(31.000000, 49.000000)">
                    <g id="GLOSSARY">
                        <path d="M30.046875,32.6875 C28.7812437,34.2031326 26.9921991,35.3789021 24.6796875,36.2148437 C22.3671759,37.0507854 19.8047016,37.46875 16.9921875,37.46875 C14.0390477,37.46875 11.4492299,36.8242252 9.22265625,35.5351562 C6.99608262,34.2460873 5.2773498,32.3750123 4.06640625,29.921875 C2.8554627,27.4687377 2.23437516,24.5859541 2.203125,21.2734375 L2.203125,18.953125 C2.203125,15.546858 2.77733801,12.5976687 3.92578125,10.1054687 C5.07422449,7.61326879 6.73045793,5.70703785 8.89453125,4.38671875 C11.0586046,3.06639965 13.5937355,2.40625 16.5,2.40625 C20.5468952,2.40625 23.7109261,3.3710841 25.9921875,5.30078125 C28.2734489,7.2304784 29.6249979,10.0390441 30.046875,13.7265625 L23.203125,13.7265625 C22.8906234,11.7734277 22.1992241,10.3437545 21.1289063,9.4375 C20.0585884,8.53124547 18.5859469,8.078125 16.7109375,8.078125 C14.3203005,8.078125 12.5000063,8.97655352 11.25,10.7734375 C9.99999375,12.5703215 9.36718758,15.2421698 9.3515625,18.7890625 L9.3515625,20.96875 C9.3515625,24.5468929 10.0312432,27.2499909 11.390625,29.078125 C12.7500068,30.9062591 14.7421744,31.8203125 17.3671875,31.8203125 C20.0078257,31.8203125 21.8906194,31.2578181 23.015625,30.1328125 L23.015625,24.25 L16.6171875,24.25 L16.6171875,19.0703125 L30.046875,19.0703125 L30.046875,32.6875 Z M43.4734375,31.3515625 L58.403125,31.3515625 L58.403125,37 L36.4421875,37 L36.4421875,2.875 L43.4734375,2.875 L43.4734375,31.3515625 Z M89.665625,20.7109375 C89.665625,24.0703293 89.0718809,27.0156123 87.884375,29.546875 C86.696869,32.0781377 84.9976673,34.0312431 82.7867187,35.40625 C80.5757702,36.7812569 78.0406393,37.46875 75.18125,37.46875 C72.3531108,37.46875 69.8296986,36.7890693 67.6109375,35.4296875 C65.3921764,34.0703057 63.6734436,32.1289189 62.4546875,29.6054687 C61.2359314,27.0820186 60.6187501,24.1797039 60.603125,20.8984375 L60.603125,19.2109375 C60.603125,15.8515457 61.2085877,12.894544 62.4195312,10.3398437 C63.6304748,7.78514348 65.3413952,5.82422559 67.5523437,4.45703125 C69.7632923,3.08983691 72.2906108,2.40625 75.134375,2.40625 C77.9781392,2.40625 80.5054577,3.08983691 82.7164062,4.45703125 C84.9273548,5.82422559 86.6382752,7.78514348 87.8492187,10.3398437 C89.0601623,12.894544 89.665625,15.8437333 89.665625,19.1875 L89.665625,20.7109375 Z M82.540625,19.1640625 C82.540625,15.5859196 81.9000064,12.8671968 80.61875,11.0078125 C79.3374936,9.1484282 77.5093869,8.21875 75.134375,8.21875 C72.7749882,8.21875 70.9546939,9.13670957 69.6734375,10.9726562 C68.3921811,12.8086029 67.7437501,15.4999823 67.728125,19.046875 L67.728125,20.7109375 C67.728125,24.1953299 68.3687436,26.8984279 69.65,28.8203125 C70.9312564,30.7421971 72.7749879,31.703125 75.18125,31.703125 C77.5406368,31.703125 79.3531186,30.777353 80.61875,28.9257812 C81.8843813,27.0742095 82.5249999,24.3750177 82.540625,20.828125 L82.540625,19.1640625 Z M113.170312,28.046875 C113.170312,26.7187434 112.701567,25.6992223 111.764062,24.9882812 C110.826558,24.2773402 109.139075,23.5273477 106.701562,22.7382812 C104.26405,21.9492148 102.334382,21.1718788 100.9125,20.40625 C97.0374806,18.3124895 95.1,15.4922052 95.1,11.9453125 C95.1,10.1015533 95.619526,8.45703848 96.6585937,7.01171875 C97.6976614,5.56639902 99.189834,4.43750406 101.135156,3.625 C103.080478,2.81249594 105.26405,2.40625 107.685937,2.40625 C110.12345,2.40625 112.295303,2.84765184 114.201562,3.73046875 C116.107822,4.61328566 117.588276,5.85936695 118.642969,7.46875 C119.697661,9.07813305 120.225,10.9062398 120.225,12.953125 L113.19375,12.953125 C113.19375,11.3906172 112.701567,10.1757856 111.717187,9.30859375 C110.732808,8.44140191 109.350009,8.0078125 107.56875,8.0078125 C105.849991,8.0078125 104.514067,8.37109012 103.560937,9.09765625 C102.607808,9.82422238 102.13125,10.7812441 102.13125,11.96875 C102.13125,13.0781305 102.689838,14.0078087 103.807031,14.7578125 C104.924224,15.5078162 106.568739,16.2109342 108.740625,16.8671875 C112.740645,18.0703185 115.654678,19.5624911 117.482812,21.34375 C119.310947,23.1250089 120.225,25.3437367 120.225,28 C120.225,30.9531398 119.107824,33.2695229 116.873437,34.9492187 C114.639051,36.6289146 111.631269,37.46875 107.85,37.46875 C105.224987,37.46875 102.834386,36.9882861 100.678125,36.0273437 C98.5218642,35.0664014 96.8773494,33.7500084 95.7445312,32.078125 C94.6117131,30.4062416 94.0453125,28.468761 94.0453125,26.265625 L101.1,26.265625 C101.1,30.0312688 103.349977,31.9140625 107.85,31.9140625 C109.521883,31.9140625 110.826558,31.5742221 111.764062,30.8945312 C112.701567,30.2148404 113.170312,29.2656311 113.170312,28.046875 Z M143.378125,28.046875 C143.378125,26.7187434 142.90938,25.6992223 141.971875,24.9882812 C141.03437,24.2773402 139.346887,23.5273477 136.909375,22.7382812 C134.471863,21.9492148 132.542195,21.1718788 131.120312,20.40625 C127.245293,18.3124895 125.307812,15.4922052 125.307812,11.9453125 C125.307812,10.1015533 125.827339,8.45703848 126.866406,7.01171875 C127.905474,5.56639902 129.397646,4.43750406 131.342969,3.625 C133.288291,2.81249594 135.471863,2.40625 137.89375,2.40625 C140.331262,2.40625 142.503115,2.84765184 144.409375,3.73046875 C146.315634,4.61328566 147.796088,5.85936695 148.850781,7.46875 C149.905474,9.07813305 150.432812,10.9062398 150.432812,12.953125 L143.401562,12.953125 C143.401562,11.3906172 142.90938,10.1757856 141.925,9.30859375 C140.94062,8.44140191 139.557821,8.0078125 137.776562,8.0078125 C136.057804,8.0078125 134.72188,8.37109012 133.76875,9.09765625 C132.81562,9.82422238 132.339062,10.7812441 132.339062,11.96875 C132.339062,13.0781305 132.897651,14.0078087 134.014844,14.7578125 C135.132037,15.5078162 136.776552,16.2109342 138.948437,16.8671875 C142.948457,18.0703185 145.862491,19.5624911 147.690625,21.34375 C149.518759,23.1250089 150.432812,25.3437367 150.432812,28 C150.432812,30.9531398 149.315636,33.2695229 147.08125,34.9492187 C144.846864,36.6289146 141.839081,37.46875 138.057812,37.46875 C135.432799,37.46875 133.042198,36.9882861 130.885937,36.0273437 C128.729677,35.0664014 127.085162,33.7500084 125.952344,32.078125 C124.819526,30.4062416 124.253125,28.468761 124.253125,26.265625 L131.307812,26.265625 C131.307812,30.0312688 133.55779,31.9140625 138.057812,31.9140625 C139.729696,31.9140625 141.03437,31.5742221 141.971875,30.8945312 C142.90938,30.2148404 143.378125,29.2656311 143.378125,28.046875 Z M175.15625,29.96875 L162.828125,29.96875 L160.484375,37 L153.007812,37 L165.710937,2.875 L172.226562,2.875 L185,37 L177.523437,37 L175.15625,29.96875 Z M164.726562,24.2734375 L173.257812,24.2734375 L168.96875,11.5 L164.726562,24.2734375 Z M201.520312,24.5078125 L195.91875,24.5078125 L195.91875,37 L188.8875,37 L188.8875,2.875 L201.567187,2.875 C205.598458,2.875 208.707801,3.77342852 210.895312,5.5703125 C213.082823,7.36719648 214.176562,9.90623359 214.176562,13.1875 C214.176562,15.5156366 213.672661,17.4570235 212.664844,19.0117187 C211.657026,20.566414 210.129698,21.8046829 208.082812,22.7265625 L215.465625,36.671875 L215.465625,37 L207.91875,37 L201.520312,24.5078125 Z M195.91875,18.8125 L201.590625,18.8125 C203.356259,18.8125 204.723433,18.3632857 205.692187,17.4648438 C206.660942,16.5664018 207.145312,15.3281329 207.145312,13.75 C207.145312,12.140617 206.688286,10.8750046 205.774219,9.953125 C204.860152,9.03124539 203.457822,8.5703125 201.567187,8.5703125 L195.91875,8.5703125 L195.91875,18.8125 Z M231.985937,18.25 L239.0875,2.875 L246.775,2.875 L235.571875,24.625 L235.571875,37 L228.423437,37 L228.423437,24.625 L217.220312,2.875 L224.93125,2.875 L231.985937,18.25 Z"></path>
                    </g>
                </g>
            </g>
            <g id="Glossary-Icon" transform="translate(42.000000, 0.000000)">
                <circle id="Oval-16" stroke="#326496" stroke-width="16" cx="114.561576" cy="114.561576" r="114.561576"></circle>
                <g id="Oval-5-+-Rectangle-3" transform="translate(65.142857, 44.926108)">
                    <ellipse id="Oval-55" stroke="#326496" stroke-width="12.1000004" cx="35.3355512" cy="35.2402043" rx="35.3355512" ry="35.2402043"></ellipse>
                    <circle id="Oval-5-Copy" fill-opacity="0" fill="#00334C" fill-rule="nonzero" cx="34.2561576" cy="34.2561576" r="20.7783251"></circle>
                    <rect id="Rectangle-7" fill="#326496" fill-rule="nonzero" transform="translate(66.852726, 96.797191) rotate(-30.000000) translate(-66.852726, -96.797191) " x="57.5538966" y="55.8050908" width="18.5976585" height="81.9842009" rx="8.2792208"></rect>
                </g>
            </g>
        </g>
    </g>
</svg>