<?xml version="1.0" encoding="UTF-8"?>
<svg width="190px" height="256px" viewBox="0 0 190 256" version="1.1" xmlns="http://www.w3.org/2000/svg" xmlns:xlink="http://www.w3.org/1999/xlink">
    <!-- Generator: Sketch 47.1 (45422) - http://www.bohemiancoding.com/sketch -->
    <!-- <title>Tutorial</title> -->
    <desc>Created with Sketch.</desc>
    <defs></defs>
    <g id="Page-20" stroke="none" stroke-width="1" fill="none" fill-rule="evenodd">
        <g id="TUTORIAL_w" transform="translate(5.000000, 5.000000)">
            <g id="Tutorial-White">
                <circle id="Oval-21" stroke="#FFFFFF" stroke-width="10" cx="90" cy="90" r="90"></circle>
                <g id="Tutorial-icon" transform="translate(47.000000, 59.000000)" fill-rule="nonzero" fill="#FFFFFF">
                    <rect id="Rectangle-2" x="0" y="0" width="80" height="61.6216216" rx="8"></rect>
                    <polygon id="Triangle-4" points="104 11 104 51.185185 73 31.092593"></polygon>
                </g>
            </g>
            <g id="TUTORIAL" transform="translate(0.000000, 217.000000)" fill="#FFFFFF">
                <path d="M21.5507812,11.6777344 L13.7109375,11.6777344 L13.7109375,33 L8.4375,33 L8.4375,11.6777344 L0.703125,11.6777344 L0.703125,7.40625 L21.5507812,7.40625 L21.5507812,11.6777344 Z M44.6277344,7.40625 L44.6277344,24.2636719 C44.6277344,27.0644671 43.7517666,29.2792887 41.9998047,30.9082031 C40.2478428,32.5371175 37.854312,33.3515625 34.8191406,33.3515625 C31.8308444,33.3515625 29.4578213,32.5605548 27.7,30.9785156 C25.9421787,29.3964765 25.0457033,27.2226701 25.0105469,24.4570312 L25.0105469,7.40625 L30.2839844,7.40625 L30.2839844,24.2988281 C30.2839844,25.9746178 30.6853475,27.1962852 31.4880859,27.9638672 C32.2908243,28.7314492 33.4011648,29.1152344 34.8191406,29.1152344 C37.7839992,29.1152344 39.2898435,27.5566562 39.3367187,24.4394531 L39.3367187,7.40625 L44.6277344,7.40625 Z M68.9175781,11.6777344 L61.0777344,11.6777344 L61.0777344,33 L55.8042969,33 L55.8042969,11.6777344 L48.0699219,11.6777344 L48.0699219,7.40625 L68.9175781,7.40625 L68.9175781,11.6777344 Z M93.1546875,20.7832031 C93.1546875,23.302747 92.7093794,25.5117093 91.81875,27.4101562 C90.9281205,29.3086032 89.6537192,30.7734323 87.9955078,31.8046875 C86.3372964,32.8359427 84.4359482,33.3515625 82.2914062,33.3515625 C80.1703019,33.3515625 78.2777427,32.841802 76.6136718,31.8222656 C74.949601,30.8027293 73.6605514,29.3466892 72.7464843,27.4541016 C71.8324173,25.561514 71.3695313,23.3847779 71.3578125,20.9238281 L71.3578125,19.6582031 C71.3578125,17.1386593 71.8119095,14.920908 72.7201172,13.0048828 C73.6283248,11.0888576 74.9115151,9.61816919 76.5697265,8.59277344 C78.2279379,7.56737769 80.1234268,7.0546875 82.25625,7.0546875 C84.3890731,7.0546875 86.284562,7.56737769 87.9427734,8.59277344 C89.6009848,9.61816919 90.8841751,11.0888576 91.7923828,13.0048828 C92.7005904,14.920908 93.1546875,17.1328 93.1546875,19.640625 L93.1546875,20.7832031 Z M87.8109375,19.6230469 C87.8109375,16.9394397 87.3304735,14.9003976 86.3695312,13.5058594 C85.4085889,12.1113212 84.0375089,11.4140625 82.25625,11.4140625 C80.4867099,11.4140625 79.1214891,12.1025322 78.1605468,13.4794922 C77.1996045,14.8564522 76.7132813,16.8749867 76.7015625,19.5351562 L76.7015625,20.7832031 C76.7015625,23.3964974 77.1820264,25.4238209 78.1429687,26.8652344 C79.103911,28.3066478 80.4867097,29.0273438 82.2914062,29.0273438 C84.0609463,29.0273438 85.4203077,28.3330148 86.3695312,26.9443359 C87.3187547,25.5556571 87.7992187,23.5312633 87.8109375,20.8710938 L87.8109375,19.6230469 Z M107.161328,23.6308594 L102.960156,23.6308594 L102.960156,33 L97.6867187,33 L97.6867187,7.40625 L107.196484,7.40625 C110.219937,7.40625 112.551945,8.08007139 114.192578,9.42773438 C115.833211,10.7753974 116.653516,12.6796752 116.653516,15.140625 C116.653516,16.8867275 116.27559,18.3427676 115.519727,19.5087891 C114.763863,20.6748105 113.618367,21.6035122 112.083203,22.2949219 L117.620312,32.7539062 L117.620312,33 L111.960156,33 L107.161328,23.6308594 Z M102.960156,19.359375 L107.214062,19.359375 C108.538288,19.359375 109.563668,19.0224643 110.290234,18.3486328 C111.0168,17.6748013 111.380078,16.7460997 111.380078,15.5625 C111.380078,14.3554627 111.037308,13.4062535 110.351758,12.7148438 C109.666207,12.023434 108.61446,11.6777344 107.196484,11.6777344 L102.960156,11.6777344 L102.960156,19.359375 Z M126.96875,33 L121.695312,33 L121.695312,7.40625 L126.96875,7.40625 L126.96875,33 Z M147.321094,27.7265625 L138.075,27.7265625 L136.317187,33 L130.709766,33 L140.237109,7.40625 L145.123828,7.40625 L154.703906,33 L149.096484,33 L147.321094,27.7265625 Z M139.498828,23.4550781 L145.897266,23.4550781 L142.680469,13.875 L139.498828,23.4550781 Z M163.067969,28.7636719 L174.265234,28.7636719 L174.265234,33 L157.794531,33 L157.794531,7.40625 L163.067969,7.40625 L163.067969,28.7636719 Z"></path>
            </g>
        </g>
    </g>
</svg>