<?xml version="1.0" encoding="UTF-8"?>
<svg width="190px" height="252px" viewBox="0 0 190 252" version="1.1" xmlns="http://www.w3.org/2000/svg" xmlns:xlink="http://www.w3.org/1999/xlink">
    <!-- Generator: Sketch 47.1 (45422) - http://www.bohemiancoding.com/sketch -->
    <!-- <title>About</title> -->
    <desc>Created with Sketch.</desc>
    <defs></defs>
    <g id="Page-1ABOUT_w" stroke="none" stroke-width="1" fill="none" fill-rule="evenodd">
        <g id="ABOUT_w" transform="translate(5.000000, 5.000000)">
            <g id="About-White">
                <circle id="Oval-6" stroke="#FFFFFF" stroke-width="10" cx="90" cy="90" r="90"></circle>
                <path d="M52,64.635742 C52,59.842424 53.538884,54.9861086 56.616699,50.0666504 C59.694514,45.1471922 64.185029,41.0729328 70.088379,37.84375 C75.991729,34.6145672 82.878867,33 90.75,33 C98.066117,33 104.524386,34.3496773 110.125,37.0490723 C115.725614,39.7484673 120.052149,43.4190849 123.104736,48.0610352 C126.157323,52.7029854 127.683594,57.7485079 127.683594,63.197754 C127.683594,67.486512 126.813241,71.245427 125.07251,74.474609 C123.331778,77.703792 121.263114,80.491443 118.866455,82.837646 C116.469796,85.18385 112.168488,89.131971 105.962402,94.682129 C104.246899,96.246264 102.871994,97.621169 101.837646,98.806885 C100.803299,99.9926 100.033857,101.077388 99.529297,102.061279 C99.024737,103.045171 98.633709,104.029048 98.356201,105.012939 C98.078693,105.996831 97.662438,107.724923 97.107422,110.197266 C96.148758,115.444688 93.146672,118.068359 88.101074,118.068359 C85.477363,118.068359 83.269947,117.210621 81.47876,115.495117 C79.687572,113.779614 78.791992,111.231625 78.791992,107.851074 C78.791992,103.612772 79.44791,99.942154 80.759766,96.839111 C82.071621,93.736068 83.812326,91.011486 85.981934,88.665283 C88.151541,86.31908 91.077944,83.531429 94.76123,80.302246 C97.990413,77.476711 100.323967,75.344978 101.761963,73.906982 C103.199958,72.468987 104.410884,70.867034 105.394775,69.101074 C106.378667,67.335115 106.870605,65.417816 106.870605,63.349121 C106.870605,59.312643 105.369563,55.9069149 102.367432,53.1318359 C99.365301,50.356757 95.492862,48.9692383 90.75,48.9692383 C85.199842,48.9692383 81.112969,50.3693708 78.489258,53.1696777 C75.865547,55.9699847 73.645517,60.094699 71.829102,65.543945 C70.113598,71.245471 66.859236,74.096191 62.065918,74.096191 C59.240383,74.096191 56.856374,73.099701 54.913818,71.106689 C52.971263,69.113678 52,66.956717 52,64.635742 L52,64.635742 Z M88.933594,147.584961 C85.855779,147.584961 83.169038,146.58847 80.873291,144.595459 C78.577544,142.602448 77.429688,139.814797 77.429688,136.232422 C77.429688,133.053695 78.539702,130.379568 80.759766,128.209961 C82.979829,126.040354 85.704411,124.955566 88.933594,124.955566 C92.112321,124.955566 94.786447,126.040354 96.956055,128.209961 C99.125662,130.379568 100.210449,133.053695 100.210449,136.232422 C100.210449,139.764341 99.075207,142.539378 96.804688,144.557617 C94.534168,146.575856 91.910497,147.584961 88.933594,147.584961 L88.933594,147.584961 Z" id="?" fill="#FFFFFF" fill-rule="nonzero"></path>
            </g>
            <g id="ABOUT" transform="translate(2.000000, 208.000000)" fill-rule="nonzero" fill="#FFFFFF">
                <path d="M24.7680543,30.6593009 L11.0945546,30.6593009 L8.49502996,38.4578749 L0.202546297,38.4578749 L14.2919699,0.608795856 L21.5186486,0.608795856 L35.6860579,38.4578749 L27.3935742,38.4578749 L24.7680543,30.6593009 Z M13.2001696,24.342456 L22.6624393,24.342456 L17.9053092,10.1750466 L13.2001696,24.342456 Z M40.2565999,38.4578749 L40.2565999,0.608795856 L53.5141756,0.608795856 C58.1066921,0.608795856 61.5900203,1.48829291 63.9642648,3.24731339 C66.3385092,5.00633392 67.5256136,7.58417006 67.5256136,10.9808993 C67.5256136,12.8352361 67.0490388,14.4685877 66.0958749,15.8810032 C65.1427112,17.2934187 63.8169669,18.3288856 62.1186022,18.9874352 C64.0595904,19.4726822 65.5889621,20.4518268 66.7067633,21.924898 C67.8245644,23.3979693 68.3834567,25.2002884 68.3834567,27.3319093 C68.3834567,30.971262 67.2223472,33.7267307 64.9000937,35.5983978 C62.57784,37.4700649 59.2678118,38.4232144 54.9699094,38.4578749 L40.2565999,38.4578749 Z M48.0551739,21.9768887 L48.0551739,32.1930204 L54.7359522,32.1930204 C56.5729588,32.1930204 58.0070157,31.7554382 59.0381656,30.8802606 C60.0693154,30.0050828 60.5848827,28.796316 60.5848827,27.2539236 C60.5848827,23.7878733 58.7912286,22.0288793 55.2038668,21.9768887 L48.0551739,21.9768887 Z M48.0551739,16.4658962 L53.8261186,16.4658962 C57.7600856,16.3965752 59.7270396,14.828211 59.7270396,11.7607566 C59.7270396,10.0450618 59.2288023,8.81029994 58.2323129,8.05643398 C57.2358234,7.30256802 55.6631268,6.92564081 53.5141756,6.92564081 L48.0551739,6.92564081 L48.0551739,16.4658962 Z M106.357891,20.3911784 C106.357891,24.1171826 105.699351,27.3838859 104.382252,30.1913864 C103.065153,32.9988871 101.180516,35.165136 98.7282858,36.6901981 C96.2760551,38.2152602 93.4642641,38.9777798 90.2928281,38.9777798 C87.1560527,38.9777798 84.3572591,38.2239252 81.8963634,36.7161933 C79.4354679,35.2084616 77.5291689,33.0552102 76.1774092,30.2563747 C74.8256498,27.4575391 74.1411151,24.2384931 74.1237849,20.5991404 L74.1237849,18.7274827 C74.1237849,15.0014788 74.795322,11.7217779 76.1384163,8.88828188 C77.4815109,6.05478583 79.3791449,3.87987197 81.8313753,2.363475 C84.2836059,0.84707804 87.086732,0.0888909234 90.2408378,0.0888909234 C93.3949433,0.0888909234 96.1980694,0.84707804 98.6503,2.363475 C101.10253,3.87987197 103.000164,6.05478583 104.343259,8.88828188 C105.686353,11.7217779 106.357891,14.9928138 106.357891,18.7014874 L106.357891,20.3911784 Z M98.4553357,18.6754922 C98.4553357,14.7068648 97.744806,11.6914463 96.3237253,9.62914646 C94.9026448,7.56684661 92.8750359,6.53571208 90.2408378,6.53571208 C87.6239699,6.53571208 85.6050258,7.55384909 84.1839452,9.59015357 C82.7628646,11.626458 82.0436701,14.611549 82.0263398,18.5455159 L82.0263398,20.3911784 C82.0263398,24.2558244 82.7368694,27.2539129 84.15795,29.3855339 C85.5790306,31.5171547 87.6239696,32.5829492 90.2928281,32.5829492 C92.9096961,32.5829492 94.919975,31.5561472 96.3237253,29.5025123 C97.7274757,27.4488777 98.4380053,24.4551218 98.4553357,20.5211548 L98.4553357,18.6754922 Z M141.706804,0.608795856 L141.706804,25.5382373 C141.706804,29.6801673 140.411388,32.9555356 137.820516,35.3644406 C135.229642,37.7733454 131.689992,38.9777798 127.201457,38.9777798 C122.782243,38.9777798 119.27292,37.8080054 116.673382,35.4684214 C114.073844,33.1288377 112.7481,29.9141243 112.696109,25.824185 L112.696109,0.608795856 L120.494683,0.608795856 L120.494683,25.5902278 C120.494683,28.0684538 121.088236,29.8751052 122.275358,31.0102368 C123.46248,32.1453682 125.104497,32.7129254 127.201457,32.7129254 C131.58601,32.7129254 133.812914,30.4080366 133.882236,25.7981898 L133.882236,0.608795856 L141.706804,0.608795856 Z M177.627613,6.92564081 L166.033733,6.92564081 L166.033733,38.4578749 L158.23516,38.4578749 L158.23516,6.92564081 L146.797251,6.92564081 L146.797251,0.608795856 L177.627613,0.608795856 L177.627613,6.92564081 Z" id="Shapeh76"></path>
            </g>
        </g>
    </g>
</svg>