<?xml version="1.0" encoding="UTF-8"?>
<svg width="190px" height="190px" viewBox="0 0 190 190" version="1.1" xmlns="http://www.w3.org/2000/svg" xmlns:xlink="http://www.w3.org/1999/xlink">
    <!-- Generator: Sketch 47.1 (45422) - http://www.bohemiancoding.com/sketch -->
    <!-- <title>About</title> -->
    <desc>Created with Sketch.</desc>
    <defs></defs>
    <g id="Page-1ABOUT_sel" stroke="none" stroke-width="1" fill="none" fill-rule="evenodd">
        <g id="ABOUT_sel" transform="translate(5.000000, 5.000000)">
            <g id="about-image-blue">
                <circle id="Oval-557" stroke="#9B9AAF" stroke-width="10" fill="#2A5681" fill-rule="nonzero" cx="90" cy="90" r="90"></circle>
                <path d="M52,64.635742 C52,59.842424 53.538884,54.9861086 56.616699,50.0666504 C59.694514,45.1471922 64.185029,41.0729328 70.088379,37.84375 C75.991729,34.6145672 82.878867,33 90.75,33 C98.066117,33 104.524386,34.3496773 110.125,37.0490723 C115.725614,39.7484673 120.052149,43.4190849 123.104736,48.0610352 C126.157323,52.7029854 127.683594,57.7485079 127.683594,63.197754 C127.683594,67.486512 126.813241,71.245427 125.07251,74.474609 C123.331778,77.703792 121.263114,80.491443 118.866455,82.837646 C116.469796,85.18385 112.168488,89.131971 105.962402,94.682129 C104.246899,96.246264 102.871994,97.621169 101.837646,98.806885 C100.803299,99.9926 100.033857,101.077388 99.529297,102.061279 C99.024737,103.045171 98.633709,104.029048 98.356201,105.012939 C98.078693,105.996831 97.662438,107.724923 97.107422,110.197266 C96.148758,115.444688 93.146672,118.068359 88.101074,118.068359 C85.477363,118.068359 83.269947,117.210621 81.47876,115.495117 C79.687572,113.779614 78.791992,111.231625 78.791992,107.851074 C78.791992,103.612772 79.44791,99.942154 80.759766,96.839111 C82.071621,93.736068 83.812326,91.011486 85.981934,88.665283 C88.151541,86.31908 91.077944,83.531429 94.76123,80.302246 C97.990413,77.476711 100.323967,75.344978 101.761963,73.906982 C103.199958,72.468987 104.410884,70.867034 105.394775,69.101074 C106.378667,67.335115 106.870605,65.417816 106.870605,63.349121 C106.870605,59.312643 105.369563,55.9069149 102.367432,53.1318359 C99.365301,50.356757 95.492862,48.9692383 90.75,48.9692383 C85.199842,48.9692383 81.112969,50.3693708 78.489258,53.1696777 C75.865547,55.9699847 73.645517,60.094699 71.829102,65.543945 C70.113598,71.245471 66.859236,74.096191 62.065918,74.096191 C59.240383,74.096191 56.856374,73.099701 54.913818,71.106689 C52.971263,69.113678 52,66.956717 52,64.635742 L52,64.635742 Z M88.933594,147.584961 C85.855779,147.584961 83.169038,146.58847 80.873291,144.595459 C78.577544,142.602448 77.429688,139.814797 77.429688,136.232422 C77.429688,133.053695 78.539702,130.379568 80.759766,128.209961 C82.979829,126.040354 85.704411,124.955566 88.933594,124.955566 C92.112321,124.955566 94.786447,126.040354 96.956055,128.209961 C99.125662,130.379568 100.210449,133.053695 100.210449,136.232422 C100.210449,139.764341 99.075207,142.539378 96.804688,144.557617 C94.534168,146.575856 91.910497,147.584961 88.933594,147.584961 L88.933594,147.584961 Z" id="?" fill="#FFFFFF" fill-rule="nonzero"></path>
                <circle id="Oval-20" stroke="#FFFDFD" stroke-width="3" cx="89.5" cy="89.5" r="84.5"></circle>
            </g>
        </g>
    </g>
</svg>