<?xml version="1.0" encoding="UTF-8"?>
<svg width="305px" height="318px" viewBox="0 0 305 318" version="1.1" xmlns="http://www.w3.org/2000/svg" xmlns:xlink="http://www.w3.org/1999/xlink">
    <!-- Generator: Sketch 47.1 (45422) - http://www.bohemiancoding.com/sketch -->
    <!-- <title>Contact Us</title> -->
    <desc>Created with Sketch.</desc>
    <defs></defs>
    <g id="Page-1DISCLAIMER_w" stroke="none" stroke-width="1" fill="none" fill-rule="evenodd">
        <g id="DISCLAIMER_w" transform="translate(0.000000, 5.000000)">
            <g id="CONTACT-US5" transform="translate(0.000000, 266.000000)" fill-rule="nonzero" fill="#FFFFFF">
                <path d="M29.521359,30.8870886 C29.2462386,35.7547551 27.842336,39.5866905 25.3096092,42.3830095 C22.7768824,45.1793286 19.4390737,46.5774672 15.2960829,46.5774672 C10.7646867,46.5774672 7.20031157,44.6252516 4.60285055,40.7207615 C2.00538952,36.8162714 0.70667849,31.4567404 0.70667849,24.642007 L0.70667849,21.8767721 C0.70667849,17.5269424 1.30546114,13.6950071 2.50304443,10.3808512 C3.7006277,7.0666952 5.41201327,4.52415433 7.63725246,2.75315224 C9.86249166,0.982150154 12.4477763,0.0966623986 15.3931838,0.0966623986 C19.4714403,0.0966623986 22.7566533,1.49480096 25.2489211,4.29112005 C27.741189,7.08743907 29.1815041,11.0125838 29.5699095,16.0666717 L22.2873449,16.0666717 C22.1093258,13.1460715 21.4741306,11.0281505 20.3817406,9.71284496 C19.2893503,8.39753922 17.6265148,7.73989625 15.3931838,7.73989625 C12.9656501,7.73989625 11.149073,8.85322897 9.94339791,11.0799275 C8.73772285,13.3066259 8.11871106,16.760546 8.08634395,21.4417914 L8.08634395,24.8594976 C8.08634395,29.7478776 8.66489745,33.3208984 9.82202184,35.578667 C10.9791462,37.8364359 12.803815,38.9653033 15.2960829,38.9653033 C17.5455975,38.9653033 19.2246164,38.3076604 20.3331901,36.9923547 C21.4417637,35.6770491 22.0769588,33.6419806 22.2387945,30.8870886 L29.521359,30.8870886 Z M64.3034269,24.3623766 C64.3034269,28.8157737 63.6884611,32.7202052 62.4585106,36.0757879 C61.2285603,39.4313709 59.4686248,42.0205164 57.1786514,43.8433022 C54.8886779,45.666088 52.2629351,46.5774672 49.3013439,46.5774672 C46.3721199,46.5774672 43.7585146,45.6764446 41.4604494,43.8743722 C39.1623842,42.0722999 37.3822195,39.4986894 36.119902,36.1534632 C34.8575844,32.808237 34.2183435,28.9607668 34.20216,24.610937 L34.20216,22.373893 C34.20216,17.920496 34.8292635,14.0005296 36.0834891,10.6138765 C37.337715,7.22722345 39.1097879,4.62772139 41.3997613,2.81529237 C43.6897348,1.00286333 46.307386,0.0966623986 49.2527934,0.0966623986 C52.198201,0.0966623986 54.8158523,1.00286333 57.1058257,2.81529237 C59.395799,4.62772139 61.1678721,7.22722345 62.4220978,10.6138765 C63.6763235,14.0005296 64.3034269,17.9101395 64.3034269,22.3428229 L64.3034269,24.3623766 Z M56.9237615,22.311753 C56.9237615,17.5683672 56.2602456,13.9642766 54.9331939,11.4993732 C53.6061422,9.03446979 51.7126942,7.80203645 49.2527934,7.80203645 C46.8090763,7.80203645 44.9237201,9.01893487 43.5966683,11.4527681 C42.2696166,13.8866014 41.5980089,17.4544439 41.5818254,22.1564025 L41.5818254,24.3623766 C41.5818254,28.9814814 42.2453414,32.5648589 43.5723931,35.1126163 C44.8994449,37.6603736 46.8090761,38.9342333 49.3013439,38.9342333 C51.7450612,38.9342333 53.6223257,37.7069784 54.9331939,35.2524315 C56.2440621,32.7978848 56.9075779,29.2196857 56.9237615,24.517727 L56.9237615,22.311753 Z M99.3039719,45.9560661 L92.0214073,45.9560661 L77.8446815,16.1909517 L77.8446815,45.9560661 L70.562117,45.9560661 L70.562117,0.718063532 L77.8446815,0.718063532 L92.0456824,30.545318 L92.0456824,0.718063532 L99.3039719,0.718063532 L99.3039719,45.9560661 Z M132.532426,8.26808734 L121.70568,8.26808734 L121.70568,45.9560661 L114.423116,45.9560661 L114.423116,8.26808734 L103.742021,8.26808734 L103.742021,0.718063532 L132.532426,0.718063532 L132.532426,8.26808734 Z M154.691383,36.6350491 L141.922619,36.6350491 L139.495097,45.9560661 L131.751304,45.9560661 L144.908469,0.718063532 L151.65698,0.718063532 L164.886972,45.9560661 L157.143178,45.9560661 L154.691383,36.6350491 Z M143.888911,29.0850252 L152.72509,29.0850252 L148.282726,12.1518444 L143.888911,29.0850252 Z M196.391886,30.8870886 C196.116767,35.7547551 194.712863,39.5866905 192.180137,42.3830095 C189.64741,45.1793286 186.3096,46.5774672 182.16661,46.5774672 C177.635214,46.5774672 174.070839,44.6252516 171.473378,40.7207615 C168.875916,36.8162714 167.577206,31.4567404 167.577206,24.642007 L167.577206,21.8767721 C167.577206,17.5269424 168.175987,13.6950071 169.373571,10.3808512 C170.571154,7.0666952 172.282541,4.52415433 174.50778,2.75315224 C176.733019,0.982150154 179.318304,0.0966623986 182.263711,0.0966623986 C186.341967,0.0966623986 189.627181,1.49480096 192.119448,4.29112005 C194.611716,7.08743907 196.052031,11.0125838 196.440437,16.0666717 L189.157871,16.0666717 C188.979852,13.1460715 188.344658,11.0281505 187.252267,9.71284496 C186.159878,8.39753922 184.497042,7.73989625 182.263711,7.73989625 C179.836177,7.73989625 178.019601,8.85322897 176.813926,11.0799275 C175.60825,13.3066259 174.989238,16.760546 174.956871,21.4417914 L174.956871,24.8594976 C174.956871,29.7478776 175.535424,33.3208984 176.692549,35.578667 C177.849673,37.8364359 179.674342,38.9653033 182.16661,38.9653033 C184.416125,38.9653033 186.095144,38.3076604 187.203717,36.9923547 C188.312292,35.6770491 188.947486,33.6419806 189.109322,30.8870886 L196.391886,30.8870886 Z M228.04245,8.26808734 L217.215706,8.26808734 L217.215706,45.9560661 L209.933141,45.9560661 L209.933141,8.26808734 L199.252046,8.26808734 L199.252046,0.718063532 L228.04245,0.718063532 L228.04245,8.26808734 Z M271.802033,0.718063532 L271.802033,30.5142479 C271.802033,35.4647683 270.592331,39.3795563 268.172889,42.2587293 C265.753447,45.1379022 262.448005,46.5774672 258.256463,46.5774672 C254.129656,46.5774672 250.852535,45.1793286 248.425,42.3830095 C245.997467,39.5866905 244.759444,35.7443985 244.710893,30.8560184 L244.710893,0.718063532 L251.993458,0.718063532 L251.993458,30.576388 C251.993458,33.538415 252.547737,35.6977622 253.656309,37.0544948 C254.764884,38.4112275 256.298252,39.0895835 258.256463,39.0895835 C262.350904,39.0895835 264.430459,36.3347326 264.495194,30.8249484 L264.495194,0.718063532 L271.802033,0.718063532 Z M297.068217,34.0873043 C297.068217,32.326659 296.582718,30.975125 295.611703,30.0326619 C294.640691,29.0901988 292.892893,28.0959671 290.368257,27.0499365 C287.843622,26.0039061 285.844983,24.9734262 284.37228,23.9584659 C280.358757,21.1828602 278.352026,17.4441342 278.352026,12.7421755 C278.352026,10.2979855 278.890121,8.11792502 279.966328,6.2019286 C281.042535,4.28593213 282.588041,2.78940603 284.602894,1.71230535 C286.617747,0.635204656 288.879365,0.0966623986 291.387817,0.0966623986 C293.912452,0.0966623986 296.161932,0.681809286 298.136326,1.85212059 C300.11072,3.02243192 301.64409,4.67430674 302.736479,6.80779464 C303.82887,8.94128256 304.375057,11.3647227 304.375057,14.078188 L297.092492,14.078188 C297.092492,12.0068405 296.582718,10.3963919 295.563153,9.24679407 C294.543589,8.09719618 293.111366,7.52240598 291.266441,7.52240598 C289.486249,7.52240598 288.102575,8.00398702 287.115379,8.9671636 C286.128181,9.93034017 285.634591,11.1990214 285.634591,12.7732456 C285.634591,14.2439022 286.213143,15.4763356 287.370268,16.4705823 C288.527393,17.4648291 290.230687,18.3969215 292.480201,19.2668873 C296.623192,20.8618249 299.64138,22.839932 301.534857,25.2012682 C303.428332,27.5626044 304.375057,30.5038735 304.375057,34.0251642 C304.375057,37.940011 303.217949,41.0107375 300.903701,43.2374361 C298.589453,45.4641346 295.474163,46.5774672 291.557744,46.5774672 C288.838906,46.5774672 286.362858,45.9405373 284.129526,44.6666587 C281.896197,43.39278 280.192903,41.647696 279.019595,39.4313543 C277.846286,37.2150122 277.259641,34.6465801 277.259641,31.7259802 L284.566482,31.7259802 C284.566482,36.7179274 286.896879,39.2138638 291.557744,39.2138638 C293.289384,39.2138638 294.640691,38.7633524 295.611703,37.8623162 C296.582718,36.9612802 297.068217,35.7029554 297.068217,34.0873043 Z" id="Shapemnny"></path>
            </g>
            <g id="noun_708615_cc5" transform="translate(33.000000, 0.000000)">
                <path d="M52.6695279,152.944048 L52.6695279,84.0738916 C52.7708068,83.8042095 52.8553732,83.5285443 52.9227468,83.2484626 C54.2597425,75.6221057 60.8991416,69.9175298 68.6527038,69.9099339 C101.213276,69.8812381 133.773005,69.8812381 166.331889,69.9099339 C173.713219,69.9099339 180.106996,75.0954515 181.844077,82.268582 C181.990945,82.8737279 182.168198,83.4738098 182.317597,84.0764237 L182.317597,152.944048 C182.225717,153.126289 182.151931,153.317102 182.097296,153.513746 C180.894507,160.238713 176.217554,165.414103 169.575623,166.659842 C166.466095,167.247264 163.199571,167.10041 160.00648,167.102942 C129.684363,167.131637 99.3605579,167.131637 69.0350644,167.102942 C61.5803003,167.102942 55.3181973,162.388374 53.2924463,155.351971 C53.0620171,154.572118 52.8771673,153.756816 52.6695279,152.944048 Z M96.7827897,117.32653 C94.7570386,119.326803 92.8427039,121.215668 90.9587554,123.127321 L70.3264806,143.699748 C69.0806438,144.937891 68.5058369,146.340615 69.03,148.044644 C69.9669098,151.138737 73.5879399,151.883144 76.0213734,149.470155 C84.5936767,140.930594 93.1558512,132.369089 101.707897,123.785639 C102.023619,123.41354 102.309783,123.017343 102.563777,122.600667 C103.27279,123.248857 103.741245,123.653975 104.204635,124.071754 L114.515708,133.440121 C116.475622,135.212514 118.521631,135.192259 120.491674,133.414801 C124.058684,130.187356 127.624006,126.954847 131.18764,123.717275 C131.511759,123.413436 131.871331,123.114661 132.273948,122.74499 C135.497425,125.975811 138.650001,129.143332 141.802575,132.303256 L158.980945,149.480283 C160.145751,150.647531 161.480215,151.196974 163.10588,150.761471 C166.253391,149.90819 167.157383,146.244399 164.77206,143.841539 C159.032433,138.061848 153.275078,132.301569 147.5,126.560701 C144.430987,123.49446 141.341717,120.435815 138.219528,117.311338 C138.627211,116.926475 138.958927,116.607444 139.298241,116.298541 L151.842703,104.904582 L164.675837,93.2371672 C165.911545,92.1154952 166.402789,90.73556 165.995108,89.1302778 C165.676448,87.6824299 164.552957,86.5472018 163.108412,86.213424 C161.487811,85.7829856 160.176138,86.3754715 158.965751,87.4794196 C145.497882,99.746072 132.011445,112.004285 118.506438,124.254057 C118.182318,124.555364 117.832876,124.844011 117.473305,125.157978 L98.1729614,107.621408 C90.7452075,100.889688 83.3132331,94.14784 75.8770386,87.3958638 C74.7046352,86.3273637 73.3954936,85.8133695 71.8255365,86.2539359 C70.3923479,86.5990091 69.2815679,87.7313264 68.9641631,89.1707895 C68.574206,90.7912638 69.0907725,92.153475 70.3264806,93.270083 C75.640701,98.0876179 80.949857,102.911061 86.2539485,107.740412 L96.7827897,117.32653 Z" id="Shape5" fill="#FFFFFF" fill-rule="nonzero"></path>
                <circle id="Oval-57" stroke="#FFFFFF" stroke-width="10" cx="118" cy="118" r="118"></circle>
            </g>
        </g>
    </g>
</svg>