<?xml version="1.0" encoding="UTF-8"?>
<svg width="190px" height="190px" viewBox="0 0 190 190" version="1.1" xmlns="http://www.w3.org/2000/svg" xmlns:xlink="http://www.w3.org/1999/xlink">
    <!-- Generator: Sketch 47.1 (45422) - http://www.bohemiancoding.com/sketch -->
    <!-- <title>Contact Us</title> -->
    <desc>Created with Sketch.</desc>
    <defs></defs>
    <g id="Page-1DISCLAIMER_sel" stroke="none" stroke-width="1" fill="none" fill-rule="evenodd">
        <g id="DISCLAIMER_sel" transform="translate(5.000000, 5.000000)">
            <g id="noun_708615_cc4">
                <circle id="Oval-11" stroke="#9B9AAF" stroke-width="10" fill="#2A5681" fill-rule="nonzero" cx="90" cy="90" r="90"></circle>
                <path d="M41.1940299,117.925606 L41.1940299,65.5935168 C41.2709823,65.3885945 41.3352364,65.1791259 41.3864272,64.9663013 C42.4022854,59.171292 47.446945,54.8365788 53.338153,54.8308069 C78.0778918,54.8090019 102.816989,54.8090019 127.555445,54.8308069 C133.163829,54.8308069 138.021863,58.7711054 139.341709,64.2217234 C139.4533,64.6815532 139.587978,65.137535 139.701493,65.5954408 L139.701493,117.925606 C139.631682,118.064086 139.575618,118.209078 139.534107,118.3585 C138.620219,123.468575 135.066639,127.401178 130.020056,128.347773 C127.657416,128.794135 125.17549,128.682544 122.749359,128.684468 C99.7104128,128.706273 76.6701842,128.706273 53.628673,128.684468 C47.9644939,128.684468 43.2065065,125.102029 41.6673274,119.755306 C41.4922458,119.162722 41.3517957,118.543202 41.1940299,117.925606 Z M74.7115788,90.8610658 C73.1723997,92.3810051 71.7178755,93.8162896 70.2864389,95.2688899 L54.6098997,110.901178 C53.6633046,111.842001 53.2265625,112.907882 53.6248251,114.202717 C54.3366954,116.553813 57.0879781,117.119461 58.936917,115.285914 C65.4502099,108.796992 71.9558069,102.291395 78.453708,95.7691231 C78.6935954,95.4863777 78.9110247,95.1853217 79.1040112,94.8687034 C79.6427239,95.3612407 79.998659,95.6690765 80.3507463,95.9865322 L88.1851679,103.105236 C89.6743237,104.452017 91.2288946,104.436625 92.7257463,103.085996 C95.4359841,100.63357 98.1449394,98.1772971 100.852612,95.7171758 C101.098881,95.486299 101.372085,95.2592701 101.677997,94.9783699 C104.127215,97.4333605 106.522563,99.8402519 108.91791,102.241371 L121.970149,115.29361 C122.855177,116.180562 123.869111,116.598064 125.104303,116.267141 C127.495802,115.618762 128.182661,112.834771 126.370278,111.00892 C122.00927,106.617129 117.634795,102.240089 113.246852,97.8777985 C110.914995,95.5478661 108.567747,93.2237057 106.195487,90.8495219 C106.505247,90.5570779 106.757288,90.3146572 107.0151,90.0799324 L116.546467,81.4220499 L126.297167,72.5563783 C127.236066,71.7040578 127.609317,70.6554921 127.299557,69.4356926 C127.057437,68.3355222 126.203802,67.4729011 125.106227,67.2192747 C123.874883,66.8921992 122.878265,67.342409 121.958605,68.1812617 C111.72563,77.5022738 101.478545,86.8168727 91.2173507,96.1250583 C90.9710821,96.3540112 90.7055737,96.5733442 90.4323694,96.811917 L75.7678405,83.4864739 C70.1241838,78.3712687 64.4773204,73.2483675 58.8272505,68.1177705 C57.9364506,67.3058535 56.9417561,66.9152868 55.7488923,67.2500583 C54.659946,67.5122677 53.8159681,68.3726771 53.5748018,69.4664762 C53.2785098,70.6978195 53.6710005,71.7329174 54.6098997,72.5813899 C58.6476796,76.2420709 62.6816115,79.9072411 66.7116954,83.5769007 L74.7115788,90.8610658 Z" id="Shape4" fill="#FFFFFF" fill-rule="nonzero"></path>
                <circle id="Oval-12" stroke="#FFFDFD" stroke-width="3" cx="90" cy="90" r="85.5223881"></circle>
            </g>
        </g>
    </g>
</svg>