<?xml version="1.0" encoding="UTF-8"?>
<svg width="217px" height="250px" viewBox="0 0 217 250" version="1.1" xmlns="http://www.w3.org/2000/svg" xmlns:xlink="http://www.w3.org/1999/xlink">
    <!-- Generator: Sketch 47.1 (45422) - http://www.bohemiancoding.com/sketch -->
    <!-- <title>Explore</title> -->
    <desc>Created with Sketch.</desc>
    <defs></defs>
    <g id="Page-1EXPLORE" stroke="none" stroke-width="1" fill="none" fill-rule="evenodd">
        <g id="EXPLORE_w" transform="translate(0.000000, 5.000000)">
            <path d="M22.251337,228.463904 L7.620321,228.463904 L7.620321,238.370322 L24.7914439,238.370322 L24.7914439,244.491979 L0,244.491979 L0,207.508022 L24.7406418,207.508022 L24.7406418,213.680481 L7.620321,213.680481 L7.620321,222.494653 L22.251337,222.494653 L22.251337,228.463904 Z M42.4959894,220.259359 L49.4304814,207.508022 L58.1938503,207.508022 L47.4237968,225.847594 L58.4732621,244.491979 L49.6082889,244.491979 L42.4959894,231.537434 L35.3836899,244.491979 L26.5187167,244.491979 L37.5681819,225.847594 L26.7981284,207.508022 L35.5614973,207.508022 L42.4959894,220.259359 Z M69.9291445,231.461231 L69.9291445,244.491979 L62.3088236,244.491979 L62.3088236,207.508022 L76.7366311,207.508022 C79.5138286,207.508022 81.9565404,208.016038 84.0648396,209.032086 C86.1731389,210.048134 87.7945577,211.491746 88.9291445,213.362969 C90.0637313,215.23419 90.631016,217.363625 90.631016,219.751337 C90.631016,223.375241 89.3906096,226.232834 86.9097594,228.324198 C84.4289093,230.415563 80.9955657,231.461231 76.6096257,231.461231 L69.9291445,231.461231 Z M69.9291445,225.28877 L76.7366311,225.28877 C78.7517927,225.28877 80.288542,224.814623 81.3469253,223.86631 C82.4053084,222.917999 82.9344921,221.56329 82.9344921,219.802139 C82.9344921,217.990188 82.4010749,216.525407 81.3342247,215.407755 C80.2673745,214.290103 78.7941271,213.71435 76.9144386,213.680481 L69.9291445,213.680481 L69.9291445,225.28877 Z M103.483957,238.370322 L119.664439,238.370322 L119.664439,244.491979 L95.8636364,244.491979 L95.8636364,207.508022 L103.483957,207.508022 L103.483957,238.370322 Z M152.787433,226.838236 C152.787433,230.479074 152.143946,233.67111 150.856952,236.414439 C149.569958,239.157768 147.728399,241.274503 145.332219,242.764706 C142.93604,244.254911 140.188518,245 137.089572,245 C134.024495,245 131.289673,244.263377 128.885026,242.790108 C126.48038,241.316838 124.617654,239.212804 123.296792,236.477943 C121.975929,233.74308 121.307041,230.597612 121.290107,227.041444 L121.290107,225.212567 C121.290107,221.571729 121.946295,218.366993 123.25869,215.598263 C124.571085,212.829533 126.425345,210.70433 128.821524,209.222594 C131.217704,207.740858 133.956758,207 137.038771,207 C140.120782,207 142.859837,207.740858 145.256016,209.222594 C147.652195,210.70433 149.506456,212.829533 150.81885,215.598263 C152.131245,218.366993 152.787433,221.563263 152.787433,225.187166 L152.787433,226.838236 Z M145.065508,225.161766 C145.065508,221.28385 144.371219,218.337355 142.982621,216.322193 C141.594022,214.307031 139.612759,213.299465 137.038771,213.299465 C134.481717,213.299465 132.50892,214.294331 131.120322,216.284091 C129.731722,218.273852 129.028966,221.190713 129.012032,225.03476 L129.012032,226.838236 C129.012032,230.614547 129.706321,233.544108 131.094919,235.627006 C132.483519,237.709904 134.481716,238.751338 137.089572,238.751338 C139.646626,238.751338 141.610955,237.748006 142.982621,235.741311 C144.354284,233.734616 145.048574,230.809289 145.065508,226.965242 L145.065508,225.161766 Z M172.016043,230.953209 L165.945187,230.953209 L165.945187,244.491979 L158.324866,244.491979 L158.324866,207.508022 L172.066845,207.508022 C176.435851,207.508022 179.805693,208.481719 182.176471,210.429145 C184.547249,212.37657 185.73262,215.128325 185.73262,218.684493 C185.73262,221.207678 185.186502,223.311713 184.094251,224.996658 C183.002,226.681605 181.346714,228.023614 179.128343,229.022728 L187.129679,244.136364 L187.129679,244.491979 L178.950535,244.491979 L172.016043,230.953209 Z M165.945187,224.780749 L172.092246,224.780749 C174.005802,224.780749 175.487517,224.2939 176.537433,223.320188 C177.587349,222.346475 178.1123,221.004466 178.1123,219.294118 C178.1123,217.549903 177.616984,216.178258 176.626336,215.179145 C175.63569,214.180031 174.115875,213.680481 172.066845,213.680481 L165.945187,213.680481 L165.945187,224.780749 Z M213.775401,228.463904 L199.144385,228.463904 L199.144385,238.370322 L216.315508,238.370322 L216.315508,244.491979 L191.524065,244.491979 L191.524065,207.508022 L216.264705,207.508022 L216.264705,213.680481 L199.144385,213.680481 L199.144385,222.494653 L213.775401,222.494653 L213.775401,228.463904 Z" id="EXPLORE" fill="#FFFFFF" fill-rule="nonzero"></path>
            <g id="Oval-1-+-?-+-Rectangle-12-+-Rectangle-12-+-Triangle-1-+-Rectangle-13-+-EXPLORE-SITE" transform="translate(24.000000, 0.000000)">
                <g id="Oval-1-+-?-+-Rectangle-12-+-Rectangle-12-+-Triangle-1-+-Rectangle-13">
                    <g id="Oval-1-+-?" stroke-width="10" stroke="#FFFFFF">
                        <circle id="Oval-15" cx="90" cy="90" r="90"></circle>
                    </g>
                    <g id="Rectangle-12-+-Rectangle-12-+-Triangle-1-+-Rectangle-13" transform="translate(40.000000, 30.000000)">
                        <polyline id="Rectangle-16" stroke="#FFFFFF" stroke-width="2.205" points="50.4861407 103.164564 30.4211533 103.164564 30.4211533 11.8684897 50.4861407 11.8684897"></polyline>
                        <path d="M54.4991381,0 L99.64536,6.39072519 L99.64536,109.55529 L54.4991381,118.684897 L54.4991381,0 Z M63.5283825,63.9072519 C65.1906204,63.9072519 66.5381306,62.4766394 66.5381306,60.7118893 C66.5381306,58.9471393 65.1906204,57.5165267 63.5283825,57.5165267 C61.8661444,57.5165267 60.5186344,58.9471393 60.5186344,60.7118893 C60.5186344,62.4766394 61.8661444,63.9072519 63.5283825,63.9072519 Z" id="Rectangle-18" fill="#FFFFFF" fill-rule="nonzero"></path>
                        <g id="Triangle-1-+-Rectangle-13" transform="translate(0.323672, 41.996194)" fill-rule="nonzero" fill="#FFFFFF">
                            <polygon id="Triangle-2" stroke="#08374F" stroke-width="1.26" points="19.0617381 31.0406653 19.0617381 0 44.1429724 15.5203326"></polygon>
                            <rect id="Rectangle-13" x="0" y="12.7814504" width="25.0812343" height="5.47776446" rx="2.52"></rect>
                        </g>
                    </g>
                </g>
            </g>
        </g>
    </g>
</svg>