<?xml version="1.0" encoding="UTF-8"?>
<svg width="238px" height="341px" viewBox="0 0 238 341" version="1.1" xmlns="http://www.w3.org/2000/svg" xmlns:xlink="http://www.w3.org/1999/xlink">
    <!-- Generator: Sketch 47.1 (45422) - http://www.bohemiancoding.com/sketch -->
    <!-- <title>Glossary</title> -->
    <desc>Created with Sketch.</desc>
    <defs></defs>
    <g id="Page-15" stroke="none" stroke-width="1" fill="none" fill-rule="evenodd">
        <g id="GLOSSARY_g" transform="translate(3.000000, 5.000000)">
            <g id="Glossary-Blue" transform="translate(2.000000, 0.000000)" fill-rule="nonzero">
                <circle id="Oval-33" stroke="#9B9AAF" stroke-width="10" fill="#2A5581" cx="114" cy="114" r="114"></circle>
                <g id="Oval-5-+-Rectangle-3" transform="translate(67.000000, 52.000000)">
                    <ellipse id="Oval-588" stroke="#FFFFFF" stroke-width="12.1000004" fill-opacity="0" fill="#FFFFFF" cx="35.1623377" cy="35.0674582" rx="35.1623377" ry="35.0674582"></ellipse>
                    <circle id="Oval-8-Copy" fill-opacity="0" fill="#00334C" cx="34.0882353" cy="34.0882353" r="20.6764706"></circle>
                    <rect id="Rectangle-8" fill="#FFFFFF" transform="translate(70.409126, 100.952803) rotate(-30.000000) translate(-70.409126, -100.952803) " x="61.1558794" y="60.1616444" width="18.5064936" height="81.5823176" rx="8.2792208"></rect>
                </g>
            </g>
            <path d="M16.734375,277.726562 L7.48828125,277.726562 L5.73046875,283 L0.123046875,283 L9.65039062,257.40625 L14.5371094,257.40625 L24.1171875,283 L18.5097656,283 L16.734375,277.726562 Z M8.91210938,273.455078 L15.3105469,273.455078 L12.09375,263.875 L8.91210938,273.455078 Z M46.2304688,274.474609 C46.031249,277.228529 45.0146576,279.396476 43.1806641,280.978516 C41.3466705,282.560555 38.9297025,283.351562 35.9296875,283.351562 C32.6484211,283.351562 30.0673922,282.247081 28.1865234,280.038086 C26.3056547,277.829091 25.3652344,274.796894 25.3652344,270.941406 L25.3652344,269.376953 C25.3652344,266.916003 25.7988238,264.748056 26.6660156,262.873047 C27.5332075,260.998038 28.7724529,259.559575 30.3837891,258.557617 C31.9951252,257.555659 33.8671768,257.054688 36,257.054688 C38.9531398,257.054688 41.3320222,257.845695 43.1367188,259.427734 C44.9414153,261.009774 45.9843736,263.230454 46.265625,266.089844 L40.9921875,266.089844 C40.8632806,264.437492 40.4033243,263.239262 39.6123047,262.495117 C38.8212851,261.750973 37.6171956,261.378906 36,261.378906 C34.2421787,261.378906 32.9267622,262.008783 32.0537109,263.268555 C31.1806597,264.528327 30.732422,266.482409 30.7089844,269.130859 L30.7089844,271.064453 C30.7089844,273.830092 31.1279255,275.851556 31.9658203,277.128906 C32.8037151,278.406256 34.124991,279.044922 35.9296875,279.044922 C37.5586019,279.044922 38.77441,278.672855 39.5771484,277.928711 C40.3798868,277.184567 40.8398432,276.033211 40.9570312,274.474609 L46.2304688,274.474609 Z M59.1679688,273.630859 L54.9667969,273.630859 L54.9667969,283 L49.6933594,283 L49.6933594,257.40625 L59.203125,257.40625 C62.2265776,257.40625 64.5585855,258.080071 66.1992188,259.427734 C67.839852,260.775397 68.6601562,262.679675 68.6601562,265.140625 C68.6601562,266.886727 68.2822303,268.342768 67.5263672,269.508789 C66.770504,270.674811 65.6250077,271.603512 64.0898438,272.294922 L69.6269531,282.753906 L69.6269531,283 L63.9667969,283 L59.1679688,273.630859 Z M54.9667969,269.359375 L59.2207031,269.359375 C60.5449285,269.359375 61.5703089,269.022464 62.296875,268.348633 C63.0234411,267.674801 63.3867188,266.7461 63.3867188,265.5625 C63.3867188,264.355463 63.0439487,263.406253 62.3583984,262.714844 C61.6728481,262.023434 60.6211008,261.677734 59.203125,261.677734 L54.9667969,261.677734 L54.9667969,269.359375 Z M93.6914062,270.783203 C93.6914062,273.302747 93.2460982,275.511709 92.3554688,277.410156 C91.4648393,279.308603 90.190438,280.773432 88.5322266,281.804688 C86.8740151,282.835943 84.972667,283.351562 82.828125,283.351562 C80.7070206,283.351562 78.8144614,282.841802 77.1503906,281.822266 C75.4863198,280.802729 74.1972702,279.346689 73.2832031,277.454102 C72.3691361,275.561514 71.9062501,273.384778 71.8945312,270.923828 L71.8945312,269.658203 C71.8945312,267.138659 72.3486283,264.920908 73.2568359,263.004883 C74.1650436,261.088858 75.4482339,259.618169 77.1064453,258.592773 C78.7646567,257.567378 80.6601456,257.054688 82.7929688,257.054688 C84.9257919,257.054688 86.8212808,257.567378 88.4794922,258.592773 C90.1377036,259.618169 91.4208939,261.088858 92.3291016,263.004883 C93.2373092,264.920908 93.6914062,267.1328 93.6914062,269.640625 L93.6914062,270.783203 Z M88.3476562,269.623047 C88.3476562,266.93944 87.8671923,264.900398 86.90625,263.505859 C85.9453077,262.111321 84.5742277,261.414062 82.7929688,261.414062 C81.0234287,261.414062 79.6582079,262.102532 78.6972656,263.479492 C77.7363233,264.856452 77.2500001,266.874987 77.2382812,269.535156 L77.2382812,270.783203 C77.2382812,273.396497 77.7187452,275.423821 78.6796875,276.865234 C79.6406298,278.306648 81.0234285,279.027344 82.828125,279.027344 C84.5976651,279.027344 85.9570265,278.333015 86.90625,276.944336 C87.8554735,275.555657 88.3359374,273.531263 88.3476562,270.871094 L88.3476562,269.623047 Z M118.335938,283 L113.0625,283 L102.796875,266.160156 L102.796875,283 L97.5234375,283 L97.5234375,257.40625 L102.796875,257.40625 L113.080078,274.28125 L113.080078,257.40625 L118.335938,257.40625 L118.335938,283 Z M131.273438,268.9375 L136.599609,257.40625 L142.365234,257.40625 L133.962891,273.71875 L133.962891,283 L128.601562,283 L128.601562,273.71875 L120.199219,257.40625 L125.982422,257.40625 L131.273438,268.9375 Z M151.59375,257.40625 L158.167969,275.96875 L164.707031,257.40625 L171.632812,257.40625 L171.632812,283 L166.341797,283 L166.341797,276.003906 L166.869141,263.927734 L159.960938,283 L156.339844,283 L149.449219,263.945312 L149.976562,276.003906 L149.976562,283 L144.703125,283 L144.703125,257.40625 L151.59375,257.40625 Z M189.509766,276.285156 C189.509766,275.289058 189.158207,274.524417 188.455078,273.991211 C187.75195,273.458005 186.486337,272.895511 184.658203,272.303711 C182.830069,271.711911 181.382818,271.128909 180.316406,270.554688 C177.410142,268.984367 175.957031,266.869154 175.957031,264.208984 C175.957031,262.826165 176.346676,261.592779 177.125977,260.508789 C177.905277,259.424799 179.024407,258.578128 180.483398,257.96875 C181.94239,257.359372 183.580069,257.054688 185.396484,257.054688 C187.224619,257.054688 188.853508,257.385739 190.283203,258.047852 C191.712898,258.709964 192.823238,259.644525 193.614258,260.851562 C194.405277,262.0586 194.800781,263.42968 194.800781,264.964844 L189.527344,264.964844 C189.527344,263.792963 189.158207,262.881839 188.419922,262.231445 C187.681637,261.581051 186.644538,261.255859 185.308594,261.255859 C184.019525,261.255859 183.017582,261.528318 182.302734,262.073242 C181.587887,262.618167 181.230469,263.335933 181.230469,264.226562 C181.230469,265.058598 181.64941,265.755857 182.487305,266.318359 C183.3252,266.880862 184.558586,267.408201 186.1875,267.900391 C189.187515,268.802739 191.37304,269.921868 192.744141,271.257812 C194.115241,272.593757 194.800781,274.257803 194.800781,276.25 C194.800781,278.464855 193.962899,280.202142 192.287109,281.461914 C190.61132,282.721686 188.355483,283.351562 185.519531,283.351562 C183.550771,283.351562 181.757821,282.991215 180.140625,282.270508 C178.523429,281.549801 177.290043,280.562506 176.44043,279.308594 C175.590816,278.054681 175.166016,276.601571 175.166016,274.949219 L180.457031,274.949219 C180.457031,277.773452 182.144514,279.185547 185.519531,279.185547 C186.773444,279.185547 187.75195,278.930667 188.455078,278.420898 C189.158207,277.91113 189.509766,277.199223 189.509766,276.285156 Z M206.296875,276.109375 C206.296875,274.925775 206.627926,273.830083 207.290039,272.822266 C207.952152,271.814448 209.16796,270.695319 210.9375,269.464844 C210.175777,268.445307 209.578127,267.487309 209.144531,266.59082 C208.710935,265.694331 208.494141,264.75977 208.494141,263.787109 C208.494141,261.794912 209.124017,260.174811 210.383789,258.926758 C211.643561,257.678705 213.339833,257.054688 215.472656,257.054688 C217.382822,257.054688 218.950189,257.623041 220.174805,258.759766 C221.39942,259.89649 222.011719,261.314445 222.011719,263.013672 C222.011719,265.052745 220.980479,266.851555 218.917969,268.410156 L216.949219,269.833984 L221.361328,274.966797 C222.052738,273.607415 222.398438,272.10743 222.398438,270.466797 L226.722656,270.466797 C226.722656,273.794939 225.955086,276.490224 224.419922,278.552734 L228.251953,283 L222.486328,283 L221.167969,281.488281 C219.281241,282.730475 217.113293,283.351562 214.664062,283.351562 C212.1328,283.351562 210.105476,282.68653 208.582031,281.356445 C207.058586,280.026361 206.296875,278.277355 206.296875,276.109375 Z M214.910156,279.273438 C216.128912,279.273438 217.283198,278.933597 218.373047,278.253906 L213.328125,272.417969 L212.958984,272.681641 C211.91601,273.57227 211.394531,274.621088 211.394531,275.828125 C211.394531,276.847661 211.719723,277.676755 212.370117,278.31543 C213.020511,278.954105 213.867182,279.273438 214.910156,279.273438 Z M213.046875,263.716797 C213.046875,264.595708 213.562495,265.703118 214.59375,267.039062 L215.947266,266.142578 C216.638675,265.697263 217.11621,265.263674 217.379883,264.841797 C217.643556,264.41992 217.775391,263.916019 217.775391,263.330078 C217.775391,262.744138 217.558596,262.234377 217.125,261.800781 C216.691404,261.367185 216.134769,261.150391 215.455078,261.150391 C214.728512,261.150391 214.14551,261.384763 213.706055,261.853516 C213.266599,262.322268 213.046875,262.943356 213.046875,263.716797 Z" id="ACRONYMS-&amp;" fill="#326496"></path>
            <path d="M46.5351562,331.765625 C45.5859328,332.902349 44.2441493,333.784177 42.5097656,334.411133 C40.775382,335.038089 38.8535262,335.351562 36.7441406,335.351562 C34.5292858,335.351562 32.5869224,334.868169 30.9169922,333.901367 C29.247062,332.934565 27.9580124,331.531259 27.0498047,329.691406 C26.141597,327.851553 25.6757814,325.689466 25.6523438,323.205078 L25.6523438,321.464844 C25.6523438,318.910143 26.0830035,316.698252 26.9443359,314.829102 C27.8056684,312.959952 29.0478434,311.530278 30.6708984,310.540039 C32.2939534,309.5498 34.1953016,309.054688 36.375,309.054688 C39.4101714,309.054688 41.7831946,309.778313 43.4941406,311.225586 C45.2050867,312.672859 46.2187484,314.779283 46.5351562,317.544922 L41.4023438,317.544922 C41.1679676,316.080071 40.6494181,315.007816 39.8466797,314.328125 C39.0439413,313.648434 37.9394602,313.308594 36.5332031,313.308594 C34.7402254,313.308594 33.3750047,313.982415 32.4375,315.330078 C31.4999953,316.677741 31.0253907,318.681627 31.0136719,321.341797 L31.0136719,322.976562 C31.0136719,325.66017 31.5234324,327.687493 32.5429688,329.058594 C33.5625051,330.429694 35.0566308,331.115234 37.0253906,331.115234 C39.0058693,331.115234 40.4179645,330.693364 41.2617188,329.849609 L41.2617188,325.4375 L36.4628906,325.4375 L36.4628906,321.552734 L46.5351562,321.552734 L46.5351562,331.765625 Z M56.0800781,330.763672 L67.2773438,330.763672 L67.2773438,335 L50.8066406,335 L50.8066406,309.40625 L56.0800781,309.40625 L56.0800781,330.763672 Z M90.1992188,322.783203 C90.1992188,325.302747 89.7539107,327.511709 88.8632812,329.410156 C87.9726518,331.308603 86.6982505,332.773432 85.0400391,333.804688 C83.3818276,334.835943 81.4804795,335.351562 79.3359375,335.351562 C77.2148331,335.351562 75.3222739,334.841802 73.6582031,333.822266 C71.9941323,332.802729 70.7050827,331.346689 69.7910156,329.454102 C68.8769486,327.561514 68.4140626,325.384778 68.4023438,322.923828 L68.4023438,321.658203 C68.4023438,319.138659 68.8564408,316.920908 69.7646484,315.004883 C70.6728561,313.088858 71.9560464,311.618169 73.6142578,310.592773 C75.2724692,309.567378 77.1679581,309.054688 79.3007812,309.054688 C81.4336044,309.054688 83.3290933,309.567378 84.9873047,310.592773 C86.6455161,311.618169 87.9287064,313.088858 88.8369141,315.004883 C89.7451217,316.920908 90.1992188,319.1328 90.1992188,321.640625 L90.1992188,322.783203 Z M84.8554688,321.623047 C84.8554688,318.93944 84.3750048,316.900398 83.4140625,315.505859 C82.4531202,314.111321 81.0820402,313.414062 79.3007812,313.414062 C77.5312412,313.414062 76.1660204,314.102532 75.2050781,315.479492 C74.2441358,316.856452 73.7578126,318.874987 73.7460938,321.535156 L73.7460938,322.783203 C73.7460938,325.396497 74.2265577,327.423821 75.1875,328.865234 C76.1484423,330.306648 77.531241,331.027344 79.3359375,331.027344 C81.1054776,331.027344 82.464839,330.333015 83.4140625,328.944336 C84.363286,327.555657 84.8437499,325.531263 84.8554688,322.871094 L84.8554688,321.623047 Z M107.302734,328.285156 C107.302734,327.289058 106.951175,326.524417 106.248047,325.991211 C105.544918,325.458005 104.279306,324.895511 102.451172,324.303711 C100.623038,323.711911 99.1757866,323.128909 98.109375,322.554688 C95.2031105,320.984367 93.75,318.869154 93.75,316.208984 C93.75,314.826165 94.1396445,313.592779 94.9189453,312.508789 C95.6982461,311.424799 96.8173755,310.578128 98.2763672,309.96875 C99.7353589,309.359372 101.373038,309.054688 103.189453,309.054688 C105.017587,309.054688 106.646477,309.385739 108.076172,310.047852 C109.505867,310.709964 110.616207,311.644525 111.407227,312.851562 C112.198246,314.0586 112.59375,315.42968 112.59375,316.964844 L107.320312,316.964844 C107.320312,315.792963 106.951176,314.881839 106.212891,314.231445 C105.474606,313.581051 104.437507,313.255859 103.101562,313.255859 C101.812494,313.255859 100.81055,313.528318 100.095703,314.073242 C99.3808558,314.618167 99.0234375,315.335933 99.0234375,316.226562 C99.0234375,317.058598 99.4423786,317.755857 100.280273,318.318359 C101.118168,318.880862 102.351554,319.408201 103.980469,319.900391 C106.980484,320.802739 109.166009,321.921868 110.537109,323.257812 C111.90821,324.593757 112.59375,326.257803 112.59375,328.25 C112.59375,330.464855 111.755868,332.202142 110.080078,333.461914 C108.404288,334.721686 106.148452,335.351562 103.3125,335.351562 C101.34374,335.351562 99.5507893,334.991215 97.9335938,334.270508 C96.3163982,333.549801 95.0830121,332.562506 94.2333984,331.308594 C93.3837848,330.054681 92.9589844,328.601571 92.9589844,326.949219 L98.25,326.949219 C98.25,329.773452 99.9374831,331.185547 103.3125,331.185547 C104.566413,331.185547 105.544918,330.930667 106.248047,330.420898 C106.951175,329.91113 107.302734,329.199223 107.302734,328.285156 Z M129.433594,328.285156 C129.433594,327.289058 129.082035,326.524417 128.378906,325.991211 C127.675778,325.458005 126.410165,324.895511 124.582031,324.303711 C122.753897,323.711911 121.306646,323.128909 120.240234,322.554688 C117.33397,320.984367 115.880859,318.869154 115.880859,316.208984 C115.880859,314.826165 116.270504,313.592779 117.049805,312.508789 C117.829105,311.424799 118.948235,310.578128 120.407227,309.96875 C121.866218,309.359372 123.503897,309.054688 125.320312,309.054688 C127.148447,309.054688 128.777337,309.385739 130.207031,310.047852 C131.636726,310.709964 132.747066,311.644525 133.538086,312.851562 C134.329106,314.0586 134.724609,315.42968 134.724609,316.964844 L129.451172,316.964844 C129.451172,315.792963 129.082035,314.881839 128.34375,314.231445 C127.605465,313.581051 126.568366,313.255859 125.232422,313.255859 C123.943353,313.255859 122.94141,313.528318 122.226562,314.073242 C121.511715,314.618167 121.154297,315.335933 121.154297,316.226562 C121.154297,317.058598 121.573238,317.755857 122.411133,318.318359 C123.249028,318.880862 124.482414,319.408201 126.111328,319.900391 C129.111343,320.802739 131.296868,321.921868 132.667969,323.257812 C134.039069,324.593757 134.724609,326.257803 134.724609,328.25 C134.724609,330.464855 133.886727,332.202142 132.210938,333.461914 C130.535148,334.721686 128.279311,335.351562 125.443359,335.351562 C123.4746,335.351562 121.681649,334.991215 120.064453,334.270508 C118.447258,333.549801 117.213871,332.562506 116.364258,331.308594 C115.514644,330.054681 115.089844,328.601571 115.089844,326.949219 L120.380859,326.949219 C120.380859,329.773452 122.068342,331.185547 125.443359,331.185547 C126.697272,331.185547 127.675778,330.930667 128.378906,330.420898 C129.082035,329.91113 129.433594,329.199223 129.433594,328.285156 Z M152.742188,329.726562 L143.496094,329.726562 L141.738281,335 L136.130859,335 L145.658203,309.40625 L150.544922,309.40625 L160.125,335 L154.517578,335 L152.742188,329.726562 Z M144.919922,325.455078 L151.318359,325.455078 L148.101562,315.875 L144.919922,325.455078 Z M171.990234,325.630859 L167.789062,325.630859 L167.789062,335 L162.515625,335 L162.515625,309.40625 L172.025391,309.40625 C175.048843,309.40625 177.380851,310.080071 179.021484,311.427734 C180.662118,312.775397 181.482422,314.679675 181.482422,317.140625 C181.482422,318.886727 181.104496,320.342768 180.348633,321.508789 C179.59277,322.674811 178.447273,323.603512 176.912109,324.294922 L182.449219,334.753906 L182.449219,335 L176.789062,335 L171.990234,325.630859 Z M167.789062,321.359375 L172.042969,321.359375 C173.367194,321.359375 174.392574,321.022464 175.119141,320.348633 C175.845707,319.674801 176.208984,318.7461 176.208984,317.5625 C176.208984,316.355463 175.866214,315.406253 175.180664,314.714844 C174.495114,314.023434 173.443366,313.677734 172.025391,313.677734 L167.789062,313.677734 L167.789062,321.359375 Z M193.470703,320.9375 L198.796875,309.40625 L204.5625,309.40625 L196.160156,325.71875 L196.160156,335 L190.798828,335 L190.798828,325.71875 L182.396484,309.40625 L188.179688,309.40625 L193.470703,320.9375 Z" id="GLOSSARY" fill="#326496"></path>
        </g>
    </g>
</svg>