<?xml version="1.0" encoding="UTF-8"?>
<svg width="318px" height="315px" viewBox="0 0 318 315" version="1.1" xmlns="http://www.w3.org/2000/svg" xmlns:xlink="http://www.w3.org/1999/xlink">
    <!-- Generator: Sketch 47.1 (45422) - http://www.bohemiancoding.com/sketch -->
    <!-- <title>Glossary</title> -->
    <desc>Created with Sketch.</desc>
    <defs></defs>
    <g id="Page-1GLOSSARY" stroke="none" stroke-width="1" fill="none" fill-rule="evenodd">
        <g id="GLOSSARY_w" transform="translate(0.000000, 8.000000)">
            <g id="Glossary-White" transform="translate(30.000000, 0.000000)">
                <circle id="Oval-7" stroke="#FFFFFF" stroke-width="16" cx="114" cy="114" r="114"></circle>
                <g id="Oval-5-+-Rectangle-3" transform="translate(66.000000, 46.000000)" fill-rule="nonzero">
                    <ellipse id="Oval-55645645" stroke="#FFFFFF" stroke-width="12.1000004" fill-opacity="0" fill="#FFFFFF" cx="39.8506494" cy="39.7431193" rx="39.8506494" ry="39.7431193"></ellipse>
                    <circle id="Oval-5-Copy" fill-opacity="0" fill="#00334C" cx="38.6333333" cy="38.6333333" r="23.4333333"></circle>
                    <rect id="Rectangle-10" fill="#FFFFFF" transform="translate(75.395019, 109.165722) rotate(-30.000000) translate(-75.395019, -109.165722) " x="64.9080058" y="62.9357416" width="20.974026" height="92.4599599" rx="8.2792208"></rect>
                </g>
            </g>
            <g id="GLOSSARY" transform="translate(0.000000, 261.000000)" fill-rule="nonzero" fill="#FFFFFF">
                <path d="M36.4334405,39.2118055 C34.7893606,41.1484472 32.4653567,42.6508193 29.4613588,43.7189669 C26.4573608,44.7871147 23.1286565,45.3211805 19.4751455,45.3211805 C15.6389591,45.3211805 12.2747349,44.4976211 9.38237209,42.8504774 C6.49000928,41.2033338 4.25734165,38.8125158 2.68430223,35.6779514 C1.11126282,32.543387 0.304457928,28.8598303 0.263863357,24.6271702 L0.263863357,21.6623264 C0.263863357,17.3098741 1.00977732,13.5414655 2.5016276,10.3569878 C3.99347789,7.17251012 6.14495761,4.73677058 8.95613128,3.04969618 C11.767305,1.36262178 15.0604897,0.519097222 18.8357843,0.519097222 C24.0927805,0.519097222 28.2029187,1.7519408 31.166322,4.21766493 C34.1297253,6.68338907 35.8854139,10.2721119 36.4334405,14.983941 L27.5432751,14.983941 C27.1373294,12.4882687 26.2391881,10.6614641 24.8488243,9.50347222 C23.4584604,8.34548032 21.5454703,7.76649305 19.1097962,7.76649305 C16.0043119,7.76649305 13.6397141,8.91448505 12.0159314,11.2105035 C10.3921487,13.506522 9.57012112,16.9205503 9.54982384,21.452691 L9.54982384,24.2378472 C9.54982384,28.8099187 10.4327424,32.2638772 12.198606,34.5998264 C13.9644696,36.9357756 16.5523344,38.1037327 19.9622779,38.1037327 C23.3925187,38.1037327 25.8383046,37.3849898 27.2997089,35.9474827 L27.2997089,28.4305555 L18.9880131,28.4305555 L18.9880131,21.812066 L36.4334405,21.812066 L36.4334405,39.2118055 Z M53.8748085,37.5047743 L73.2687653,37.5047743 L73.2687653,44.7222222 L44.7410769,44.7222222 L44.7410769,1.11805556 L53.8748085,1.11805556 L53.8748085,37.5047743 Z M113.879366,23.9084202 C113.879366,28.2009763 113.108081,31.9643935 111.565487,35.1987847 C110.022894,38.4331759 107.815597,40.9288106 104.943532,42.6857639 C102.071466,44.4427171 98.7782814,45.3211805 95.0638787,45.3211805 C91.3900704,45.3211805 88.1121085,44.4526996 85.2298943,42.7157118 C82.3476802,40.9787239 80.1150125,38.4980631 78.5318244,35.2736544 C76.9486364,32.049246 76.1469058,28.3407327 76.1266084,24.1480035 L76.1266084,21.9917535 C76.1266084,17.6991972 76.9131164,13.9208062 78.4861557,10.656467 C80.0591952,7.39212778 82.2817144,4.88651047 85.1537798,3.13953993 C88.0258454,1.39256939 91.3088817,0.519097222 95.0029872,0.519097222 C98.6970926,0.519097222 101.980129,1.39256939 104.852194,3.13953993 C107.72426,4.88651047 109.946779,7.39212778 111.519818,10.656467 C113.092858,13.9208062 113.879366,17.6892148 113.879366,21.9618055 L113.879366,23.9084202 Z M104.623851,21.9318577 C104.623851,17.3597861 103.791675,13.8858626 102.127298,11.5099827 C100.462921,9.1341027 98.0881742,7.94618055 95.0029872,7.94618055 C91.9380974,7.94618055 89.5734995,9.11912889 87.9091222,11.4650607 C86.244745,13.8109926 85.4024204,17.2499773 85.3821232,21.782118 L85.3821232,23.9084202 C85.3821232,28.3606994 86.2142992,31.8146579 87.8786765,34.2703993 C89.5430537,36.7261408 91.938097,37.953993 95.0638787,37.953993 C98.1287684,37.953993 100.483218,36.7710622 102.127298,34.4051649 C103.771378,32.0392677 104.603554,28.5903004 104.623851,24.0581597 L104.623851,21.9318577 Z M144.412415,33.282118 C144.412415,31.585061 143.803506,30.2823396 142.585669,29.3739149 C141.367833,28.4654902 139.17576,27.5071665 136.009382,26.4989149 C132.843006,25.4906633 130.33633,24.4974007 128.489277,23.5190972 C123.455551,20.8437365 120.938725,17.24004 120.938725,12.7078993 C120.938725,10.3519848 121.6136,8.25066028 122.963369,6.40386285 C124.313139,4.55706542 126.2515,3.11458852 128.778511,2.07638889 C131.305523,1.03818926 134.142025,0.519097222 137.288105,0.519097222 C140.454482,0.519097222 143.275762,1.08311068 145.752029,2.21115452 C148.228298,3.33919834 150.151437,4.93141333 151.521504,6.98784722 C152.89157,9.04428112 153.576593,11.3801953 153.576593,13.9956597 L144.442861,13.9956597 C144.442861,11.999122 143.803506,10.4468372 142.524778,9.33875868 C141.246049,8.23068021 139.449767,7.6766493 137.135876,7.6766493 C134.903175,7.6766493 133.167783,8.14083737 131.929649,9.06922743 C130.691515,9.99761748 130.072457,11.2204786 130.072457,12.7378472 C130.072457,14.155389 130.798074,15.3433112 132.249329,16.3016493 C133.700585,17.2599874 135.836843,18.1584159 138.658164,18.9969618 C143.854269,20.5342958 147.639656,22.4409608 150.014438,24.7170139 C152.389221,26.9930669 153.576593,29.828108 153.576593,33.2222222 C153.576593,36.9956786 152.125359,39.9555014 149.222847,42.1017794 C146.320336,44.2480576 142.413168,45.3211805 137.501225,45.3211805 C134.091282,45.3211805 130.985845,44.7072544 128.184819,43.4793837 C125.383794,42.2515129 123.247537,40.5694552 121.775984,38.4331597 C120.304431,36.2968643 119.568665,33.8211946 119.568665,31.0060764 L128.732843,31.0060764 C128.732843,35.8177323 131.655608,38.2235243 137.501225,38.2235243 C139.673034,38.2235243 141.367833,37.7892838 142.585669,36.9207899 C143.803506,36.0522961 144.412415,34.8394176 144.412415,33.282118 Z M183.652957,33.282118 C183.652957,31.585061 183.044048,30.2823396 181.826211,29.3739149 C180.608372,28.4654902 178.416299,27.5071665 175.249924,26.4989149 C172.083548,25.4906633 169.576871,24.4974007 167.729817,23.5190972 C162.696092,20.8437365 160.179266,17.24004 160.179266,12.7078993 C160.179266,10.3519848 160.854141,8.25066028 162.20391,6.40386285 C163.553679,4.55706542 165.49204,3.11458852 168.019053,2.07638889 C170.546064,1.03818926 173.382567,0.519097222 176.528646,0.519097222 C179.695021,0.519097222 182.516301,1.08311068 184.992571,2.21115452 C187.468838,3.33919834 189.391977,4.93141333 190.762043,6.98784722 C192.132111,9.04428112 192.817134,11.3801953 192.817134,13.9956597 L183.683402,13.9956597 C183.683402,11.999122 183.044048,10.4468372 181.765318,9.33875868 C180.48659,8.23068021 178.690306,7.6766493 176.376417,7.6766493 C174.143717,7.6766493 172.408325,8.14083737 171.17019,9.06922743 C169.932056,9.99761748 169.312997,11.2204786 169.312997,12.7378472 C169.312997,14.155389 170.038615,15.3433112 171.489871,16.3016493 C172.941127,17.2599874 175.077383,18.1584159 177.898705,18.9969618 C183.09481,20.5342958 186.880196,22.4409608 189.254978,24.7170139 C191.62976,26.9930669 192.817134,29.828108 192.817134,33.2222222 C192.817134,36.9956786 191.3659,39.9555014 188.463389,42.1017794 C185.560878,44.2480576 181.653709,45.3211805 176.741766,45.3211805 C173.331823,45.3211805 170.226384,44.7072544 167.42536,43.4793837 C164.624335,42.2515129 162.488078,40.5694552 161.016526,38.4331597 C159.544973,36.2968643 158.809207,33.8211946 158.809207,31.0060764 L167.973384,31.0060764 C167.973384,35.8177323 170.896149,38.2235243 176.741766,38.2235243 C178.913576,38.2235243 180.608372,37.7892838 181.826211,36.9207899 C183.044048,36.0522961 183.652957,34.8394176 183.652957,33.282118 Z M224.933364,35.7378472 L208.918888,35.7378472 L205.874311,44.7222222 L196.162109,44.7222222 L212.663717,1.11805556 L221.127641,1.11805556 L237.720588,44.7222222 L228.008386,44.7222222 L224.933364,35.7378472 Z M211.384995,28.4605035 L222.467256,28.4605035 L216.89568,12.1388889 L211.384995,28.4605035 Z M259.180798,28.7599827 L251.904259,28.7599827 L251.904259,44.7222222 L242.770527,44.7222222 L242.770527,1.11805556 L259.241689,1.11805556 C264.478389,1.11805556 268.517486,2.26604755 271.359106,4.56206597 C274.200726,6.85808439 275.621515,10.1024096 275.621515,14.2951389 C275.621515,17.2699801 274.966938,19.7506412 273.657763,21.7371962 C272.348588,23.7237512 270.364559,25.3059837 267.705613,26.483941 L277.296033,44.3029514 L277.296033,44.7222222 L267.492494,44.7222222 L259.180798,28.7599827 Z M251.904259,21.4826389 L259.272135,21.4826389 C261.565729,21.4826389 263.341715,20.9086429 264.600145,19.7606338 C265.858577,18.6126245 266.487783,17.0303921 266.487783,15.0138889 C266.487783,12.957455 265.894097,11.3402837 264.706706,10.1623264 C263.519315,8.98436911 261.69766,8.3953993 259.241689,8.3953993 L251.904259,8.3953993 L251.904259,21.4826389 Z M298.756242,20.7638889 L307.981312,1.11805556 L317.967524,1.11805556 L303.414446,28.9097222 L303.414446,44.7222222 L294.128485,44.7222222 L294.128485,28.9097222 L279.575405,1.11805556 L289.592065,1.11805556 L298.756242,20.7638889 Z" id="Shapetrf"></path>
            </g>
        </g>
    </g>
</svg>