<?xml version="1.0" encoding="UTF-8"?>
<svg width="258px" height="253px" viewBox="0 0 258 253" version="1.1" xmlns="http://www.w3.org/2000/svg" xmlns:xlink="http://www.w3.org/1999/xlink">
    <!-- Generator: Sketch 47.1 (45422) - http://www.bohemiancoding.com/sketch -->
    <!-- <title>Tutorial</title> -->
    <desc>Created with Sketch.</desc>
    <defs></defs>
    <g id="Page-1" stroke="none" stroke-width="1" fill="none" fill-rule="evenodd">
        <g id="TUTORIAL_w" transform="translate(-1.000000, 5.000000)">
            <g id="Tutorial-White" transform="translate(23.000000, 0.000000)">
                <circle id="Oval-21" stroke="#FFFFFF" stroke-width="10" cx="90" cy="90" r="90"></circle>
                <g id="Tutorial-icon" transform="translate(47.000000, 59.000000)" fill-rule="nonzero" fill="#FFFFFF">
                    <rect id="Rectangle-2" x="0" y="0" width="80" height="61.6216216" rx="8"></rect>
                    <polygon id="Triangle-4" points="104 11 104 51.185185 73 31.092593"></polygon>
                </g>
            </g>
            <g id="TUTORIAL" transform="translate(0.000000, 208.000000)" fill-rule="nonzero" fill="#FFFFFF">
                <path d="M31.9270833,6.92997689 L20.3125,6.92997689 L20.3125,38.5185185 L12.5,38.5185185 L12.5,6.92997689 L1.04166667,6.92997689 L1.04166667,0.601851852 L31.9270833,0.601851852 L31.9270833,6.92997689 Z M66.1151621,0.601851852 L66.1151621,25.5758102 C66.1151621,29.7251364 64.817432,33.0063536 62.2219329,35.4195601 C59.6264338,37.8327667 56.0804622,39.0393519 51.583912,39.0393519 C47.1568065,39.0393519 43.6412167,37.8674886 41.037037,35.5237268 C38.4328573,33.1799652 37.1047456,29.9595113 37.0526621,25.8622684 L37.0526621,0.601851852 L44.8651621,0.601851852 L44.8651621,25.6278935 C44.8651621,28.1105449 45.4597741,29.9204225 46.6490161,31.057581 C47.8382582,32.1947396 49.4832071,32.7633102 51.583912,32.7633102 C55.9762951,32.7633102 58.2071756,30.4543055 58.2766203,25.8362268 L58.2766203,0.601851852 L66.1151621,0.601851852 Z M102.100116,6.92997689 L90.4855324,6.92997689 L90.4855324,38.5185185 L82.6730324,38.5185185 L82.6730324,6.92997689 L71.2146991,6.92997689 L71.2146991,0.601851852 L102.100116,0.601851852 L102.100116,6.92997689 Z M138.006944,20.4195601 C138.006944,24.1522178 137.347229,27.4247545 136.027778,30.2372684 C134.708327,33.0497825 132.820325,35.2198997 130.363715,36.7476852 C127.907106,38.2754707 125.090294,39.0393519 121.913194,39.0393519 C118.770818,39.0393519 115.967026,38.2841511 113.501736,36.7737268 C111.036446,35.2633027 109.126743,33.1062062 107.772569,30.3023727 C106.418396,27.4985393 105.732639,24.273745 105.715278,20.6278935 L105.715278,18.7528935 C105.715278,15.020236 106.388014,11.7346785 107.733507,8.89612267 C109.079,6.05756681 110.980022,3.87876917 113.436632,2.35966436 C115.893241,0.840559541 118.701373,0.0810185185 121.861111,0.0810185185 C125.020849,0.0810185185 127.828981,0.840559541 130.28559,2.35966436 C132.7422,3.87876917 134.643222,6.05756681 135.988715,8.89612267 C137.334208,11.7346785 138.006944,15.0115556 138.006944,18.7268519 L138.006944,20.4195601 Z M130.090278,18.7008102 C130.090278,14.7250959 129.378479,11.7042927 127.954861,9.63831022 C126.531243,7.5723277 124.500013,6.53935185 121.861111,6.53935185 C119.23957,6.53935185 117.217021,7.55930696 115.793403,9.5992477 C114.369784,11.6391884 113.649306,14.6296099 113.631944,18.5706018 L113.631944,20.4195601 C113.631944,24.2911073 114.343743,27.2945495 115.767361,29.4299769 C117.190979,31.5654041 119.23957,32.6331019 121.913194,32.6331019 C124.534735,32.6331019 126.548604,31.6044664 127.954861,29.5471643 C129.361118,27.4898624 130.072917,24.4907604 130.090278,20.5497686 L130.090278,18.7008102 Z M158.757523,24.6383102 L152.533564,24.6383102 L152.533564,38.5185185 L144.721065,38.5185185 L144.721065,0.601851852 L158.809606,0.601851852 C163.288796,0.601851852 166.743622,1.60010576 169.17419,3.59664353 C171.604757,5.59318133 172.820024,8.41433363 172.820024,12.0601852 C172.820024,14.6470037 172.260133,16.8041001 171.140336,18.5315394 C170.020538,20.2589785 168.323507,21.6348329 166.04919,22.6591436 L174.252314,38.1539351 L174.252314,38.5185185 L165.866898,38.5185185 L158.757523,24.6383102 Z M152.533564,18.3101852 L158.835647,18.3101852 C160.797464,18.3101852 162.316545,17.8110582 163.392939,16.8127893 C164.469333,15.8145204 165.007523,14.4386662 165.007523,12.6851852 C165.007523,10.8969818 164.499716,9.49074593 163.484086,8.46643526 C162.468455,7.44212444 160.910311,6.92997689 158.809606,6.92997689 L152.533564,6.92997689 L152.533564,18.3101852 Z M188.101852,38.5185185 L180.289351,38.5185185 L180.289351,0.601851852 L188.101852,0.601851852 L188.101852,38.5185185 Z M218.253473,30.7060185 L204.555556,30.7060185 L201.951388,38.5185185 L193.644098,38.5185185 L207.75868,0.601851852 L214.998264,0.601851852 L229.190972,38.5185185 L220.88368,38.5185185 L218.253473,30.7060185 Z M206.66493,24.3778935 L216.144098,24.3778935 L211.378473,10.1851852 L206.66493,24.3778935 Z M241.582176,32.2424769 L258.170717,32.2424769 L258.170717,38.5185185 L233.769676,38.5185185 L233.769676,0.601851852 L241.582176,0.601851852 L241.582176,32.2424769 Z" id="Shapedsf"></path>
            </g>
        </g>
    </g>
</svg>