<?xml version="1.0" encoding="UTF-8"?>
<svg width="1122px" height="263px" viewBox="0 0 1122 263" version="1.1" xmlns="http://www.w3.org/2000/svg" xmlns:xlink="http://www.w3.org/1999/xlink">
    <!-- Generator: Sketch 44.1 (41455) - http://www.bohemiancoding.com/sketch -->
    <title>hvtn_logo</title>
    <desc>Created with Sketch.</desc>
    <defs>
        <radialGradient cx="41.2833034%" cy="31.0343357%" fx="41.2833034%" fy="31.0343357%" r="52.3075853%" id="radialGradient-1">
            <stop stop-color="#FFFFFF" offset="0%"></stop>
            <stop stop-color="#45A6D7" offset="100%"></stop>
        </radialGradient>
        <linearGradient x1="62.2832873%" y1="58.8595828%" x2="10.1851182%" y2="9.53859192%" id="linearGradient-2">
            <stop stop-color="#EF3B3F" offset="0%"></stop>
            <stop stop-color="#462F7E" offset="100%"></stop>
        </linearGradient>
        <linearGradient x1="24.0861831%" y1="44.0965373%" x2="1.83989637%" y2="36.0717733%" id="linearGradient-3">
            <stop stop-color="#EF3B3F" offset="0%"></stop>
            <stop stop-color="#462F7E" offset="100%"></stop>
        </linearGradient>
        <linearGradient x1="66.2196121%" y1="37.43%" x2="89.600222%" y2="2.4365942%" id="linearGradient-4">
            <stop stop-color="#EF3B3F" offset="0%"></stop>
            <stop stop-color="#462F7E" offset="100%"></stop>
        </linearGradient>
        <linearGradient x1="66.4793991%" y1="51.5362768%" x2="-0.843347639%" y2="44.8171838%" id="linearGradient-5">
            <stop stop-color="#EF3B3F" offset="0%"></stop>
            <stop stop-color="#462F7E" offset="100%"></stop>
        </linearGradient>
        <linearGradient x1="27.9619048%" y1="50.9369369%" x2="102.972381%" y2="47.2981982%" id="linearGradient-6">
            <stop stop-color="#EF3B3F" offset="0%"></stop>
            <stop stop-color="#462F7E" offset="100%"></stop>
        </linearGradient>
    </defs>
    <g id="hvtn_logo-1" stroke="none" stroke-width="1" fill="none" fill-rule="evenodd">
        <g id="hvtn_logo" transform="translate(1.000000, 0.000000)" fill-rule="nonzero">
            <g id="ribbon_copy_4">
                <g id="Group">
                    <circle id="Oval-22" stroke="#93CAD9" stroke-width="0.5" fill="url(#radialGradient-1)" cx="125.255165" cy="136.948646" r="125.255165"></circle>
                    <path d="M95.5717151,70.7230692 L90.7369107,66.2255767 L91.0742227,61.3907723 L87.2513541,60.3788365 L85.6772317,55.881344 L80.392678,53.9699097 L77.8066199,48.7977934 L74.5459378,51.3838516 L70.7230692,47.7858576 L64.876329,46.7739218 L63.8643932,50.0346038 L61.9529589,51.2714142 L63.1897693,55.4315948 L61.278335,57.3430291 L60.0415246,61.5032096 L58.1300903,61.5032096 L58.8047141,57.9052156 L55.881344,58.4674022 L56.218656,56.5559679 L53.6325978,56.8932798 L52.9579739,53.9699097 L49.6972919,53.6325978 L54.1947844,48.4604814 L59.3669007,44.8624875 L59.0295888,47.4485456 L62.6275827,46.7739218 L62.2902708,43.1759278 L64.876329,40.5898696 L62.2902708,39.3530592 L60.3788365,40.5898696 L59.3669007,37.3291876 L61.9529589,36.0923771 L62.9648947,38.0038114 L66.2255767,39.2406219 L69.8235707,38.9033099 L71.0603811,40.1401204 L69.1489468,42.0515547 L63.9768305,42.0515547 L63.9768305,44.9749248 L68.8116349,44.9749248 L75.5578736,48.2356068 L77.8066199,45.9868606 L75.8951856,44.0754263 L79.4931795,44.0754263 L79.4931795,42.5013039 L76.9071214,39.9152457 L76.9071214,37.3291876 L66.9002006,32.4943831 L64.9887663,34.0685055 L59.8166499,35.3053159 L56.218656,38.7908726 L52.9579739,42.0515547 L50.3719157,42.0515547 L54.5320963,40.1401204 L54.5320963,37.2167503 L57.1181545,37.2167503 L57.1181545,35.3053159 L53.5201605,35.3053159 C23.6118355,55.5440321 3.26068205,89.1627884 0.674623872,127.616349 L7.08355065,133.800401 L8.99498495,132.226279 L15.1790371,146.730692 L13.6049147,148.979438 L18.4397192,163.483852 L23.2745236,161.909729 L26.8725176,157.074925 L22.0377131,156.737613 L18.7770311,149.991374 L24.2864594,134.812337 L18.1024072,132.900903 L21.9252758,128.066098 L26.0854564,120.982548 L20.2387161,119.970612 L16.0785356,125.817352 L10.5691073,125.142728 L10.2317954,117.721866 L13.8297894,110.301003 L19.0019057,103.892076 L24.1740221,101.306018 L28.3342026,103.554764 L29.908325,100.968706 L38.0038114,102.88014 L36.767001,108.726881 L37.4416249,113.898997 L40.027683,114.236309 L42.6137412,108.389569 L43.8505517,101.980642 L50.0346038,97.8204614 L56.218656,91.0742227 L56.8932798,87.8135406 L66.5628887,81.0673019 L67.2375125,79.1558676 L76.9071214,73.9837513 L74.9956871,71.735005 L77.5817452,68.474323 L73.9837513,68.474323 L69.1489468,70.0484453 L74.9956871,66.4504514 L86.2394183,64.876329 L84.327984,71.0603811 L95.5717151,70.7230692 Z M57.4554664,72.7469408 L55.5440321,73.7588766 L54.3072217,72.1847543 L60.4912738,71.1728185 L57.4554664,72.7469408 Z" id="Shape" stroke="#7AA2A4" stroke-width="0.5" fill="#006D6B"></path>
                    <polygon id="Shape" stroke="#7AA2A4" stroke-width="0.5" fill="#006D6B" points="122.331795 106.927884 118.508927 93.6602808 119.745737 87.9259779 126.154664 81.4046138 134.25015 77.5817452 137.173521 80.392678 144.594383 80.392678 155.275928 76.5698094 162.69679 79.4931795 163.034102 82.9787362 178.213139 90.1747242 181.024072 88.8254764 181.698696 85.0026078 186.870812 85.0026078 191.705617 87.9259779 198.789168 88.1508526 202.387161 90.1747242 211.044835 99.1697091 214.305517 104.341825 219.814945 112.999498 219.477633 117.94674 224.649749 119.520863 230.159178 125.592477 235.668606 130.764594 247.586961 130.764594 246.912337 140.434203 240.840722 149.878937 230.833801 159.548546 227.573119 168.543531 227.573119 175.964393 228.80993 180.799198 223.637813 192.492678 217.566199 194.0668 213.968205 199.576229 214.98014 202.499599 207.89659 209.583149 198.789168 219.927382 195.640923 223.412939 186.533501 226.673621 175.289769 227.910431 173.940522 224.762187 176.189268 221.501505 176.189268 213.406018 178.550451 204.411033 176.863892 200.250853 177.875827 189.569308 181.361384 180.799198 183.385256 175.627081 182.37332 172.478837 182.37332 167.868907 177.875827 161.122668 178.213139 148.529689 171.017151 145.381444 169.105717 141.78345 158.199298 144.369509 146.505817 143.357573 139.422267 134.6999 131.101906 122.444233"></polygon>
                    <polygon id="Shape" stroke="#7AA2A4" stroke-width="0.5" fill="#006D6B" points="231.395988 188.22006 230.833801 193.729488 227.235807 195.078736 223.975125 195.078736 222.063691 198.226981 222.063691 204.411033 219.477633 205.647844 217.566199 209.583149 216.891575 214.755266 221.051755 215.092578 228.472618 205.085657 232.407924 197.889669 234.65667 191.818054 234.319358 187.657874 231.7333 185.971314"></polygon>
                    <polygon id="Shape" stroke="#7AA2A4" stroke-width="0.5" fill="#006D6B" points="208.233902 60.1539619 208.233902 63.9768305 210.482648 66.5628887 214.305517 69.8235707 217.566199 72.7469408 219.140321 73.6464393 220.826881 76.2324975 222.738315 80.1678034 224.987061 81.0673019 227.910431 81.0673019 224.312437 74.9956871 224.987061 73.3091274 223.412939 72.4096289 221.726379 72.7469408 219.814945 70.4981946 216.216951 69.4862588 213.068706 65.5509529 214.98014 64.9887663 216.554263 63.9768305 213.630893 63.6395186 213.068706 61.7280843 211.382146 61.7280843"></polygon>
                    <path d="M191.030993,61.0534604 C191.030993,61.0534604 189.456871,62.2902708 189.119559,62.2902708 C188.782247,62.2902708 184.622066,61.6156469 184.622066,61.6156469 L184.284754,66.7877633 L185.858877,70.0484453 L191.368305,70.3857573 L194.628987,68.474323 L198.226981,69.7111334 L199.801103,70.7230692 L204.298596,70.3857573 L201.375226,68.137011 L196.877733,65.8882648 L195.640923,64.3141424 L194.628987,62.7400201 L192.717553,64.3141424 L189.794183,64.3141424 L192.380241,61.7280843 L191.030993,61.0534604 Z" id="Shape" stroke="#7AA2A4" stroke-width="0.5" fill="#006D6B"></path>
                    <path d="M78.7061184,26.5352056 L84.5528586,27.5471414 L80.9548646,32.0446339 L79.9429288,36.2048144 L81.1797392,36.2048144 L81.1797392,39.8028084 L82.4165496,41.7142427 L83.6533601,45.3122367 L84.8901705,47.8982949 L89.7249749,48.2356068 L94.2224674,41.82668 L107.152758,34.7431294 L111.987563,30.5829488 L117.159679,26.9849549 L120.982548,25.9730191 L118.733801,24.9610832 L115.810431,23.0496489 L112.212437,19.451655 L108.052257,19.451655 L105.466199,20.6884654 L96.6960883,21.0257773 L92.1985958,21.7004012 L87.3637914,20.1262788 L84.7777332,18.2148445 C78.593681,20.1262788 72.8593781,22.712337 67.0126379,25.6357071 L71.5101304,26.6476429 L78.7061184,26.6476429 L78.7061184,26.5352056 Z" id="Shape" stroke="#7AA2A4" stroke-width="0.5" fill="#006D6B"></path>
                    <path d="M131.101906,33.0565697 L132.676028,33.0565697 L133.350652,31.4824473 L134.025276,33.3938816 L135.93671,33.3938816 L136.611334,31.1451354 L142.120762,30.8078235 L154.376429,31.1451354 L150.778435,32.7192578 L152.015246,36.3172518 L154.263992,36.3172518 L153.027182,37.5540622 L154.601304,41.1520562 L148.417252,41.82668 L143.582447,45.6495486 L134.587462,41.82668 L130.427282,39.2406219 L131.101906,36.6545637 L129.190471,36.6545637 L129.527783,34.0685055 L128.290973,33.3938816 L127.953661,34.6306921 L126.716851,37.2167503 L127.953661,39.8028084 L126.716851,40.4774323 L125.704915,41.7142427 L126.042227,43.962989 L124.805416,44.3003009 L128.066098,47.223671 L129.078034,42.7261785 L130.314845,44.3003009 L129.078034,47.223671 L130.989468,47.5609829 L128.740722,51.3838516 L131.32678,52.0584754 L128.066098,53.6325978 L130.652156,56.8932798 L131.664092,68.137011 L134.25015,72.6345035 L141.333701,78.4812437 L146.843129,77.8066199 L148.417252,74.5459378 L147.742628,71.6225677 L149.991374,67.4623872 L149.31675,64.876329 L156.062989,64.5390171 L161.235105,69.7111334 L163.821163,70.9479438 L169.330592,73.1966901 L170.342528,75.4454363 L170.67984,77.0195587 C170.67984,77.0195587 167.081846,77.0195587 166.856971,77.0195587 C166.632096,77.0195587 169.780341,79.9429288 169.780341,79.9429288 L171.354463,78.7061184 L172.591274,78.3688064 L173.60321,75.4454363 L172.591274,73.534002 L174.84002,73.534002 L169.667904,69.0365095 L163.258977,66.4504514 L158.761484,63.5270812 L161.010231,61.9529589 L168.768405,64.5390171 L177.201204,73.534002 L179.787262,75.7827482 L183.947442,79.6056169 L184.284754,75.4454363 L182.710632,72.1847543 L185.971314,72.5220662 L189.231996,76.6822467 L195.416048,80.8424273 L202.836911,81.1797392 L206.434905,87.588666 L203.848847,91.18666 L211.607021,99.2821464 L213.518455,97.3707121 L226.111434,111.875125 L225.774122,114.123872 L229.934303,116.372618 L232.520361,120.195486 L236.34323,127.616349 L239.941224,128.628285 L249.948144,124.468104 C249.273521,117.047242 247.699398,109.626379 245.787964,102.542828 L243.539218,106.140822 C243.539218,106.140822 242.302407,106.478134 240.615848,106.140822 C239.041725,105.803511 237.692477,103.217452 237.692477,103.217452 L234.769107,101.64333 L230.271615,95.7965898 L231.508425,94.5597793 L238.591976,97.1458375 L244.438716,99.7318957 L245.11334,100.069208 C232.857673,59.3669007 200.588164,27.772016 159.885858,16.1909729 L159.885858,21.3630893 L154.039117,21.3630893 L149.204313,19.114343 L156.625176,19.7889669 L156.962487,17.8775326 L157.974423,15.9660983 C147.630191,13.3800401 136.948646,11.8059178 125.704915,11.8059178 C125.030291,11.8059178 124.130792,11.8059178 123.456169,11.8059178 L123.456169,27.6595787 L131.101906,33.0565697 Z" id="Shape" stroke="#7AA2A4" stroke-width="0.5" fill="#006D6B"></path>
                    <path d="M89.387663,247.924273 L87.4762287,245.675527 L90.0622869,246.012839 L89.7249749,242.18997 L93.5478435,241.178034 L95.4592778,234.431795 L91.8612839,230.271615 L95.4592778,229.934303 L103.217452,215.767202 L102.542828,209.920461 L102.542828,204.748345 L106.703009,203.511535 L111.537813,200.925476 L111.875125,189.344433 L109.289067,183.160381 C109.289067,183.160381 110.86319,177.650953 110.525878,176.976329 C110.188566,176.301705 110.525878,166.294784 110.525878,166.294784 L107.265196,161.797292 L97.9328987,164.38335 L91.18666,166.632096 L83.4284855,166.969408 L77.0195587,164.38335 L70.27332,158.873922 L68.0245737,158.53661 L64.7638917,156.625176 L57.3430291,157.861986 L48.0107322,154.263992 L41.2644935,153.252056 L38.3411234,155.16349 L32.8316951,155.500802 L30.2456369,159.098796 L31.2575727,161.684855 L29.6834504,161.347543 L28.6715145,158.761484 L26.7600802,157.187362 L23.1620863,161.684855 L23.4993982,163.933601 L18.6645938,165.507723 L20.5760281,168.431093 L23.1620863,168.768405 L27.3222668,175.514644 L25.4108325,176.189268 L26.4227683,182.37332 L29.0088265,183.61013 L27.772016,185.521565 L28.7839519,190.019057 L36.8794383,194.51655 L44.9749248,201.937412 L50.821665,203.174223 L58.2425276,206.097593 L63.077332,214.193079 L66.9002006,221.613942 L67.9121364,228.360181 L67.2375125,232.520361 L71.3976931,238.704413 L71.0603811,242.302407 L72.9718154,246.462588 L73.9837513,250.622768 C79.8304915,253.208826 85.5647944,255.457573 91.7488465,257.031695 L90.5120361,252.196891 L89.387663,247.924273 Z" id="Shape" stroke="#7AA2A4" stroke-width="0.5" fill="#006D6B"></path>
                    <g transform="translate(100.069208, 21.363089)" id="Shape">
                        <path d="M32.2695085,58.4674022 C24.1740221,38.1162487 20.3511535,24.8486459 18.4397192,18.4397192 C16.1909729,11.0188566 16.1909729,4.60992979 16.8655968,0.674623872 C9.10742227,5.50942828 3.59799398,15.1790371 1.01193581,26.1978937 C0.674623872,38.4535607 8.4327984,62.0653962 18.4397192,86.9140421 L32.2695085,58.4674022 Z" fill="url(#linearGradient-2)"></path>
                        <path d="M18.4397192,86.8016048 C31.0326981,117.834303 47.1112337,150.441123 54.8694082,163.933601 L83.5409228,165.507723 C57.680341,118.396489 41.9391174,82.8662989 32.2695085,58.3549649 L18.4397192,86.8016048 Z" fill="url(#linearGradient-3)"></path>
                    </g>
                    <path d="M136.161585,21.0257773 C135.824273,27.2098295 134.587462,36.5421264 132.563591,42.2764293 C130.314845,48.6853561 108.389569,119.745737 61.5032096,176.189268 C68.5867603,176.189268 97.7080241,170.67984 97.7080241,170.67984 C107.714945,169.443029 153.92668,59.5917753 150.328686,38.0038114 C149.429188,31.37001 143.919759,24.2864594 136.161585,21.0257773 Z" id="Shape" fill="url(#linearGradient-4)"></path>
                    <path d="M126.829288,0.449749248 C109.738816,0.449749248 101.980642,32.3819458 100.631394,47.5609829 C103.892076,32.0446339 113.898997,18.8894684 126.829288,18.8894684 L126.829288,0.449749248 Z" id="Shape" fill="url(#linearGradient-5)"></path>
                    <path d="M126.829288,19.114343 C139.422267,19.114343 149.091876,29.4585757 150.441123,37.8913741 C150.441123,37.8913741 144.032197,0.449749248 126.829288,0.449749248 L126.829288,19.114343 Z" id="Shape" fill="url(#linearGradient-6)"></path>
                </g>
            </g>
            <g id="type_copy_4" transform="translate(301.331996, 58.467402)" fill="#000000">
                <g id="Group">
                    <g transform="translate(0.000000, 2.248746)" id="Shape">
                        <path d="M58.2425276,32.0446339 L58.2425276,10.6815446 C58.2425276,3.93530592 54.6445336,3.93530592 49.2475426,3.59799398 L49.2475426,1.01193581 C54.419659,1.01193581 58.9171515,1.34924774 63.7519559,1.34924774 C67.9121364,1.34924774 72.1847543,1.01193581 76.6822467,1.01193581 L76.6822467,3.59799398 C71.5101304,3.59799398 67.6872618,3.93530592 67.6872618,10.6815446 L67.6872618,59.7042126 C67.6872618,66.4504514 71.5101304,66.4504514 76.6822467,66.7877633 L76.6822467,69.3738215 C72.1847543,69.3738215 67.9121364,69.0365095 63.4146439,69.0365095 C58.9171515,69.0365095 54.419659,69.0365095 49.2475426,69.3738215 L49.2475426,66.7877633 C54.419659,66.7877633 58.2425276,66.4504514 58.2425276,59.7042126 L58.2425276,35.8675025 L18.8894684,35.8675025 L18.8894684,59.7042126 C18.8894684,66.4504514 22.712337,66.4504514 27.8844534,66.7877633 L27.8844534,69.3738215 C23.0496489,69.3738215 18.8894684,69.0365095 14.6168506,69.0365095 C9.78204614,69.0365095 5.28455366,69.0365095 0.449749248,69.3738215 L0.449749248,66.7877633 C5.6218656,66.7877633 9.4447342,66.4504514 9.4447342,59.7042126 L9.4447342,10.6815446 C9.4447342,3.93530592 5.6218656,3.93530592 0.449749248,3.59799398 L0.449749248,1.01193581 C4.94724173,1.01193581 9.4447342,1.34924774 14.054664,1.34924774 C18.5521565,1.34924774 23.0496489,1.34924774 27.8844534,1.01193581 L27.8844534,3.59799398 C22.712337,3.59799398 18.8894684,3.93530592 18.8894684,10.6815446 L18.8894684,31.9321966 L58.2425276,31.9321966 L58.2425276,32.0446339 Z"></path>
                        <path d="M107.265196,10.6815446 C107.265196,3.93530592 103.442327,3.93530592 98.2702106,3.59799398 L98.2702106,1.01193581 C102.767703,1.01193581 107.265196,1.34924774 111.875125,1.34924774 C116.485055,1.34924774 120.87011,1.34924774 125.704915,1.01193581 L125.704915,3.59799398 C120.532798,3.59799398 116.70993,3.93530592 116.70993,10.6815446 L116.70993,59.7042126 C116.70993,66.4504514 120.532798,66.4504514 125.704915,66.7877633 L125.704915,69.3738215 C120.87011,69.3738215 116.70993,69.0365095 112.437312,69.0365095 C107.602508,69.0365095 103.105015,69.0365095 98.2702106,69.3738215 L98.2702106,66.7877633 C103.442327,66.7877633 107.265196,66.4504514 107.265196,59.7042126 C107.265196,59.7042126 107.265196,10.6815446 107.265196,10.6815446 Z"></path>
                        <path d="M162.809228,30.3580742 C160.22317,24.1740221 157.637111,17.7650953 155.388365,11.3561685 C153.139619,5.50942828 151.565496,3.59799398 145.044132,3.59799398 L145.044132,1.01193581 C149.541625,1.01193581 154.039117,1.34924774 158.873922,1.34924774 C163.034102,1.34924774 167.30672,1.01193581 171.129589,1.01193581 L171.129589,3.59799398 C169.555466,3.59799398 168.206219,3.59799398 166.969408,3.93530592 C165.732598,3.93530592 164.38335,4.94724173 164.38335,6.18405216 C164.38335,9.4447342 169.555466,21.3630893 170.567402,23.9491474 L183.497693,57.5679037 L190.918556,38.2286861 C193.167302,31.8197593 196.090672,25.6357071 198.002106,19.2267803 C199.014042,15.9660983 200.925476,11.1312939 200.925476,7.98304915 C200.925476,3.48555667 197.102608,3.82286861 193.504614,3.48555667 L193.504614,1.23681043 C197.327482,1.23681043 201.262788,1.57412237 205.085657,1.57412237 C208.009027,1.57412237 211.269709,1.57412237 214.080642,1.23681043 L214.080642,3.82286861 C210.81996,3.82286861 208.908526,5.39699097 207.671715,7.64573721 C206.997091,8.65767302 200.588164,25.7481444 200.250853,26.0854564 L182.485757,70.9479438 L178.887763,70.9479438 L162.809228,30.3580742 Z"></path>
                    </g>
                    <path d="M296.15988,32.6068205 C293.573821,26.4227683 290.987763,20.0138415 288.739017,13.6049147 C286.490271,7.75817452 284.916148,5.84674022 278.394784,5.84674022 L278.394784,3.26068205 C282.892277,3.26068205 287.389769,3.59799398 292.224574,3.59799398 C296.384754,3.59799398 300.657372,3.26068205 304.480241,3.26068205 L304.480241,5.84674022 C302.906118,5.84674022 301.556871,5.84674022 300.32006,6.18405216 C299.08325,6.18405216 297.734002,7.19598796 297.734002,8.4327984 C297.734002,11.6934804 302.906118,23.6118355 303.918054,26.1978937 L316.848345,59.8166499 L324.269208,40.4774323 C326.517954,34.0685055 329.441324,27.8844534 331.352758,21.4755266 C332.364694,18.2148445 334.276128,13.3800401 334.276128,10.2317954 C334.276128,5.73430291 330.45326,6.07161484 326.855266,5.73430291 L326.855266,3.48555667 C330.678134,3.48555667 334.61344,3.82286861 338.436309,3.82286861 C341.359679,3.82286861 344.620361,3.82286861 347.431294,3.48555667 L347.431294,6.07161484 C344.170612,6.07161484 342.259178,7.64573721 341.022367,9.89448345 C340.347743,10.9064193 333.938816,27.9968907 333.601505,28.3342026 L315.836409,73.1966901 L312.238415,73.1966901 L296.15988,32.6068205 Z" id="Shape"></path>
                    <g transform="translate(355.301906, 0.000000)" id="Shape">
                        <path d="M54.7569709,52.2833501 C55.9937813,56.1062187 58.5798395,64.5390171 60.2663992,66.4504514 C61.8405216,68.3618857 64.7638917,69.0365095 67.6872618,69.0365095 L67.6872618,71.6225677 C63.8643932,71.6225677 60.2663992,71.2852558 56.4435306,71.2852558 C51.6087262,71.2852558 47.1112337,71.2852558 42.2764293,71.6225677 L42.2764293,69.0365095 L43.8505517,69.0365095 C46.4366098,69.0365095 49.3599799,68.3618857 49.3599799,65.7758275 C49.3599799,64.7638917 48.6853561,61.9529589 47.7858576,59.9290873 L42.9510532,45.761986 L20.0138415,45.761986 L17.7650953,52.5082247 C16.5282849,56.6684052 15.1790371,61.278335 15.1790371,64.0892678 C15.1790371,68.5867603 18.4397192,68.5867603 21.9252758,68.5867603 L24.1740221,68.5867603 L24.1740221,71.1728185 C20.3511535,71.1728185 16.4158475,70.8355065 12.5929789,70.8355065 C8.77011033,70.8355065 4.49749248,70.8355065 0.674623872,71.1728185 L0.674623872,68.5867603 C6.52136409,67.9121364 7.75817452,67.0126379 10.0069208,61.5032096 C11.5810431,57.9052156 12.5929789,54.082347 13.8297894,50.4843531 L26.9849549,16.1909729 C27.6595787,13.9422267 28.8963892,10.3442327 28.8963892,7.42086259 C28.8963892,6.40892678 28.8963892,5.84674022 28.5590772,4.83480441 C30.4705115,3.82286861 32.7192578,2.92337011 34.4058175,0.674623872 L35.9799398,0.674623872 L54.7569709,52.2833501 Z M21.4755266,41.9391174 L41.4893681,41.9391174 L31.1451354,13.2676028 L30.8078235,13.2676028 L21.4755266,41.9391174 Z"></path>
                        <path d="M149.31675,21.0257773 L146.730692,21.0257773 C144.819258,9.78204614 136.723771,4.83480441 125.704915,4.83480441 C114.461184,4.83480441 98.2702106,12.255667 98.2702106,35.8675025 C98.2702106,55.5440321 112.437312,69.7111334 127.279037,69.7111334 C136.948646,69.7111334 145.044132,62.9648947 146.955567,52.9579739 L149.204313,53.6325978 L146.955567,67.7996991 C142.795386,70.3857573 131.77653,72.9718154 125.367603,72.9718154 C102.430391,72.9718154 87.9259779,58.1300903 87.9259779,36.2048144 C87.9259779,16.1909729 105.691073,1.68655968 125.030291,1.68655968 C133.125777,1.68655968 140.54664,4.27261785 147.967503,6.85867603 L149.31675,21.0257773 Z"></path>
                        <path d="M236.455667,21.0257773 L233.869609,21.0257773 C231.958175,9.78204614 223.862688,4.83480441 212.843831,4.83480441 C201.6001,4.83480441 185.409127,12.255667 185.409127,35.8675025 C185.409127,55.5440321 199.576229,69.7111334 214.417954,69.7111334 C224.087563,69.7111334 232.183049,62.9648947 234.094483,52.9579739 L236.34323,53.6325978 L234.094483,67.7996991 C229.934303,70.3857573 218.915446,72.9718154 212.50652,72.9718154 C189.569308,72.9718154 175.064895,58.1300903 175.064895,36.2048144 C175.064895,16.1909729 192.82999,1.68655968 212.169208,1.68655968 C220.264694,1.68655968 227.685557,4.27261785 235.106419,6.85867603 L236.455667,21.0257773 Z"></path>
                        <path d="M268.162989,12.9302909 C268.162989,6.18405216 264.34012,6.18405216 259.168004,5.84674022 L259.168004,3.26068205 C263.665496,3.26068205 268.162989,3.59799398 272.772919,3.59799398 C277.270411,3.59799398 281.767904,3.59799398 286.602708,3.26068205 L286.602708,5.84674022 C281.430592,5.84674022 277.607723,6.18405216 277.607723,12.9302909 L277.607723,61.9529589 C277.607723,68.6991976 281.430592,68.6991976 286.602708,69.0365095 L286.602708,71.6225677 C281.767904,71.6225677 277.607723,71.2852558 273.335105,71.2852558 C268.500301,71.2852558 264.002808,71.2852558 259.168004,71.6225677 L259.168004,69.0365095 C264.34012,69.0365095 268.162989,68.6991976 268.162989,61.9529589 L268.162989,12.9302909 Z"></path>
                        <path d="M379.475928,72.6345035 L377.227182,72.6345035 L326.180642,16.4158475 L326.180642,52.8455366 C326.180642,66.4504514 327.192578,69.0365095 337.761685,69.0365095 L337.761685,71.6225677 C333.601505,71.6225677 328.991575,71.2852558 324.831394,71.2852558 C320.671214,71.2852558 316.061284,71.2852558 311.901103,71.6225677 L311.901103,69.0365095 C317.747844,69.0365095 322.245336,69.0365095 322.245336,56.7808425 L322.245336,17.4277834 C322.245336,8.99498495 318.647342,6.18405216 310.326981,6.18405216 L310.326981,3.26068205 C313.250351,3.26068205 316.173721,3.59799398 319.321966,3.59799398 C321.908024,3.59799398 324.831394,3.26068205 327.417452,3.26068205 C331.240321,9.10742227 340.685055,18.1024072 351.591474,30.3580742 C360.024273,39.3530592 369.019258,49.1351053 375.765496,56.5559679 L375.765496,17.7650953 C375.765496,8.77011033 373.854062,6.18405216 363.847141,5.84674022 L363.847141,3.26068205 C368.344634,3.26068205 372.842126,3.59799398 377.452056,3.59799398 C381.274925,3.59799398 384.872919,3.26068205 388.695787,3.26068205 L388.695787,5.84674022 C382.849047,5.84674022 379.700802,6.52136409 379.700802,15.853661 L379.700802,72.6345035 L379.475928,72.6345035 L379.475928,72.6345035 Z"></path>
                        <path d="M428.161284,34.2933801 L441.091575,34.2933801 C449.187061,34.2933801 449.187061,28.109328 449.187061,25.8605817 L451.098495,25.8605817 C450.761184,28.109328 450.761184,33.2814443 450.761184,36.8794383 C450.761184,40.1401204 451.435807,44.6376128 451.098495,47.8982949 L449.187061,47.8982949 C449.187061,38.565998 445.926379,38.565998 438.505517,38.565998 L428.161284,38.565998 L428.161284,54.9818455 C428.161284,66.0007021 428.498596,68.5867603 438.168205,68.5867603 L444.352257,68.5867603 C454.021866,67.9121364 458.182046,67.0126379 462.117352,56.3310933 L464.366098,56.6684052 C462.791976,61.5032096 461.442728,66.675326 460.54323,71.5101304 C450.873621,71.5101304 440.8667,71.1728185 431.197091,71.1728185 C424.113541,71.1728185 416.692678,71.1728185 409.609127,71.5101304 L409.609127,68.9240722 C418.041926,68.9240722 418.941424,67.3499498 418.941424,57.9052156 L418.941424,14.5044132 C418.941424,6.40892678 417.367302,6.07161484 409.609127,5.73430291 L409.609127,3.14824473 C416.018054,3.48555667 422.87673,3.48555667 429.285657,3.48555667 C438.617954,3.48555667 448.062688,3.48555667 457.394985,3.14824473 L457.394985,17.652658 L455.483551,18.3272818 C453.909428,9.33229689 449.63681,6.40892678 439.967202,6.40892678 L428.72347,6.40892678 L428.72347,34.1809428 L428.161284,34.1809428 L428.161284,34.2933801 Z"></path>
                    </g>
                    <g transform="translate(2.248746, 114.686058)" id="Shape">
                        <polygon points="0.787061184 0.899498495 24.0615848 0.899498495 24.0615848 5.05967904 15.0665998 5.05967904 15.0665998 29.2337011 10.1193581 29.2337011 10.1193581 5.05967904 1.12437312 5.05967904 1.12437312 0.899498495"></polygon>
                        <path d="M62.4027081,0.899498495 L76.0076229,0.899498495 C82.191675,0.899498495 85.3399198,3.82286861 85.3399198,8.65767302 C85.3399198,14.1671013 81.5170512,15.4039117 80.5051153,15.7412237 L80.5051153,15.7412237 C82.0792377,16.0785356 84.6652959,17.315346 84.6652959,21.9252758 C84.6652959,25.1859579 85.0026078,28.3342026 86.2394183,29.3461384 L80.72999,29.3461384 C80.0553661,28.109328 80.0553661,26.4227683 80.0553661,25.1859579 C80.0553661,20.0138415 79.0434303,17.7650953 74.2086259,17.7650953 L66.7877633,17.7650953 L66.7877633,29.3461384 L61.9529589,29.3461384 L61.9529589,0.899498495 L62.4027081,0.899498495 L62.4027081,0.899498495 Z M67.5748245,13.8297894 L75.6703109,13.8297894 C78.930993,13.8297894 80.5051153,12.255667 80.5051153,9.33229689 C80.5051153,5.73430291 78.2563691,5.17211635 75.6703109,5.17211635 L67.5748245,5.17211635 L67.5748245,13.8297894 Z"></path>
                        <polygon points="125.704915 0.899498495 130.539719 0.899498495 130.539719 29.571013 125.704915 29.571013"></polygon>
                        <path d="M179.562387,0.899498495 L184.734504,0.899498495 L195.75336,29.571013 L190.243932,29.571013 L187.657874,22.1501505 L176.639017,22.1501505 L174.052959,29.571013 L168.880843,29.571013 L179.562387,0.899498495 Z M177.988265,17.9899699 L186.758375,17.9899699 L182.598195,5.73430291 L182.598195,5.73430291 L182.598195,5.73430291 L177.988265,17.9899699 Z"></path>
                        <polygon points="233.869609 0.899498495 238.704413 0.899498495 238.704413 25.0735206 253.208826 25.0735206 253.208826 29.2337011 233.869609 29.2337011"></polygon>
                        <path d="M295.485256,19.9014042 C295.485256,24.3988967 298.745938,26.0854564 302.568806,26.0854564 C307.066299,26.0854564 308.752859,23.8367101 308.752859,21.9252758 C308.752859,19.6765296 307.516048,18.6645938 306.504112,18.3272818 C304.592678,17.652658 302.00662,17.0904714 298.071314,16.0785356 C293.23651,14.8417252 291.662387,11.9183551 291.662387,8.99498495 C291.662387,3.14824473 296.834504,0.56218656 302.00662,0.56218656 C307.85336,0.56218656 313.025476,3.82286861 313.025476,9.55717151 L307.85336,9.55717151 C307.516048,5.95917753 305.267302,4.38505517 301.669308,4.38505517 C299.420562,4.38505517 296.497192,5.39699097 296.497192,8.20792377 C296.497192,10.1193581 297.734002,11.4686058 300.095186,11.8059178 C300.432497,11.8059178 306.841424,13.3800401 308.527984,14.054664 C312.350853,15.0665998 314.037412,18.2148445 314.037412,21.4755266 C314.037412,27.8844534 308.190672,30.4705115 302.793681,30.4705115 C296.384754,30.4705115 290.875326,27.2098295 290.875326,20.1262788 L295.71013,20.1262788 L295.71013,19.9014042 L295.485256,19.9014042 Z"></path>
                    </g>
                    <g transform="translate(401.401204, 114.686058)" id="Shape">
                        <polygon points="0.899498495 0.899498495 6.07161484 0.899498495 19.0019057 21.9252758 19.0019057 21.9252758 19.0019057 0.899498495 23.8367101 0.899498495 23.8367101 29.571013 18.6645938 29.571013 5.73430291 8.54523571 5.73430291 8.54523571 5.73430291 29.571013 0.899498495 29.571013"></polygon>
                        <polygon points="65.1012036 0.899498495 85.789669 0.899498495 85.789669 5.05967904 70.27332 5.05967904 70.27332 12.4805416 84.7777332 12.4805416 84.7777332 16.6407222 70.27332 16.6407222 70.27332 25.0735206 86.1269809 25.0735206 86.1269809 29.2337011 65.1012036 29.2337011"></polygon>
                        <polygon points="122.893982 0.899498495 146.168506 0.899498495 146.168506 5.05967904 137.173521 5.05967904 137.173521 29.2337011 132.001404 29.2337011 132.001404 5.05967904 123.006419 5.05967904 123.006419 0.899498495"></polygon>
                        <polygon points="181.698696 0.899498495 186.870812 0.899498495 192.042929 22.8247743 192.042929 22.8247743 197.889669 0.899498495 203.061785 0.899498495 208.571214 22.8247743 208.571214 22.8247743 213.74333 0.899498495 218.915446 0.899498495 211.157272 29.571013 205.985155 29.571013 200.138415 7.64573721 200.138415 7.64573721 194.291675 29.571013 189.119559 29.571013"></polygon>
                        <path d="M283.342026,15.0665998 C283.342026,23.1620863 278.16991,29.908325 269.737111,29.908325 C261.304313,29.908325 256.132197,23.1620863 256.132197,15.0665998 C256.132197,6.97111334 261.304313,0.224874624 269.737111,0.224874624 C278.16991,0.224874624 283.342026,7.08355065 283.342026,15.0665998 Z M260.742126,15.0665998 C260.742126,20.5760281 263.328185,26.0854564 269.512237,26.0854564 C275.696289,26.0854564 278.282347,20.5760281 278.282347,15.0665998 C278.282347,9.55717151 275.696289,4.04774323 269.512237,4.04774323 C263.328185,4.16018054 260.742126,9.66960883 260.742126,15.0665998 Z"></path>
                        <path d="M323.032397,0.899498495 L336.637312,0.899498495 C342.821364,0.899498495 345.969609,3.82286861 345.969609,8.65767302 C345.969609,14.1671013 342.14674,15.4039117 341.134804,15.7412237 L341.134804,15.7412237 C342.708927,16.0785356 345.294985,17.315346 345.294985,21.9252758 C345.294985,25.1859579 345.969609,28.3342026 346.869107,29.3461384 L341.359679,29.3461384 C340.685055,28.109328 340.685055,26.4227683 340.685055,25.1859579 C340.685055,20.0138415 339.673119,17.7650953 334.838315,17.7650953 L327.417452,17.7650953 L327.417452,29.3461384 L322.91996,29.3461384 L322.91996,0.899498495 L323.032397,0.899498495 Z M327.867202,13.8297894 L335.962688,13.8297894 C339.22337,13.8297894 340.797492,12.255667 340.797492,9.33229689 C340.797492,5.73430291 338.548746,5.17211635 335.962688,5.17211635 L327.867202,5.17211635 L327.867202,13.8297894 Z"></path>
                        <polygon points="386.334604 0.899498495 391.50672 0.899498495 391.50672 13.8297894 404.099699 0.899498495 410.283751 0.899498495 399.04002 12.1432297 411.295687 29.2337011 405.111635 29.2337011 395.779338 15.6287864 391.619157 19.7889669 391.619157 29.4585757 386.447041 29.4585757 386.447041 0.899498495"></polygon>
                    </g>
                </g>
            </g>
        </g>
    </g>
</svg>