<?xml version="1.0" encoding="UTF-8" standalone="no"?>
<svg width="58px" height="78px" viewBox="0 0 58 78" version="1.1" xmlns="http://www.w3.org/2000/svg" xmlns:xlink="http://www.w3.org/1999/xlink" xmlns:sketch="http://www.bohemiancoding.com/sketch/ns">
    <!-- Generator: Sketch 3.4 (15588) - http://www.bohemiancoding.com/sketch -->
    <title>Oval 1 + Rectangle 1 + Oval 2 + DISCLAMER</title>
    <desc>Created with Sketch.</desc>
    <defs></defs>
    <g id="DISCLAIMER" stroke="none" stroke-width="1" fill="none" fill-rule="evenodd" sketch:type="MSPage">
        <g id="Oval-1-+-Rectangle-1-+-Oval-2-+-DISCLAMER" sketch:type="MSLayerGroup" transform="translate(3.000000, 3.000000)">
            <g id="Oval-1-+-Rectangle-1-+-Oval-2" transform="translate(0.536585, 0.000000)" sketch:type="MSShapeGroup">
                <ellipse id="Oval-122" stroke="#FFFFFF" stroke-width="5.2" cx="25.8961152" cy="27.0648148" rx="25.8961152" ry="27.0648148"></ellipse>
                <path d="M21.7923592,7.69054847 C21.7923592,7.69054847 20.9433063,5.62001619 25.8961152,5.62001619 C30.8489241,5.62001619 29.9998711,7.69054847 29.9998711,7.69054847 L28.5847829,37.2695811 L23.2074475,37.2695811 L21.7923592,7.69054847 Z" id="Rectangle-1" fill="#FFFFFF"></path>
                <ellipse id="Oval-2" fill="#FFFFFF" cx="25.8961152" cy="43.9248634" rx="4.10375596" ry="4.28895972"></ellipse>
            </g>
            <path d="M1,74.8667761 L1,67.0662118 L3.19226372,67.0662118 C4.04997571,67.0662118 4.74743681,67.3751597 5.28466797,67.9930646 C5.82189912,68.6109695 6.09051067,69.4056619 6.09051067,70.3771656 L6.09051067,71.5611798 C6.09051067,72.5362552 5.82189912,73.3309476 5.28466797,73.9452809 C4.74743681,74.5596141 4.04997571,74.8667761 3.19226372,74.8667761 L1,74.8667761 Z M2.12864425,68.1109303 L2.12864425,73.8274152 L3.15975133,73.8274152 C3.72020574,73.8274152 4.16066675,73.6166878 4.48114758,73.1952266 C4.80162841,72.7737654 4.96186643,72.2290886 4.96186643,71.5611798 L4.96186643,70.3664506 C4.96186643,69.7056852 4.80162841,69.16458 4.48114758,68.7431189 C4.16066675,68.3216577 3.72020574,68.1109303 3.15975133,68.1109303 L2.12864425,68.1109303 Z M8.44533632,74.8667761 L7.31669207,74.8667761 L7.31669207,67.0662118 L8.44533632,67.0662118 L8.44533632,74.8667761 Z M13.6519627,72.8630597 C13.6519627,72.5380346 13.5474596,72.2719466 13.3384504,72.0647877 C13.1294411,71.8576288 12.760197,71.6719029 12.2307069,71.5076045 C11.4751772,71.2790154 10.8938306,70.976318 10.4866497,70.5995031 C10.0794687,70.2226883 9.87588129,69.7289075 9.87588129,69.118146 C9.87588129,68.4895259 10.1011434,67.9716365 10.5516744,67.5644622 C11.0022055,67.1572878 11.5835521,66.9537037 12.2957317,66.9537037 C13.0388757,66.9537037 13.6357042,67.1840752 14.0862352,67.6448251 C14.5367663,68.105575 14.7542874,68.659181 14.7388053,69.3056595 L14.729516,69.3378047 L13.647318,69.3378047 C13.647318,68.9377738 13.5296553,68.6136464 13.2943264,68.365413 C13.0589975,68.1171795 12.7230395,67.9930646 12.2864425,67.9930646 C11.8746168,67.9930646 11.5580113,68.0966425 11.3366163,68.3038014 C11.1152214,68.5109602 11.0045255,68.7788341 11.0045255,69.1074309 C11.0045255,69.4038824 11.1245105,69.6503263 11.3644841,69.8467701 C11.6044577,70.0432139 12.0015693,70.2289397 12.5558308,70.4039533 C13.2834926,70.6289707 13.8361976,70.9397043 14.2139625,71.3361636 C14.5917273,71.7326228 14.7806069,72.2380114 14.7806069,72.8523447 C14.7806069,73.5023949 14.5553448,74.0193914 14.1048137,74.4033497 C13.6542827,74.787308 13.0620988,74.9792842 12.3282441,74.9792842 C11.6222573,74.9792842 11.00298,74.7640922 10.4703935,74.3337018 C9.93780698,73.9033114 9.67925869,73.313096 9.69474085,72.563038 L9.70403011,72.5308928 L10.7908727,72.5308928 C10.7908727,73.0059296 10.9333065,73.3604159 11.2181784,73.5943626 C11.5030502,73.8283093 11.8730684,73.9452809 12.3282441,73.9452809 C12.7462626,73.9452809 13.0713832,73.8479534 13.3036157,73.6532954 C13.5358482,73.4586375 13.6519627,73.1952283 13.6519627,72.8630597 L13.6519627,72.8630597 Z M20.9022247,72.2790889 L20.9115139,72.3112341 C20.9238996,73.1005808 20.7017339,73.7425851 20.24501,74.2372663 C19.7882861,74.7319474 19.1697829,74.9792842 18.3894817,74.9792842 C17.5998913,74.9792842 16.9581651,74.6730151 16.464284,74.0604678 C15.9704029,73.4479204 15.7234661,72.6648359 15.7234661,71.7111907 L15.7234661,70.2271548 C15.7234661,69.2770813 15.9673065,68.4939968 16.4549948,67.8778777 C16.942683,67.2617586 17.5766682,66.9537037 18.3569693,66.9537037 C19.1558491,66.9537037 19.7851897,67.1956831 20.24501,67.6796491 C20.7048303,68.1636151 20.9285443,68.8145485 20.9161585,69.6324689 L20.9068693,69.6646141 L19.8153821,69.6646141 C19.8153821,69.1395735 19.6923007,68.7306194 19.4461342,68.4377396 C19.1999678,68.1448598 18.8369165,67.9984221 18.3569693,67.9984221 C17.8956008,67.9984221 17.5294531,68.2091495 17.2585151,68.6306107 C16.9875772,69.0520719 16.8521103,69.5806763 16.8521103,70.2164397 L16.8521103,71.7111907 C16.8521103,72.3540975 16.9906736,72.8862736 17.2678044,73.3077347 C17.5449352,73.7291959 17.9188239,73.9399233 18.3894817,73.9399233 C18.8570431,73.9399233 19.2115794,73.7952714 19.4531012,73.5059634 C19.694623,73.2166553 19.8153821,72.8077012 19.8153821,72.2790889 L20.9022247,72.2790889 Z M23.1455793,73.8274152 L26.2528344,73.8274152 L26.2528344,74.8667761 L22.016935,74.8667761 L22.016935,67.0662118 L23.1455793,67.0662118 L23.1455793,73.8274152 Z M30.9206841,73.0452157 L28.273247,73.0452157 L27.7344703,74.8667761 L26.5918921,74.8667761 L29.0767673,67.0662118 L30.1450314,67.0662118 L32.6020389,74.8667761 L31.4548161,74.8667761 L30.9206841,73.0452157 Z M28.5983708,71.9576371 L30.6002048,71.9576371 L29.6201886,68.6252532 L29.5923209,68.6252532 L28.5983708,71.9576371 Z M34.8500381,67.0662118 L36.7961366,73.0666459 L36.8240044,73.0666459 L38.7747475,67.0662118 L40.2378049,67.0662118 L40.2378049,74.8667761 L39.1091606,74.8667761 L39.1091606,72.209441 L39.2206317,68.8288393 L39.1927639,68.8234818 L37.1862853,74.8667761 L36.4292111,74.8667761 L34.4320217,68.8395544 L34.404154,68.8449119 L34.515625,72.209441 L34.515625,74.8667761 L33.3869808,74.8667761 L33.3869808,67.0662118 L34.8500381,67.0662118 Z M45.8067121,71.3575937 L42.848085,71.3575937 L42.848085,73.8274152 L46.280464,73.8274152 L46.280464,74.8667761 L41.7194407,74.8667761 L41.7194407,67.0662118 L46.2479516,67.0662118 L46.2479516,68.1109303 L42.848085,68.1109303 L42.848085,70.3128753 L45.8067121,70.3128753 L45.8067121,71.3575937 Z M48.3612567,71.6308277 L48.3612567,74.8667761 L47.2326124,74.8667761 L47.2326124,67.0662118 L49.7314215,67.0662118 C50.4869512,67.0662118 51.0706201,67.2626527 51.4824457,67.6555402 C51.8942713,68.0484277 52.100181,68.6091769 52.100181,69.3378047 C52.100181,69.7414074 52.0096117,70.0887504 51.8284704,70.3798444 C51.647329,70.6709383 51.3833621,70.9039886 51.0365615,71.0790021 C51.4174228,71.2182986 51.6914531,71.4459913 51.8586604,71.7620872 C52.0258678,72.0781831 52.1094703,72.4666002 52.1094703,72.9273501 L52.1094703,73.5756113 C52.1094703,73.8042004 52.1342414,74.0274286 52.1837843,74.2453026 C52.2333272,74.4631765 52.3169297,74.6292583 52.4345941,74.7435529 L52.4345941,74.8667761 L51.2734375,74.8667761 C51.1495802,74.7489098 51.0698482,74.563184 51.0342392,74.3095929 C50.9986303,74.0560019 50.980826,73.8077721 50.980826,73.5648962 L50.980826,72.9380651 C50.980826,72.5380342 50.8817417,72.2201572 50.6835699,71.9844247 C50.4853982,71.7486922 50.2129162,71.6308277 49.8661157,71.6308277 L48.3612567,71.6308277 Z M48.3612567,70.5861093 L49.6710413,70.5861093 C50.1231206,70.5861093 50.4528858,70.4861031 50.6603468,70.2860876 C50.8678078,70.0860721 50.9715368,69.780696 50.9715368,69.3699499 C50.9715368,68.9770624 50.869356,68.6690075 50.6649914,68.4457759 C50.4606268,68.2225444 50.14944,68.1109303 49.7314215,68.1109303 L48.3612567,68.1109303 L48.3612567,70.5861093 Z" id="DISCLAMER" fill="#FFFFFF" sketch:type="MSShapeGroup"></path>
        </g>
    </g>
</svg>