<?xml version="1.0" encoding="UTF-8"?>
<svg width="80px" height="80px" viewBox="0 0 80 80" version="1.1" xmlns="http://www.w3.org/2000/svg" xmlns:xlink="http://www.w3.org/1999/xlink">
    <!-- Generator: Sketch 47.1 (45422) - http://www.bohemiancoding.com/sketch -->
    <!-- <title>noun_magnify_889290</title> -->
    <desc>Created with Sketch.</desc>
    <defs></defs>
    <g id="Page-1" stroke="none" stroke-width="1" fill="none" fill-rule="evenodd">
        <g id="noun_magnify_889290" transform="translate(0.000000, -1.000000)" fill-rule="nonzero" fill="#FFFFFF">
            <g id="Group" transform="translate(0.000000, 0.637820)">
                <path d="M31.0017,0.36228 C13.9392,0.36228 0,14.30139 0,31.36396 C0,48.4264 13.9392,62.3656 31.0017,62.3656 C37.7267,62.3656 43.9727,60.1901 49.0651,56.5215 L71.4726,78.8977 C73.4251,80.8502 76.5829,80.8503 78.5354,78.8977 C80.4882,76.945 80.4882,73.7876 78.5354,71.8348 L56.1592,49.4274 C59.8279,44.335 62.0033,38.089 62.0033,31.36396 C62.0033,14.30139 48.0641,0.36228 31.0017,0.36228 Z M31.0017,10.36281 C42.6594,10.36281 52.0028,19.70614 52.0028,31.36396 C52.0028,43.0217 42.6594,52.3651 31.0017,52.3651 C19.3439,52.3651 10.0005,43.0217 10.0005,31.36396 C10.0005,19.70614 19.3439,10.36281 31.0017,10.36281 Z" id="Shape"></path>
            </g>
        </g>
    </g>
</svg>