<?xml version="1.0" encoding="utf-8"?>
<!-- Generator: Adobe Illustrator 23.0.1, SVG Export Plug-In . SVG Version: 6.00 Build 0)  -->
<svg width="1748px" height="221px" version="1.1" id="Layer_1" xmlns="http://www.w3.org/2000/svg" xmlns:xlink="http://www.w3.org/1999/xlink" x="0px" y="0px"
	 viewBox="0 0 2670 317" style="enable-background:new 0 0 2670 317;" xml:space="preserve">
<style type="text/css">
	.st0{fill:#FFFFFF;}
	.st1{fill:#326297;}
	.st2{fill:#65666A;stroke:#65666A;}
	.st3{fill:none;stroke:#FFFFFF;stroke-width:3.375;stroke-miterlimit:10;}
</style>
<desc>Created with Sketch.</desc>
<g>
	<g id="Desktop-HD-1">
		<g id="Desktop-HD">
			<g id="nihbanner3" transform="translate(1.000000, 0.000000)">
				<path id="NIAID-Explorer" class="st0" d="M2160.2,245.5h-35v29h41v9h-51v-81h50v9h-40v26h35V245.5z M2197.9,245.4l13.3-21.9h12
					l-19.6,29.7l20.2,30.3h-11.9L2198,261l-13.8,22.5h-11.9l20.2-30.3l-19.6-29.7h11.9L2197.9,245.4z M2285.2,254.3
					c0,9.2-2.1,16.6-6.4,22.2s-10,8.4-17.2,8.4c-7.4,0-13.2-2.3-17.4-7v28.6h-10v-83h9.1l0.5,6.7c4.2-5.2,10.1-7.8,17.7-7.8
					c7.3,0,13.1,2.7,17.4,8.2s6.4,13,6.4,22.8v0.9H2285.2z M2274.5,252.9c0-6.8-1.4-12.2-4.3-16.1s-6.9-5.9-11.9-5.9
					c-6.2,0-10.9,2.8-14,8.3V268c3.1,5.5,7.8,8.2,14.1,8.2c4.9,0,8.9-2,11.8-5.9S2274.5,260.6,2274.5,252.9z M2309.2,283.5h-10v-86
					h10V283.5z M2323.2,252.8c0-5.9,1.2-11.2,3.5-16c2.3-4.7,5.6-8.4,9.7-10.9s8.9-3.9,14.2-3.9c8.2,0,14.9,2.8,20,8.5
					s7.6,13.3,7.6,22.7v0.7c0,5.9-1.1,11.2-3.4,15.8s-5.5,8.3-9.7,10.9s-9,3.9-14.4,3.9c-8.2,0-14.8-2.8-19.9-8.5
					c-5.1-5.7-7.6-13.2-7.6-22.6L2323.2,252.8L2323.2,252.8z M2333.3,254.1c0,6.7,1.5,12,4.6,16.1s7.2,6.1,12.4,6.1
					s9.4-2.1,12.5-6.2s4.6-9.8,4.6-17.2c0-6.6-1.6-12-4.7-16.1s-7.3-6.2-12.5-6.2c-5.1,0-9.2,2-12.3,6.1S2333.3,246.5,2333.3,254.1z
					 M2420.2,232.7c-1.6-0.3-3.3-0.4-5.1-0.4c-6.8,0-11.4,2.9-13.9,8.6v42.6h-10v-60h9.7l0.2,7c3.4-5.4,8.2-8.1,14.5-8.1
					c2,0,3.6,0.3,4.6,0.8V232.7z M2452.8,284.8c-8.1,0-14.8-2.7-19.9-8s-7.7-12.5-7.7-21.5v-1.9c0-6,1.1-11.3,3.4-16
					c2.3-4.7,5.5-8.4,9.6-11s8.5-4,13.3-4c7.8,0,13.9,2.6,18.2,7.7s6.5,12.5,6.5,22.2v4.3h-40.7c0.1,5.9,1.9,10.7,5.2,14.4
					s7.5,5.5,12.6,5.5c3.6,0,6.7-0.7,9.2-2.2s4.7-3.5,6.6-5.9l6.3,4.9C2470.4,280.9,2462.8,284.8,2452.8,284.8z M2451.7,230.2
					c-4.2,0-7.6,1.5-10.5,4.5s-4.6,7.3-5.2,12.7h30.2v-0.8c-0.3-5.2-1.7-9.3-4.2-12.2S2456,230.2,2451.7,230.2z M2517.2,232.7
					c-1.6-0.3-3.3-0.4-5.1-0.4c-6.8,0-11.4,2.9-13.9,8.6v42.6h-10v-60h9.7l0.2,7c3.4-5.4,8.2-8.1,14.5-8.1c2,0,3.6,0.3,4.6,0.8
					V232.7z"/>
				<g id="NIHBanner2">
					<g id="Artboard-2-1">
						<g id="Artboard-2">
							<path id="National-Institute-o" class="st0" d="M643,127h-9.5l-39.1-61.9l-0.3,0.1V127h-11V47h9.5l39.1,61.8l0.3-0.1V47h11
								V127L643,127z M697.3,127c-0.4-1.8-0.7-3.4-0.9-4.8s-0.3-2.8-0.4-4.2c-2,2.9-4.7,5.3-7.9,7.2s-6.8,2.9-10.5,2.9
								c-6.2,0-11-1.6-14.2-4.8c-3.3-3.2-4.9-7.6-4.9-13.2c0-5.7,2.3-10.2,6.9-13.4s10.9-4.8,18.8-4.8H696v-5.8
								c0-3.4-1.1-6.1-3.2-8.1c-2.2-2-5.2-3-9.2-3c-3.5,0-6.4,0.9-8.6,2.6s-3.3,3.8-3.3,6.3h-10.5l-0.1-0.3
								c-0.2-4.3,1.9-8.1,6.2-11.7s10-5.3,16.9-5.3c6.8,0,12.4,1.7,16.5,5.1c4.2,3.4,6.3,8.2,6.3,14.6V115c0,2.1,0.1,4.2,0.3,6.2
								s0.6,3.9,1.2,5.9L697.3,127L697.3,127z M679.3,118.5c3.9,0,7.4-1,10.6-3s5.2-4.3,6.1-6.9V99h-12.1c-4.3,0-7.8,1.1-10.4,3.3
								c-2.6,2.2-3.9,4.8-3.9,7.7c0,2.6,0.8,4.7,2.5,6.2S676.1,118.5,679.3,118.5L679.3,118.5L679.3,118.5z M737,53v14h11v8h-11
								v35.9c0,2.8,0.6,4.7,1.8,5.9c1.2,1.1,2.7,1.7,4.7,1.7c0.6,0,1.3-0.1,2.1-0.2s1.4-0.3,2-0.5l1.5,7.4c-0.8,0.7-2,1.2-3.6,1.6
								s-3.2,0.6-4.8,0.6c-4.5,0-8-1.3-10.7-4s-4-6.8-4-12.4V75h-10v-8h10V53H737L737,53z M773,126h-11V67h11V126L773,126z M773,52
								h-11V41h11V52L773,52z M787,96.3c0-8.8,2.4-16,7.1-21.6c4.7-5.7,11.2-8.5,19.3-8.5c8.2,0,14.7,2.8,19.4,8.5
								c4.8,5.7,7.1,12.9,7.1,21.7v1.2c0,8.8-2.4,16-7.1,21.7c-4.7,5.6-11.2,8.4-19.4,8.4s-14.6-2.8-19.4-8.5
								c-4.8-5.6-7.1-12.8-7.1-21.6v-1.3H787z M798,97.5c0,6.2,1.3,11.3,3.9,15.3c2.6,4,6.5,6,11.6,6s8.9-2,11.5-6s3.9-9.1,3.9-15.3
								v-1.2c0-6.1-1.3-11.2-4-15.3c-2.6-4.1-6.5-6.1-11.6-6.1s-8.9,2-11.5,6.1s-3.9,9.1-3.9,15.3L798,97.5L798,97.5z M862.6,67
								l0.8,8.8c2-3.1,4.4-5.6,7.4-7.3c3-1.7,6.4-2.6,10.1-2.6c6.4,0,11.3,1.9,14.8,5.6s5.2,9.5,5.2,17.3V126h-11V88.9
								c0-5.2-1-8.9-3-11.1s-5.1-3.3-9.3-3.3c-3,0-5.7,0.7-8.1,2.2c-2.3,1.5-4.2,3.5-5.6,6.1V126h-11V67H862.6L862.6,67z M953.3,127
								c-0.4-1.8-0.7-3.4-0.9-4.8s-0.3-2.8-0.4-4.2c-2,2.9-4.7,5.3-7.9,7.2s-6.8,2.9-10.5,2.9c-6.2,0-11-1.6-14.2-4.8
								c-3.3-3.2-4.9-7.6-4.9-13.2c0-5.7,2.3-10.2,6.9-13.4s10.9-4.8,18.8-4.8H952v-5.8c0-3.4-1.1-6.1-3.2-8.1c-2.2-2-5.2-3-9.2-3
								c-3.5,0-6.4,0.9-8.6,2.6s-3.3,3.8-3.3,6.3h-10.5l-0.1-0.3c-0.2-4.3,1.9-8.1,6.2-11.7s10-5.3,16.9-5.3
								c6.8,0,12.4,1.7,16.5,5.1c4.2,3.4,6.3,8.2,6.3,14.6V115c0,2.1,0.1,4.2,0.3,6.2s0.6,3.9,1.2,5.9L953.3,127L953.3,127z
								 M935.3,118.5c3.9,0,7.4-1,10.6-3s5.2-4.3,6.1-6.9V99h-12.1c-4.3,0-7.8,1.1-10.4,3.3c-2.6,2.2-3.9,4.8-3.9,7.7
								c0,2.6,0.8,4.7,2.5,6.2S932.1,118.5,935.3,118.5L935.3,118.5L935.3,118.5z M990,126h-11V41h11V126L990,126z M1048,127h-11V47
								h11V127L1048,127z M1075.6,67l0.8,8.8c2-3.1,4.4-5.6,7.4-7.3c3-1.7,6.4-2.6,10.1-2.6c6.4,0,11.3,1.9,14.8,5.6
								s5.2,9.5,5.2,17.3V126h-11V88.9c0-5.2-1-8.9-3-11.1s-5.1-3.3-9.3-3.3c-3,0-5.7,0.7-8.1,2.2c-2.3,1.5-4.2,3.5-5.6,6.1V126h-11
								V67H1075.6L1075.6,67z M1163.6,110.6c0-2.3-0.9-4.2-2.7-5.8c-1.8-1.5-5.1-2.8-10.1-3.9c-7.1-1.5-12.4-3.6-15.9-6.3
								c-3.6-2.6-5.3-6.2-5.3-10.8c0-4.7,2-8.8,6-12.1c4-3.3,9.2-5,15.7-5c6.8,0,12.2,1.7,16.1,5.2c4,3.5,5.9,7.7,5.7,12.7l-0.1,0.3
								h-10c0-2.5-1.1-4.8-3.2-6.9c-2.1-2-5-3-8.5-3c-3.8,0-6.6,0.8-8.4,2.5c-1.8,1.6-2.7,3.6-2.7,6c0,2.3,0.8,4.1,2.4,5.4
								s4.9,2.5,9.8,3.5c7.3,1.6,12.8,3.7,16.4,6.4c3.6,2.7,5.4,6.3,5.4,10.9c0,5.2-2.1,9.3-6.3,12.5s-9.6,4.8-16.4,4.8
								c-7.4,0-13.3-1.9-17.5-5.6c-4.3-3.8-6.3-8.2-6.1-13.2l0.1-0.3h10.1c0.2,3.8,1.6,6.5,4.2,8.2s5.7,2.6,9.2,2.6
								c3.8,0,6.7-0.8,8.8-2.3C1162.6,115,1163.6,113.1,1163.6,110.6L1163.6,110.6L1163.6,110.6z M1202,53v14h11v8h-11v35.9
								c0,2.8,0.6,4.7,1.8,5.9s2.7,1.7,4.7,1.7c0.6,0,1.3-0.1,2.1-0.2s1.4-0.3,2-0.5l1.5,7.4c-0.8,0.7-2,1.2-3.6,1.6
								s-3.2,0.6-4.8,0.6c-4.5,0-8-1.3-10.7-4c-2.6-2.6-4-6.8-4-12.4V75h-9v-8h9V53H1202L1202,53z M1238,126h-11V67h11V126L1238,126
								z M1238,52h-11V41h11V52L1238,52z M1269,53v14h11v8h-11v35.9c0,2.8,0.6,4.7,1.8,5.9s2.7,1.7,4.7,1.7c0.6,0,1.3-0.1,2.1-0.2
								s1.4-0.3,2-0.5l1.5,7.4c-0.8,0.7-2,1.2-3.6,1.6s-3.2,0.6-4.8,0.6c-4.5,0-8-1.3-10.7-4c-2.6-2.6-4-6.8-4-12.4V75h-9v-8h9V53
								H1269L1269,53z M1331.6,117.3c-1.9,3.2-4.2,5.6-7.1,7.3c-2.9,1.7-6.3,2.6-10.1,2.6c-6.4,0-11.4-2.1-15-6.2
								s-5.4-10.5-5.4-19.2V67h10v35c0,6.3,0.9,10.6,2.8,13s4.8,3.6,8.8,3.6c3.9,0,7.1-0.8,9.6-2.3s4.4-3.7,5.7-6.6V67h11v59h-9.6
								L1331.6,117.3L1331.6,117.3z M1372,53v14h11v8h-11v35.9c0,2.8,0.6,4.7,1.8,5.9s2.7,1.7,4.7,1.7c0.6,0,1.3-0.1,2.1-0.2
								s1.4-0.3,2-0.5l1.5,7.4c-0.8,0.7-2,1.2-3.6,1.6s-3.2,0.6-4.8,0.6c-4.5,0-8-1.3-10.7-4c-2.6-2.6-4-6.8-4-12.4V75h-9v-8h9V53
								H1372L1372,53z M1420.2,127.2c-8.3,0-14.9-2.7-19.8-8.2s-7.4-12.6-7.4-21.4v-2.4c0-8.4,2.5-15.4,7.6-21s11-8.4,18-8.4
								c8.1,0,14.1,2.4,18.3,7.2s6.2,11.2,6.2,19.3V99h-38.7l-0.2,0.3c0.1,5.7,1.6,10.4,4.4,14c2.8,3.7,6.7,5.5,11.8,5.5
								c3.7,0,6.9-0.5,9.7-1.6c2.8-1,5.2-2.5,7.2-4.3l4.2,7c-2.1,2.1-4.9,3.8-8.4,5.2C1429.4,126.5,1425.2,127.2,1420.2,127.2
								L1420.2,127.2L1420.2,127.2z M1418.5,74.7c-3.6,0-6.7,1.5-9.2,4.6s-4.1,6.9-4.7,11.5l0.1,0.3h27.3v-1.4
								c0-4.2-1.1-7.8-3.4-10.6C1426.3,76.1,1423,74.7,1418.5,74.7L1418.5,74.7L1418.5,74.7z M1481,96.3c0-8.8,2.4-16,7.1-21.6
								c4.7-5.7,11.2-8.5,19.3-8.5c8.2,0,14.7,2.8,19.4,8.5c4.8,5.7,7.1,12.9,7.1,21.7v1.2c0,8.8-2.4,16-7.1,21.7
								c-4.7,5.6-11.2,8.4-19.4,8.4s-14.6-2.8-19.4-8.5c-4.8-5.6-7.1-12.8-7.1-21.6L1481,96.3L1481,96.3z M1492,97.5
								c0,6.2,1.3,11.3,3.9,15.3s6.5,6,11.6,6s8.9-2,11.5-6s3.9-9.1,3.9-15.3v-1.2c0-6.1-1.3-11.2-4-15.3s-6.5-6.1-11.6-6.1
								s-8.9,2-11.5,6.1s-3.9,9.1-3.9,15.3L1492,97.5L1492,97.5z M1551,126V75h-9v-8h9v-7.5c0-6.3,1.7-11.2,5.1-14.6
								s8.1-5.2,14.1-5.2c1.3,0,2.5,0.1,3.8,0.3s2.7,0.5,4.3,0.8L1577,49c-0.7-0.1-1.5-0.3-2.4-0.4s-1.9-0.2-3-0.2
								c-3.2,0-5.6,0.9-7.1,2.8c-1.6,1.9-2.3,4.6-2.3,8.2V67h12v8h-12v51H1551L1551,126z M1658.8,106h-34.2l-7.7,21h-10.6l30.9-80
								h9.3l30.4,80h-10.6L1658.8,106L1658.8,106z M1628.5,97h26.6l-13-36h-0.3L1628.5,97L1628.5,97z M1698,126h-11V41h11V126
								L1698,126z M1726,126h-11V41h11V126L1726,126z M1767.2,127.2c-8.3,0-14.9-2.7-19.8-8.2s-7.4-12.6-7.4-21.4v-2.4
								c0-8.4,2.5-15.4,7.6-21s11-8.4,18-8.4c8.1,0,14.1,2.4,18.3,7.2s6.2,11.2,6.2,19.3V99h-38.7l-0.2,0.3c0.1,5.7,1.6,10.4,4.4,14
								c2.8,3.7,6.7,5.5,11.8,5.5c3.7,0,6.9-0.5,9.7-1.6c2.8-1,5.2-2.5,7.2-4.3l4.2,7c-2.1,2.1-4.9,3.8-8.4,5.2
								C1776.4,126.5,1772.2,127.2,1767.2,127.2L1767.2,127.2L1767.2,127.2z M1765.5,74.7c-3.6,0-6.7,1.5-9.2,4.6s-4.1,6.9-4.7,11.5
								l0.1,0.3h27.3v-1.4c0-4.2-1.1-7.8-3.4-10.6C1773.3,76.1,1770,74.7,1765.5,74.7L1765.5,74.7L1765.5,74.7z M1829.6,76.5
								l-5.6-0.3c-2.9,0-5.4,0.7-7.3,2c-2,1.3-3.5,3.2-4.6,5.7V126h-11V67h9.8l1.1,8.6c1.7-3.1,3.8-5.4,6.3-7.1s5.4-2.6,8.7-2.6
								c0.8,0,1.6,0.1,2.3,0.2c0.7,0.1,1.4,0.3,1.8,0.4L1829.6,76.5L1829.6,76.5z M1837,97.7c0-9.5,2.1-17.2,6.3-23s10-8.8,17.4-8.8
								c3.8,0,7.1,0.8,10,2.3s5.3,3.7,7.2,6.5l1.3-7.7h8.8v59.5c0,7.6-2.3,13.4-6.8,17.5s-11,6.1-19.5,6.1c-2.9,0-6-0.4-9.4-1.2
								s-6.3-1.9-8.9-3.2l2.8-8.4c2,1.1,4.4,2,7.1,2.7s5.5,1,8.3,1c5.4,0,9.3-1.2,11.7-3.6c2.4-2.4,3.7-6,3.7-10.9v-6.7
								c-2,2.5-4.3,4.3-7,5.6c-2.7,1.3-5.9,1.9-9.4,1.9c-7.3,0-13.1-2.6-17.3-7.9s-6.3-12.1-6.3-20.6L1837,97.7L1837,97.7z
								 M1848,99.1c0,6,1.3,10.8,3.8,14.4s6.4,5.4,11.6,5.4c3.3,0,6-0.7,8.2-2.2s4-3.6,5.4-6.3V83.1c-1.4-2.5-3.2-4.5-5.4-6
								c-2.2-1.5-4.9-2.2-8.1-2.2c-5.2,0-9,2.2-11.6,6.5s-3.9,9.9-3.9,16.7V99.1L1848,99.1z M1921.6,104.5l1.9,7.5h0.3l14.7-45h12.1
								l-25.1,68.7c-1.5,4-3.7,7.5-6.5,10.5s-6.6,4.5-11.4,4.5c-0.9,0-2-0.1-3.4-0.3s-2.4-0.4-3.1-0.6l1.1-8.5c-0.2,0,0.4,0,2,0.1
								c1.5,0.1,2.5,0.2,2.9,0.2c2.3,0,4.2-1,5.7-3.1s2.7-4.3,3.7-6.8l2.6-6.2L1896.9,67h12.1L1921.6,104.5L1921.6,104.5z
								 M617.3,274c-0.4-1.8-0.7-3.4-0.9-4.8s-0.3-2.8-0.4-4.2c-2,2.9-4.7,5.3-7.9,7.2c-3.3,1.9-6.8,2.9-10.5,2.9
								c-6.2,0-11-1.6-14.2-4.8c-3.3-3.2-4.9-7.6-4.9-13.2c0-5.7,2.3-10.2,6.9-13.4c4.6-3.2,10.9-4.8,18.8-4.8H616v-5.8
								c0-3.4-1.1-6.1-3.2-8.1c-2.2-2-5.2-3-9.2-3c-3.5,0-6.4,0.9-8.6,2.6c-2.2,1.7-3.3,3.8-3.3,6.3h-10.5l-0.1-0.3
								c-0.2-4.3,1.9-8.1,6.2-11.7s10-5.3,16.9-5.3c6.8,0,12.4,1.7,16.5,5.1c4.2,3.4,6.3,8.2,6.3,14.6V262c0,2.1,0.1,4.2,0.3,6.2
								s0.6,3.9,1.2,5.9h-11.2V274z M599.3,265.5c3.9,0,7.4-1,10.6-3s5.2-4.3,6.1-6.9V246h-12.1c-4.3,0-7.8,1.1-10.4,3.3
								c-2.6,2.2-3.9,4.8-3.9,7.7c0,2.6,0.8,4.7,2.5,6.2S596.1,265.5,599.3,265.5L599.3,265.5L599.3,265.5z M651.6,214l0.8,8.8
								c2-3.1,4.4-5.6,7.4-7.3s6.4-2.6,10.1-2.6c6.4,0,11.3,1.9,14.8,5.6c3.5,3.7,5.2,9.5,5.2,17.3V273h-11v-37.1
								c0-5.2-1-8.9-3-11.1s-5.1-3.3-9.3-3.3c-3,0-5.7,0.7-8.1,2.2c-2.3,1.5-4.2,3.5-5.6,6.1V273h-11v-59H651.6L651.6,214z
								 M704,244.5c0-9.5,2-17.2,6.1-23c4-5.8,9.7-8.8,17-8.8c3.4,0,6.5,0.6,9.2,1.9s4.9,3.1,6.8,5.6V188h11v85h-9l-1.2-7.3
								c-1.9,2.8-4.3,4.9-7.1,6.3s-6,2.1-9.7,2.1c-7.2,0-12.8-2.6-16.8-7.8c-4.1-5.2-6.1-12.1-6.1-20.6v-1.2H704z M715,246.1
								c0,5.9,1.2,10.6,3.6,14.1c2.4,3.5,6.1,5.3,11.2,5.3c3.2,0,5.8-0.7,8-2.1c2.1-1.4,3.9-3.4,5.3-6v-27.1
								c-1.4-2.4-3.1-4.3-5.3-5.7s-4.8-2.1-7.8-2.1c-5.1,0-8.8,2.1-11.3,6.3c-2.4,4.2-3.6,9.6-3.6,16.3v1H715z M811,274h-11v-80h11
								V274L811,274z M838.6,214l0.8,8.8c2-3.1,4.4-5.6,7.4-7.3s6.4-2.6,10.1-2.6c6.4,0,11.3,1.9,14.8,5.6c3.5,3.7,5.2,9.5,5.2,17.3
								V273h-11v-37.1c0-5.2-1-8.9-3-11.1s-5.1-3.3-9.3-3.3c-3,0-5.7,0.7-8.1,2.2c-2.3,1.5-4.2,3.5-5.6,6.1V273h-11v-59H838.6
								L838.6,214z M897,273v-51h-9v-8h9v-7.5c0-6.3,1.7-11.2,5.1-14.6s8.1-5.2,14.1-5.2c1.3,0,2.5,0.1,3.8,0.3s2.7,0.5,4.3,0.8
								L923,196c-0.7-0.1-1.5-0.3-2.4-0.4c-0.9-0.1-1.9-0.2-3-0.2c-3.2,0-5.6,0.9-7.1,2.8c-1.6,1.9-2.3,4.6-2.3,8.2v7.5h12v8h-12v51
								L897,273L897,273z M956.2,274.2c-8.3,0-14.9-2.7-19.8-8.2c-4.9-5.5-7.4-12.6-7.4-21.4v-2.4c0-8.4,2.5-15.4,7.6-21
								s11-8.4,18-8.4c8.1,0,14.1,2.4,18.3,7.2c4.1,4.8,6.2,11.2,6.2,19.3v6.7h-38.7l-0.2,0.3c0.1,5.7,1.6,10.4,4.4,14
								c2.8,3.7,6.7,5.5,11.8,5.5c3.7,0,6.9-0.5,9.7-1.6c2.8-1,5.2-2.5,7.2-4.3l4.2,7c-2.1,2.1-4.9,3.8-8.4,5.2
								S961.2,274.2,956.2,274.2L956.2,274.2L956.2,274.2z M954.5,221.7c-3.6,0-6.7,1.5-9.2,4.6c-2.6,3-4.1,6.9-4.7,11.5l0.1,0.3
								H968v-1.4c0-4.2-1.1-7.8-3.4-10.6S959,221.7,954.5,221.7L954.5,221.7L954.5,221.7z M1015,266.4c3.6,0,6.8-1.1,9.6-3.3
								c2.8-2.2,4.1-4.9,4.1-8.1h9.8l0.1,0.3c0.2,5.1-2.1,9.6-6.9,13.5s-10.4,5.9-16.8,5.9c-8.7,0-15.4-2.8-20.1-8.4
								c-4.6-5.6-6.9-12.6-6.9-21.1V243c0-8.4,2.3-15.4,7-21c4.6-5.6,11.3-8.4,20-8.4c7,0,12.8,2,17.3,6.1s6.6,9.1,6.5,15l-0.1,0.3
								h-9.9c0-3.6-1.3-6.7-3.9-9.2s-5.9-3.8-9.8-3.8c-5.7,0-9.8,2-12.3,6.1s-3.7,9-3.7,14.9v2.3c0,6,1.2,11.1,3.7,15.1
								C1005.1,264.4,1009.2,266.4,1015,266.4L1015,266.4L1015,266.4z M1064,200v14h11v8h-11v35.9c0,2.8,0.6,4.7,1.8,5.9
								s2.7,1.7,4.7,1.7c0.6,0,1.3-0.1,2.1-0.2s1.4-0.3,2-0.5l1.5,7.4c-0.8,0.7-2,1.2-3.6,1.6s-3.2,0.6-4.8,0.6c-4.5,0-8-1.3-10.7-4
								c-2.6-2.6-4-6.8-4-12.4v-36h-9v-8h9v-14H1064L1064,200z M1101,273h-11v-59h11V273L1101,273z M1101,199h-11v-11h11V199
								L1101,199z M1115,243.3c0-8.8,2.4-16,7.1-21.6c4.7-5.7,11.2-8.5,19.3-8.5c8.2,0,14.7,2.8,19.4,8.5c4.8,5.7,7.1,12.9,7.1,21.7
								v1.2c0,8.8-2.4,16-7.1,21.7c-4.7,5.6-11.2,8.4-19.4,8.4s-14.6-2.8-19.4-8.5c-4.8-5.6-7.1-12.8-7.1-21.6L1115,243.3
								L1115,243.3z M1126,244.5c0,6.2,1.3,11.3,3.9,15.3c2.6,4,6.5,6,11.6,6s8.9-2,11.5-6s3.9-9.1,3.9-15.3v-1.2
								c0-6.1-1.3-11.2-4-15.3c-2.6-4.1-6.5-6.1-11.6-6.1s-8.9,2-11.5,6.1s-3.9,9.1-3.9,15.3L1126,244.5L1126,244.5z M1218.6,264.3
								c-1.9,3.2-4.2,5.6-7.1,7.3c-2.9,1.7-6.3,2.6-10.1,2.6c-6.4,0-11.4-2.1-15-6.2s-5.4-10.5-5.4-19.2V214h10v35
								c0,6.3,0.9,10.6,2.8,13s4.8,3.6,8.8,3.6c3.9,0,7.1-0.8,9.6-2.3s4.4-3.7,5.7-6.6V214h11v59h-9.6L1218.6,264.3L1218.6,264.3z
								 M1278.6,257.6c0-2.3-0.9-4.2-2.7-5.8c-1.8-1.5-5.1-2.8-10.1-3.9c-7.1-1.5-12.4-3.6-15.9-6.3c-3.6-2.6-5.3-6.2-5.3-10.8
								c0-4.7,2-8.8,6-12.1s9.2-5,15.7-5c6.8,0,12.2,1.7,16.1,5.2c4,3.5,5.9,7.7,5.7,12.7l-0.1,0.3h-10.1c0-2.5-1.1-4.8-3.2-6.9
								c-2.1-2-5-3-8.5-3c-3.8,0-6.6,0.8-8.4,2.5c-1.8,1.6-2.7,3.6-2.7,6c0,2.3,0.8,4.1,2.4,5.4c1.6,1.3,4.9,2.5,9.8,3.5
								c7.3,1.6,12.8,3.7,16.4,6.4s5.4,6.3,5.4,10.9c0,5.2-2.1,9.3-6.3,12.5c-4.2,3.2-9.6,4.8-16.4,4.8c-7.4,0-13.3-1.9-17.5-5.6
								c-4.3-3.8-6.3-8.2-6.1-13.2l0.1-0.3h10.1c0.2,3.8,1.6,6.5,4.2,8.2s5.7,2.6,9.2,2.6c3.8,0,6.7-0.8,8.8-2.3
								C1277.5,262,1278.6,260.1,1278.6,257.6L1278.6,257.6L1278.6,257.6z M1333,274v-80h24.4c10.4,0,18.8,3.2,25.1,9.6
								c6.3,6.4,9.5,14.7,9.5,24.9v10.9c0,10.2-3.2,18.5-9.5,24.9s-14.7,9.6-25.1,9.6H1333V274z M1344,202v63h13.5
								c7.3,0,13-2.4,17.2-7.3s6.3-11.1,6.3-18.7v-11c0-7.5-2.1-13.7-6.3-18.6s-9.9-7.3-17.2-7.3H1344V202z M1416,273h-11v-59h11
								V273L1416,273z M1416,199h-11v-11h11V199L1416,199z M1467,257.6c0-2.3-0.9-4.2-2.7-5.8c-1.8-1.5-5.1-2.8-10.1-3.9
								c-7.1-1.5-12.4-3.6-15.9-6.3c-3.6-2.6-5.3-6.2-5.3-10.8c0-4.7,2-8.8,6-12.1s9.2-5,15.7-5c6.8,0,12.2,1.7,16.1,5.2
								c4,3.5,5.9,7.7,5.7,12.7l-0.1,0.3h-10.1c0-2.5-1.1-4.8-3.2-6.9c-2.1-2-5-3-8.5-3c-3.8,0-6.6,0.8-8.4,2.5
								c-1.8,1.6-2.7,3.6-2.7,6c0,2.3,0.8,4.1,2.4,5.4c1.6,1.3,4.9,2.5,9.8,3.5c7.3,1.6,12.8,3.7,16.4,6.4s5.4,6.3,5.4,10.9
								c0,5.2-2.1,9.3-6.3,12.5c-4.2,3.2-9.6,4.8-16.4,4.8c-7.4,0-13.3-1.9-17.5-5.6c-4.3-3.8-6.3-8.2-6.1-13.2l0.1-0.3h10.1
								c0.2,3.8,1.6,6.5,4.2,8.2s5.7,2.6,9.2,2.6c3.8,0,6.7-0.8,8.8-2.3C1465.9,262,1467,260.1,1467,257.6L1467,257.6L1467,257.6z
								 M1516.2,274.2c-8.3,0-14.9-2.7-19.8-8.2s-7.4-12.6-7.4-21.4v-2.4c0-8.4,2.5-15.4,7.6-21s11-8.4,18-8.4
								c8.1,0,14.1,2.4,18.3,7.2s6.2,11.2,6.2,19.3v6.7h-38.7l-0.2,0.3c0.1,5.7,1.6,10.4,4.4,14c2.8,3.7,6.7,5.5,11.8,5.5
								c3.7,0,6.9-0.5,9.7-1.6c2.8-1,5.2-2.5,7.2-4.3l4.2,7c-2.1,2.1-4.9,3.8-8.4,5.2C1525.4,273.5,1521.2,274.2,1516.2,274.2
								L1516.2,274.2L1516.2,274.2z M1514.5,221.7c-3.6,0-6.7,1.5-9.2,4.6s-4.1,6.9-4.7,11.5l0.1,0.3h27.3v-1.4
								c0-4.2-1.1-7.8-3.4-10.6C1522.3,223.1,1519,221.7,1514.5,221.7L1514.5,221.7L1514.5,221.7z M1587.3,274
								c-0.4-1.8-0.7-3.4-0.9-4.8c-0.2-1.4-0.3-2.8-0.4-4.2c-2,2.9-4.7,5.3-7.9,7.2c-3.3,1.9-6.8,2.9-10.5,2.9
								c-6.2,0-11-1.6-14.2-4.8s-4.9-7.6-4.9-13.2c0-5.7,2.3-10.2,6.9-13.4s10.9-4.8,18.8-4.8h11.7v-5.8c0-3.4-1.1-6.1-3.2-8.1
								c-2.2-2-5.2-3-9.2-3c-3.5,0-6.4,0.9-8.6,2.6c-2.2,1.7-3.3,3.8-3.3,6.3h-10.5l-0.1-0.3c-0.2-4.3,1.9-8.1,6.2-11.7
								c4.4-3.5,10-5.3,16.9-5.3c6.8,0,12.4,1.7,16.5,5.1c4.2,3.4,6.3,8.2,6.3,14.6V262c0,2.1,0.1,4.2,0.3,6.2
								c0.2,2,0.6,3.9,1.2,5.9h-11.1V274z M1569.3,265.5c3.9,0,7.4-1,10.6-3c3.1-2,5.2-4.3,6.1-6.9V246h-12.1
								c-4.3,0-7.8,1.1-10.4,3.3s-3.9,4.8-3.9,7.7c0,2.6,0.8,4.7,2.5,6.2S1566.1,265.5,1569.3,265.5L1569.3,265.5L1569.3,265.5z
								 M1646.3,257.6c0-2.3-0.9-4.2-2.7-5.8c-1.8-1.5-5.1-2.8-10.1-3.9c-7.1-1.5-12.4-3.6-15.9-6.3c-3.6-2.6-5.3-6.2-5.3-10.8
								c0-4.7,2-8.8,6-12.1s9.2-5,15.7-5c6.8,0,12.2,1.7,16.1,5.2c4,3.5,5.9,7.7,5.7,12.7l-0.1,0.3h-10.1c0-2.5-1.1-4.8-3.2-6.9
								c-2.1-2-5-3-8.5-3c-3.8,0-6.6,0.8-8.4,2.5c-1.8,1.6-2.7,3.6-2.7,6c0,2.3,0.8,4.1,2.4,5.4c1.6,1.3,4.9,2.5,9.8,3.5
								c7.3,1.6,12.8,3.7,16.4,6.4s5.4,6.3,5.4,10.9c0,5.2-2.1,9.3-6.3,12.5c-4.2,3.2-9.6,4.8-16.4,4.8c-7.4,0-13.3-1.9-17.5-5.6
								c-4.3-3.8-6.3-8.2-6.1-13.2l0.1-0.3h10.1c0.2,3.8,1.6,6.5,4.2,8.2s5.7,2.6,9.2,2.6c3.8,0,6.7-0.8,8.8-2.3
								C1645.3,262,1646.3,260.1,1646.3,257.6L1646.3,257.6L1646.3,257.6z M1695.2,274.2c-8.3,0-14.9-2.7-19.8-8.2
								s-7.4-12.6-7.4-21.4v-2.4c0-8.4,2.5-15.4,7.6-21s11-8.4,18-8.4c8.1,0,14.1,2.4,18.3,7.2s6.2,11.2,6.2,19.3v6.7h-38.7
								l-0.2,0.3c0.1,5.7,1.6,10.4,4.4,14c2.8,3.7,6.7,5.5,11.8,5.5c3.7,0,6.9-0.5,9.7-1.6c2.8-1,5.2-2.5,7.2-4.3l4.2,7
								c-2.1,2.1-4.9,3.8-8.4,5.2C1704.4,273.5,1700.2,274.2,1695.2,274.2L1695.2,274.2L1695.2,274.2z M1693.5,221.7
								c-3.6,0-6.7,1.5-9.2,4.6s-4.1,6.9-4.7,11.5l0.1,0.3h27.3v-1.4c0-4.2-1.1-7.8-3.4-10.6C1701.3,223.1,1698,221.7,1693.5,221.7
								L1693.5,221.7L1693.5,221.7z M1764.1,257.6c0-2.3-0.9-4.2-2.7-5.8c-1.8-1.5-5.1-2.8-10.1-3.9c-7.1-1.5-12.4-3.6-15.9-6.3
								c-3.6-2.6-5.3-6.2-5.3-10.8c0-4.7,2-8.8,6-12.1s9.2-5,15.7-5c6.8,0,12.2,1.7,16.1,5.2c4,3.5,5.9,7.7,5.7,12.7l-0.1,0.3h-10.1
								c0-2.5-1.1-4.8-3.2-6.9c-2.1-2-5-3-8.5-3c-3.8,0-6.6,0.8-8.4,2.5c-1.8,1.6-2.7,3.6-2.7,6c0,2.3,0.8,4.1,2.4,5.4
								c1.6,1.3,4.9,2.5,9.8,3.5c7.3,1.6,12.8,3.7,16.4,6.4s5.4,6.3,5.4,10.9c0,5.2-2.1,9.3-6.3,12.5c-4.2,3.2-9.6,4.8-16.4,4.8
								c-7.4,0-13.3-1.9-17.5-5.6c-4.3-3.8-6.3-8.2-6.1-13.2l0.1-0.3h10.1c0.2,3.8,1.6,6.5,4.2,8.2s5.7,2.6,9.2,2.6
								c3.8,0,6.7-0.8,8.8-2.3C1763.1,262,1764.1,260.1,1764.1,257.6L1764.1,257.6L1764.1,257.6z"/>
							<g id="Group-2">
								<path id="Path_1_" class="st1" d="M373,0h34.7c0,0,5.7,2.7,10.2,6.1s6.4,7.9,6.4,7.9l78.9,141.3c0,0-74.3,134.6-78.5,141.7
									c-4.1,7.1-1.9,3.3-6.8,9.4c-5,6-16.1,7.7-16.1,7.7l-29.7-0.3l87.2-158L373,0L373,0z"/>
								<path id="Combined-Shape" class="st2" d="M353.5,3.3V1.5h-134h-183c-19.9,0-36,16.1-36,36v243c0,19.9,16.1,36,36,36h183h134
									v-1.6l1,0.1l85.2-157.6L354.3,3L353.5,3.3z"/>
							</g>
						</g>
						<path class="st3" d="M2032,38.5c0,82.5,0,165.5,0,248.9"/>
					</g>
					<g id="Group" transform="translate(53.000000, 87.000000)">
						<polygon id="Path-2" class="st0" points="-0.5,140 24,140 24.8,37.3 87.7,141 115,141 114,0 91,-0.1 90.4,102.9 26.7,0.9 0,0 
													"/>
						<polygon id="Path-4" class="st0" points="139,0 163,0.3 163,141 139,141 						"/>
						<path id="Path-5" class="st0" d="M187,0h25l-0.3,56l64.3,0.3L275.6,1H301v140h-25V79h-64l0.3,62H187V0z"/>
					</g>
				</g>
			</g>
		</g>
	</g>
	<g>
		<path class="st0" d="M2158.4,120.7c-2.8,1.9-8.5,3.8-15.8,3.8c-16.9,0-29.6-14.1-29.6-40.1c0-24.8,12.7-41.6,31.3-41.6
			c7.5,0,12.2,2.1,14.2,3.5l-1.9,8.3c-2.9-1.9-7.1-3.3-12.1-3.3c-14.1,0-23.4,11.9-23.4,32.7c0,19.4,8.5,31.9,23.1,31.9
			c4.7,0,9.5-1.3,12.6-3.3L2158.4,120.7z"/>
		<path class="st0" d="M2186,45.1c3.9-1.1,9.5-1.6,14.9-1.6c8.3,0,13.6,2,17.4,6.5c3,3.5,4.7,8.9,4.7,15c0,10.5-5,17.4-11.3,20.2
			v0.4c4.6,2.1,7.4,7.8,8.8,16c2,11,3.4,18.7,4.6,21.8h-8c-1-2.2-2.3-9.1-4-18.9c-1.8-10.9-5-15-12-15.4h-7.3v34.3h-7.7V45.1z
			 M2193.7,81.2h7.9c8.3,0,13.5-6,13.5-15c0-10.2-5.6-14.7-13.8-14.8c-3.7,0-6.4,0.5-7.7,0.9V81.2z"/>
		<path class="st0" d="M2250.6,110.9c3.5,2.8,8.5,5.2,13.9,5.2c7.9,0,12.6-5.5,12.6-13.5c0-7.4-3.2-11.6-11.3-15.7
			c-9.8-4.6-15.8-11.3-15.8-22.5c0-12.3,7.7-21.5,19.4-21.5c6.1,0,10.6,1.9,13.3,3.9l-2.1,8.3c-2-1.4-6-3.8-11.4-3.8
			c-8.2,0-11.3,6.5-11.3,11.9c0,7.4,3.6,11.1,11.9,15.3c10.1,5.2,15.3,11.6,15.3,23.3c0,12.2-6.9,22.8-21,22.8
			c-5.8,0-12.1-2.2-15.3-5.1L2250.6,110.9z"/>
	</g>
</g>
</svg>
