<?xml version="1.0" encoding="UTF-8"?>
<svg width="92px" height="88px" viewBox="0 0 92 88" version="1.1" xmlns="http://www.w3.org/2000/svg" xmlns:xlink="http://www.w3.org/1999/xlink">
    <!-- Generator: Sketch 47.1 (45422) - http://www.bohemiancoding.com/sketch -->
    <!-- <title>star</title> -->
    <desc>Created with Sketch.</desc>
    <defs></defs>
    <g id="Page-5" stroke="none" stroke-width="1" fill="none" fill-rule="evenodd">
        <g id="star" transform="translate(-1.000000, 0.000000)" fill-rule="nonzero" fill="#FFFFFF">
            <path d="M46.901575,0.00297 C46.0723691,0.043243479 45.3542631,0.591674272 45.097075,1.3811 L35.057485,31.50311 L2.9045555,31.50311 C2.04208903,31.5058852 1.27855554,32.0613212 1.01029351,32.8810997 C0.74203149,33.7008781 1.02947861,34.6003084 1.7234255,35.11251 L27.839475,54.20952 L17.799895,85.38152 C17.5317904,86.2070079 17.8266241,87.1112183 18.5297723,87.6199438 C19.2329206,88.1286692 20.1838878,88.1257915 20.883945,87.61282 L46.999996,68.51582 L73.116056,87.61282 C73.8161132,88.1257915 74.7670804,88.1286692 75.4702287,87.6199438 C76.1733769,87.1112183 76.4682106,86.2070079 76.200106,85.38152 L66.160516,54.20952 L92.276574,35.11251 C92.9705209,34.6003084 93.257968,33.7008781 92.989706,32.8810997 C92.721444,32.0613212 91.9579105,31.5058852 91.095444,31.50311 L58.942516,31.50311 L48.902926,1.3811 C48.6233043,0.522604717 47.8032477,-0.042086133 46.901575,0.00297 L46.901575,0.00297 Z" id="Shape1"></path>
        </g>
    </g>
</svg>