<?xml version="1.0" encoding="UTF-8"?>
<svg width="39px" height="27px" viewBox="0 0 39 27" version="1.1" xmlns="http://www.w3.org/2000/svg" xmlns:xlink="http://www.w3.org/1999/xlink">
    <!-- Generator: Sketch 49.3 (51167) - http://www.bohemiancoding.com/sketch -->
    <!-- <title>EXCEL icon</title> -->
    <desc>Created with Sketch.</desc>
    <defs></defs>
    <g id="EXCEL-icon" stroke="none" stroke-width="1" fill="none" fill-rule="evenodd">
        <g id="Group-+-Group" transform="translate(2.000000, 0.000000)">
            <g id="Excel-image">
                <rect id="Rectangle-28" fill="#D8D8D8" x="11.4473684" y="3.70967742" width="17.5526316" height="17.0645161"></rect>
                <rect id="Rectangle-30-Copy" fill="#4A4A4A" x="13.7368421" y="11.1290323" width="5.34210526" height="2.96774194"></rect>
                <rect id="Rectangle-30-Copy-5" fill="#4A4A4A" x="21.3684211" y="6.67741935" width="5.34210526" height="2.96774194"></rect>
                <rect id="Rectangle-30-Copy-3" fill="#4A4A4A" x="21.3684211" y="11.1290323" width="5.34210526" height="2.96774194"></rect>
                <rect id="Rectangle-30-Copy-4" fill="#4A4A4A" x="21.3684211" y="15.5806452" width="5.34210526" height="2.96774194"></rect>
                <rect id="Rectangle-30" fill="#4A4A4A" x="13.7368421" y="6.67741935" width="5.34210526" height="2.96774194"></rect>
                <rect id="Rectangle-30-Copy-2" fill="#4A4A4A" x="13.7368421" y="15.5806452" width="5.34210526" height="2.96774194"></rect>
                <polygon id="Rectangle-28-Copy" fill="#D8D8D8" points="0 4.02129032 18.3157895 0.103870968 17.5831579 22.896129 0 20.4032258"></polygon>
                <polygon id="X" fill="#4A4A4A" points="8.86361534 10.3722908 11.1048263 6.6281502 12.6736739 6.6281502 9.62826377 11.3874275 12.7395919 16.2258065 11.1905196 16.2258065 8.88998252 12.4157479 6.58285362 16.2258065 5.01400596 16.2258065 8.12533409 11.3874275 5.07992393 6.6281502 6.63558799 6.6281502"></polygon>
            </g>
        </g>
    </g>
</svg>