<?xml version="1.0" encoding="UTF-8"?>
<svg width="1748px" height="221px" viewBox="0 0 1748 221" version="1.1" xmlns="http://www.w3.org/2000/svg" xmlns:xlink="http://www.w3.org/1999/xlink">
    <!-- Generator: Sketch 47.1 (45422) - http://www.bohemiancoding.com/sketch -->
    <title>nihbanner15</title>
    <desc>Created with Sketch.</desc>
    <defs></defs>
    <g id="Page-20" stroke="none" stroke-width="1" fill="none" fill-rule="evenodd">
        <g id="nihbanner15" transform="translate(1.000000, 0.000000)">
            <path d="M1555.40694,69.8170347 L1532.01893,69.8170347 L1526.74448,84.3911672 L1518.97161,84.3911672 L1540.4164,28.1766562 L1546.87066,28.1766562 L1568.38486,84.3911672 L1560.68139,84.3911672 L1555.40694,69.8170347 Z M1534.17035,63.5709779 L1553.32492,63.5709779 L1543.74763,37.2681388 L1534.17035,63.5709779 Z M1583.7224,84.3911672 L1576.08833,84.3911672 L1576.08833,28.1766562 L1583.7224,28.1766562 L1583.7224,84.3911672 Z M1597.60252,84.3911672 L1597.60252,28.1766562 L1613.56467,28.1766562 C1618.49211,28.1766562 1622.86435,29.2870662 1626.61199,31.4384858 C1630.35962,33.5899054 1633.34385,36.6435331 1635.35647,40.6687697 C1637.43849,44.6246057 1638.4795,49.2744479 1638.4795,54.4100946 L1638.4795,58.0189274 C1638.4795,63.2933754 1637.43849,67.9432177 1635.35647,71.9684543 C1633.27445,75.9242902 1630.35962,79.0473186 1626.54259,81.1293375 C1622.72555,83.2807571 1618.28391,84.3911672 1613.21767,84.3911672 C1613.21767,84.3217666 1597.60252,84.3217666 1597.60252,84.3911672 Z M1605.23659,34.4227129 L1605.23659,78.8391167 L1612.94006,78.8391167 C1618.63091,78.8391167 1623.00315,77.0347003 1626.19558,73.4952681 C1629.31861,69.8864353 1630.91483,64.8201893 1630.91483,58.2271293 L1630.91483,54.8958991 C1630.91483,48.4416404 1629.45741,43.444795 1626.47319,39.9053628 C1623.48896,36.3659306 1619.25552,34.5615142 1613.84227,34.4921136 L1605.23659,34.4921136 L1605.23659,34.4227129 Z M1467.96215,84.3911672 L1467.96215,28.1766562 L1483.92429,28.1766562 C1488.85174,28.1766562 1493.22397,29.2870662 1496.97161,31.4384858 C1500.71924,33.5899054 1503.70347,36.6435331 1505.71609,40.6687697 C1507.79811,44.6246057 1508.83912,49.2744479 1508.83912,54.4100946 L1508.83912,58.0189274 C1508.83912,63.2933754 1507.79811,67.9432177 1505.71609,71.9684543 C1503.63407,75.9242902 1500.71924,79.0473186 1496.90221,81.1293375 C1493.08517,83.2807571 1488.64353,84.3911672 1483.57729,84.3911672 C1483.57729,84.3217666 1467.96215,84.3217666 1467.96215,84.3911672 Z M1475.59621,34.4227129 L1475.59621,78.8391167 L1483.29968,78.8391167 C1488.99054,78.8391167 1493.36278,77.0347003 1496.55521,73.4952681 C1499.67823,69.8864353 1501.27445,64.8201893 1501.27445,58.2271293 L1501.27445,54.8958991 C1501.27445,48.4416404 1499.81703,43.444795 1496.83281,39.9053628 C1493.84858,36.3659306 1489.61514,34.5615142 1484.20189,34.4921136 L1475.59621,34.4921136 L1475.59621,34.4227129 Z M1499.19243,170.378549 L1474.90221,170.378549 L1474.90221,190.504732 L1503.35647,190.504732 L1503.35647,196.750789 L1467.96215,196.750789 L1467.96215,140.536278 L1502.66246,140.536278 L1502.66246,146.782334 L1474.90221,146.782334 L1474.90221,164.826498 L1499.19243,164.826498 L1499.19243,170.378549 Z M1525.35647,170.309148 L1534.58675,155.11041 L1542.91483,155.11041 L1529.3123,175.722397 L1543.33123,196.750789 L1535.07256,196.750789 L1525.42587,181.135647 L1515.84858,196.750789 L1507.58991,196.750789 L1521.60883,175.722397 L1508.00631,155.11041 L1516.26498,155.11041 L1525.35647,170.309148 Z M1585.94322,176.485804 C1585.94322,182.870662 1584.4858,188.006309 1581.50158,191.892744 C1578.51735,195.77918 1574.56151,197.722397 1569.56467,197.722397 C1564.42902,197.722397 1560.40379,196.126183 1557.48896,192.864353 L1557.48896,212.712934 L1550.5489,212.712934 L1550.5489,155.11041 L1556.86435,155.11041 L1557.21136,159.760252 C1560.12618,156.15142 1564.22082,154.347003 1569.49527,154.347003 C1574.56151,154.347003 1578.58675,156.22082 1581.57098,160.037855 C1584.55521,163.85489 1586.01262,169.059937 1586.01262,175.861199 L1586.01262,176.485804 L1585.94322,176.485804 L1585.94322,176.485804 Z M1578.51735,175.514196 C1578.51735,170.794953 1577.54574,167.047319 1575.53312,164.340694 C1573.5205,161.634069 1570.74448,160.246057 1567.27445,160.246057 C1562.97161,160.246057 1559.70978,162.189274 1557.55836,166.006309 L1557.55836,185.993691 C1559.70978,189.810726 1562.97161,191.684543 1567.34385,191.684543 C1570.74448,191.684543 1573.5205,190.29653 1575.53312,187.589905 C1577.54574,184.883281 1578.51735,180.858044 1578.51735,175.514196 Z M1602.59937,196.750789 L1595.65931,196.750789 L1595.65931,137.066246 L1602.59937,137.066246 L1602.59937,196.750789 Z M1612.31546,175.444795 C1612.31546,171.350158 1613.14826,167.671924 1614.74448,164.340694 C1616.34069,161.078864 1618.63091,158.511041 1621.47634,156.776025 C1624.32177,155.041009 1627.653,154.069401 1631.33123,154.069401 C1637.02208,154.069401 1641.67192,156.012618 1645.21136,159.968454 C1648.75079,163.92429 1650.4858,169.198738 1650.4858,175.722397 L1650.4858,176.208202 C1650.4858,180.302839 1649.7224,183.981073 1648.12618,187.173502 C1646.52997,190.365931 1644.30915,192.933754 1641.39432,194.73817 C1638.4795,196.542587 1635.14826,197.444795 1631.40063,197.444795 C1625.70978,197.444795 1621.12934,195.501577 1617.58991,191.545741 C1614.05047,187.589905 1612.31546,182.384858 1612.31546,175.861199 L1612.31546,175.444795 L1612.31546,175.444795 Z M1619.32492,176.347003 C1619.32492,180.996845 1620.36593,184.675079 1622.51735,187.520505 C1624.66877,190.365931 1627.5142,191.753943 1631.12303,191.753943 C1634.73186,191.753943 1637.64669,190.29653 1639.79811,187.451104 C1641.94953,184.605678 1642.99054,180.649842 1642.99054,175.514196 C1642.99054,170.933754 1641.88013,167.18612 1639.72871,164.340694 C1637.57729,161.495268 1634.66246,160.037855 1631.05363,160.037855 C1627.5142,160.037855 1624.66877,161.425868 1622.51735,164.271293 C1620.36593,167.116719 1619.32492,171.072555 1619.32492,176.347003 Z M1679.63407,161.495268 C1678.52366,161.287066 1677.34385,161.217666 1676.09464,161.217666 C1671.37539,161.217666 1668.18297,163.230284 1666.44795,167.18612 L1666.44795,196.750789 L1659.50789,196.750789 L1659.50789,155.11041 L1666.23975,155.11041 L1666.37855,159.968454 C1668.73817,156.22082 1672.0694,154.347003 1676.44164,154.347003 C1677.82965,154.347003 1678.94006,154.555205 1679.63407,154.902208 L1679.63407,161.495268 L1679.63407,161.495268 Z M1702.25868,197.652997 C1696.63722,197.652997 1691.98738,195.77918 1688.44795,192.100946 C1684.90852,188.422713 1683.1041,183.425868 1683.1041,177.179811 L1683.1041,175.861199 C1683.1041,171.697161 1683.86751,168.018927 1685.46372,164.757098 C1687.05994,161.495268 1689.28076,158.927445 1692.12618,157.123028 C1694.97161,155.318612 1698.02524,154.347003 1701.35647,154.347003 C1706.76972,154.347003 1711.00315,156.15142 1713.98738,159.690852 C1716.97161,163.230284 1718.49842,168.365931 1718.49842,175.097792 L1718.49842,178.082019 L1690.25237,178.082019 C1690.32177,182.176656 1691.57098,185.507886 1693.8612,188.07571 C1696.15142,190.643533 1699.06625,191.892744 1702.60568,191.892744 C1705.1041,191.892744 1707.25552,191.40694 1708.99054,190.365931 C1710.72555,189.324921 1712.25237,187.936909 1713.57098,186.271293 L1717.94322,189.671924 C1714.47319,194.946372 1709.19874,197.652997 1702.25868,197.652997 Z M1701.49527,159.760252 C1698.58044,159.760252 1696.22082,160.801262 1694.2082,162.883281 C1692.19558,164.9653 1691.01577,167.949527 1690.59937,171.697161 L1711.55836,171.697161 L1711.55836,171.141956 C1711.35016,167.533123 1710.37855,164.687697 1708.64353,162.675079 C1706.90852,160.662461 1704.4795,159.760252 1701.49527,159.760252 Z M1746.95268,161.495268 C1745.84227,161.287066 1744.66246,161.217666 1743.41325,161.217666 C1738.69401,161.217666 1735.50158,163.230284 1733.76656,167.18612 L1733.76656,196.750789 L1726.8265,196.750789 L1726.8265,155.11041 L1733.55836,155.11041 L1733.69716,159.968454 C1736.05678,156.22082 1739.38801,154.347003 1743.76025,154.347003 C1745.14826,154.347003 1746.25868,154.555205 1746.95268,154.902208 L1746.95268,161.495268 L1746.95268,161.495268 Z" id="NIAID-Explorer" fill="#FFFFFF" fill-rule="nonzero"></path>
            <g id="NIHBanner2">
                <g id="Artboard-2-1">
                    <g id="Artboard-2" fill-rule="nonzero">
                        <path d="M446.246057,91.6088328 L439.652997,91.6088328 L412.51735,48.6498423 L412.309148,48.7192429 L412.309148,91.6088328 L404.675079,91.6088328 L404.675079,36.0883281 L411.268139,36.0883281 L438.403785,78.977918 L438.611987,78.9085174 L438.611987,36.0883281 L446.246057,36.0883281 L446.246057,91.6088328 L446.246057,91.6088328 Z M483.930599,91.6088328 C483.652997,90.3596215 483.444795,89.2492114 483.305994,88.2776025 C483.167192,87.3059937 483.097792,86.3343849 483.028391,85.362776 C481.640379,87.3753943 479.766562,89.0410095 477.545741,90.3596215 C475.324921,91.6782334 472.826498,92.3722397 470.258675,92.3722397 C465.955836,92.3722397 462.624606,91.2618297 460.403785,89.0410095 C458.113565,86.8201893 457.003155,83.7665615 457.003155,79.8801262 C457.003155,75.9242902 458.599369,72.8012618 461.791798,70.5804416 C464.984227,68.3596215 469.356467,67.2492114 474.839117,67.2492114 L483.028391,67.2492114 L483.028391,63.2239748 C483.028391,60.8643533 482.264984,58.9905363 480.807571,57.6025237 C479.280757,56.214511 477.198738,55.5205047 474.422713,55.5205047 C471.993691,55.5205047 469.981073,56.1451104 468.454259,57.3249211 C466.927445,58.5047319 466.164038,59.9621451 466.164038,61.6971609 L458.876972,61.6971609 L458.807571,61.488959 C458.66877,58.5047319 460.126183,55.8675079 463.11041,53.3690852 C466.094637,50.8706625 470.050473,49.6908517 474.839117,49.6908517 C479.55836,49.6908517 483.444795,50.8706625 486.290221,53.2302839 C489.205047,55.5899054 490.662461,58.9211356 490.662461,63.362776 L490.662461,83.2807571 C490.662461,84.7381703 490.731861,86.1955836 490.870662,87.5835962 C491.009464,88.9716088 491.287066,90.2902208 491.70347,91.6782334 L483.930599,91.6782334 L483.930599,91.6088328 L483.930599,91.6088328 Z M471.438486,85.7097792 C474.14511,85.7097792 476.574132,85.0157729 478.794953,83.6277603 C481.015773,82.2397476 482.403785,80.6435331 483.028391,78.8391167 L483.028391,72.1766562 L474.630915,72.1766562 C471.646688,72.1766562 469.217666,72.9400631 467.413249,74.466877 C465.608833,75.9936909 464.706625,77.7981073 464.706625,79.8107256 C464.706625,81.615142 465.26183,83.0725552 466.44164,84.1135647 C467.621451,85.1545741 469.217666,85.7097792 471.438486,85.7097792 L471.438486,85.7097792 L471.438486,85.7097792 Z M511.48265,40.2523659 L511.48265,49.9684543 L519.116719,49.9684543 L519.116719,55.5205047 L511.48265,55.5205047 L511.48265,80.4353312 C511.48265,82.3785489 511.899054,83.6971609 512.731861,84.5299685 C513.564669,85.2933754 514.605678,85.7097792 515.993691,85.7097792 C516.410095,85.7097792 516.895899,85.6403785 517.451104,85.5709779 C518.006309,85.5015773 518.422713,85.362776 518.839117,85.2239748 L519.880126,90.3596215 C519.324921,90.8454259 518.492114,91.192429 517.381703,91.4700315 C516.271293,91.7476341 515.160883,91.8864353 514.050473,91.8864353 C510.927445,91.8864353 508.498423,90.9842271 506.624606,89.1104101 C504.750789,87.2365931 503.84858,84.3911672 503.84858,80.5047319 L503.84858,55.5205047 L496.908517,55.5205047 L496.908517,49.9684543 L503.84858,49.9684543 L503.84858,40.2523659 L511.48265,40.2523659 L511.48265,40.2523659 Z M536.466877,90.9148265 L528.832808,90.9148265 L528.832808,49.9684543 L536.466877,49.9684543 L536.466877,90.9148265 L536.466877,90.9148265 Z M536.466877,39.5583596 L528.832808,39.5583596 L528.832808,31.9242902 L536.466877,31.9242902 L536.466877,39.5583596 L536.466877,39.5583596 Z M546.182965,70.3028391 C546.182965,64.1955836 547.84858,59.1987382 551.11041,55.3123028 C554.37224,51.3564669 558.883281,49.4132492 564.504732,49.4132492 C570.195584,49.4132492 574.706625,51.3564669 577.968454,55.3123028 C581.299685,59.2681388 582.895899,64.2649842 582.895899,70.3722397 L582.895899,71.2050473 C582.895899,77.3123028 581.230284,82.3091483 577.968454,86.2649842 C574.706625,90.1514196 570.195584,92.0946372 564.504732,92.0946372 C558.81388,92.0946372 554.37224,90.1514196 551.041009,86.1955836 C547.709779,82.3091483 546.113565,77.3123028 546.113565,71.2050473 L546.113565,70.3028391 L546.182965,70.3028391 Z M553.817035,71.1356467 C553.817035,75.4384858 554.719243,78.977918 556.523659,81.7539432 C558.328076,84.5299685 561.0347,85.9179811 564.574132,85.9179811 C568.113565,85.9179811 570.750789,84.5299685 572.555205,81.7539432 C574.359621,78.977918 575.26183,75.4384858 575.26183,71.1356467 L575.26183,70.3028391 C575.26183,66.0694006 574.359621,62.5299685 572.485804,59.6845426 C570.681388,56.8391167 567.974763,55.4511041 564.435331,55.4511041 C560.895899,55.4511041 558.258675,56.8391167 556.454259,59.6845426 C554.649842,62.5299685 553.747634,66 553.747634,70.3028391 L553.817035,71.1356467 L553.817035,71.1356467 Z M598.649842,49.9684543 L599.205047,56.0757098 C600.59306,53.9242902 602.258675,52.1892744 604.340694,51.0094637 C606.422713,49.829653 608.782334,49.2050473 611.350158,49.2050473 C615.791798,49.2050473 619.192429,50.5236593 621.621451,53.0914826 C624.050473,55.659306 625.230284,59.6845426 625.230284,65.0977918 L625.230284,90.9148265 L617.596215,90.9148265 L617.596215,65.1671924 C617.596215,61.5583596 616.902208,58.9905363 615.514196,57.4637224 C614.126183,55.9369085 611.974763,55.1735016 609.059937,55.1735016 C606.977918,55.1735016 605.104101,55.659306 603.438486,56.7003155 C601.842271,57.7413249 600.523659,59.1293375 599.55205,60.9337539 L599.55205,90.9148265 L591.917981,90.9148265 L591.917981,49.9684543 L598.649842,49.9684543 L598.649842,49.9684543 Z M661.596215,91.6088328 C661.318612,90.3596215 661.11041,89.2492114 660.971609,88.2776025 C660.832808,87.3059937 660.763407,86.3343849 660.694006,85.362776 C659.305994,87.3753943 657.432177,89.0410095 655.211356,90.3596215 C652.990536,91.6782334 650.492114,92.3722397 647.92429,92.3722397 C643.621451,92.3722397 640.290221,91.2618297 638.069401,89.0410095 C635.77918,86.8201893 634.66877,83.7665615 634.66877,79.8801262 C634.66877,75.9242902 636.264984,72.8012618 639.457413,70.5804416 C642.649842,68.3596215 647.022082,67.2492114 652.504732,67.2492114 L660.694006,67.2492114 L660.694006,63.2239748 C660.694006,60.8643533 659.930599,58.9905363 658.473186,57.6025237 C656.946372,56.214511 654.864353,55.5205047 652.088328,55.5205047 C649.659306,55.5205047 647.646688,56.1451104 646.119874,57.3249211 C644.59306,58.5047319 643.829653,59.9621451 643.829653,61.6971609 L636.542587,61.6971609 L636.473186,61.488959 C636.334385,58.5047319 637.791798,55.8675079 640.776025,53.3690852 C643.760252,50.8706625 647.716088,49.6908517 652.504732,49.6908517 C657.223975,49.6908517 661.11041,50.8706625 663.955836,53.2302839 C666.870662,55.5899054 668.328076,58.9211356 668.328076,63.362776 L668.328076,83.2807571 C668.328076,84.7381703 668.397476,86.1955836 668.536278,87.5835962 C668.675079,88.9716088 668.952681,90.2902208 669.369085,91.6782334 L661.596215,91.6782334 L661.596215,91.6088328 L661.596215,91.6088328 Z M649.104101,85.7097792 C651.810726,85.7097792 654.239748,85.0157729 656.460568,83.6277603 C658.681388,82.2397476 660.069401,80.6435331 660.694006,78.8391167 L660.694006,72.1766562 L652.29653,72.1766562 C649.312303,72.1766562 646.883281,72.9400631 645.078864,74.466877 C643.274448,75.9936909 642.37224,77.7981073 642.37224,79.8107256 C642.37224,81.615142 642.927445,83.0725552 644.107256,84.1135647 C645.287066,85.1545741 646.883281,85.7097792 649.104101,85.7097792 L649.104101,85.7097792 L649.104101,85.7097792 Z M687.066246,90.9148265 L679.432177,90.9148265 L679.432177,31.9242902 L687.066246,31.9242902 L687.066246,90.9148265 L687.066246,90.9148265 Z M727.318612,91.6088328 L719.684543,91.6088328 L719.684543,36.0883281 L727.318612,36.0883281 L727.318612,91.6088328 L727.318612,91.6088328 Z M746.473186,49.9684543 L747.028391,56.0757098 C748.416404,53.9242902 750.082019,52.1892744 752.164038,51.0094637 C754.246057,49.829653 756.605678,49.2050473 759.173502,49.2050473 C763.615142,49.2050473 767.015773,50.5236593 769.444795,53.0914826 C771.873817,55.659306 773.053628,59.6845426 773.053628,65.0977918 L773.053628,90.9148265 L765.419558,90.9148265 L765.419558,65.1671924 C765.419558,61.5583596 764.725552,58.9905363 763.337539,57.4637224 C761.949527,55.9369085 759.798107,55.1735016 756.883281,55.1735016 C754.801262,55.1735016 752.927445,55.659306 751.26183,56.7003155 C749.665615,57.7413249 748.347003,59.1293375 747.375394,60.9337539 L747.375394,90.9148265 L739.741325,90.9148265 L739.741325,49.9684543 L746.473186,49.9684543 L746.473186,49.9684543 Z M807.545741,80.2271293 C807.545741,78.6309148 806.921136,77.3123028 805.671924,76.2018927 C804.422713,75.1608833 802.132492,74.2586751 798.662461,73.4952681 C793.735016,72.4542587 790.056782,70.9968454 787.62776,69.1230284 C785.129338,67.318612 783.949527,64.8201893 783.949527,61.6277603 C783.949527,58.3659306 785.337539,55.5205047 788.113565,53.2302839 C790.88959,50.9400631 794.498423,49.7602524 799.009464,49.7602524 C803.728707,49.7602524 807.476341,50.9400631 810.182965,53.3690852 C812.958991,55.7981073 814.277603,58.7129338 814.138801,62.1829653 L814.069401,62.3911672 L807.129338,62.3911672 C807.129338,60.6561514 806.365931,59.0599369 804.908517,57.6025237 C803.451104,56.214511 801.438486,55.5205047 799.009464,55.5205047 C796.37224,55.5205047 794.429022,56.0757098 793.179811,57.2555205 C791.930599,58.3659306 791.305994,59.7539432 791.305994,61.4195584 C791.305994,63.0157729 791.861199,64.2649842 792.971609,65.1671924 C794.082019,66.0694006 796.37224,66.9022082 799.772871,67.5962145 C804.839117,68.7066246 808.656151,70.1640379 811.154574,72.0378549 C813.652997,73.9116719 814.902208,76.4100946 814.902208,79.6025237 C814.902208,83.2113565 813.444795,86.0567823 810.529968,88.2776025 C807.615142,90.4984227 803.867508,91.6088328 799.148265,91.6088328 C794.012618,91.6088328 789.917981,90.2902208 787.003155,87.7223975 C784.018927,85.0851735 782.630915,82.0315457 782.769716,78.5615142 L782.839117,78.3533123 L789.84858,78.3533123 C789.987382,80.9905363 790.958991,82.8643533 792.763407,84.044164 C794.567823,85.2239748 796.719243,85.8485804 799.148265,85.8485804 C801.785489,85.8485804 803.798107,85.2933754 805.255521,84.2523659 C806.851735,83.2807571 807.545741,81.9621451 807.545741,80.2271293 L807.545741,80.2271293 L807.545741,80.2271293 Z M1677.82965,69.3312303 C1677.82965,67.2492114 1676.99685,65.5141956 1675.40063,64.0567823 C1673.73502,62.6687697 1670.75079,61.488959 1666.17035,60.5173502 C1659.71609,59.1293375 1654.85804,57.2555205 1651.66562,54.7570978 C1648.40379,52.3974763 1646.80757,49.1356467 1646.80757,44.9022082 C1646.80757,40.5993691 1648.61199,36.851735 1652.29022,33.8675079 C1655.96845,30.8832808 1660.6877,29.2870662 1666.58675,29.2870662 C1672.76341,29.2870662 1677.69085,30.8138801 1681.23028,34.0063091 C1684.90852,37.1987382 1686.57413,41.0157729 1686.43533,45.5962145 L1686.36593,45.873817 L1677.27445,45.873817 C1677.27445,43.5835962 1676.30284,41.5015773 1674.35962,39.5583596 C1672.4164,37.7539432 1669.77918,36.851735 1666.58675,36.851735 C1663.11672,36.851735 1660.5489,37.615142 1658.95268,39.1419558 C1657.28707,40.5993691 1656.52366,42.4037855 1656.52366,44.6246057 C1656.52366,46.7066246 1657.28707,48.3722397 1658.74448,49.5520505 C1660.20189,50.7318612 1663.18612,51.8422713 1667.69716,52.7444795 C1674.35962,54.2018927 1679.35647,56.1451104 1682.6183,58.5741325 C1685.88013,61.0031546 1687.54574,64.3343849 1687.54574,68.4984227 C1687.54574,73.2176656 1685.60252,76.9652997 1681.78549,79.8801262 C1677.96845,82.7949527 1673.04101,84.2523659 1666.86435,84.2523659 C1660.13249,84.2523659 1654.71924,82.5173502 1650.90221,79.1861199 C1647.01577,75.7160883 1645.14196,71.6908517 1645.35016,67.1798107 L1645.41956,66.9022082 L1654.64984,66.9022082 C1654.85804,70.3722397 1656.10726,72.8012618 1658.46688,74.3974763 C1660.8265,75.9242902 1663.67192,76.7570978 1666.86435,76.7570978 C1670.33438,76.7570978 1672.97161,75.9936909 1674.91483,74.6750789 C1676.92744,73.3564669 1677.82965,71.6214511 1677.82965,69.3312303 L1677.82965,69.3312303 L1677.82965,69.3312303 Z M834.195584,40.2523659 L834.195584,49.9684543 L841.829653,49.9684543 L841.829653,55.5205047 L834.195584,55.5205047 L834.195584,80.4353312 C834.195584,82.3785489 834.611987,83.6971609 835.444795,84.5299685 C836.277603,85.362776 837.318612,85.7097792 838.706625,85.7097792 C839.123028,85.7097792 839.608833,85.6403785 840.164038,85.5709779 C840.719243,85.5015773 841.135647,85.362776 841.55205,85.2239748 L842.59306,90.3596215 C842.037855,90.8454259 841.205047,91.192429 840.094637,91.4700315 C838.984227,91.7476341 837.873817,91.8864353 836.763407,91.8864353 C833.640379,91.8864353 831.211356,90.9842271 829.337539,89.1104101 C827.533123,87.3059937 826.561514,84.3911672 826.561514,80.5047319 L826.561514,55.5205047 L820.315457,55.5205047 L820.315457,49.9684543 L826.561514,49.9684543 L826.561514,40.2523659 L834.195584,40.2523659 L834.195584,40.2523659 Z M859.179811,90.9148265 L851.545741,90.9148265 L851.545741,49.9684543 L859.179811,49.9684543 L859.179811,90.9148265 L859.179811,90.9148265 Z M859.179811,39.5583596 L851.545741,39.5583596 L851.545741,31.9242902 L859.179811,31.9242902 L859.179811,39.5583596 L859.179811,39.5583596 Z M880.694006,40.2523659 L880.694006,49.9684543 L888.328076,49.9684543 L888.328076,55.5205047 L880.694006,55.5205047 L880.694006,80.4353312 C880.694006,82.3785489 881.11041,83.6971609 881.943218,84.5299685 C882.776025,85.362776 883.817035,85.7097792 885.205047,85.7097792 C885.621451,85.7097792 886.107256,85.6403785 886.662461,85.5709779 C887.217666,85.5015773 887.634069,85.362776 888.050473,85.2239748 L889.091483,90.3596215 C888.536278,90.8454259 887.70347,91.192429 886.59306,91.4700315 C885.48265,91.7476341 884.37224,91.8864353 883.26183,91.8864353 C880.138801,91.8864353 877.709779,90.9842271 875.835962,89.1104101 C874.031546,87.3059937 873.059937,84.3911672 873.059937,80.5047319 L873.059937,55.5205047 L866.81388,55.5205047 L866.81388,49.9684543 L873.059937,49.9684543 L873.059937,40.2523659 L880.694006,40.2523659 L880.694006,40.2523659 Z M924.138801,84.8769716 C922.820189,87.0977918 921.223975,88.7634069 919.211356,89.9432177 C917.198738,91.1230284 914.839117,91.7476341 912.201893,91.7476341 C907.760252,91.7476341 904.290221,90.2902208 901.791798,87.444795 C899.293375,84.5993691 898.044164,80.1577287 898.044164,74.1198738 L898.044164,49.9684543 L904.984227,49.9684543 L904.984227,74.2586751 C904.984227,78.6309148 905.608833,81.615142 906.927445,83.2807571 C908.246057,84.9463722 910.258675,85.7791798 913.0347,85.7791798 C915.741325,85.7791798 917.962145,85.2239748 919.697161,84.1829653 C921.432177,83.1419558 922.750789,81.615142 923.652997,79.6025237 L923.652997,49.9684543 L931.287066,49.9684543 L931.287066,90.9148265 L924.624606,90.9148265 L924.138801,84.8769716 L924.138801,84.8769716 Z M952.176656,40.2523659 L952.176656,49.9684543 L959.810726,49.9684543 L959.810726,55.5205047 L952.176656,55.5205047 L952.176656,80.4353312 C952.176656,82.3785489 952.59306,83.6971609 953.425868,84.5299685 C954.258675,85.362776 955.299685,85.7097792 956.687697,85.7097792 C957.104101,85.7097792 957.589905,85.6403785 958.14511,85.5709779 C958.700315,85.5015773 959.116719,85.362776 959.533123,85.2239748 L960.574132,90.3596215 C960.018927,90.8454259 959.18612,91.192429 958.07571,91.4700315 C956.9653,91.7476341 955.85489,91.8864353 954.744479,91.8864353 C951.621451,91.8864353 949.192429,90.9842271 947.318612,89.1104101 C945.514196,87.3059937 944.542587,84.3911672 944.542587,80.5047319 L944.542587,55.5205047 L938.29653,55.5205047 L938.29653,49.9684543 L944.542587,49.9684543 L944.542587,40.2523659 L952.176656,40.2523659 L952.176656,40.2523659 Z M985.62776,91.7476341 C979.867508,91.7476341 975.287066,89.873817 971.886435,86.0567823 C968.485804,82.2397476 966.750789,77.3123028 966.750789,71.2050473 L966.750789,69.5394322 C966.750789,63.7097792 968.485804,58.851735 972.025237,54.9652997 C975.564669,51.0788644 979.659306,49.1356467 984.51735,49.1356467 C990.138801,49.1356467 994.302839,50.8012618 997.217666,54.1324921 C1000.13249,57.4637224 1001.5205,61.9053628 1001.5205,67.5268139 L1001.5205,72.1766562 L974.662461,72.1766562 L974.523659,72.384858 C974.59306,76.340694 975.634069,79.6025237 977.577287,82.1009464 C979.520505,84.6687697 982.227129,85.9179811 985.766562,85.9179811 C988.334385,85.9179811 990.555205,85.5709779 992.498423,84.807571 C994.44164,84.1135647 996.107256,83.0725552 997.495268,81.8233438 L1000.41009,86.681388 C998.952681,88.1388013 997.009464,89.318612 994.580442,90.2902208 C992.012618,91.2618297 989.097792,91.7476341 985.62776,91.7476341 L985.62776,91.7476341 L985.62776,91.7476341 Z M984.44795,55.3123028 C981.949527,55.3123028 979.798107,56.3533123 978.063091,58.5047319 C976.328076,60.6561514 975.217666,63.2933754 974.801262,66.4858044 L974.870662,66.6940063 L993.817035,66.6940063 L993.817035,65.7223975 C993.817035,62.807571 993.053628,60.3091483 991.457413,58.3659306 C989.861199,56.2839117 987.570978,55.3123028 984.44795,55.3123028 L984.44795,55.3123028 L984.44795,55.3123028 Z M1027.82334,70.3028391 C1027.82334,64.1955836 1029.48896,59.1987382 1032.75079,55.3123028 C1036.01262,51.3564669 1040.52366,49.4132492 1046.14511,49.4132492 C1051.83596,49.4132492 1056.347,51.3564669 1059.60883,55.3123028 C1062.94006,59.2681388 1064.53628,64.2649842 1064.53628,70.3722397 L1064.53628,71.2050473 C1064.53628,77.3123028 1062.87066,82.3091483 1059.60883,86.2649842 C1056.347,90.1514196 1051.83596,92.0946372 1046.14511,92.0946372 C1040.45426,92.0946372 1036.01262,90.1514196 1032.68139,86.1955836 C1029.35016,82.3091483 1027.75394,77.3123028 1027.75394,71.2050473 L1027.82334,70.3028391 L1027.82334,70.3028391 Z M1035.45741,71.1356467 C1035.45741,75.4384858 1036.35962,78.977918 1038.16404,81.7539432 C1039.96845,84.5299685 1042.67508,85.9179811 1046.21451,85.9179811 C1049.75394,85.9179811 1052.39117,84.5299685 1054.19558,81.7539432 C1056,78.977918 1056.90221,75.4384858 1056.90221,71.1356467 L1056.90221,70.3028391 C1056.90221,66.0694006 1056,62.5299685 1054.12618,59.6845426 C1052.25237,56.8391167 1049.61514,55.4511041 1046.07571,55.4511041 C1042.53628,55.4511041 1039.89905,56.8391167 1038.09464,59.6845426 C1036.29022,62.5299685 1035.38801,66 1035.38801,70.3028391 L1035.45741,71.1356467 L1035.45741,71.1356467 Z M1076.40379,90.9148265 L1076.40379,55.5205047 L1070.15773,55.5205047 L1070.15773,49.9684543 L1076.40379,49.9684543 L1076.40379,44.7634069 C1076.40379,40.3911672 1077.5836,36.9905363 1079.94322,34.6309148 C1082.30284,32.2712934 1085.56467,31.022082 1089.72871,31.022082 C1090.63091,31.022082 1091.46372,31.0914826 1092.36593,31.2302839 C1093.26814,31.3690852 1094.23975,31.5772871 1095.35016,31.785489 L1094.44795,37.4763407 C1093.96215,37.4069401 1093.40694,37.2681388 1092.78233,37.1987382 C1092.15773,37.1293375 1091.46372,37.0599369 1090.70032,37.0599369 C1088.4795,37.0599369 1086.81388,37.6845426 1085.77287,39.0031546 C1084.66246,40.3217666 1084.17666,42.1955836 1084.17666,44.6940063 L1084.17666,49.9684543 L1092.50473,49.9684543 L1092.50473,55.5205047 L1084.17666,55.5205047 L1084.17666,90.9148265 L1076.40379,90.9148265 L1076.40379,90.9148265 Z M1151.21767,77.0347003 L1127.48265,77.0347003 L1122.1388,91.6088328 L1114.78233,91.6088328 L1136.22713,36.0883281 L1142.68139,36.0883281 L1163.77918,91.6088328 L1156.42271,91.6088328 L1151.21767,77.0347003 L1151.21767,77.0347003 Z M1130.18927,70.7886435 L1148.64984,70.7886435 L1139.62776,45.8044164 L1139.41956,45.8044164 L1130.18927,70.7886435 L1130.18927,70.7886435 Z M1178.42271,90.9148265 L1170.78864,90.9148265 L1170.78864,31.9242902 L1178.42271,31.9242902 L1178.42271,90.9148265 L1178.42271,90.9148265 Z M1197.85489,90.9148265 L1190.22082,90.9148265 L1190.22082,31.9242902 L1197.85489,31.9242902 L1197.85489,90.9148265 L1197.85489,90.9148265 Z M1226.44795,91.7476341 C1220.6877,91.7476341 1216.10726,89.873817 1212.70662,86.0567823 C1209.30599,82.2397476 1207.57098,77.3123028 1207.57098,71.2050473 L1207.57098,69.5394322 C1207.57098,63.7097792 1209.30599,58.851735 1212.84543,54.9652997 C1216.38486,51.0788644 1220.4795,49.1356467 1225.33754,49.1356467 C1230.95899,49.1356467 1235.12303,50.8012618 1238.03785,54.1324921 C1240.95268,57.4637224 1242.34069,61.9053628 1242.34069,67.5268139 L1242.34069,72.1766562 L1215.48265,72.1766562 L1215.34385,72.384858 C1215.41325,76.340694 1216.45426,79.6025237 1218.39748,82.1009464 C1220.34069,84.6687697 1223.04732,85.9179811 1226.58675,85.9179811 C1229.15457,85.9179811 1231.37539,85.5709779 1233.31861,84.807571 C1235.26183,84.1135647 1236.92744,83.0725552 1238.31546,81.8233438 L1241.23028,86.681388 C1239.77287,88.1388013 1237.82965,89.318612 1235.40063,90.2902208 C1232.83281,91.2618297 1229.91798,91.7476341 1226.44795,91.7476341 L1226.44795,91.7476341 L1226.44795,91.7476341 Z M1225.26814,55.3123028 C1222.76972,55.3123028 1220.6183,56.3533123 1218.88328,58.5047319 C1217.14826,60.6561514 1216.03785,63.2933754 1215.62145,66.4858044 L1215.69085,66.6940063 L1234.63722,66.6940063 L1234.63722,65.7223975 C1234.63722,62.807571 1233.87382,60.3091483 1232.2776,58.3659306 C1230.68139,56.2839117 1228.39117,55.3123028 1225.26814,55.3123028 L1225.26814,55.3123028 L1225.26814,55.3123028 Z M1269.75394,56.5615142 L1265.86751,56.3533123 C1263.85489,56.3533123 1262.11987,56.8391167 1260.80126,57.7413249 C1259.41325,58.6435331 1258.37224,59.9621451 1257.60883,61.6971609 L1257.60883,90.9148265 L1249.97476,90.9148265 L1249.97476,49.9684543 L1256.77603,49.9684543 L1257.53943,55.9369085 C1258.71924,53.785489 1260.17666,52.1892744 1261.91167,51.0094637 C1263.64669,49.829653 1265.65931,49.2050473 1267.94953,49.2050473 C1268.50473,49.2050473 1269.05994,49.2744479 1269.54574,49.3438486 C1270.03155,49.4132492 1270.51735,49.5520505 1270.79495,49.6214511 L1269.75394,56.5615142 L1269.75394,56.5615142 Z M1274.88959,71.2744479 C1274.88959,64.681388 1276.347,59.3375394 1279.26183,55.3123028 C1282.17666,51.2870662 1286.20189,49.2050473 1291.33754,49.2050473 C1293.97476,49.2050473 1296.26498,49.7602524 1298.2776,50.8012618 C1300.29022,51.8422713 1301.95584,53.3690852 1303.27445,55.3123028 L1304.17666,49.9684543 L1310.28391,49.9684543 L1310.28391,91.2618297 C1310.28391,96.5362776 1308.6877,100.561514 1305.56467,103.40694 C1302.44164,106.252366 1297.9306,107.640379 1292.03155,107.640379 C1290.01893,107.640379 1287.86751,107.362776 1285.50789,106.807571 C1283.14826,106.252366 1281.13565,105.488959 1279.33123,104.586751 L1281.27445,98.7570978 C1282.66246,99.5205047 1284.32808,100.14511 1286.20189,100.630915 C1288.07571,101.116719 1290.01893,101.324921 1291.96215,101.324921 C1295.70978,101.324921 1298.4164,100.492114 1300.08202,98.8264984 C1301.74763,97.1608833 1302.64984,94.6624606 1302.64984,91.2618297 L1302.64984,86.6119874 C1301.26183,88.3470032 1299.66562,89.5962145 1297.7918,90.4984227 C1295.91798,91.4006309 1293.69716,91.8170347 1291.26814,91.8170347 C1286.20189,91.8170347 1282.17666,90.0126183 1279.26183,86.3343849 C1276.347,82.6561514 1274.88959,77.9369085 1274.88959,72.0378549 L1274.88959,71.2744479 L1274.88959,71.2744479 Z M1282.52366,72.2460568 C1282.52366,76.4100946 1283.42587,79.7413249 1285.16088,82.2397476 C1286.8959,84.7381703 1289.60252,85.9873817 1293.21136,85.9873817 C1295.50158,85.9873817 1297.37539,85.5015773 1298.90221,84.4605678 C1300.42902,83.4195584 1301.67823,81.9621451 1302.64984,80.0883281 L1302.64984,61.1419558 C1301.67823,59.4069401 1300.42902,58.0189274 1298.90221,56.977918 C1297.37539,55.9369085 1295.50158,55.4511041 1293.28076,55.4511041 C1289.67192,55.4511041 1287.0347,56.977918 1285.23028,59.9621451 C1283.42587,62.9463722 1282.52366,66.8328076 1282.52366,71.5520505 L1282.52366,72.2460568 L1282.52366,72.2460568 Z M1333.60252,75.9936909 L1334.92114,81.1987382 L1335.12934,81.1987382 L1345.33123,49.9684543 L1353.72871,49.9684543 L1336.30915,97.6466877 C1335.26814,100.422713 1333.74132,102.851735 1331.79811,104.933754 C1329.85489,107.015773 1327.21767,108.056782 1323.88644,108.056782 C1323.26183,108.056782 1322.49842,107.987382 1321.52681,107.84858 C1320.55521,107.709779 1319.8612,107.570978 1319.37539,107.432177 L1320.1388,101.533123 C1320,101.533123 1320.4164,101.533123 1321.52681,101.602524 C1322.56782,101.671924 1323.26183,101.741325 1323.53943,101.741325 C1325.13565,101.741325 1326.45426,101.047319 1327.49527,99.5899054 C1328.53628,98.1324921 1329.36909,96.6056782 1330.06309,94.8706625 L1331.86751,90.5678233 L1316.46057,49.9684543 L1324.85804,49.9684543 L1333.60252,75.9936909 L1333.60252,75.9936909 Z M428.410095,193.62776 C428.132492,192.378549 427.92429,191.268139 427.785489,190.29653 C427.646688,189.324921 427.577287,188.353312 427.507886,187.381703 C426.119874,189.394322 424.246057,191.059937 422.025237,192.378549 C419.735016,193.697161 417.305994,194.391167 414.73817,194.391167 C410.435331,194.391167 407.104101,193.280757 404.883281,191.059937 C402.59306,188.839117 401.48265,185.785489 401.48265,181.899054 C401.48265,177.943218 403.078864,174.820189 406.271293,172.599369 C409.463722,170.378549 413.835962,169.268139 419.318612,169.268139 L427.507886,169.268139 L427.507886,165.242902 C427.507886,162.883281 426.744479,161.009464 425.287066,159.621451 C423.760252,158.233438 421.678233,157.539432 418.902208,157.539432 C416.473186,157.539432 414.460568,158.164038 412.933754,159.343849 C411.40694,160.523659 410.643533,161.981073 410.643533,163.716088 L403.356467,163.716088 L403.287066,163.507886 C403.148265,160.523659 404.605678,157.886435 407.589905,155.388013 C410.574132,152.88959 414.529968,151.709779 419.318612,151.709779 C424.037855,151.709779 427.92429,152.88959 430.769716,155.249211 C433.684543,157.608833 435.141956,160.940063 435.141956,165.381703 L435.141956,185.299685 C435.141956,186.757098 435.211356,188.214511 435.350158,189.602524 C435.488959,190.990536 435.766562,192.309148 436.182965,193.697161 L428.410095,193.697161 L428.410095,193.62776 L428.410095,193.62776 Z M415.917981,187.728707 C418.624606,187.728707 421.053628,187.0347 423.274448,185.646688 C425.495268,184.258675 426.883281,182.662461 427.507886,180.858044 L427.507886,174.195584 L419.11041,174.195584 C416.126183,174.195584 413.697161,174.958991 411.892744,176.485804 C410.088328,178.012618 409.18612,179.817035 409.18612,181.829653 C409.18612,183.634069 409.741325,185.091483 410.921136,186.132492 C412.100946,187.173502 413.697161,187.728707 415.917981,187.728707 L415.917981,187.728707 L415.917981,187.728707 Z M452.214511,151.987382 L452.769716,158.094637 C454.157729,155.943218 455.823344,154.208202 457.905363,153.028391 C459.987382,151.84858 462.347003,151.223975 464.914826,151.223975 C469.356467,151.223975 472.757098,152.542587 475.18612,155.11041 C477.615142,157.678233 478.794953,161.70347 478.794953,167.116719 L478.794953,192.933754 L471.160883,192.933754 L471.160883,167.18612 C471.160883,163.577287 470.466877,161.009464 469.078864,159.48265 C467.690852,157.955836 465.539432,157.192429 462.624606,157.192429 C460.542587,157.192429 458.66877,157.678233 457.003155,158.719243 C455.40694,159.760252 454.088328,161.148265 453.116719,162.952681 L453.116719,192.933754 L445.48265,192.933754 L445.48265,151.987382 L452.214511,151.987382 L452.214511,151.987382 Z M488.580442,173.154574 C488.580442,166.561514 489.968454,161.217666 492.81388,157.192429 C495.589905,153.167192 499.545741,151.085174 504.611987,151.085174 C506.971609,151.085174 509.123028,151.501577 510.996845,152.403785 C512.870662,153.305994 514.397476,154.555205 515.716088,156.290221 L515.716088,133.943218 L523.350158,133.943218 L523.350158,192.933754 L517.104101,192.933754 L516.271293,187.867508 C514.952681,189.810726 513.287066,191.268139 511.343849,192.239748 C509.400631,193.211356 507.179811,193.697161 504.611987,193.697161 C499.615142,193.697161 495.728707,191.892744 492.952681,188.283912 C490.107256,184.675079 488.719243,179.886435 488.719243,173.987382 L488.719243,173.154574 L488.580442,173.154574 L488.580442,173.154574 Z M496.214511,174.264984 C496.214511,178.359621 497.047319,181.621451 498.712934,184.050473 C500.378549,186.479495 502.946372,187.728707 506.485804,187.728707 C508.706625,187.728707 510.511041,187.242902 512.037855,186.271293 C513.495268,185.299685 514.744479,183.911672 515.716088,182.107256 L515.716088,163.299685 C514.744479,161.634069 513.564669,160.315457 512.037855,159.343849 C510.511041,158.37224 508.706625,157.886435 506.624606,157.886435 C503.085174,157.886435 500.51735,159.343849 498.782334,162.258675 C497.116719,165.173502 496.283912,168.921136 496.283912,173.570978 L496.283912,174.264984 L496.214511,174.264984 L496.214511,174.264984 Z M562.839117,193.62776 L555.205047,193.62776 L555.205047,138.107256 L562.839117,138.107256 L562.839117,193.62776 L562.839117,193.62776 Z M581.993691,151.987382 L582.548896,158.094637 C583.936909,155.943218 585.602524,154.208202 587.684543,153.028391 C589.766562,151.84858 592.126183,151.223975 594.694006,151.223975 C599.135647,151.223975 602.536278,152.542587 604.9653,155.11041 C607.394322,157.678233 608.574132,161.70347 608.574132,167.116719 L608.574132,192.933754 L600.940063,192.933754 L600.940063,167.18612 C600.940063,163.577287 600.246057,161.009464 598.858044,159.48265 C597.470032,157.955836 595.318612,157.192429 592.403785,157.192429 C590.321767,157.192429 588.44795,157.678233 586.782334,158.719243 C585.18612,159.760252 583.867508,161.148265 582.895899,162.952681 L582.895899,192.933754 L575.26183,192.933754 L575.26183,151.987382 L581.993691,151.987382 L581.993691,151.987382 Z M622.523659,192.933754 L622.523659,157.539432 L616.277603,157.539432 L616.277603,151.987382 L622.523659,151.987382 L622.523659,146.782334 C622.523659,142.410095 623.70347,139.009464 626.063091,136.649842 C628.422713,134.290221 631.684543,133.041009 635.84858,133.041009 C636.750789,133.041009 637.583596,133.11041 638.485804,133.249211 C639.388013,133.388013 640.359621,133.596215 641.470032,133.804416 L640.567823,139.495268 C640.082019,139.425868 639.526814,139.287066 638.902208,139.217666 C638.277603,139.148265 637.583596,139.078864 636.820189,139.078864 C634.599369,139.078864 632.933754,139.70347 631.892744,141.022082 C630.782334,142.340694 630.29653,144.214511 630.29653,146.712934 L630.29653,151.917981 L638.624606,151.917981 L638.624606,157.470032 L630.29653,157.470032 L630.29653,192.864353 L622.523659,192.933754 L622.523659,192.933754 Z M663.608833,193.766562 C657.84858,193.766562 653.268139,191.892744 649.867508,188.07571 C646.466877,184.258675 644.731861,179.33123 644.731861,173.223975 L644.731861,171.55836 C644.731861,165.728707 646.466877,160.870662 650.006309,156.984227 C653.545741,153.097792 657.640379,151.154574 662.498423,151.154574 C668.119874,151.154574 672.283912,152.820189 675.198738,156.15142 C678.044164,159.48265 679.501577,163.92429 679.501577,169.545741 L679.501577,174.195584 L652.643533,174.195584 L652.504732,174.403785 C652.574132,178.359621 653.615142,181.621451 655.55836,184.119874 C657.501577,186.687697 660.208202,187.936909 663.747634,187.936909 C666.315457,187.936909 668.536278,187.589905 670.479495,186.826498 C672.422713,186.132492 674.088328,185.091483 675.476341,183.842271 L678.391167,188.700315 C676.933754,190.157729 674.990536,191.337539 672.561514,192.309148 C670.132492,193.280757 667.078864,193.766562 663.608833,193.766562 L663.608833,193.766562 L663.608833,193.766562 Z M662.429022,157.33123 C659.930599,157.33123 657.77918,158.37224 656.044164,160.523659 C654.239748,162.605678 653.198738,165.312303 652.782334,168.504732 L652.851735,168.712934 L671.798107,168.712934 L671.798107,167.741325 C671.798107,164.826498 671.0347,162.328076 669.438486,160.384858 C667.842271,158.44164 665.55205,157.33123 662.429022,157.33123 L662.429022,157.33123 L662.429022,157.33123 Z M704.416404,188.353312 C706.914826,188.353312 709.135647,187.589905 711.078864,186.063091 C713.022082,184.536278 713.92429,182.662461 713.92429,180.44164 L720.725552,180.44164 L720.794953,180.649842 C720.933754,184.189274 719.337539,187.312303 716.006309,190.018927 C712.675079,192.725552 708.788644,194.113565 704.347003,194.113565 C698.309148,194.113565 693.659306,192.170347 690.397476,188.283912 C687.205047,184.397476 685.608833,179.539432 685.608833,173.640379 L685.608833,172.113565 C685.608833,166.283912 687.205047,161.425868 690.466877,157.539432 C693.659306,153.652997 698.309148,151.709779 704.347003,151.709779 C709.205047,151.709779 713.230284,153.097792 716.353312,155.943218 C719.476341,158.788644 720.933754,162.258675 720.864353,166.353312 L720.794953,166.561514 L713.92429,166.561514 C713.92429,164.063091 713.022082,161.911672 711.217666,160.176656 C709.413249,158.44164 707.123028,157.539432 704.416404,157.539432 C700.460568,157.539432 697.615142,158.927445 695.880126,161.772871 C694.14511,164.618297 693.312303,168.018927 693.312303,172.113565 L693.312303,173.709779 C693.312303,177.873817 694.14511,181.413249 695.880126,184.189274 C697.545741,186.9653 700.391167,188.353312 704.416404,188.353312 L704.416404,188.353312 L704.416404,188.353312 Z M738.422713,142.271293 L738.422713,151.987382 L746.056782,151.987382 L746.056782,157.539432 L738.422713,157.539432 L738.422713,182.454259 C738.422713,184.397476 738.839117,185.716088 739.671924,186.548896 C740.504732,187.381703 741.545741,187.728707 742.933754,187.728707 C743.350158,187.728707 743.835962,187.659306 744.391167,187.589905 C744.946372,187.520505 745.362776,187.381703 745.77918,187.242902 L746.820189,192.378549 C746.264984,192.864353 745.432177,193.211356 744.321767,193.488959 C743.211356,193.766562 742.100946,193.905363 740.990536,193.905363 C737.867508,193.905363 735.438486,193.003155 733.564669,191.129338 C731.760252,189.324921 730.788644,186.410095 730.788644,182.523659 L730.788644,157.539432 L724.542587,157.539432 L724.542587,151.987382 L730.788644,151.987382 L730.788644,142.271293 L738.422713,142.271293 L738.422713,142.271293 Z M764.100946,192.933754 L756.466877,192.933754 L756.466877,151.987382 L764.100946,151.987382 L764.100946,192.933754 L764.100946,192.933754 Z M764.100946,141.577287 L756.466877,141.577287 L756.466877,133.943218 L764.100946,133.943218 L764.100946,141.577287 L764.100946,141.577287 Z M773.817035,172.321767 C773.817035,166.214511 775.48265,161.217666 778.744479,157.33123 C782.006309,153.375394 786.51735,151.432177 792.138801,151.432177 C797.829653,151.432177 802.340694,153.375394 805.602524,157.33123 C808.933754,161.287066 810.529968,166.283912 810.529968,172.391167 L810.529968,173.223975 C810.529968,179.33123 808.864353,184.328076 805.602524,188.283912 C802.340694,192.170347 797.829653,194.113565 792.138801,194.113565 C786.44795,194.113565 782.006309,192.170347 778.675079,188.214511 C775.343849,184.328076 773.747634,179.33123 773.747634,173.223975 L773.817035,172.321767 L773.817035,172.321767 Z M781.451104,173.154574 C781.451104,177.457413 782.353312,180.996845 784.157729,183.772871 C785.962145,186.548896 788.66877,187.936909 792.208202,187.936909 C795.747634,187.936909 798.384858,186.548896 800.189274,183.772871 C801.993691,180.996845 802.895899,177.457413 802.895899,173.154574 L802.895899,172.321767 C802.895899,168.088328 801.993691,164.548896 800.119874,161.70347 C798.315457,158.858044 795.608833,157.470032 792.069401,157.470032 C788.529968,157.470032 785.892744,158.858044 784.088328,161.70347 C782.283912,164.548896 781.381703,168.018927 781.381703,172.321767 L781.451104,173.154574 L781.451104,173.154574 Z M845.716088,186.895899 C844.397476,189.116719 842.801262,190.782334 840.788644,191.962145 C838.776025,193.141956 836.416404,193.766562 833.77918,193.766562 C829.337539,193.766562 825.867508,192.309148 823.369085,189.463722 C820.870662,186.618297 819.621451,182.176656 819.621451,176.138801 L819.621451,151.987382 L826.561514,151.987382 L826.561514,176.277603 C826.561514,180.649842 827.18612,183.634069 828.504732,185.299685 C829.823344,186.9653 831.835962,187.798107 834.611987,187.798107 C837.318612,187.798107 839.539432,187.242902 841.274448,186.201893 C843.009464,185.160883 844.328076,183.634069 845.230284,181.621451 L845.230284,151.987382 L852.864353,151.987382 L852.864353,192.933754 L846.201893,192.933754 L845.716088,186.895899 L845.716088,186.895899 Z M887.356467,182.246057 C887.356467,180.649842 886.731861,179.33123 885.48265,178.22082 C884.233438,177.179811 881.943218,176.277603 878.473186,175.514196 C873.545741,174.473186 869.867508,173.015773 867.438486,171.141956 C864.940063,169.337539 863.760252,166.839117 863.760252,163.646688 C863.760252,160.384858 865.148265,157.539432 867.92429,155.249211 C870.700315,152.958991 874.309148,151.77918 878.820189,151.77918 C883.539432,151.77918 887.287066,152.958991 889.993691,155.388013 C892.769716,157.817035 894.088328,160.731861 893.949527,164.201893 L893.880126,164.410095 L886.870662,164.410095 C886.870662,162.675079 886.107256,161.078864 884.649842,159.621451 C883.192429,158.233438 881.179811,157.539432 878.750789,157.539432 C876.113565,157.539432 874.170347,158.094637 872.921136,159.274448 C871.671924,160.384858 871.047319,161.772871 871.047319,163.438486 C871.047319,165.0347 871.602524,166.283912 872.712934,167.18612 C873.823344,168.088328 876.113565,168.921136 879.514196,169.615142 C884.580442,170.725552 888.397476,172.182965 890.895899,174.056782 C893.394322,175.930599 894.643533,178.429022 894.643533,181.621451 C894.643533,185.230284 893.18612,188.07571 890.271293,190.29653 C887.356467,192.51735 883.608833,193.62776 878.88959,193.62776 C873.753943,193.62776 869.659306,192.309148 866.744479,189.741325 C863.760252,187.104101 862.37224,184.050473 862.511041,180.580442 L862.580442,180.37224 L869.589905,180.37224 C869.728707,183.009464 870.700315,184.883281 872.504732,186.063091 C874.309148,187.242902 876.460568,187.867508 878.88959,187.867508 C881.526814,187.867508 883.539432,187.312303 884.996845,186.271293 C886.59306,185.299685 887.356467,183.981073 887.356467,182.246057 L887.356467,182.246057 L887.356467,182.246057 Z M925.11041,193.62776 L925.11041,138.107256 L942.044164,138.107256 C949.26183,138.107256 955.091483,140.328076 959.463722,144.769716 C963.835962,149.211356 966.056782,154.971609 966.056782,162.050473 L966.056782,169.615142 C966.056782,176.694006 963.835962,182.454259 959.463722,186.895899 C955.091483,191.337539 949.26183,193.55836 942.044164,193.55836 L925.11041,193.55836 L925.11041,193.62776 Z M932.744479,143.659306 L932.744479,187.381703 L942.113565,187.381703 C947.179811,187.381703 951.135647,185.716088 954.050473,182.315457 C956.9653,178.914826 958.422713,174.611987 958.422713,169.337539 L958.422713,161.70347 C958.422713,156.498423 956.9653,152.195584 954.050473,148.794953 C951.135647,145.394322 947.179811,143.728707 942.113565,143.728707 L932.744479,143.728707 L932.744479,143.659306 Z M982.712934,192.933754 L975.078864,192.933754 L975.078864,151.987382 L982.712934,151.987382 L982.712934,192.933754 L982.712934,192.933754 Z M982.712934,141.577287 L975.078864,141.577287 L975.078864,133.943218 L982.712934,133.943218 L982.712934,141.577287 L982.712934,141.577287 Z M1018.10726,182.246057 C1018.10726,180.649842 1017.48265,179.33123 1016.23344,178.22082 C1014.98423,177.179811 1012.69401,176.277603 1009.22397,175.514196 C1004.29653,174.473186 1000.6183,173.015773 998.189274,171.141956 C995.690852,169.337539 994.511041,166.839117 994.511041,163.646688 C994.511041,160.384858 995.899054,157.539432 998.675079,155.249211 C1001.4511,152.958991 1005.05994,151.77918 1009.57098,151.77918 C1014.29022,151.77918 1018.03785,152.958991 1020.74448,155.388013 C1023.5205,157.817035 1024.83912,160.731861 1024.70032,164.201893 L1024.63091,164.410095 L1017.62145,164.410095 C1017.62145,162.675079 1016.85804,161.078864 1015.40063,159.621451 C1013.94322,158.233438 1011.9306,157.539432 1009.50158,157.539432 C1006.86435,157.539432 1004.92114,158.094637 1003.67192,159.274448 C1002.42271,160.384858 1001.79811,161.772871 1001.79811,163.438486 C1001.79811,165.0347 1002.35331,166.283912 1003.46372,167.18612 C1004.57413,168.088328 1006.86435,168.921136 1010.26498,169.615142 C1015.33123,170.725552 1019.14826,172.182965 1021.64669,174.056782 C1024.14511,175.930599 1025.39432,178.429022 1025.39432,181.621451 C1025.39432,185.230284 1023.93691,188.07571 1021.02208,190.29653 C1018.10726,192.51735 1014.35962,193.62776 1009.64038,193.62776 C1004.50473,193.62776 1000.41009,192.309148 997.495268,189.741325 C994.511041,187.104101 993.123028,184.050473 993.26183,180.580442 L993.33123,180.37224 L1000.34069,180.37224 C1000.4795,183.009464 1001.4511,184.883281 1003.25552,186.063091 C1005.05994,187.242902 1007.21136,187.867508 1009.64038,187.867508 C1012.2776,187.867508 1014.29022,187.312303 1015.74763,186.271293 C1017.34385,185.299685 1018.10726,183.981073 1018.10726,182.246057 L1018.10726,182.246057 L1018.10726,182.246057 Z M1052.25237,193.766562 C1046.49211,193.766562 1041.91167,191.892744 1038.51104,188.07571 C1035.11041,184.258675 1033.37539,179.33123 1033.37539,173.223975 L1033.37539,171.55836 C1033.37539,165.728707 1035.11041,160.870662 1038.64984,156.984227 C1042.18927,153.097792 1046.28391,151.154574 1051.14196,151.154574 C1056.76341,151.154574 1060.92744,152.820189 1063.84227,156.15142 C1066.7571,159.48265 1068.14511,163.92429 1068.14511,169.545741 L1068.14511,174.195584 L1041.28707,174.195584 L1041.14826,174.403785 C1041.21767,178.359621 1042.25868,181.621451 1044.20189,184.119874 C1046.14511,186.687697 1048.85174,187.936909 1052.39117,187.936909 C1054.95899,187.936909 1057.17981,187.589905 1059.12303,186.826498 C1061.06625,186.132492 1062.73186,185.091483 1064.11987,183.842271 L1067.0347,188.700315 C1065.57729,190.157729 1063.63407,191.337539 1061.20505,192.309148 C1058.63722,193.280757 1055.7224,193.766562 1052.25237,193.766562 L1052.25237,193.766562 L1052.25237,193.766562 Z M1051.07256,157.33123 C1048.57413,157.33123 1046.42271,158.37224 1044.6877,160.523659 C1042.95268,162.675079 1041.84227,165.312303 1041.42587,168.504732 L1041.49527,168.712934 L1060.44164,168.712934 L1060.44164,167.741325 C1060.44164,164.826498 1059.67823,162.328076 1058.08202,160.384858 C1056.4858,158.302839 1054.19558,157.33123 1051.07256,157.33123 L1051.07256,157.33123 L1051.07256,157.33123 Z M1101.59621,193.62776 C1101.31861,192.378549 1101.11041,191.268139 1100.97161,190.29653 C1100.83281,189.324921 1100.76341,188.353312 1100.69401,187.381703 C1099.30599,189.394322 1097.43218,191.059937 1095.21136,192.378549 C1092.92114,193.697161 1090.49211,194.391167 1087.92429,194.391167 C1083.62145,194.391167 1080.29022,193.280757 1078.0694,191.059937 C1075.84858,188.839117 1074.66877,185.785489 1074.66877,181.899054 C1074.66877,177.943218 1076.26498,174.820189 1079.45741,172.599369 C1082.64984,170.378549 1087.02208,169.268139 1092.50473,169.268139 L1100.62461,169.268139 L1100.62461,165.242902 C1100.62461,162.883281 1099.8612,161.009464 1098.40379,159.621451 C1096.87697,158.233438 1094.79495,157.539432 1092.01893,157.539432 C1089.58991,157.539432 1087.57729,158.164038 1086.05047,159.343849 C1084.52366,160.523659 1083.76025,161.981073 1083.76025,163.716088 L1076.47319,163.716088 L1076.40379,163.507886 C1076.26498,160.523659 1077.7224,157.886435 1080.70662,155.388013 C1083.76025,152.958991 1087.64669,151.709779 1092.43533,151.709779 C1097.15457,151.709779 1101.04101,152.88959 1103.88644,155.249211 C1106.80126,157.608833 1108.25868,160.940063 1108.25868,165.381703 L1108.25868,185.299685 C1108.25868,186.757098 1108.32808,188.214511 1108.46688,189.602524 C1108.60568,190.990536 1108.88328,192.309148 1109.29968,193.697161 L1101.59621,193.697161 L1101.59621,193.62776 Z M1089.1041,187.728707 C1091.81073,187.728707 1094.23975,187.0347 1096.46057,185.646688 C1098.61199,184.258675 1100.0694,182.662461 1100.69401,180.858044 L1100.69401,174.195584 L1092.29653,174.195584 C1089.3123,174.195584 1086.88328,174.958991 1085.07886,176.485804 C1083.27445,178.012618 1082.37224,179.817035 1082.37224,181.829653 C1082.37224,183.634069 1082.92744,185.091483 1084.10726,186.132492 C1085.28707,187.173502 1086.88328,187.728707 1089.1041,187.728707 L1089.1041,187.728707 L1089.1041,187.728707 Z M1142.54259,182.246057 C1142.54259,180.649842 1141.91798,179.33123 1140.66877,178.22082 C1139.41956,177.179811 1137.12934,176.277603 1133.65931,175.514196 C1128.73186,174.473186 1125.05363,173.015773 1122.62461,171.141956 C1120.12618,169.337539 1118.94637,166.839117 1118.94637,163.646688 C1118.94637,160.384858 1120.33438,157.539432 1123.11041,155.249211 C1125.88644,152.958991 1129.49527,151.77918 1134.00631,151.77918 C1138.72555,151.77918 1142.47319,152.958991 1145.17981,155.388013 C1147.95584,157.817035 1149.27445,160.731861 1149.13565,164.201893 L1149.06625,164.410095 L1142.05678,164.410095 C1142.05678,162.675079 1141.29338,161.078864 1139.83596,159.621451 C1138.37855,158.233438 1136.36593,157.539432 1133.93691,157.539432 C1131.29968,157.539432 1129.35647,158.094637 1128.10726,159.274448 C1126.85804,160.384858 1126.23344,161.772871 1126.23344,163.438486 C1126.23344,165.0347 1126.78864,166.283912 1127.89905,167.18612 C1129.00946,168.088328 1131.29968,168.921136 1134.70032,169.615142 C1139.76656,170.725552 1143.5836,172.182965 1146.08202,174.056782 C1148.58044,175.930599 1149.82965,178.429022 1149.82965,181.621451 C1149.82965,185.230284 1148.37224,188.07571 1145.45741,190.29653 C1142.54259,192.51735 1138.79495,193.62776 1134.07571,193.62776 C1128.94006,193.62776 1124.84543,192.309148 1121.9306,189.741325 C1118.94637,187.104101 1117.55836,184.050473 1117.69716,180.580442 L1117.76656,180.37224 L1124.77603,180.37224 C1124.91483,183.009464 1125.88644,184.883281 1127.69085,186.063091 C1129.49527,187.242902 1131.64669,187.867508 1134.07571,187.867508 C1136.71293,187.867508 1138.72555,187.312303 1140.18297,186.271293 C1141.84858,185.299685 1142.54259,183.981073 1142.54259,182.246057 L1142.54259,182.246057 L1142.54259,182.246057 Z M1176.4795,193.766562 C1170.71924,193.766562 1166.1388,191.892744 1162.73817,188.07571 C1159.33754,184.258675 1157.60252,179.33123 1157.60252,173.223975 L1157.60252,171.55836 C1157.60252,165.728707 1159.33754,160.870662 1162.87697,156.984227 C1166.4164,153.097792 1170.51104,151.154574 1175.36909,151.154574 C1180.99054,151.154574 1185.15457,152.820189 1188.0694,156.15142 C1190.98423,159.48265 1192.37224,163.92429 1192.37224,169.545741 L1192.37224,174.195584 L1165.5142,174.195584 L1165.37539,174.403785 C1165.44479,178.359621 1166.4858,181.621451 1168.42902,184.119874 C1170.37224,186.687697 1173.07886,187.936909 1176.6183,187.936909 C1179.18612,187.936909 1181.40694,187.589905 1183.35016,186.826498 C1185.29338,186.132492 1186.95899,185.091483 1188.347,183.842271 L1191.26183,188.700315 C1189.80442,190.157729 1187.8612,191.337539 1185.43218,192.309148 C1182.86435,193.280757 1179.94953,193.766562 1176.4795,193.766562 L1176.4795,193.766562 L1176.4795,193.766562 Z M1175.29968,157.33123 C1172.80126,157.33123 1170.64984,158.37224 1168.91483,160.523659 C1167.17981,162.675079 1166.0694,165.312303 1165.653,168.504732 L1165.7224,168.712934 L1184.66877,168.712934 L1184.66877,167.741325 C1184.66877,164.826498 1183.90536,162.328076 1182.30915,160.384858 C1180.71293,158.302839 1178.42271,157.33123 1175.29968,157.33123 L1175.29968,157.33123 L1175.29968,157.33123 Z M1224.29653,182.246057 C1224.29653,180.649842 1223.67192,179.33123 1222.42271,178.22082 C1221.1735,177.179811 1218.88328,176.277603 1215.41325,175.514196 C1210.4858,174.473186 1206.80757,173.015773 1204.37855,171.141956 C1201.88013,169.337539 1200.70032,166.839117 1200.70032,163.646688 C1200.70032,160.384858 1202.08833,157.539432 1204.86435,155.249211 C1207.64038,152.958991 1211.24921,151.77918 1215.76025,151.77918 C1220.4795,151.77918 1224.22713,152.958991 1226.93375,155.388013 C1229.70978,157.817035 1231.02839,160.731861 1230.88959,164.201893 L1230.82019,164.410095 L1223.81073,164.410095 C1223.81073,162.675079 1223.04732,161.078864 1221.58991,159.621451 C1220.13249,158.233438 1218.11987,157.539432 1215.69085,157.539432 C1213.05363,157.539432 1211.11041,158.094637 1209.8612,159.274448 C1208.61199,160.384858 1207.98738,161.772871 1207.98738,163.438486 C1207.98738,165.0347 1208.54259,166.283912 1209.653,167.18612 C1210.76341,168.088328 1213.05363,168.921136 1216.45426,169.615142 C1221.5205,170.725552 1225.33754,172.182965 1227.83596,174.056782 C1230.33438,175.930599 1231.5836,178.429022 1231.5836,181.621451 C1231.5836,185.230284 1230.12618,188.07571 1227.21136,190.29653 C1224.29653,192.51735 1220.5489,193.62776 1215.82965,193.62776 C1210.69401,193.62776 1206.59937,192.309148 1203.68454,189.741325 C1200.70032,187.104101 1199.3123,184.050473 1199.4511,180.580442 L1199.5205,180.37224 L1206.52997,180.37224 C1206.66877,183.009464 1207.64038,184.883281 1209.44479,186.063091 C1211.24921,187.242902 1213.40063,187.867508 1215.82965,187.867508 C1218.46688,187.867508 1220.4795,187.312303 1221.93691,186.271293 C1223.60252,185.299685 1224.29653,183.981073 1224.29653,182.246057 L1224.29653,182.246057 L1224.29653,182.246057 Z" id="National-Institute-o" fill="#FFFFFF"></path>
                        <g id="Group-2">
                            <path d="M258.864353,0 L282.946372,0 C282.946372,0 286.902208,1.87381703 290.025237,4.23343849 C293.148265,6.59305994 294.466877,9.71608833 294.466877,9.71608833 L349.223975,107.77918 C349.223975,107.77918 297.659306,201.192429 294.744479,206.119874 C291.899054,211.047319 293.425868,208.410095 290.025237,212.643533 C286.555205,216.807571 278.851735,217.987382 278.851735,217.987382 L258.239748,217.77918 L318.757098,108.126183 L258.864353,0 L258.864353,0 Z" id="Path_1_" fill="#326297"></path>
                            <path d="M245.33123,2.29022082 L245.33123,1.04100946 L152.334385,1.04100946 L25.3312303,1.04100946 C11.5205047,1.04100946 0.347003155,12.214511 0.347003155,26.0252366 L0.347003155,194.66877 C0.347003155,208.479495 11.5205047,219.652997 25.3312303,219.652997 L152.334385,219.652997 L245.33123,219.652997 L245.33123,218.542587 L246.025237,218.611987 L305.154574,109.236593 L245.886435,2.08201893 L245.33123,2.29022082 Z" id="Combined-Shape" stroke="#65666A" fill="#65666A"></path>
                        </g>
                    </g>
                    <path d="M1410.22082,26.7192429 C1410.22082,83.9747634 1410.22082,141.577287 1410.22082,199.457413" id="Shapefdg" stroke="#FFFFFF" stroke-width="3.375"></path>
                </g>
                <g id="Group" transform="translate(36.088328, 59.684543)" fill-rule="nonzero" fill="#FFFFFF">
                    <polygon id="Path-2" points="0.347003155 97.8548896 17.3501577 97.8548896 17.9053628 26.5804416 61.5583596 98.5488959 80.5047319 98.5488959 79.8107256 0.694006309 63.8485804 0.624605678 63.4321767 72.1072555 19.2239748 1.31861199 0.694006309 0.694006309"></polygon>
                    <polygon id="Path-4" points="97.1608833 0.694006309 113.817035 0.902208202 113.817035 98.5488959 97.1608833 98.5488959"></polygon>
                    <polygon id="Path-5" points="130.473186 0.694006309 147.823344 0.694006309 147.615142 39.5583596 192.239748 39.7665615 191.962145 1.38801262 209.589905 1.38801262 209.589905 98.5488959 192.239748 98.5488959 192.239748 55.5205047 147.823344 55.5205047 148.031546 98.5488959 130.473186 98.5488959"></polygon>
                </g>
            </g>
        </g>
    </g>
</svg>