<?xml version="1.0" encoding="iso-8859-1"?>
<!-- Generator: Adobe Illustrator 16.0.0, SVG Export Plug-In . SVG Version: 6.00 Build 0)  -->
<!DOCTYPE svg PUBLIC "-//W3C//DTD SVG 1.1//EN" "http://www.w3.org/Graphics/SVG/1.1/DTD/svg11.dtd">
<svg version="1.1" id="Capa_1" xmlns="http://www.w3.org/2000/svg" xmlns:xlink="http://www.w3.org/1999/xlink" x="0px" y="0px"
	 width="49.999px" height="49.999px" viewBox="0 0 49.999 49.999" style="enable-background:new 0 0 49.999 49.999;"
	 xml:space="preserve">
<g>
	<path d="M45.265,13.975C43.69,8.1,39.928,3.194,34.671,0.159c-0.568-0.327-1.302-0.134-1.633,0.438
		c-0.22,0.381-0.189,0.821,0.011,1.178l-1.29,2.232c-0.005,0.009,0,0.021-0.005,0.031c-8.498-4.545-19.15-1.561-24.002,6.84
		s-2.109,19.12,6.079,24.208c-0.009,0.011-0.021,0.009-0.026,0.02l-1.18,2.043c-2.623-1.615-4.809-3.729-6.466-6.329
		c-0.356-0.558-1.099-0.718-1.652-0.364c-0.559,0.354-0.723,1.095-0.369,1.652c1.948,3.052,4.643,5.626,7.793,7.444
		c3.154,1.823,6.632,2.795,10.174,2.977v3.88H11.331c-0.992,0-1.795,0.804-1.795,1.795c0,0.99,0.803,1.796,1.795,1.796H35.27
		c0.992,0,1.795-0.806,1.795-1.796c0-0.992-0.803-1.795-1.795-1.795H24.499V42.52c1.564-0.086,3.135-0.288,4.69-0.704
		c5.872-1.575,10.775-5.336,13.807-10.589C46.029,25.975,46.833,19.847,45.265,13.975z M32.958,8.111
		c0.959,1.454,1.403,3.426,1.351,5.688c-0.996-0.098-1.972-0.271-2.927-0.546C32.116,11.432,32.714,9.621,32.958,8.111z
		 M38.011,15.71c0.962,3.429,0.734,7.188-0.854,10.613l-3.732-2.156c1.465-2.821,2.38-5.666,2.734-8.304
		C36.772,15.842,37.393,15.792,38.011,15.71z M36.219,11.678c0.424,0.675,0.785,1.379,1.098,2.106
		c-0.344,0.03-0.685,0.06-1.019,0.078C36.322,13.108,36.296,12.376,36.219,11.678z M25.97,19.864l-4.006-2.316
		c1.175-1.965,2.303-3.675,3.351-5.124c0.531,0.396,1.075,0.766,1.646,1.095c0.565,0.328,1.164,0.614,1.771,0.877
		C28.002,16.029,27.084,17.86,25.97,19.864z M30.6,15.086c1.149,0.342,2.346,0.588,3.535,0.695
		c-0.331,2.344-1.139,4.882-2.433,7.392l-4.014-2.317C28.416,19.551,29.556,17.404,30.6,15.086z M24.64,22.163
		c-1.176,1.965-2.306,3.675-3.352,5.125c-0.532-0.396-1.079-0.768-1.646-1.096c-0.57-0.328-1.163-0.613-1.773-0.878
		c0.732-1.631,1.65-3.463,2.764-5.466L24.64,22.163z M15.997,24.621c-1.139-0.346-2.299-0.58-3.492-0.689
		c0.32-2.361,1.125-4.903,2.395-7.394l4.008,2.315C18.186,20.159,17.046,22.309,15.997,24.621z M17.094,27.146
		c0.531,0.234,1.05,0.48,1.551,0.771c0.506,0.29,0.977,0.613,1.442,0.958c-1.915,2.424-3.43,3.864-4.256,4.312
		c-0.058-0.031-0.124-0.05-0.181-0.083c-0.06-0.033-0.105-0.079-0.16-0.111C15.463,32.052,15.953,30.019,17.094,27.146z
		 M21.625,30.156c0.716,0.689,1.351,1.446,1.937,2.261c-1.935,1.177-3.864,1.778-5.602,1.675
		C19.144,33.125,20.413,31.702,21.625,30.156z M24.606,34.105c0.153,0.301,0.296,0.61,0.441,0.92
		c-0.783,0.097-1.571,0.137-2.368,0.104C23.32,34.848,23.968,34.506,24.606,34.105z M22.82,28.561
		c1.481-2.062,2.776-4.122,3.54-5.402l4.016,2.314c-1.527,2.375-3.323,4.342-5.188,5.804C24.502,30.297,23.689,29.384,22.82,28.561z
		 M32.096,26.467l3.734,2.155c-2.173,3.088-5.313,5.165-8.765,6.045c-0.24-0.577-0.507-1.137-0.797-1.684
		C28.379,31.36,30.386,29.146,32.096,26.467z M30.77,6.524c0.06,0.031,0.118,0.048,0.185,0.083c0.053,0.033,0.102,0.08,0.157,0.114
		c0.026,0.938-0.463,2.971-1.604,5.84c-0.531-0.23-1.046-0.478-1.551-0.768c-0.502-0.289-0.976-0.613-1.441-0.959
		C28.429,8.412,29.943,6.972,30.77,6.524z M24.978,9.554c-0.707-0.673-1.33-1.415-1.903-2.211c1.908-1.165,3.836-1.773,5.542-1.707
		C27.434,6.6,26.175,8.02,24.978,9.554z M23.921,4.581c-0.643,0.279-1.291,0.624-1.928,1.023c-0.15-0.299-0.298-0.608-0.441-0.917
		C22.335,4.589,23.125,4.55,23.921,4.581z M23.775,11.148c-1.479,2.065-2.771,4.125-3.54,5.404l-4.01-2.315
		c1.521-2.345,3.32-4.313,5.206-5.771C22.125,9.446,22.909,10.333,23.775,11.148z M19.537,5.044c0.239,0.577,0.505,1.136,0.795,1.68
		c-2.109,1.625-4.117,3.838-5.833,6.517l-3.728-2.154C12.939,7.999,16.085,5.924,19.537,5.044z M9.287,25.928
		c0.343-0.029,0.683-0.06,1.018-0.078c-0.029,0.75-0.001,1.482,0.08,2.184C9.958,27.357,9.598,26.653,9.287,25.928z M8.593,24.002
		c-0.965-3.429-0.74-7.191,0.853-10.613l3.729,2.154c-1.462,2.823-2.377,5.669-2.729,8.308C9.829,23.87,9.21,23.92,8.593,24.002z
		 M12.352,25.916c0.976,0.097,1.929,0.268,2.868,0.542c-0.73,1.806-1.331,3.604-1.575,5.108
		C12.732,30.125,12.295,28.149,12.352,25.916z M40.925,30.031c-2.715,4.698-7.102,8.063-12.356,9.472
		c-5.059,1.356-10.326,0.723-14.909-1.749l1.184-2.05c0.005-0.01,0-0.021,0.005-0.031c8.498,4.545,19.15,1.562,24.003-6.839
		c4.85-8.4,2.109-19.117-6.077-24.205c0.008-0.011,0.021-0.015,0.023-0.023l1.185-2.048c4.434,2.733,7.615,6.976,8.971,12.037
		C44.355,19.848,43.636,25.33,40.925,30.031z"/>
</g>
<g>
</g>
<g>
</g>
<g>
</g>
<g>
</g>
<g>
</g>
<g>
</g>
<g>
</g>
<g>
</g>
<g>
</g>
<g>
</g>
<g>
</g>
<g>
</g>
<g>
</g>
<g>
</g>
<g>
</g>
</svg>
